<?xml version="1.0" encoding="utf-8" standalone="no"?>
<!DOCTYPE svg PUBLIC "-//W3C//DTD SVG 1.1//EN"
  "http://www.w3.org/Graphics/SVG/1.1/DTD/svg11.dtd">
<!-- Created with matplotlib (https://matplotlib.org/) -->
<svg height="93.677813pt" version="1.1" viewBox="0 0 125.277187 93.677813" width="125.277187pt" xmlns="http://www.w3.org/2000/svg" xmlns:xlink="http://www.w3.org/1999/xlink">
 <metadata>
  <rdf:RDF xmlns:cc="http://creativecommons.org/ns#" xmlns:dc="http://purl.org/dc/elements/1.1/" xmlns:rdf="http://www.w3.org/1999/02/22-rdf-syntax-ns#">
   <cc:Work>
    <dc:type rdf:resource="http://purl.org/dc/dcmitype/StillImage"/>
    <dc:date>2025-09-20T17:09:21.057085</dc:date>
    <dc:format>image/svg+xml</dc:format>
    <dc:creator>
     <cc:Agent>
      <dc:title>Matplotlib v3.3.4, https://matplotlib.org/</dc:title>
     </cc:Agent>
    </dc:creator>
   </cc:Work>
  </rdf:RDF>
 </metadata>
 <defs>
  <style type="text/css">*{stroke-linecap:butt;stroke-linejoin:round;}</style>
 </defs>
 <g id="figure_1">
  <g id="patch_1">
   <path d="M 0 93.677813 
L 125.277188 93.677813 
L 125.277188 0 
L 0 0 
z
" style="fill:none;"/>
  </g>
  <g id="axes_1">
   <g id="patch_2">
    <path d="M 32.027188 64.36 
L 118.077187 64.36 
L 118.077187 7.2 
L 32.027188 7.2 
z
" style="fill:none;"/>
   </g>
   <g id="PolyCollection_1">
    <defs>
     <path d="M 32.923542 -32.959684 
L 32.923542 -31.034973 
L 33.819896 -31.174296 
L 34.71625 -31.328011 
L 35.612604 -31.6764 
L 36.508958 -32.331883 
L 37.405313 -33.182881 
L 38.301667 -34.300275 
L 39.198021 -35.609304 
L 40.094375 -37.252645 
L 40.990729 -39.008395 
L 41.887083 -41.068125 
L 42.783438 -42.876596 
L 43.679792 -45.068695 
L 44.576146 -46.258005 
L 45.4725 -48.329335 
L 46.368854 -49.60501 
L 47.265208 -50.745743 
L 48.161563 -52.111439 
L 49.057917 -53.378739 
L 49.954271 -54.547851 
L 50.850625 -56.074231 
L 51.746979 -57.313572 
L 52.643333 -58.268153 
L 53.539687 -59.452705 
L 54.436042 -60.598609 
L 55.332396 -61.706047 
L 56.22875 -62.454007 
L 57.125104 -63.474629 
L 58.021458 -64.419971 
L 58.917812 -65.942964 
L 59.814167 -67.169032 
L 60.710521 -68.111882 
L 61.606875 -68.9962 
L 62.503229 -69.35268 
L 63.399583 -70.071266 
L 64.295937 -70.621766 
L 65.192292 -71.004864 
L 66.088646 -71.591467 
L 66.985 -71.942792 
L 67.881354 -72.453748 
L 68.777708 -72.734592 
L 69.674062 -73.217145 
L 70.570417 -73.419846 
L 71.466771 -74.034016 
L 72.363125 -74.394751 
L 73.259479 -75.115441 
L 74.155833 -75.782922 
L 75.052188 -76.167516 
L 75.948542 -76.316114 
L 76.844896 -76.715123 
L 77.74125 -76.753268 
L 78.637604 -76.936697 
L 79.533958 -76.971297 
L 80.430312 -77.182059 
L 81.326667 -77.510091 
L 82.223021 -77.822945 
L 83.119375 -78.08378 
L 84.015729 -78.192238 
L 84.912083 -77.885677 
L 85.808437 -77.897099 
L 86.704792 -77.978413 
L 87.601146 -78.092531 
L 88.4975 -77.721282 
L 89.393854 -77.653994 
L 90.290208 -77.793651 
L 91.186562 -77.718745 
L 92.082917 -77.709887 
L 92.979271 -77.608856 
L 93.875625 -77.630838 
L 94.771979 -77.430422 
L 95.668333 -77.211063 
L 96.564687 -77.21943 
L 97.461042 -77.063615 
L 98.357396 -76.73733 
L 99.25375 -76.916435 
L 100.150104 -77.060247 
L 101.046458 -77.100105 
L 101.942813 -76.74023 
L 102.839167 -76.761533 
L 103.735521 -76.632222 
L 104.631875 -76.323125 
L 105.528229 -76.088298 
L 106.424583 -75.924388 
L 107.320937 -75.79973 
L 108.217292 -76.145938 
L 109.113646 -76.415549 
L 110.01 -76.175364 
L 110.906354 -76.131876 
L 111.802708 -75.630408 
L 112.699062 -75.521746 
L 113.595417 -75.351877 
L 114.491771 -75.165539 
L 115.388125 -75.370285 
L 116.284479 -75.309101 
L 117.180833 -75.067008 
L 118.077187 -75.149601 
L 118.973542 -75.330125 
L 119.869896 -75.530303 
L 120.76625 -75.196413 
L 121.662604 -75.124777 
L 122.558958 -75.12882 
L 123.455312 -74.899428 
L 123.455312 -75.792858 
L 123.455312 -75.792858 
L 122.558958 -76.033957 
L 121.662604 -76.233654 
L 120.76625 -76.326451 
L 119.869896 -76.51502 
L 118.973542 -76.662203 
L 118.077187 -76.061781 
L 117.180833 -75.932348 
L 116.284479 -76.134262 
L 115.388125 -76.293195 
L 114.491771 -76.484246 
L 113.595417 -76.564703 
L 112.699062 -76.70224 
L 111.802708 -76.705611 
L 110.906354 -77.355508 
L 110.01 -77.418963 
L 109.113646 -77.344237 
L 108.217292 -77.398896 
L 107.320937 -77.129243 
L 106.424583 -77.21449 
L 105.528229 -77.319339 
L 104.631875 -77.460708 
L 103.735521 -77.745116 
L 102.839167 -78.054967 
L 101.942813 -78.048654 
L 101.046458 -78.022883 
L 100.150104 -78.266822 
L 99.25375 -78.241632 
L 98.357396 -78.133033 
L 97.461042 -78.393658 
L 96.564687 -78.232513 
L 95.668333 -78.554711 
L 94.771979 -78.629093 
L 93.875625 -78.941974 
L 92.979271 -78.900107 
L 92.082917 -79.017181 
L 91.186562 -79.024879 
L 90.290208 -79.115214 
L 89.393854 -78.813511 
L 88.4975 -79.026035 
L 87.601146 -79.545989 
L 86.704792 -79.69613 
L 85.808437 -79.336476 
L 84.912083 -79.637777 
L 84.015729 -80.009764 
L 83.119375 -80.14123 
L 82.223021 -80.088433 
L 81.326667 -80.369879 
L 80.430312 -80.222485 
L 79.533958 -80.3745 
L 78.637604 -80.666569 
L 77.74125 -80.826839 
L 76.844896 -81.02736 
L 75.948542 -80.990141 
L 75.052188 -80.375855 
L 74.155833 -80.022117 
L 73.259479 -78.96346 
L 72.363125 -78.384448 
L 71.466771 -77.605135 
L 70.570417 -77.049058 
L 69.674062 -76.316944 
L 68.777708 -75.636008 
L 67.881354 -75.048443 
L 66.985 -74.362155 
L 66.088646 -73.853389 
L 65.192292 -73.116265 
L 64.295937 -72.620443 
L 63.399583 -71.815887 
L 62.503229 -70.906292 
L 61.606875 -69.870486 
L 60.710521 -68.735698 
L 59.814167 -67.909262 
L 58.917812 -66.733636 
L 58.021458 -65.827522 
L 57.125104 -65.08903 
L 56.22875 -63.981723 
L 55.332396 -62.99326 
L 54.436042 -62.160169 
L 53.539687 -60.87841 
L 52.643333 -59.899962 
L 51.746979 -58.737878 
L 50.850625 -57.868903 
L 49.954271 -56.589424 
L 49.057917 -55.446609 
L 48.161563 -54.119235 
L 47.265208 -52.594448 
L 46.368854 -51.502134 
L 45.4725 -50.018705 
L 44.576146 -48.544852 
L 43.679792 -46.786112 
L 42.783438 -45.3 
L 41.887083 -43.17733 
L 40.990729 -42.278958 
L 40.094375 -40.359487 
L 39.198021 -38.268584 
L 38.301667 -36.760643 
L 37.405313 -35.123454 
L 36.508958 -34.158626 
L 35.612604 -33.401381 
L 34.71625 -33.039937 
L 33.819896 -32.898652 
L 32.923542 -32.959684 
z
" id="md3c0c3515a" style="stroke:#008000;stroke-opacity:0.3;"/>
    </defs>
    <g clip-path="url(#pb01b1de5b2)">
     <use style="fill:#008000;fill-opacity:0.3;stroke:#008000;stroke-opacity:0.3;" x="0" xlink:href="#md3c0c3515a" y="93.677813"/>
    </g>
   </g>
   <g id="PolyCollection_2">
    <defs>
     <path d="M 32.923542 -32.670005 
L 32.923542 -31.052133 
L 33.819896 -31.100661 
L 34.71625 -31.437149 
L 35.612604 -31.683097 
L 36.508958 -31.92092 
L 37.405313 -32.120618 
L 38.301667 -32.107583 
L 39.198021 -32.275078 
L 40.094375 -32.581529 
L 40.990729 -32.886228 
L 41.887083 -32.953371 
L 42.783438 -33.175262 
L 43.679792 -33.61684 
L 44.576146 -33.607043 
L 45.4725 -33.577323 
L 46.368854 -33.53519 
L 47.265208 -33.474045 
L 48.161563 -33.41569 
L 49.057917 -33.330901 
L 49.954271 -33.341342 
L 50.850625 -33.288756 
L 51.746979 -33.310425 
L 52.643333 -33.249931 
L 53.539687 -33.303569 
L 54.436042 -33.306035 
L 55.332396 -33.263284 
L 56.22875 -33.279481 
L 57.125104 -33.247913 
L 58.021458 -33.343911 
L 58.917812 -33.456812 
L 59.814167 -33.588574 
L 60.710521 -33.757189 
L 61.606875 -33.955257 
L 62.503229 -34.147388 
L 63.399583 -34.386335 
L 64.295937 -34.582854 
L 65.192292 -34.823359 
L 66.088646 -35.019292 
L 66.985 -35.219115 
L 67.881354 -35.504827 
L 68.777708 -35.752999 
L 69.674062 -36.05498 
L 70.570417 -36.205829 
L 71.466771 -36.364585 
L 72.363125 -36.348965 
L 73.259479 -36.309627 
L 74.155833 -36.337137 
L 75.052188 -36.289219 
L 75.948542 -36.280972 
L 76.844896 -36.217109 
L 77.74125 -36.220584 
L 78.637604 -36.247639 
L 79.533958 -36.21775 
L 80.430312 -36.228172 
L 81.326667 -36.218867 
L 82.223021 -36.265407 
L 83.119375 -36.312603 
L 84.015729 -36.271879 
L 84.912083 -36.254373 
L 85.808437 -36.206592 
L 86.704792 -36.267986 
L 87.601146 -36.222742 
L 88.4975 -36.157014 
L 89.393854 -36.160725 
L 90.290208 -36.166533 
L 91.186562 -36.168028 
L 92.082917 -36.152177 
L 92.979271 -36.112359 
L 93.875625 -36.128093 
L 94.771979 -36.110624 
L 95.668333 -36.072223 
L 96.564687 -36.045717 
L 97.461042 -36.035347 
L 98.357396 -36.054679 
L 99.25375 -36.042637 
L 100.150104 -36.058364 
L 101.046458 -35.920287 
L 101.942813 -35.947431 
L 102.839167 -35.910372 
L 103.735521 -35.895632 
L 104.631875 -35.870852 
L 105.528229 -35.851615 
L 106.424583 -35.817194 
L 107.320937 -35.778824 
L 108.217292 -35.787246 
L 109.113646 -35.774425 
L 110.01 -35.752707 
L 110.906354 -35.731018 
L 111.802708 -35.62384 
L 112.699062 -35.616101 
L 113.595417 -35.638355 
L 114.491771 -35.574635 
L 115.388125 -35.547949 
L 116.284479 -35.541345 
L 117.180833 -35.462007 
L 118.077187 -35.456473 
L 118.973542 -35.587625 
L 119.869896 -35.538812 
L 120.76625 -35.446686 
L 121.662604 -35.45915 
L 122.558958 -35.437605 
L 123.455312 -35.406481 
L 123.455312 -37.117393 
L 123.455312 -37.117393 
L 122.558958 -37.15923 
L 121.662604 -37.230053 
L 120.76625 -37.26194 
L 119.869896 -37.308404 
L 118.973542 -37.333946 
L 118.077187 -37.341523 
L 117.180833 -37.355224 
L 116.284479 -37.419374 
L 115.388125 -37.4194 
L 114.491771 -37.48071 
L 113.595417 -37.546351 
L 112.699062 -37.59968 
L 111.802708 -37.665742 
L 110.906354 -37.778723 
L 110.01 -37.784539 
L 109.113646 -37.817833 
L 108.217292 -37.862382 
L 107.320937 -37.899279 
L 106.424583 -37.961211 
L 105.528229 -37.943693 
L 104.631875 -38.037792 
L 103.735521 -38.124298 
L 102.839167 -38.183094 
L 101.942813 -38.211672 
L 101.046458 -38.269227 
L 100.150104 -38.298481 
L 99.25375 -38.321915 
L 98.357396 -38.327105 
L 97.461042 -38.396343 
L 96.564687 -38.415679 
L 95.668333 -38.466729 
L 94.771979 -38.521079 
L 93.875625 -38.606663 
L 92.979271 -38.617052 
L 92.082917 -38.677416 
L 91.186562 -38.680773 
L 90.290208 -38.69671 
L 89.393854 -38.686442 
L 88.4975 -38.720336 
L 87.601146 -38.781225 
L 86.704792 -38.778606 
L 85.808437 -38.813085 
L 84.912083 -38.899222 
L 84.015729 -38.890967 
L 83.119375 -38.908981 
L 82.223021 -38.887784 
L 81.326667 -38.935519 
L 80.430312 -38.89041 
L 79.533958 -38.905763 
L 78.637604 -38.897192 
L 77.74125 -38.91558 
L 76.844896 -39.000173 
L 75.948542 -39.08021 
L 75.052188 -39.046705 
L 74.155833 -39.055428 
L 73.259479 -39.096796 
L 72.363125 -39.012161 
L 71.466771 -38.833793 
L 70.570417 -38.650521 
L 69.674062 -38.361727 
L 68.777708 -38.101055 
L 67.881354 -37.844865 
L 66.985 -37.562114 
L 66.088646 -37.271961 
L 65.192292 -36.978525 
L 64.295937 -36.727638 
L 63.399583 -36.460473 
L 62.503229 -36.228496 
L 61.606875 -36.00208 
L 60.710521 -35.763484 
L 59.814167 -35.545171 
L 58.917812 -35.432176 
L 58.021458 -35.276996 
L 57.125104 -35.053205 
L 56.22875 -34.971118 
L 55.332396 -34.815244 
L 54.436042 -34.690853 
L 53.539687 -34.602914 
L 52.643333 -34.486475 
L 51.746979 -34.472594 
L 50.850625 -34.440639 
L 49.954271 -34.342588 
L 49.057917 -34.310727 
L 48.161563 -34.249653 
L 47.265208 -34.171337 
L 46.368854 -34.075381 
L 45.4725 -34.021589 
L 44.576146 -33.945414 
L 43.679792 -33.874494 
L 42.783438 -33.663286 
L 41.887083 -33.460507 
L 40.990729 -33.297196 
L 40.094375 -33.035802 
L 39.198021 -32.787298 
L 38.301667 -32.662436 
L 37.405313 -32.476218 
L 36.508958 -32.323245 
L 35.612604 -32.155 
L 34.71625 -32.496878 
L 33.819896 -32.907252 
L 32.923542 -32.670005 
z
" id="mb279f7ab22" style="stroke:#ff0000;stroke-opacity:0.3;"/>
    </defs>
    <g clip-path="url(#pb01b1de5b2)">
     <use style="fill:#ff0000;fill-opacity:0.3;stroke:#ff0000;stroke-opacity:0.3;" x="0" xlink:href="#mb279f7ab22" y="93.677813"/>
    </g>
   </g>
   <g id="PolyCollection_3">
    <defs>
     <path d="M 32.923542 -33.213219 
L 32.923542 -31.117513 
L 33.819896 -30.910398 
L 34.71625 -31.079505 
L 35.612604 -31.285278 
L 36.508958 -31.79837 
L 37.405313 -32.499051 
L 38.301667 -33.320596 
L 39.198021 -34.478806 
L 40.094375 -36.425868 
L 40.990729 -38.323427 
L 41.887083 -39.83011 
L 42.783438 -41.463119 
L 43.679792 -42.457829 
L 44.576146 -44.487595 
L 45.4725 -45.128779 
L 46.368854 -46.113754 
L 47.265208 -47.152848 
L 48.161563 -47.771931 
L 49.057917 -48.113294 
L 49.954271 -48.789356 
L 50.850625 -49.461798 
L 51.746979 -49.728221 
L 52.643333 -49.943896 
L 53.539687 -50.17746 
L 54.436042 -50.105043 
L 55.332396 -49.953013 
L 56.22875 -50.070417 
L 57.125104 -49.694792 
L 58.021458 -49.498308 
L 58.917812 -49.245903 
L 59.814167 -49.063196 
L 60.710521 -49.018688 
L 61.606875 -48.861949 
L 62.503229 -49.096717 
L 63.399583 -49.062445 
L 64.295937 -49.001518 
L 65.192292 -49.150514 
L 66.088646 -48.993177 
L 66.985 -48.952716 
L 67.881354 -48.992212 
L 68.777708 -49.092549 
L 69.674062 -49.118657 
L 70.570417 -49.271877 
L 71.466771 -49.415279 
L 72.363125 -49.635335 
L 73.259479 -49.642297 
L 74.155833 -49.675374 
L 75.052188 -49.524924 
L 75.948542 -49.297704 
L 76.844896 -49.079391 
L 77.74125 -48.871046 
L 78.637604 -48.797908 
L 79.533958 -48.582264 
L 80.430312 -48.433604 
L 81.326667 -48.415476 
L 82.223021 -48.391638 
L 83.119375 -48.390405 
L 84.015729 -48.309412 
L 84.912083 -48.137493 
L 85.808437 -47.900745 
L 86.704792 -47.952227 
L 87.601146 -47.862708 
L 88.4975 -47.630239 
L 89.393854 -47.629475 
L 90.290208 -47.570821 
L 91.186562 -47.606521 
L 92.082917 -47.449028 
L 92.979271 -47.332955 
L 93.875625 -47.347095 
L 94.771979 -47.210687 
L 95.668333 -47.185001 
L 96.564687 -47.083188 
L 97.461042 -47.015145 
L 98.357396 -46.963722 
L 99.25375 -46.981191 
L 100.150104 -46.967611 
L 101.046458 -46.743716 
L 101.942813 -46.616236 
L 102.839167 -46.661647 
L 103.735521 -46.52698 
L 104.631875 -46.47415 
L 105.528229 -46.369144 
L 106.424583 -46.298955 
L 107.320937 -46.23667 
L 108.217292 -46.224677 
L 109.113646 -46.192282 
L 110.01 -46.150648 
L 110.906354 -46.124175 
L 111.802708 -45.809487 
L 112.699062 -45.679965 
L 113.595417 -45.71764 
L 114.491771 -45.582182 
L 115.388125 -45.562593 
L 116.284479 -45.497289 
L 117.180833 -45.231412 
L 118.077187 -45.241401 
L 118.973542 -45.529276 
L 119.869896 -45.411222 
L 120.76625 -45.281558 
L 121.662604 -45.157239 
L 122.558958 -45.126429 
L 123.455312 -45.02911 
L 123.455312 -49.423475 
L 123.455312 -49.423475 
L 122.558958 -49.595546 
L 121.662604 -49.878746 
L 120.76625 -49.957469 
L 119.869896 -49.991696 
L 118.973542 -50.012751 
L 118.077187 -50.054422 
L 117.180833 -50.026231 
L 116.284479 -49.930167 
L 115.388125 -49.985562 
L 114.491771 -50.033625 
L 113.595417 -50.170456 
L 112.699062 -50.322404 
L 111.802708 -50.393994 
L 110.906354 -50.827182 
L 110.01 -50.882202 
L 109.113646 -50.844326 
L 108.217292 -50.903958 
L 107.320937 -50.625353 
L 106.424583 -50.664114 
L 105.528229 -50.839702 
L 104.631875 -50.985975 
L 103.735521 -51.431627 
L 102.839167 -51.57452 
L 101.942813 -51.668947 
L 101.046458 -51.704477 
L 100.150104 -51.672372 
L 99.25375 -51.757646 
L 98.357396 -51.447513 
L 97.461042 -51.439009 
L 96.564687 -51.748013 
L 95.668333 -51.867006 
L 94.771979 -52.284626 
L 93.875625 -52.350475 
L 92.979271 -52.478943 
L 92.082917 -52.587349 
L 91.186562 -52.451479 
L 90.290208 -52.57681 
L 89.393854 -52.369205 
L 88.4975 -52.445227 
L 87.601146 -52.571317 
L 86.704792 -52.733358 
L 85.808437 -52.762362 
L 84.912083 -52.883814 
L 84.015729 -53.274668 
L 83.119375 -53.384724 
L 82.223021 -53.293814 
L 81.326667 -53.379365 
L 80.430312 -53.25229 
L 79.533958 -53.378098 
L 78.637604 -53.532809 
L 77.74125 -53.723632 
L 76.844896 -53.974522 
L 75.948542 -54.074029 
L 75.052188 -53.931358 
L 74.155833 -53.822034 
L 73.259479 -53.440322 
L 72.363125 -53.243915 
L 71.466771 -53.112659 
L 70.570417 -53.010945 
L 69.674062 -52.833572 
L 68.777708 -52.940393 
L 67.881354 -52.970991 
L 66.985 -53.097374 
L 66.088646 -52.964537 
L 65.192292 -52.96679 
L 64.295937 -52.806103 
L 63.399583 -52.77661 
L 62.503229 -52.466403 
L 61.606875 -52.50659 
L 60.710521 -52.463066 
L 59.814167 -52.461853 
L 58.917812 -52.518986 
L 58.021458 -52.505708 
L 57.125104 -52.910624 
L 56.22875 -53.054032 
L 55.332396 -53.066399 
L 54.436042 -52.850175 
L 53.539687 -52.629132 
L 52.643333 -52.506819 
L 51.746979 -52.331198 
L 50.850625 -52.05266 
L 49.954271 -51.564641 
L 49.057917 -51.148839 
L 48.161563 -50.393475 
L 47.265208 -49.696277 
L 46.368854 -48.601282 
L 45.4725 -47.737944 
L 44.576146 -46.784675 
L 43.679792 -45.284387 
L 42.783438 -44.327508 
L 41.887083 -42.757983 
L 40.990729 -40.78597 
L 40.094375 -38.966363 
L 39.198021 -37.907908 
L 38.301667 -36.727154 
L 37.405313 -35.580802 
L 36.508958 -34.877391 
L 35.612604 -34.441983 
L 34.71625 -34.114498 
L 33.819896 -33.926467 
L 32.923542 -33.213219 
z
" id="mc654ab4d6e" style="stroke:#aa67b2;stroke-opacity:0.3;"/>
    </defs>
    <g clip-path="url(#pb01b1de5b2)">
     <use style="fill:#aa67b2;fill-opacity:0.3;stroke:#aa67b2;stroke-opacity:0.3;" x="0" xlink:href="#mc654ab4d6e" y="93.677813"/>
    </g>
   </g>
   <g id="PolyCollection_4">
    <defs>
     <path d="M 32.923542 -34.217846 
L 32.923542 -30.530155 
L 33.819896 -30.594606 
L 34.71625 -30.729464 
L 35.612604 -31.018727 
L 36.508958 -31.587247 
L 37.405313 -32.248682 
L 38.301667 -32.93611 
L 39.198021 -33.922232 
L 40.094375 -35.44772 
L 40.990729 -37.038103 
L 41.887083 -37.9903 
L 42.783438 -39.607543 
L 43.679792 -41.231225 
L 44.576146 -42.878624 
L 45.4725 -44.727295 
L 46.368854 -45.934005 
L 47.265208 -47.325585 
L 48.161563 -48.174148 
L 49.057917 -49.277537 
L 49.954271 -50.42478 
L 50.850625 -51.721625 
L 51.746979 -52.800641 
L 52.643333 -53.059526 
L 53.539687 -54.122065 
L 54.436042 -55.263933 
L 55.332396 -56.836038 
L 56.22875 -57.832811 
L 57.125104 -58.167756 
L 58.021458 -58.844603 
L 58.917812 -59.652118 
L 59.814167 -60.243765 
L 60.710521 -61.051395 
L 61.606875 -61.503014 
L 62.503229 -62.25854 
L 63.399583 -62.764875 
L 64.295937 -63.111081 
L 65.192292 -63.437397 
L 66.088646 -63.613604 
L 66.985 -63.658865 
L 67.881354 -63.792703 
L 68.777708 -63.592677 
L 69.674062 -63.629826 
L 70.570417 -63.541024 
L 71.466771 -63.58167 
L 72.363125 -63.65035 
L 73.259479 -63.807074 
L 74.155833 -64.170395 
L 75.052188 -64.251293 
L 75.948542 -64.207189 
L 76.844896 -64.162202 
L 77.74125 -63.964736 
L 78.637604 -63.759652 
L 79.533958 -63.275276 
L 80.430312 -63.041672 
L 81.326667 -63.067967 
L 82.223021 -63.025853 
L 83.119375 -63.197666 
L 84.015729 -63.031593 
L 84.912083 -62.613257 
L 85.808437 -62.39898 
L 86.704792 -62.294768 
L 87.601146 -62.18064 
L 88.4975 -61.627007 
L 89.393854 -61.632495 
L 90.290208 -61.571325 
L 91.186562 -61.579146 
L 92.082917 -61.388874 
L 92.979271 -61.254502 
L 93.875625 -61.341444 
L 94.771979 -61.176907 
L 95.668333 -60.872458 
L 96.564687 -60.677456 
L 97.461042 -60.520843 
L 98.357396 -60.513104 
L 99.25375 -60.645156 
L 100.150104 -60.524323 
L 101.046458 -60.06059 
L 101.942813 -60.017328 
L 102.839167 -59.940531 
L 103.735521 -59.758748 
L 104.631875 -59.72557 
L 105.528229 -59.600702 
L 106.424583 -59.326768 
L 107.320937 -59.278958 
L 108.217292 -59.196643 
L 109.113646 -59.250246 
L 110.01 -59.239415 
L 110.906354 -59.037679 
L 111.802708 -58.452491 
L 112.699062 -58.208416 
L 113.595417 -58.379687 
L 114.491771 -58.310416 
L 115.388125 -58.167743 
L 116.284479 -58.145716 
L 117.180833 -57.599506 
L 118.077187 -57.684362 
L 118.973542 -58.09853 
L 119.869896 -58.027779 
L 120.76625 -57.772576 
L 121.662604 -57.610839 
L 122.558958 -57.526165 
L 123.455312 -57.266474 
L 123.455312 -59.272936 
L 123.455312 -59.272936 
L 122.558958 -59.373283 
L 121.662604 -59.744809 
L 120.76625 -59.855717 
L 119.869896 -59.875775 
L 118.973542 -59.899609 
L 118.077187 -59.883561 
L 117.180833 -60.053849 
L 116.284479 -59.81484 
L 115.388125 -60.001121 
L 114.491771 -60.096752 
L 113.595417 -60.303194 
L 112.699062 -60.41148 
L 111.802708 -60.587703 
L 110.906354 -61.027176 
L 110.01 -61.09521 
L 109.113646 -61.028151 
L 108.217292 -61.253972 
L 107.320937 -60.781474 
L 106.424583 -60.98437 
L 105.528229 -61.028176 
L 104.631875 -61.289139 
L 103.735521 -61.751006 
L 102.839167 -62.099436 
L 101.942813 -62.024986 
L 101.046458 -62.201404 
L 100.150104 -62.294932 
L 99.25375 -62.220985 
L 98.357396 -61.958212 
L 97.461042 -62.043666 
L 96.564687 -62.456965 
L 95.668333 -62.633771 
L 94.771979 -63.034861 
L 93.875625 -63.208842 
L 92.979271 -63.182549 
L 92.082917 -63.324634 
L 91.186562 -63.337826 
L 90.290208 -63.429528 
L 89.393854 -63.248953 
L 88.4975 -63.277322 
L 87.601146 -63.761591 
L 86.704792 -63.863332 
L 85.808437 -63.950751 
L 84.912083 -64.312538 
L 84.015729 -64.664745 
L 83.119375 -64.826574 
L 82.223021 -64.695746 
L 81.326667 -64.925851 
L 80.430312 -64.817317 
L 79.533958 -64.965972 
L 78.637604 -65.330657 
L 77.74125 -65.675034 
L 76.844896 -65.982817 
L 75.948542 -66.169226 
L 75.052188 -66.472795 
L 74.155833 -66.311293 
L 73.259479 -65.99569 
L 72.363125 -65.773706 
L 71.466771 -65.811362 
L 70.570417 -65.555509 
L 69.674062 -65.443806 
L 68.777708 -65.240317 
L 67.881354 -65.189186 
L 66.985 -65.322144 
L 66.088646 -64.929787 
L 65.192292 -64.913769 
L 64.295937 -64.426871 
L 63.399583 -63.973443 
L 62.503229 -63.628208 
L 61.606875 -63.304419 
L 60.710521 -63.218195 
L 59.814167 -63.029663 
L 58.917812 -62.877405 
L 58.021458 -62.913423 
L 57.125104 -63.56843 
L 56.22875 -62.569219 
L 55.332396 -61.410082 
L 54.436042 -60.958367 
L 53.539687 -59.642453 
L 52.643333 -59.042497 
L 51.746979 -58.722628 
L 50.850625 -57.779732 
L 49.954271 -56.672881 
L 49.057917 -55.828826 
L 48.161563 -54.665634 
L 47.265208 -53.418017 
L 46.368854 -51.95597 
L 45.4725 -50.612092 
L 44.576146 -49.283163 
L 43.679792 -47.817687 
L 42.783438 -45.90056 
L 41.887083 -44.506687 
L 40.990729 -42.113604 
L 40.094375 -40.720751 
L 39.198021 -39.478702 
L 38.301667 -37.873569 
L 37.405313 -36.490139 
L 36.508958 -35.640885 
L 35.612604 -35.032512 
L 34.71625 -34.599532 
L 33.819896 -34.34672 
L 32.923542 -34.217846 
z
" id="mc798754e7f" style="stroke:#ff9200;stroke-opacity:0.3;"/>
    </defs>
    <g clip-path="url(#pb01b1de5b2)">
     <use style="fill:#ff9200;fill-opacity:0.3;stroke:#ff9200;stroke-opacity:0.3;" x="0" xlink:href="#mc798754e7f" y="93.677813"/>
    </g>
   </g>
   <g id="matplotlib.axis_1">
    <g id="xtick_1">
     <g id="line2d_1">
      <path clip-path="url(#pb01b1de5b2)" d="M 32.027188 64.36 
L 32.027188 7.2 
" style="fill:none;stroke:#b0b0b0;stroke-dasharray:1.85,0.8;stroke-dashoffset:0;stroke-opacity:0.6;stroke-width:0.5;"/>
     </g>
     <g id="line2d_2">
      <defs>
       <path d="M 0 0 
L 0 3.5 
" id="m39c64f01bf" style="stroke:#000000;stroke-width:0.8;"/>
      </defs>
      <g>
       <use style="stroke:#000000;stroke-width:0.8;" x="32.027188" xlink:href="#m39c64f01bf" y="64.36"/>
      </g>
     </g>
     <g id="text_1">
      <!-- 0 -->
      <g transform="translate(30.358906 75.654688)scale(0.06 -0.06)">
       <defs>
        <path d="M 4.15625 35.296875 
Q 4.15625 48 6.765625 55.734375 
Q 9.375 63.484375 14.515625 67.671875 
Q 19.671875 71.875 27.484375 71.875 
Q 33.25 71.875 37.59375 69.546875 
Q 41.9375 67.234375 44.765625 62.859375 
Q 47.609375 58.5 49.21875 52.21875 
Q 50.828125 45.953125 50.828125 35.296875 
Q 50.828125 22.703125 48.234375 14.96875 
Q 45.65625 7.234375 40.5 3 
Q 35.359375 -1.21875 27.484375 -1.21875 
Q 17.140625 -1.21875 11.234375 6.203125 
Q 4.15625 15.140625 4.15625 35.296875 
z
M 13.1875 35.296875 
Q 13.1875 17.671875 17.3125 11.828125 
Q 21.4375 6 27.484375 6 
Q 33.546875 6 37.671875 11.859375 
Q 41.796875 17.71875 41.796875 35.296875 
Q 41.796875 52.984375 37.671875 58.78125 
Q 33.546875 64.59375 27.390625 64.59375 
Q 21.34375 64.59375 17.71875 59.46875 
Q 13.1875 52.9375 13.1875 35.296875 
z
" id="ArialMT-48"/>
       </defs>
       <use xlink:href="#ArialMT-48"/>
      </g>
     </g>
    </g>
    <g id="xtick_2">
     <g id="line2d_3">
      <path clip-path="url(#pb01b1de5b2)" d="M 49.954271 64.36 
L 49.954271 7.2 
" style="fill:none;stroke:#b0b0b0;stroke-dasharray:1.85,0.8;stroke-dashoffset:0;stroke-opacity:0.6;stroke-width:0.5;"/>
     </g>
     <g id="line2d_4">
      <g>
       <use style="stroke:#000000;stroke-width:0.8;" x="49.954271" xlink:href="#m39c64f01bf" y="64.36"/>
      </g>
     </g>
     <g id="text_2">
      <!-- 200 -->
      <g transform="translate(44.949427 75.654688)scale(0.06 -0.06)">
       <defs>
        <path d="M 50.34375 8.453125 
L 50.34375 0 
L 3.03125 0 
Q 2.9375 3.171875 4.046875 6.109375 
Q 5.859375 10.9375 9.828125 15.625 
Q 13.8125 20.3125 21.34375 26.46875 
Q 33.015625 36.03125 37.109375 41.625 
Q 41.21875 47.21875 41.21875 52.203125 
Q 41.21875 57.421875 37.46875 61 
Q 33.734375 64.59375 27.734375 64.59375 
Q 21.390625 64.59375 17.578125 60.78125 
Q 13.765625 56.984375 13.71875 50.25 
L 4.6875 51.171875 
Q 5.609375 61.28125 11.65625 66.578125 
Q 17.71875 71.875 27.9375 71.875 
Q 38.234375 71.875 44.234375 66.15625 
Q 50.25 60.453125 50.25 52 
Q 50.25 47.703125 48.484375 43.546875 
Q 46.734375 39.40625 42.65625 34.8125 
Q 38.578125 30.21875 29.109375 22.21875 
Q 21.1875 15.578125 18.9375 13.203125 
Q 16.703125 10.84375 15.234375 8.453125 
z
" id="ArialMT-50"/>
       </defs>
       <use xlink:href="#ArialMT-50"/>
       <use x="55.615234" xlink:href="#ArialMT-48"/>
       <use x="111.230469" xlink:href="#ArialMT-48"/>
      </g>
     </g>
    </g>
    <g id="xtick_3">
     <g id="line2d_5">
      <path clip-path="url(#pb01b1de5b2)" d="M 67.881354 64.36 
L 67.881354 7.2 
" style="fill:none;stroke:#b0b0b0;stroke-dasharray:1.85,0.8;stroke-dashoffset:0;stroke-opacity:0.6;stroke-width:0.5;"/>
     </g>
     <g id="line2d_6">
      <g>
       <use style="stroke:#000000;stroke-width:0.8;" x="67.881354" xlink:href="#m39c64f01bf" y="64.36"/>
      </g>
     </g>
     <g id="text_3">
      <!-- 400 -->
      <g transform="translate(62.87651 75.654688)scale(0.06 -0.06)">
       <defs>
        <path d="M 32.328125 0 
L 32.328125 17.140625 
L 1.265625 17.140625 
L 1.265625 25.203125 
L 33.9375 71.578125 
L 41.109375 71.578125 
L 41.109375 25.203125 
L 50.78125 25.203125 
L 50.78125 17.140625 
L 41.109375 17.140625 
L 41.109375 0 
z
M 32.328125 25.203125 
L 32.328125 57.46875 
L 9.90625 25.203125 
z
" id="ArialMT-52"/>
       </defs>
       <use xlink:href="#ArialMT-52"/>
       <use x="55.615234" xlink:href="#ArialMT-48"/>
       <use x="111.230469" xlink:href="#ArialMT-48"/>
      </g>
     </g>
    </g>
    <g id="xtick_4">
     <g id="line2d_7">
      <path clip-path="url(#pb01b1de5b2)" d="M 85.808437 64.36 
L 85.808437 7.2 
" style="fill:none;stroke:#b0b0b0;stroke-dasharray:1.85,0.8;stroke-dashoffset:0;stroke-opacity:0.6;stroke-width:0.5;"/>
     </g>
     <g id="line2d_8">
      <g>
       <use style="stroke:#000000;stroke-width:0.8;" x="85.808437" xlink:href="#m39c64f01bf" y="64.36"/>
      </g>
     </g>
     <g id="text_4">
      <!-- 600 -->
      <g transform="translate(80.803594 75.654688)scale(0.06 -0.06)">
       <defs>
        <path d="M 49.75 54.046875 
L 41.015625 53.375 
Q 39.84375 58.546875 37.703125 60.890625 
Q 34.125 64.65625 28.90625 64.65625 
Q 24.703125 64.65625 21.53125 62.3125 
Q 17.390625 59.28125 14.984375 53.46875 
Q 12.59375 47.65625 12.5 36.921875 
Q 15.671875 41.75 20.265625 44.09375 
Q 24.859375 46.4375 29.890625 46.4375 
Q 38.671875 46.4375 44.84375 39.96875 
Q 51.03125 33.5 51.03125 23.25 
Q 51.03125 16.5 48.125 10.71875 
Q 45.21875 4.9375 40.140625 1.859375 
Q 35.0625 -1.21875 28.609375 -1.21875 
Q 17.625 -1.21875 10.6875 6.859375 
Q 3.765625 14.9375 3.765625 33.5 
Q 3.765625 54.25 11.421875 63.671875 
Q 18.109375 71.875 29.4375 71.875 
Q 37.890625 71.875 43.28125 67.140625 
Q 48.6875 62.40625 49.75 54.046875 
z
M 13.875 23.1875 
Q 13.875 18.65625 15.796875 14.5 
Q 17.71875 10.359375 21.1875 8.171875 
Q 24.65625 6 28.46875 6 
Q 34.03125 6 38.03125 10.484375 
Q 42.046875 14.984375 42.046875 22.703125 
Q 42.046875 30.125 38.078125 34.390625 
Q 34.125 38.671875 28.125 38.671875 
Q 22.171875 38.671875 18.015625 34.390625 
Q 13.875 30.125 13.875 23.1875 
z
" id="ArialMT-54"/>
       </defs>
       <use xlink:href="#ArialMT-54"/>
       <use x="55.615234" xlink:href="#ArialMT-48"/>
       <use x="111.230469" xlink:href="#ArialMT-48"/>
      </g>
     </g>
    </g>
    <g id="xtick_5">
     <g id="line2d_9">
      <path clip-path="url(#pb01b1de5b2)" d="M 103.735521 64.36 
L 103.735521 7.2 
" style="fill:none;stroke:#b0b0b0;stroke-dasharray:1.85,0.8;stroke-dashoffset:0;stroke-opacity:0.6;stroke-width:0.5;"/>
     </g>
     <g id="line2d_10">
      <g>
       <use style="stroke:#000000;stroke-width:0.8;" x="103.735521" xlink:href="#m39c64f01bf" y="64.36"/>
      </g>
     </g>
     <g id="text_5">
      <!-- 800 -->
      <g transform="translate(98.730677 75.654688)scale(0.06 -0.06)">
       <defs>
        <path d="M 17.671875 38.8125 
Q 12.203125 40.828125 9.5625 44.53125 
Q 6.9375 48.25 6.9375 53.421875 
Q 6.9375 61.234375 12.546875 66.546875 
Q 18.171875 71.875 27.484375 71.875 
Q 36.859375 71.875 42.578125 66.421875 
Q 48.296875 60.984375 48.296875 53.171875 
Q 48.296875 48.1875 45.671875 44.5 
Q 43.0625 40.828125 37.75 38.8125 
Q 44.34375 36.671875 47.78125 31.875 
Q 51.21875 27.09375 51.21875 20.453125 
Q 51.21875 11.28125 44.71875 5.03125 
Q 38.234375 -1.21875 27.640625 -1.21875 
Q 17.046875 -1.21875 10.546875 5.046875 
Q 4.046875 11.328125 4.046875 20.703125 
Q 4.046875 27.6875 7.59375 32.390625 
Q 11.140625 37.109375 17.671875 38.8125 
z
M 15.921875 53.71875 
Q 15.921875 48.640625 19.1875 45.40625 
Q 22.46875 42.1875 27.6875 42.1875 
Q 32.765625 42.1875 36.015625 45.375 
Q 39.265625 48.578125 39.265625 53.21875 
Q 39.265625 58.0625 35.90625 61.359375 
Q 32.5625 64.65625 27.59375 64.65625 
Q 22.5625 64.65625 19.234375 61.421875 
Q 15.921875 58.203125 15.921875 53.71875 
z
M 13.09375 20.65625 
Q 13.09375 16.890625 14.875 13.375 
Q 16.65625 9.859375 20.171875 7.921875 
Q 23.6875 6 27.734375 6 
Q 34.03125 6 38.125 10.046875 
Q 42.234375 14.109375 42.234375 20.359375 
Q 42.234375 26.703125 38.015625 30.859375 
Q 33.796875 35.015625 27.4375 35.015625 
Q 21.234375 35.015625 17.15625 30.90625 
Q 13.09375 26.8125 13.09375 20.65625 
z
" id="ArialMT-56"/>
       </defs>
       <use xlink:href="#ArialMT-56"/>
       <use x="55.615234" xlink:href="#ArialMT-48"/>
       <use x="111.230469" xlink:href="#ArialMT-48"/>
      </g>
     </g>
    </g>
    <g id="text_6">
     <!-- Time (mins) -->
     <g transform="translate(59.333594 85.215)scale(0.06 -0.06)">
      <defs>
       <path d="M 25.921875 0 
L 25.921875 63.140625 
L 2.34375 63.140625 
L 2.34375 71.578125 
L 59.078125 71.578125 
L 59.078125 63.140625 
L 35.40625 63.140625 
L 35.40625 0 
z
" id="ArialMT-84"/>
       <path d="M 6.640625 61.46875 
L 6.640625 71.578125 
L 15.4375 71.578125 
L 15.4375 61.46875 
z
M 6.640625 0 
L 6.640625 51.859375 
L 15.4375 51.859375 
L 15.4375 0 
z
" id="ArialMT-105"/>
       <path d="M 6.59375 0 
L 6.59375 51.859375 
L 14.453125 51.859375 
L 14.453125 44.578125 
Q 16.890625 48.390625 20.9375 50.703125 
Q 25 53.03125 30.171875 53.03125 
Q 35.9375 53.03125 39.625 50.640625 
Q 43.3125 48.25 44.828125 43.953125 
Q 50.984375 53.03125 60.84375 53.03125 
Q 68.5625 53.03125 72.703125 48.75 
Q 76.859375 44.484375 76.859375 35.59375 
L 76.859375 0 
L 68.109375 0 
L 68.109375 32.671875 
Q 68.109375 37.9375 67.25 40.25 
Q 66.40625 42.578125 64.15625 43.984375 
Q 61.921875 45.40625 58.890625 45.40625 
Q 53.421875 45.40625 49.796875 41.765625 
Q 46.1875 38.140625 46.1875 30.125 
L 46.1875 0 
L 37.40625 0 
L 37.40625 33.6875 
Q 37.40625 39.546875 35.25 42.46875 
Q 33.109375 45.40625 28.21875 45.40625 
Q 24.515625 45.40625 21.359375 43.453125 
Q 18.21875 41.5 16.796875 37.734375 
Q 15.375 33.984375 15.375 26.90625 
L 15.375 0 
z
" id="ArialMT-109"/>
       <path d="M 42.09375 16.703125 
L 51.171875 15.578125 
Q 49.03125 7.625 43.21875 3.21875 
Q 37.40625 -1.171875 28.375 -1.171875 
Q 17 -1.171875 10.328125 5.828125 
Q 3.65625 12.84375 3.65625 25.484375 
Q 3.65625 38.578125 10.390625 45.796875 
Q 17.140625 53.03125 27.875 53.03125 
Q 38.28125 53.03125 44.875 45.953125 
Q 51.46875 38.875 51.46875 26.03125 
Q 51.46875 25.25 51.421875 23.6875 
L 12.75 23.6875 
Q 13.234375 15.140625 17.578125 10.59375 
Q 21.921875 6.0625 28.421875 6.0625 
Q 33.25 6.0625 36.671875 8.59375 
Q 40.09375 11.140625 42.09375 16.703125 
z
M 13.234375 30.90625 
L 42.1875 30.90625 
Q 41.609375 37.453125 38.875 40.71875 
Q 34.671875 45.796875 27.984375 45.796875 
Q 21.921875 45.796875 17.796875 41.75 
Q 13.671875 37.703125 13.234375 30.90625 
z
" id="ArialMT-101"/>
       <path id="ArialMT-32"/>
       <path d="M 23.390625 -21.046875 
Q 16.109375 -11.859375 11.078125 0.4375 
Q 6.0625 12.75 6.0625 25.921875 
Q 6.0625 37.546875 9.8125 48.1875 
Q 14.203125 60.546875 23.390625 72.796875 
L 29.6875 72.796875 
Q 23.78125 62.640625 21.875 58.296875 
Q 18.890625 51.5625 17.1875 44.234375 
Q 15.09375 35.109375 15.09375 25.875 
Q 15.09375 2.390625 29.6875 -21.046875 
z
" id="ArialMT-40"/>
       <path d="M 6.59375 0 
L 6.59375 51.859375 
L 14.5 51.859375 
L 14.5 44.484375 
Q 20.21875 53.03125 31 53.03125 
Q 35.6875 53.03125 39.625 51.34375 
Q 43.5625 49.65625 45.515625 46.921875 
Q 47.46875 44.1875 48.25 40.4375 
Q 48.734375 37.984375 48.734375 31.890625 
L 48.734375 0 
L 39.9375 0 
L 39.9375 31.546875 
Q 39.9375 36.921875 38.90625 39.578125 
Q 37.890625 42.234375 35.28125 43.8125 
Q 32.671875 45.40625 29.15625 45.40625 
Q 23.53125 45.40625 19.453125 41.84375 
Q 15.375 38.28125 15.375 28.328125 
L 15.375 0 
z
" id="ArialMT-110"/>
       <path d="M 3.078125 15.484375 
L 11.765625 16.84375 
Q 12.5 11.625 15.84375 8.84375 
Q 19.1875 6.0625 25.203125 6.0625 
Q 31.25 6.0625 34.171875 8.515625 
Q 37.109375 10.984375 37.109375 14.3125 
Q 37.109375 17.28125 34.515625 19 
Q 32.71875 20.171875 25.53125 21.96875 
Q 15.875 24.421875 12.140625 26.203125 
Q 8.40625 27.984375 6.46875 31.125 
Q 4.546875 34.28125 4.546875 38.09375 
Q 4.546875 41.546875 6.125 44.5 
Q 7.71875 47.46875 10.453125 49.421875 
Q 12.5 50.921875 16.03125 51.96875 
Q 19.578125 53.03125 23.640625 53.03125 
Q 29.734375 53.03125 34.34375 51.265625 
Q 38.96875 49.515625 41.15625 46.5 
Q 43.359375 43.5 44.1875 38.484375 
L 35.59375 37.3125 
Q 35.015625 41.3125 32.203125 43.546875 
Q 29.390625 45.796875 24.265625 45.796875 
Q 18.21875 45.796875 15.625 43.796875 
Q 13.03125 41.796875 13.03125 39.109375 
Q 13.03125 37.40625 14.109375 36.03125 
Q 15.1875 34.625 17.484375 33.6875 
Q 18.796875 33.203125 25.25 31.453125 
Q 34.578125 28.953125 38.25 27.359375 
Q 41.9375 25.78125 44.03125 22.75 
Q 46.140625 19.734375 46.140625 15.234375 
Q 46.140625 10.84375 43.578125 6.953125 
Q 41.015625 3.078125 36.171875 0.953125 
Q 31.34375 -1.171875 25.25 -1.171875 
Q 15.140625 -1.171875 9.84375 3.03125 
Q 4.546875 7.234375 3.078125 15.484375 
z
" id="ArialMT-115"/>
       <path d="M 12.359375 -21.046875 
L 6.0625 -21.046875 
Q 20.65625 2.390625 20.65625 25.875 
Q 20.65625 35.0625 18.5625 44.09375 
Q 16.890625 51.421875 13.921875 58.15625 
Q 12.015625 62.546875 6.0625 72.796875 
L 12.359375 72.796875 
Q 21.53125 60.546875 25.921875 48.1875 
Q 29.6875 37.546875 29.6875 25.921875 
Q 29.6875 12.75 24.625 0.4375 
Q 19.578125 -11.859375 12.359375 -21.046875 
z
" id="ArialMT-41"/>
      </defs>
      <use xlink:href="#ArialMT-84"/>
      <use x="57.333984" xlink:href="#ArialMT-105"/>
      <use x="79.550781" xlink:href="#ArialMT-109"/>
      <use x="162.851562" xlink:href="#ArialMT-101"/>
      <use x="218.466797" xlink:href="#ArialMT-32"/>
      <use x="246.25" xlink:href="#ArialMT-40"/>
      <use x="279.550781" xlink:href="#ArialMT-109"/>
      <use x="362.851562" xlink:href="#ArialMT-105"/>
      <use x="385.068359" xlink:href="#ArialMT-110"/>
      <use x="440.683594" xlink:href="#ArialMT-115"/>
      <use x="490.683594" xlink:href="#ArialMT-41"/>
     </g>
    </g>
   </g>
   <g id="matplotlib.axis_2">
    <g id="ytick_1">
     <g id="line2d_11">
      <path clip-path="url(#pb01b1de5b2)" d="M 32.027188 64.36 
L 118.077187 64.36 
" style="fill:none;stroke:#b0b0b0;stroke-dasharray:1.85,0.8;stroke-dashoffset:0;stroke-opacity:0.6;stroke-width:0.5;"/>
     </g>
     <g id="line2d_12">
      <defs>
       <path d="M 0 0 
L -3.5 0 
" id="m5a4ac24b00" style="stroke:#000000;stroke-width:0.8;"/>
      </defs>
      <g>
       <use style="stroke:#000000;stroke-width:0.8;" x="32.027188" xlink:href="#m5a4ac24b00" y="64.36"/>
      </g>
     </g>
     <g id="text_7">
      <!-- 0.0 -->
      <g transform="translate(16.687188 66.507344)scale(0.06 -0.06)">
       <defs>
        <path d="M 9.078125 0 
L 9.078125 10.015625 
L 19.09375 10.015625 
L 19.09375 0 
z
" id="ArialMT-46"/>
       </defs>
       <use xlink:href="#ArialMT-48"/>
       <use x="55.615234" xlink:href="#ArialMT-46"/>
       <use x="83.398438" xlink:href="#ArialMT-48"/>
      </g>
     </g>
    </g>
    <g id="ytick_2">
     <g id="line2d_13">
      <path clip-path="url(#pb01b1de5b2)" d="M 32.027188 38.378182 
L 118.077187 38.378182 
" style="fill:none;stroke:#b0b0b0;stroke-dasharray:1.85,0.8;stroke-dashoffset:0;stroke-opacity:0.6;stroke-width:0.5;"/>
     </g>
     <g id="line2d_14">
      <g>
       <use style="stroke:#000000;stroke-width:0.8;" x="32.027188" xlink:href="#m5a4ac24b00" y="38.378182"/>
      </g>
     </g>
     <g id="text_8">
      <!-- 0.5 -->
      <g transform="translate(16.687188 40.525526)scale(0.06 -0.06)">
       <defs>
        <path d="M 4.15625 18.75 
L 13.375 19.53125 
Q 14.40625 12.796875 18.140625 9.390625 
Q 21.875 6 27.15625 6 
Q 33.5 6 37.890625 10.78125 
Q 42.28125 15.578125 42.28125 23.484375 
Q 42.28125 31 38.0625 35.34375 
Q 33.84375 39.703125 27 39.703125 
Q 22.75 39.703125 19.328125 37.765625 
Q 15.921875 35.84375 13.96875 32.765625 
L 5.71875 33.84375 
L 12.640625 70.609375 
L 48.25 70.609375 
L 48.25 62.203125 
L 19.671875 62.203125 
L 15.828125 42.96875 
Q 22.265625 47.46875 29.34375 47.46875 
Q 38.71875 47.46875 45.15625 40.96875 
Q 51.609375 34.46875 51.609375 24.265625 
Q 51.609375 14.546875 45.953125 7.46875 
Q 39.0625 -1.21875 27.15625 -1.21875 
Q 17.390625 -1.21875 11.203125 4.25 
Q 5.03125 9.71875 4.15625 18.75 
z
" id="ArialMT-53"/>
       </defs>
       <use xlink:href="#ArialMT-48"/>
       <use x="55.615234" xlink:href="#ArialMT-46"/>
       <use x="83.398438" xlink:href="#ArialMT-53"/>
      </g>
     </g>
    </g>
    <g id="ytick_3">
     <g id="line2d_15">
      <path clip-path="url(#pb01b1de5b2)" d="M 32.027188 12.396364 
L 118.077187 12.396364 
" style="fill:none;stroke:#b0b0b0;stroke-dasharray:1.85,0.8;stroke-dashoffset:0;stroke-opacity:0.6;stroke-width:0.5;"/>
     </g>
     <g id="line2d_16">
      <g>
       <use style="stroke:#000000;stroke-width:0.8;" x="32.027188" xlink:href="#m5a4ac24b00" y="12.396364"/>
      </g>
     </g>
     <g id="text_9">
      <!-- 1.0 -->
      <g transform="translate(16.687188 14.543707)scale(0.06 -0.06)">
       <defs>
        <path d="M 37.25 0 
L 28.46875 0 
L 28.46875 56 
Q 25.296875 52.984375 20.140625 49.953125 
Q 14.984375 46.921875 10.890625 45.40625 
L 10.890625 53.90625 
Q 18.265625 57.375 23.78125 62.296875 
Q 29.296875 67.234375 31.59375 71.875 
L 37.25 71.875 
z
" id="ArialMT-49"/>
       </defs>
       <use xlink:href="#ArialMT-49"/>
       <use x="55.615234" xlink:href="#ArialMT-46"/>
       <use x="83.398438" xlink:href="#ArialMT-48"/>
      </g>
     </g>
    </g>
    <g id="text_10">
     <!-- Scaled sfGFP -->
     <g transform="translate(11.494688 54.28625)rotate(-90)scale(0.06 -0.06)">
      <defs>
       <path d="M 4.5 23 
L 13.421875 23.78125 
Q 14.0625 18.40625 16.375 14.96875 
Q 18.703125 11.53125 23.578125 9.40625 
Q 28.46875 7.28125 34.578125 7.28125 
Q 39.984375 7.28125 44.140625 8.890625 
Q 48.296875 10.5 50.3125 13.296875 
Q 52.34375 16.109375 52.34375 19.4375 
Q 52.34375 22.796875 50.390625 25.3125 
Q 48.4375 27.828125 43.953125 29.546875 
Q 41.0625 30.671875 31.203125 33.03125 
Q 21.34375 35.40625 17.390625 37.5 
Q 12.25 40.1875 9.734375 44.15625 
Q 7.234375 48.140625 7.234375 53.078125 
Q 7.234375 58.5 10.296875 63.203125 
Q 13.375 67.921875 19.28125 70.359375 
Q 25.203125 72.796875 32.421875 72.796875 
Q 40.375 72.796875 46.453125 70.234375 
Q 52.546875 67.671875 55.8125 62.6875 
Q 59.078125 57.71875 59.328125 51.421875 
L 50.25 50.734375 
Q 49.515625 57.515625 45.28125 60.984375 
Q 41.0625 64.453125 32.8125 64.453125 
Q 24.21875 64.453125 20.28125 61.296875 
Q 16.359375 58.15625 16.359375 53.71875 
Q 16.359375 49.859375 19.140625 47.359375 
Q 21.875 44.875 33.421875 42.265625 
Q 44.96875 39.65625 49.265625 37.703125 
Q 55.515625 34.8125 58.484375 30.390625 
Q 61.46875 25.984375 61.46875 20.21875 
Q 61.46875 14.5 58.203125 9.4375 
Q 54.9375 4.390625 48.796875 1.578125 
Q 42.671875 -1.21875 35.015625 -1.21875 
Q 25.296875 -1.21875 18.71875 1.609375 
Q 12.15625 4.4375 8.421875 10.125 
Q 4.6875 15.828125 4.5 23 
z
" id="ArialMT-83"/>
       <path d="M 40.4375 19 
L 49.078125 17.875 
Q 47.65625 8.9375 41.8125 3.875 
Q 35.984375 -1.171875 27.484375 -1.171875 
Q 16.84375 -1.171875 10.375 5.78125 
Q 3.90625 12.75 3.90625 25.734375 
Q 3.90625 34.125 6.6875 40.421875 
Q 9.46875 46.734375 15.15625 49.875 
Q 20.84375 53.03125 27.546875 53.03125 
Q 35.984375 53.03125 41.359375 48.75 
Q 46.734375 44.484375 48.25 36.625 
L 39.703125 35.296875 
Q 38.484375 40.53125 35.375 43.15625 
Q 32.28125 45.796875 27.875 45.796875 
Q 21.234375 45.796875 17.078125 41.03125 
Q 12.9375 36.28125 12.9375 25.984375 
Q 12.9375 15.53125 16.9375 10.796875 
Q 20.953125 6.0625 27.390625 6.0625 
Q 32.5625 6.0625 36.03125 9.234375 
Q 39.5 12.40625 40.4375 19 
z
" id="ArialMT-99"/>
       <path d="M 40.4375 6.390625 
Q 35.546875 2.25 31.03125 0.53125 
Q 26.515625 -1.171875 21.34375 -1.171875 
Q 12.796875 -1.171875 8.203125 3 
Q 3.609375 7.171875 3.609375 13.671875 
Q 3.609375 17.484375 5.34375 20.625 
Q 7.078125 23.78125 9.890625 25.6875 
Q 12.703125 27.59375 16.21875 28.5625 
Q 18.796875 29.25 24.03125 29.890625 
Q 34.671875 31.15625 39.703125 32.90625 
Q 39.75 34.71875 39.75 35.203125 
Q 39.75 40.578125 37.25 42.78125 
Q 33.890625 45.75 27.25 45.75 
Q 21.046875 45.75 18.09375 43.578125 
Q 15.140625 41.40625 13.71875 35.890625 
L 5.125 37.0625 
Q 6.296875 42.578125 8.984375 45.96875 
Q 11.671875 49.359375 16.75 51.1875 
Q 21.828125 53.03125 28.515625 53.03125 
Q 35.15625 53.03125 39.296875 51.46875 
Q 43.453125 49.90625 45.40625 47.53125 
Q 47.359375 45.171875 48.140625 41.546875 
Q 48.578125 39.3125 48.578125 33.453125 
L 48.578125 21.734375 
Q 48.578125 9.46875 49.140625 6.21875 
Q 49.703125 2.984375 51.375 0 
L 42.1875 0 
Q 40.828125 2.734375 40.4375 6.390625 
z
M 39.703125 26.03125 
Q 34.90625 24.078125 25.34375 22.703125 
Q 19.921875 21.921875 17.671875 20.9375 
Q 15.4375 19.96875 14.203125 18.09375 
Q 12.984375 16.21875 12.984375 13.921875 
Q 12.984375 10.40625 15.640625 8.0625 
Q 18.3125 5.71875 23.4375 5.71875 
Q 28.515625 5.71875 32.46875 7.9375 
Q 36.421875 10.15625 38.28125 14.015625 
Q 39.703125 17 39.703125 22.796875 
z
" id="ArialMT-97"/>
       <path d="M 6.390625 0 
L 6.390625 71.578125 
L 15.1875 71.578125 
L 15.1875 0 
z
" id="ArialMT-108"/>
       <path d="M 40.234375 0 
L 40.234375 6.546875 
Q 35.296875 -1.171875 25.734375 -1.171875 
Q 19.53125 -1.171875 14.328125 2.25 
Q 9.125 5.671875 6.265625 11.796875 
Q 3.421875 17.921875 3.421875 25.875 
Q 3.421875 33.640625 6 39.96875 
Q 8.59375 46.296875 13.765625 49.65625 
Q 18.953125 53.03125 25.34375 53.03125 
Q 30.03125 53.03125 33.6875 51.046875 
Q 37.359375 49.078125 39.65625 45.90625 
L 39.65625 71.578125 
L 48.390625 71.578125 
L 48.390625 0 
z
M 12.453125 25.875 
Q 12.453125 15.921875 16.640625 10.984375 
Q 20.84375 6.0625 26.5625 6.0625 
Q 32.328125 6.0625 36.34375 10.765625 
Q 40.375 15.484375 40.375 25.140625 
Q 40.375 35.796875 36.265625 40.765625 
Q 32.171875 45.75 26.171875 45.75 
Q 20.3125 45.75 16.375 40.96875 
Q 12.453125 36.1875 12.453125 25.875 
z
" id="ArialMT-100"/>
       <path d="M 8.6875 0 
L 8.6875 45.015625 
L 0.921875 45.015625 
L 0.921875 51.859375 
L 8.6875 51.859375 
L 8.6875 57.375 
Q 8.6875 62.59375 9.625 65.140625 
Q 10.890625 68.5625 14.078125 70.671875 
Q 17.28125 72.796875 23.046875 72.796875 
Q 26.765625 72.796875 31.25 71.921875 
L 29.9375 64.265625 
Q 27.203125 64.75 24.75 64.75 
Q 20.75 64.75 19.09375 63.03125 
Q 17.4375 61.328125 17.4375 56.640625 
L 17.4375 51.859375 
L 27.546875 51.859375 
L 27.546875 45.015625 
L 17.4375 45.015625 
L 17.4375 0 
z
" id="ArialMT-102"/>
       <path d="M 41.21875 28.078125 
L 41.21875 36.46875 
L 71.53125 36.53125 
L 71.53125 9.96875 
Q 64.546875 4.390625 57.125 1.578125 
Q 49.703125 -1.21875 41.890625 -1.21875 
Q 31.34375 -1.21875 22.71875 3.296875 
Q 14.109375 7.8125 9.71875 16.359375 
Q 5.328125 24.90625 5.328125 35.453125 
Q 5.328125 45.90625 9.6875 54.953125 
Q 14.0625 64.015625 22.265625 68.40625 
Q 30.46875 72.796875 41.15625 72.796875 
Q 48.921875 72.796875 55.1875 70.28125 
Q 61.46875 67.78125 65.03125 63.28125 
Q 68.609375 58.796875 70.453125 51.5625 
L 61.921875 49.21875 
Q 60.296875 54.6875 57.90625 57.8125 
Q 55.515625 60.9375 51.0625 62.8125 
Q 46.625 64.703125 41.21875 64.703125 
Q 34.71875 64.703125 29.984375 62.71875 
Q 25.25 60.75 22.34375 57.515625 
Q 19.4375 54.296875 17.828125 50.4375 
Q 15.09375 43.796875 15.09375 36.03125 
Q 15.09375 26.46875 18.390625 20.015625 
Q 21.6875 13.578125 27.984375 10.453125 
Q 34.28125 7.328125 41.359375 7.328125 
Q 47.515625 7.328125 53.375 9.6875 
Q 59.234375 12.0625 62.25 14.75 
L 62.25 28.078125 
z
" id="ArialMT-71"/>
       <path d="M 8.203125 0 
L 8.203125 71.578125 
L 56.5 71.578125 
L 56.5 63.140625 
L 17.671875 63.140625 
L 17.671875 40.96875 
L 51.265625 40.96875 
L 51.265625 32.515625 
L 17.671875 32.515625 
L 17.671875 0 
z
" id="ArialMT-70"/>
       <path d="M 7.71875 0 
L 7.71875 71.578125 
L 34.71875 71.578125 
Q 41.84375 71.578125 45.609375 70.90625 
Q 50.875 70.015625 54.4375 67.546875 
Q 58.015625 65.09375 60.1875 60.640625 
Q 62.359375 56.203125 62.359375 50.875 
Q 62.359375 41.75 56.546875 35.421875 
Q 50.734375 29.109375 35.546875 29.109375 
L 17.1875 29.109375 
L 17.1875 0 
z
M 17.1875 37.546875 
L 35.6875 37.546875 
Q 44.875 37.546875 48.734375 40.96875 
Q 52.59375 44.390625 52.59375 50.59375 
Q 52.59375 55.078125 50.3125 58.265625 
Q 48.046875 61.46875 44.34375 62.5 
Q 41.9375 63.140625 35.5 63.140625 
L 17.1875 63.140625 
z
" id="ArialMT-80"/>
      </defs>
      <use xlink:href="#ArialMT-83"/>
      <use x="66.699219" xlink:href="#ArialMT-99"/>
      <use x="116.699219" xlink:href="#ArialMT-97"/>
      <use x="172.314453" xlink:href="#ArialMT-108"/>
      <use x="194.53125" xlink:href="#ArialMT-101"/>
      <use x="250.146484" xlink:href="#ArialMT-100"/>
      <use x="305.761719" xlink:href="#ArialMT-32"/>
      <use x="333.544922" xlink:href="#ArialMT-115"/>
      <use x="383.544922" xlink:href="#ArialMT-102"/>
      <use x="411.328125" xlink:href="#ArialMT-71"/>
      <use x="489.111328" xlink:href="#ArialMT-70"/>
      <use x="550.195312" xlink:href="#ArialMT-80"/>
     </g>
    </g>
   </g>
   <g id="line2d_17">
    <path clip-path="url(#pb01b1de5b2)" d="M 32.027188 62.434543 
L 32.632855 62.173531 
L 34.291529 61.117305 
L 36.960486 59.184939 
L 39.327867 57.197788 
L 41.576291 55.017689 
L 43.796234 52.551315 
L 46.091571 49.660944 
L 48.579582 46.158904 
L 51.570221 41.542791 
L 60.960997 26.744467 
L 63.342217 23.588761 
L 65.48968 21.102165 
L 67.52365 19.080117 
L 69.504007 17.420418 
L 71.473942 16.057064 
L 73.463044 14.948455 
L 75.517119 14.057076 
L 77.680298 13.361906 
L 79.992188 12.854578 
L 82.520409 12.530981 
L 85.343506 12.398749 
L 88.579068 12.476076 
L 92.407112 12.797433 
L 97.163653 13.429682 
L 103.578868 14.521611 
L 114.180979 16.582863 
L 118.077187 17.365684 
L 118.077187 17.365684 
" style="fill:none;stroke:#008000;stroke-linecap:square;"/>
   </g>
   <g id="line2d_18">
    <path clip-path="url(#pb01b1de5b2)" d="M 32.027188 62.434543 
L 32.632855 62.174189 
L 34.702805 60.895492 
L 37.268765 59.422001 
L 38.565547 58.927746 
L 39.696461 58.733157 
L 40.88769 58.759252 
L 42.432435 59.032152 
L 48.780633 60.373551 
L 51.248539 60.545889 
L 53.857181 60.500042 
L 56.760699 60.221883 
L 60.36622 59.639187 
L 67.97099 58.100907 
L 67.97099 58.100907 
L 73.249619 57.181543 
L 77.871096 56.60554 
L 82.741566 56.227127 
L 88.360953 56.021209 
L 95.498277 55.994286 
L 106.026669 56.198171 
L 118.077187 56.560719 
L 118.077187 56.560719 
" style="fill:none;stroke:#ff0000;stroke-linecap:square;"/>
   </g>
   <g id="line2d_19">
    <path clip-path="url(#pb01b1de5b2)" d="M 32.027188 62.434543 
L 32.632206 62.173987 
L 34.482792 61.013339 
L 39.071304 57.888822 
L 42.951604 54.993119 
L 45.365447 52.926049 
L 48.50569 49.893468 
L 52.676498 45.873739 
L 54.253953 44.700734 
L 55.50094 44.037057 
L 56.692869 43.643783 
L 57.965884 43.465051 
L 59.503375 43.486674 
L 62.205841 43.788476 
L 66.243361 44.186899 
L 69.295651 44.249807 
L 74.450954 44.083265 
L 80.730437 43.964517 
L 86.877013 44.086794 
L 94.770186 44.48017 
L 106.959288 45.335499 
L 118.077187 46.197392 
L 118.077187 46.197392 
" style="fill:none;stroke:#aa67b2;stroke-linecap:square;"/>
   </g>
   <g id="line2d_20">
    <path clip-path="url(#pb01b1de5b2)" d="M 32.027188 62.434543 
L 32.63492 62.172387 
L 34.423107 61.043637 
L 37.584424 58.821062 
L 40.18401 56.727303 
L 40.18401 56.727303 
L 42.567629 54.521572 
L 44.910202 52.034152 
L 47.210531 49.272271 
L 50.050582 45.486984 
L 58.580211 33.816471 
L 60.286838 32.011459 
L 61.725701 30.804082 
L 62.992396 30.030476 
L 64.192789 29.553467 
L 65.482978 29.284437 
L 67.053123 29.195509 
L 69.276148 29.312664 
L 73.945567 29.836524 
L 118.077187 35.220258 
L 118.077187 35.220258 
" style="fill:none;stroke:#ff9200;stroke-linecap:square;"/>
   </g>
   <g id="line2d_21">
    <path clip-path="url(#pb01b1de5b2)" d="M 32.027188 45.063563 
L 118.077187 45.063563 
" style="fill:none;stroke:#aa67b2;stroke-dasharray:3.7,1.6;stroke-dashoffset:0;"/>
   </g>
   <g id="line2d_22">
    <path clip-path="url(#pb01b1de5b2)" d="M 32.027188 33.317906 
L 118.077187 33.317906 
" style="fill:none;stroke:#ff9200;stroke-dasharray:3.7,1.6;stroke-dashoffset:0;"/>
   </g>
   <g id="patch_3">
    <path d="M 32.027188 64.36 
L 32.027188 7.2 
" style="fill:none;stroke:#000000;stroke-linecap:square;stroke-linejoin:miter;stroke-width:0.5;"/>
   </g>
   <g id="patch_4">
    <path d="M 118.077187 64.36 
L 118.077187 7.2 
" style="fill:none;stroke:#000000;stroke-linecap:square;stroke-linejoin:miter;stroke-width:0.5;"/>
   </g>
   <g id="patch_5">
    <path d="M 32.027188 64.36 
L 118.077187 64.36 
" style="fill:none;stroke:#000000;stroke-linecap:square;stroke-linejoin:miter;stroke-width:0.5;"/>
   </g>
   <g id="patch_6">
    <path d="M 32.027188 7.2 
L 118.077187 7.2 
" style="fill:none;stroke:#000000;stroke-linecap:square;stroke-linejoin:miter;stroke-width:0.5;"/>
   </g>
  </g>
 </g>
 <defs>
  <clipPath id="pb01b1de5b2">
   <rect height="57.16" width="86.05" x="32.027188" y="7.2"/>
  </clipPath>
 </defs>
</svg>
