<?xml version="1.0" encoding="utf-8" standalone="no"?>
<!DOCTYPE svg PUBLIC "-//W3C//DTD SVG 1.1//EN"
  "http://www.w3.org/Graphics/SVG/1.1/DTD/svg11.dtd">
<!-- Created with matplotlib (https://matplotlib.org/) -->
<svg height="93.677813pt" version="1.1" viewBox="0 0 125.277187 93.677813" width="125.277187pt" xmlns="http://www.w3.org/2000/svg" xmlns:xlink="http://www.w3.org/1999/xlink">
 <metadata>
  <rdf:RDF xmlns:cc="http://creativecommons.org/ns#" xmlns:dc="http://purl.org/dc/elements/1.1/" xmlns:rdf="http://www.w3.org/1999/02/22-rdf-syntax-ns#">
   <cc:Work>
    <dc:type rdf:resource="http://purl.org/dc/dcmitype/StillImage"/>
    <dc:date>2025-09-20T15:29:10.347245</dc:date>
    <dc:format>image/svg+xml</dc:format>
    <dc:creator>
     <cc:Agent>
      <dc:title>Matplotlib v3.3.4, https://matplotlib.org/</dc:title>
     </cc:Agent>
    </dc:creator>
   </cc:Work>
  </rdf:RDF>
 </metadata>
 <defs>
  <style type="text/css">*{stroke-linecap:butt;stroke-linejoin:round;}</style>
 </defs>
 <g id="figure_1">
  <g id="patch_1">
   <path d="M 0 93.677813 
L 125.277188 93.677813 
L 125.277188 0 
L 0 0 
z
" style="fill:none;"/>
  </g>
  <g id="axes_1">
   <g id="patch_2">
    <path d="M 32.027188 64.36 
L 118.077187 64.36 
L 118.077187 7.2 
L 32.027188 7.2 
z
" style="fill:none;"/>
   </g>
   <g id="PolyCollection_1">
    <defs>
     <path d="M 32.923542 -31.401682 
L 32.923542 -30.490993 
L 33.819896 -30.531421 
L 34.71625 -30.563941 
L 35.612604 -30.720278 
L 36.508958 -31.078834 
L 37.405313 -31.768227 
L 38.301667 -32.763528 
L 39.198021 -34.186633 
L 40.094375 -36.065111 
L 40.990729 -37.869726 
L 41.887083 -39.816192 
L 42.783438 -41.463017 
L 43.679792 -43.641218 
L 44.576146 -44.946274 
L 45.4725 -46.434172 
L 46.368854 -47.868921 
L 47.265208 -49.128687 
L 48.161563 -50.304388 
L 49.057917 -51.510377 
L 49.954271 -52.731171 
L 50.850625 -53.892509 
L 51.746979 -54.968844 
L 52.643333 -56.319085 
L 53.539687 -57.181566 
L 54.436042 -57.971934 
L 55.332396 -58.354555 
L 56.22875 -59.667458 
L 57.125104 -60.787764 
L 58.021458 -62.035245 
L 58.917812 -62.577252 
L 59.814167 -62.838905 
L 60.710521 -63.393167 
L 61.606875 -64.259027 
L 62.503229 -65.106893 
L 63.399583 -65.797319 
L 64.295937 -66.278727 
L 65.192292 -66.726428 
L 66.088646 -67.367391 
L 66.985 -67.968705 
L 67.881354 -68.370165 
L 68.777708 -69.346691 
L 69.674062 -69.985619 
L 70.570417 -71.018433 
L 71.466771 -72.207516 
L 72.363125 -73.199116 
L 73.259479 -73.641847 
L 74.155833 -74.043899 
L 75.052188 -73.928183 
L 75.948542 -73.942656 
L 76.844896 -73.80107 
L 77.74125 -73.784916 
L 78.637604 -73.683631 
L 79.533958 -73.42184 
L 80.430312 -73.558963 
L 81.326667 -73.347475 
L 82.223021 -73.494081 
L 83.119375 -73.714368 
L 84.015729 -73.713464 
L 84.912083 -73.592068 
L 85.808437 -73.36123 
L 86.704792 -73.274484 
L 87.601146 -73.242209 
L 88.4975 -73.308756 
L 89.393854 -73.601376 
L 90.290208 -73.646922 
L 91.186562 -73.726298 
L 92.082917 -73.796853 
L 92.979271 -73.687515 
L 93.875625 -73.508555 
L 94.771979 -73.39066 
L 95.668333 -73.075373 
L 96.564687 -73.117922 
L 97.461042 -73.455361 
L 98.357396 -73.704238 
L 99.25375 -73.644665 
L 100.150104 -73.69153 
L 101.046458 -73.935349 
L 101.942813 -73.826202 
L 102.839167 -73.533354 
L 103.735521 -73.455506 
L 104.631875 -73.551422 
L 105.528229 -73.52101 
L 106.424583 -73.542338 
L 107.320937 -73.576344 
L 108.217292 -73.610567 
L 109.113646 -73.76254 
L 110.01 -73.838185 
L 110.906354 -73.795493 
L 111.802708 -73.728935 
L 112.699062 -73.489194 
L 113.595417 -73.749021 
L 114.491771 -73.592053 
L 115.388125 -73.070348 
L 116.284479 -73.138786 
L 117.180833 -73.686221 
L 118.077187 -73.79489 
L 118.973542 -73.629801 
L 119.869896 -73.628243 
L 120.76625 -73.661765 
L 121.662604 -73.43409 
L 122.558958 -73.572448 
L 123.455312 -73.46067 
L 124.351667 -73.094578 
L 125.248021 -72.906857 
L 126.144375 -73.355724 
L 127.040729 -73.381915 
L 127.937083 -73.319168 
L 128.833437 -73.456295 
L 129.729792 -73.44207 
L 130.626146 -73.405673 
L 131.5225 -73.029343 
L 132.418854 -73.043309 
L 133.315208 -73.421503 
L 134.211562 -73.264275 
L 135.107917 -72.647746 
L 136.004271 -72.589435 
L 136.900625 -73.137471 
L 137.796979 -73.229112 
L 138.693333 -72.727459 
L 139.589687 -72.820697 
L 139.589687 -74.143139 
L 139.589687 -74.143139 
L 138.693333 -74.083014 
L 137.796979 -74.532811 
L 136.900625 -74.628769 
L 136.004271 -74.090524 
L 135.107917 -73.982357 
L 134.211562 -74.504497 
L 133.315208 -74.38158 
L 132.418854 -74.293073 
L 131.5225 -74.225828 
L 130.626146 -74.578342 
L 129.729792 -74.727486 
L 128.833437 -74.65001 
L 127.937083 -74.710238 
L 127.040729 -74.660101 
L 126.144375 -74.776076 
L 125.248021 -74.610591 
L 124.351667 -74.445976 
L 123.455312 -74.598177 
L 122.558958 -74.679285 
L 121.662604 -74.577828 
L 120.76625 -74.933032 
L 119.869896 -74.684468 
L 118.973542 -74.694106 
L 118.077187 -75.008153 
L 117.180833 -74.951912 
L 116.284479 -74.814207 
L 115.388125 -74.739516 
L 114.491771 -74.734455 
L 113.595417 -74.794259 
L 112.699062 -74.576281 
L 111.802708 -74.787247 
L 110.906354 -74.837974 
L 110.01 -75.063859 
L 109.113646 -75.173269 
L 108.217292 -75.093063 
L 107.320937 -74.936857 
L 106.424583 -74.880995 
L 105.528229 -74.760369 
L 104.631875 -74.783556 
L 103.735521 -74.56245 
L 102.839167 -74.819717 
L 101.942813 -75.094133 
L 101.046458 -75.250057 
L 100.150104 -75.238136 
L 99.25375 -75.229393 
L 98.357396 -75.219837 
L 97.461042 -75.113512 
L 96.564687 -74.631022 
L 95.668333 -74.504357 
L 94.771979 -74.679268 
L 93.875625 -74.991703 
L 92.979271 -75.281906 
L 92.082917 -75.459013 
L 91.186562 -75.536702 
L 90.290208 -75.713783 
L 89.393854 -75.235078 
L 88.4975 -75.228318 
L 87.601146 -74.950992 
L 86.704792 -75.139106 
L 85.808437 -75.330906 
L 84.912083 -75.492258 
L 84.015729 -75.605158 
L 83.119375 -75.749571 
L 82.223021 -75.579015 
L 81.326667 -75.487293 
L 80.430312 -75.568 
L 79.533958 -75.410551 
L 78.637604 -75.631492 
L 77.74125 -75.835401 
L 76.844896 -75.857066 
L 75.948542 -75.865742 
L 75.052188 -75.961233 
L 74.155833 -76.063202 
L 73.259479 -75.607807 
L 72.363125 -74.580296 
L 71.466771 -73.584438 
L 70.570417 -72.785054 
L 69.674062 -72.001087 
L 68.777708 -71.369039 
L 67.881354 -70.632131 
L 66.985 -70.200061 
L 66.088646 -69.342396 
L 65.192292 -68.724361 
L 64.295937 -68.014402 
L 63.399583 -67.367042 
L 62.503229 -66.68983 
L 61.606875 -65.96223 
L 60.710521 -64.93448 
L 59.814167 -64.493904 
L 58.917812 -63.958224 
L 58.021458 -63.408357 
L 57.125104 -61.846737 
L 56.22875 -60.719905 
L 55.332396 -59.750785 
L 54.436042 -58.868048 
L 53.539687 -58.21983 
L 52.643333 -57.016344 
L 51.746979 -56.070884 
L 50.850625 -54.747541 
L 49.954271 -53.752296 
L 49.057917 -52.538747 
L 48.161563 -51.336915 
L 47.265208 -50.239322 
L 46.368854 -49.119333 
L 45.4725 -47.878964 
L 44.576146 -46.304727 
L 43.679792 -44.805117 
L 42.783438 -43.055567 
L 41.887083 -41.124505 
L 40.990729 -39.295636 
L 40.094375 -37.517611 
L 39.198021 -35.600006 
L 38.301667 -34.091084 
L 37.405313 -32.881802 
L 36.508958 -32.113122 
L 35.612604 -31.705402 
L 34.71625 -31.462655 
L 33.819896 -31.502278 
L 32.923542 -31.401682 
z
" id="m6c624d635a" style="stroke:#008000;stroke-opacity:0.3;"/>
    </defs>
    <g clip-path="url(#pc21fb53c5e)">
     <use style="fill:#008000;fill-opacity:0.3;stroke:#008000;stroke-opacity:0.3;" x="0" xlink:href="#m6c624d635a" y="93.677813"/>
    </g>
   </g>
   <g id="PolyCollection_2">
    <defs>
     <path d="M 32.923542 -31.144667 
L 32.923542 -30.528379 
L 33.819896 -30.413879 
L 34.71625 -30.339924 
L 35.612604 -30.333777 
L 36.508958 -30.330445 
L 37.405313 -30.456257 
L 38.301667 -30.58366 
L 39.198021 -30.830964 
L 40.094375 -31.107684 
L 40.990729 -31.3861 
L 41.887083 -31.566959 
L 42.783438 -31.751173 
L 43.679792 -31.861315 
L 44.576146 -31.920465 
L 45.4725 -31.926036 
L 46.368854 -31.941732 
L 47.265208 -31.926155 
L 48.161563 -31.992386 
L 49.057917 -32.025511 
L 49.954271 -32.106866 
L 50.850625 -32.157137 
L 51.746979 -32.191503 
L 52.643333 -32.285849 
L 53.539687 -32.335985 
L 54.436042 -32.417412 
L 55.332396 -32.518908 
L 56.22875 -32.673681 
L 57.125104 -32.772588 
L 58.021458 -32.899508 
L 58.917812 -33.003159 
L 59.814167 -33.144038 
L 60.710521 -33.312669 
L 61.606875 -33.508419 
L 62.503229 -33.726407 
L 63.399583 -33.939086 
L 64.295937 -34.147688 
L 65.192292 -34.369653 
L 66.088646 -34.506827 
L 66.985 -34.673469 
L 67.881354 -34.704691 
L 68.777708 -34.744346 
L 69.674062 -34.785231 
L 70.570417 -34.85509 
L 71.466771 -34.920881 
L 72.363125 -34.966512 
L 73.259479 -34.999261 
L 74.155833 -35.043591 
L 75.052188 -35.052068 
L 75.948542 -35.069266 
L 76.844896 -35.067313 
L 77.74125 -35.082129 
L 78.637604 -35.089373 
L 79.533958 -35.080392 
L 80.430312 -35.095796 
L 81.326667 -35.098261 
L 82.223021 -35.117666 
L 83.119375 -35.170417 
L 84.015729 -35.155913 
L 84.912083 -35.145042 
L 85.808437 -35.135559 
L 86.704792 -35.102278 
L 87.601146 -35.106218 
L 88.4975 -35.152628 
L 89.393854 -35.175675 
L 90.290208 -35.189766 
L 91.186562 -35.212647 
L 92.082917 -35.170609 
L 92.979271 -35.158371 
L 93.875625 -35.119685 
L 94.771979 -35.072649 
L 95.668333 -35.044747 
L 96.564687 -35.037888 
L 97.461042 -35.12189 
L 98.357396 -35.127576 
L 99.25375 -35.120964 
L 100.150104 -35.10575 
L 101.046458 -35.107943 
L 101.942813 -35.086346 
L 102.839167 -34.995913 
L 103.735521 -34.985041 
L 104.631875 -34.998947 
L 105.528229 -34.985784 
L 106.424583 -34.975433 
L 107.320937 -34.970383 
L 108.217292 -34.96242 
L 109.113646 -34.974732 
L 110.01 -34.913091 
L 110.906354 -34.902778 
L 111.802708 -34.84872 
L 112.699062 -34.805264 
L 113.595417 -34.85321 
L 114.491771 -34.820722 
L 115.388125 -34.785164 
L 116.284479 -34.80676 
L 117.180833 -34.806703 
L 118.077187 -34.800191 
L 118.973542 -34.689429 
L 119.869896 -34.676301 
L 120.76625 -34.709839 
L 121.662604 -34.670071 
L 122.558958 -34.643747 
L 123.455312 -34.617941 
L 124.351667 -34.600221 
L 125.248021 -34.590342 
L 126.144375 -34.575784 
L 127.040729 -34.582978 
L 127.937083 -34.558214 
L 128.833437 -34.548194 
L 129.729792 -34.526445 
L 130.626146 -34.491767 
L 131.5225 -34.450357 
L 132.418854 -34.443159 
L 133.315208 -34.420034 
L 134.211562 -34.425901 
L 135.107917 -34.345828 
L 136.004271 -34.331345 
L 136.900625 -34.398967 
L 137.796979 -34.368634 
L 138.693333 -34.282007 
L 139.589687 -34.249786 
L 139.589687 -35.164719 
L 139.589687 -35.164719 
L 138.693333 -35.158479 
L 137.796979 -35.205956 
L 136.900625 -35.210303 
L 136.004271 -35.142151 
L 135.107917 -35.154262 
L 134.211562 -35.281409 
L 133.315208 -35.294059 
L 132.418854 -35.272751 
L 131.5225 -35.301151 
L 130.626146 -35.359771 
L 129.729792 -35.388778 
L 128.833437 -35.380019 
L 127.937083 -35.3861 
L 127.040729 -35.406871 
L 126.144375 -35.42801 
L 125.248021 -35.393045 
L 124.351667 -35.415393 
L 123.455312 -35.503585 
L 122.558958 -35.536442 
L 121.662604 -35.55738 
L 120.76625 -35.583927 
L 119.869896 -35.590043 
L 118.973542 -35.598355 
L 118.077187 -35.637997 
L 117.180833 -35.639455 
L 116.284479 -35.594993 
L 115.388125 -35.583591 
L 114.491771 -35.684696 
L 113.595417 -35.731182 
L 112.699062 -35.747275 
L 111.802708 -35.764242 
L 110.906354 -35.774202 
L 110.01 -35.800288 
L 109.113646 -35.814883 
L 108.217292 -35.805039 
L 107.320937 -35.829283 
L 106.424583 -35.82584 
L 105.528229 -35.835142 
L 104.631875 -35.856208 
L 103.735521 -35.877229 
L 102.839167 -35.898327 
L 101.942813 -35.965263 
L 101.046458 -36.003255 
L 100.150104 -35.968146 
L 99.25375 -35.961099 
L 98.357396 -35.980036 
L 97.461042 -35.995881 
L 96.564687 -35.915969 
L 95.668333 -35.934136 
L 94.771979 -35.998775 
L 93.875625 -36.028521 
L 92.979271 -36.05064 
L 92.082917 -36.092102 
L 91.186562 -36.101337 
L 90.290208 -36.083756 
L 89.393854 -36.057946 
L 88.4975 -36.046419 
L 87.601146 -35.996813 
L 86.704792 -36.010959 
L 85.808437 -36.025121 
L 84.912083 -36.064718 
L 84.015729 -36.045793 
L 83.119375 -36.063733 
L 82.223021 -36.013353 
L 81.326667 -35.980083 
L 80.430312 -35.972959 
L 79.533958 -35.94521 
L 78.637604 -35.941396 
L 77.74125 -35.975532 
L 76.844896 -35.92664 
L 75.948542 -35.910848 
L 75.052188 -35.919433 
L 74.155833 -35.920218 
L 73.259479 -35.895488 
L 72.363125 -35.854966 
L 71.466771 -35.809822 
L 70.570417 -35.753361 
L 69.674062 -35.698951 
L 68.777708 -35.685067 
L 67.881354 -35.565541 
L 66.985 -35.405312 
L 66.088646 -35.104063 
L 65.192292 -34.869092 
L 64.295937 -34.614139 
L 63.399583 -34.396523 
L 62.503229 -34.117665 
L 61.606875 -33.905393 
L 60.710521 -33.67396 
L 59.814167 -33.489235 
L 58.917812 -33.340202 
L 58.021458 -33.21532 
L 57.125104 -33.093619 
L 56.22875 -32.952195 
L 55.332396 -32.75835 
L 54.436042 -32.660575 
L 53.539687 -32.60517 
L 52.643333 -32.546829 
L 51.746979 -32.457494 
L 50.850625 -32.404986 
L 49.954271 -32.356208 
L 49.057917 -32.287156 
L 48.161563 -32.253392 
L 47.265208 -32.204283 
L 46.368854 -32.170259 
L 45.4725 -32.120091 
L 44.576146 -32.11139 
L 43.679792 -32.022401 
L 42.783438 -31.922993 
L 41.887083 -31.883257 
L 40.990729 -31.778677 
L 40.094375 -31.704187 
L 39.198021 -31.591201 
L 38.301667 -31.470269 
L 37.405313 -31.362923 
L 36.508958 -31.311137 
L 35.612604 -31.324943 
L 34.71625 -31.277394 
L 33.819896 -31.245405 
L 32.923542 -31.144667 
z
" id="m588164cdaa" style="stroke:#ff0000;stroke-opacity:0.3;"/>
    </defs>
    <g clip-path="url(#pc21fb53c5e)">
     <use style="fill:#ff0000;fill-opacity:0.3;stroke:#ff0000;stroke-opacity:0.3;" x="0" xlink:href="#m588164cdaa" y="93.677813"/>
    </g>
   </g>
   <g id="PolyCollection_3">
    <defs>
     <path d="M 32.923542 -31.130953 
L 32.923542 -30.657443 
L 33.819896 -30.54377 
L 34.71625 -30.552201 
L 35.612604 -30.670263 
L 36.508958 -30.819254 
L 37.405313 -31.254244 
L 38.301667 -31.874326 
L 39.198021 -32.753668 
L 40.094375 -33.892882 
L 40.990729 -35.221287 
L 41.887083 -37.090482 
L 42.783438 -39.311269 
L 43.679792 -41.487512 
L 44.576146 -42.57431 
L 45.4725 -43.708976 
L 46.368854 -44.620385 
L 47.265208 -45.184566 
L 48.161563 -45.847662 
L 49.057917 -46.247607 
L 49.954271 -46.556277 
L 50.850625 -46.533831 
L 51.746979 -46.558577 
L 52.643333 -46.474521 
L 53.539687 -46.33502 
L 54.436042 -46.012634 
L 55.332396 -45.6243 
L 56.22875 -45.756094 
L 57.125104 -45.950886 
L 58.021458 -46.026877 
L 58.917812 -46.240743 
L 59.814167 -46.884399 
L 60.710521 -47.469591 
L 61.606875 -47.888679 
L 62.503229 -48.492117 
L 63.399583 -49.070603 
L 64.295937 -49.51457 
L 65.192292 -49.692243 
L 66.088646 -49.965083 
L 66.985 -50.284392 
L 67.881354 -50.327117 
L 68.777708 -50.617127 
L 69.674062 -50.756556 
L 70.570417 -50.79228 
L 71.466771 -50.884935 
L 72.363125 -50.861137 
L 73.259479 -50.753947 
L 74.155833 -50.705511 
L 75.052188 -50.57427 
L 75.948542 -50.428072 
L 76.844896 -50.241858 
L 77.74125 -50.279756 
L 78.637604 -50.094804 
L 79.533958 -49.890212 
L 80.430312 -49.890044 
L 81.326667 -49.721563 
L 82.223021 -49.715406 
L 83.119375 -49.787411 
L 84.015729 -49.719498 
L 84.912083 -49.645746 
L 85.808437 -49.499842 
L 86.704792 -49.412873 
L 87.601146 -49.319973 
L 88.4975 -49.362577 
L 89.393854 -49.369838 
L 90.290208 -49.330499 
L 91.186562 -49.29437 
L 92.082917 -49.35116 
L 92.979271 -49.214575 
L 93.875625 -49.080657 
L 94.771979 -48.971655 
L 95.668333 -48.739886 
L 96.564687 -48.677138 
L 97.461042 -48.872747 
L 98.357396 -48.812034 
L 99.25375 -48.780058 
L 100.150104 -48.754528 
L 101.046458 -48.765177 
L 101.942813 -48.748286 
L 102.839167 -48.528671 
L 103.735521 -48.437349 
L 104.631875 -48.429902 
L 105.528229 -48.35456 
L 106.424583 -48.322609 
L 107.320937 -48.337505 
L 108.217292 -48.208432 
L 109.113646 -48.214236 
L 110.01 -48.210574 
L 110.906354 -48.097727 
L 111.802708 -48.042722 
L 112.699062 -47.945668 
L 113.595417 -48.052022 
L 114.491771 -47.909994 
L 115.388125 -47.678878 
L 116.284479 -47.631564 
L 117.180833 -47.816773 
L 118.077187 -47.788252 
L 118.973542 -47.596281 
L 119.869896 -47.51381 
L 120.76625 -47.682719 
L 121.662604 -47.553323 
L 122.558958 -47.502414 
L 123.455312 -47.378836 
L 124.351667 -47.281041 
L 125.248021 -47.201481 
L 126.144375 -47.301585 
L 127.040729 -47.269042 
L 127.937083 -47.191515 
L 128.833437 -47.131856 
L 129.729792 -47.125983 
L 130.626146 -46.98917 
L 131.5225 -46.824918 
L 132.418854 -46.7962 
L 133.315208 -46.720008 
L 134.211562 -46.712689 
L 135.107917 -46.441388 
L 136.004271 -46.348701 
L 136.900625 -46.651206 
L 137.796979 -46.564323 
L 138.693333 -46.129685 
L 139.589687 -46.074159 
L 139.589687 -46.855722 
L 139.589687 -46.855722 
L 138.693333 -46.83406 
L 137.796979 -46.919947 
L 136.900625 -46.978482 
L 136.004271 -46.787972 
L 135.107917 -46.831177 
L 134.211562 -47.087516 
L 133.315208 -47.218657 
L 132.418854 -47.075195 
L 131.5225 -47.141276 
L 130.626146 -47.30311 
L 129.729792 -47.378106 
L 128.833437 -47.392706 
L 127.937083 -47.406127 
L 127.040729 -47.493524 
L 126.144375 -47.562526 
L 125.248021 -47.546391 
L 124.351667 -47.575848 
L 123.455312 -47.73129 
L 122.558958 -47.834839 
L 121.662604 -47.824683 
L 120.76625 -47.932024 
L 119.869896 -47.919655 
L 118.973542 -47.942005 
L 118.077187 -48.153973 
L 117.180833 -48.221112 
L 116.284479 -48.253862 
L 115.388125 -48.240416 
L 114.491771 -48.289374 
L 113.595417 -48.418226 
L 112.699062 -48.360432 
L 111.802708 -48.44223 
L 110.906354 -48.603589 
L 110.01 -48.744315 
L 109.113646 -48.93924 
L 108.217292 -48.986368 
L 107.320937 -49.041703 
L 106.424583 -49.009278 
L 105.528229 -49.01997 
L 104.631875 -49.144122 
L 103.735521 -49.004409 
L 102.839167 -49.19028 
L 101.942813 -49.53553 
L 101.046458 -49.558567 
L 100.150104 -49.653366 
L 99.25375 -49.792508 
L 98.357396 -49.764324 
L 97.461042 -49.792479 
L 96.564687 -49.577706 
L 95.668333 -49.65532 
L 94.771979 -49.742437 
L 93.875625 -49.832871 
L 92.979271 -50.256434 
L 92.082917 -50.340641 
L 91.186562 -50.523704 
L 90.290208 -50.536741 
L 89.393854 -50.435182 
L 88.4975 -50.398499 
L 87.601146 -50.300272 
L 86.704792 -50.341612 
L 85.808437 -50.693511 
L 84.912083 -50.895878 
L 84.015729 -51.020901 
L 83.119375 -51.118607 
L 82.223021 -51.028035 
L 81.326667 -51.160064 
L 80.430312 -51.215091 
L 79.533958 -51.245851 
L 78.637604 -51.493734 
L 77.74125 -51.527546 
L 76.844896 -51.704272 
L 75.948542 -51.878195 
L 75.052188 -52.121468 
L 74.155833 -52.344656 
L 73.259479 -52.254437 
L 72.363125 -52.317854 
L 71.466771 -52.396772 
L 70.570417 -52.377238 
L 69.674062 -52.020437 
L 68.777708 -51.692915 
L 67.881354 -51.445796 
L 66.985 -51.158427 
L 66.088646 -50.776521 
L 65.192292 -50.340735 
L 64.295937 -50.066822 
L 63.399583 -50.003203 
L 62.503229 -48.887341 
L 61.606875 -48.409041 
L 60.710521 -48.178009 
L 59.814167 -47.8082 
L 58.917812 -47.514905 
L 58.021458 -47.539119 
L 57.125104 -47.42233 
L 56.22875 -47.495868 
L 55.332396 -47.659343 
L 54.436042 -47.908783 
L 53.539687 -48.009835 
L 52.643333 -48.014684 
L 51.746979 -48.090999 
L 50.850625 -47.80159 
L 49.954271 -47.423926 
L 49.057917 -47.012484 
L 48.161563 -46.583263 
L 47.265208 -46.062219 
L 46.368854 -45.12554 
L 45.4725 -44.331751 
L 44.576146 -43.309651 
L 43.679792 -42.225294 
L 42.783438 -40.66489 
L 41.887083 -39.03901 
L 40.990729 -37.38613 
L 40.094375 -35.915378 
L 39.198021 -34.494576 
L 38.301667 -33.303866 
L 37.405313 -32.425032 
L 36.508958 -31.851417 
L 35.612604 -31.480672 
L 34.71625 -31.275257 
L 33.819896 -31.215818 
L 32.923542 -31.130953 
z
" id="me17864bd21" style="stroke:#aa67b2;stroke-opacity:0.3;"/>
    </defs>
    <g clip-path="url(#pc21fb53c5e)">
     <use style="fill:#aa67b2;fill-opacity:0.3;stroke:#aa67b2;stroke-opacity:0.3;" x="0" xlink:href="#me17864bd21" y="93.677813"/>
    </g>
   </g>
   <g id="PolyCollection_4">
    <defs>
     <path d="M 32.923542 -31.132405 
L 32.923542 -30.374018 
L 33.819896 -30.475233 
L 34.71625 -30.498804 
L 35.612604 -30.594036 
L 36.508958 -30.858217 
L 37.405313 -31.412132 
L 38.301667 -32.269323 
L 39.198021 -33.313843 
L 40.094375 -34.640792 
L 40.990729 -36.138773 
L 41.887083 -37.953787 
L 42.783438 -39.972519 
L 43.679792 -41.898593 
L 44.576146 -43.248033 
L 45.4725 -44.458451 
L 46.368854 -45.600392 
L 47.265208 -46.547975 
L 48.161563 -47.623903 
L 49.057917 -48.342889 
L 49.954271 -49.150703 
L 50.850625 -49.809389 
L 51.746979 -50.397866 
L 52.643333 -51.161565 
L 53.539687 -51.18908 
L 54.436042 -51.312057 
L 55.332396 -51.650961 
L 56.22875 -52.084342 
L 57.125104 -52.702194 
L 58.021458 -53.182383 
L 58.917812 -53.840089 
L 59.814167 -54.65536 
L 60.710521 -55.362859 
L 61.606875 -56.059009 
L 62.503229 -56.765572 
L 63.399583 -57.361667 
L 64.295937 -57.741028 
L 65.192292 -57.961389 
L 66.088646 -58.255581 
L 66.985 -58.541248 
L 67.881354 -58.56699 
L 68.777708 -58.712011 
L 69.674062 -59.056439 
L 70.570417 -59.191925 
L 71.466771 -59.418076 
L 72.363125 -59.518026 
L 73.259479 -59.515413 
L 74.155833 -59.512215 
L 75.052188 -59.418129 
L 75.948542 -59.171939 
L 76.844896 -59.033111 
L 77.74125 -59.069271 
L 78.637604 -58.942799 
L 79.533958 -58.687309 
L 80.430312 -58.654003 
L 81.326667 -58.606325 
L 82.223021 -58.664312 
L 83.119375 -58.834555 
L 84.015729 -58.80578 
L 84.912083 -58.84914 
L 85.808437 -58.707348 
L 86.704792 -58.664366 
L 87.601146 -58.650928 
L 88.4975 -58.693221 
L 89.393854 -58.840532 
L 90.290208 -58.903293 
L 91.186562 -58.983216 
L 92.082917 -59.066252 
L 92.979271 -59.061893 
L 93.875625 -58.836554 
L 94.771979 -58.787897 
L 95.668333 -58.634362 
L 96.564687 -58.594756 
L 97.461042 -58.944771 
L 98.357396 -58.974293 
L 99.25375 -59.010254 
L 100.150104 -59.077491 
L 101.046458 -59.224675 
L 101.942813 -59.117521 
L 102.839167 -58.828297 
L 103.735521 -58.715165 
L 104.631875 -58.848293 
L 105.528229 -58.817849 
L 106.424583 -58.840881 
L 107.320937 -58.969801 
L 108.217292 -58.882096 
L 109.113646 -59.0783 
L 110.01 -58.907472 
L 110.906354 -58.795303 
L 111.802708 -58.532579 
L 112.699062 -58.290064 
L 113.595417 -58.665275 
L 114.491771 -58.597628 
L 115.388125 -58.533754 
L 116.284479 -58.650435 
L 117.180833 -58.762132 
L 118.077187 -58.655066 
L 118.973542 -58.451583 
L 119.869896 -58.326737 
L 120.76625 -58.626209 
L 121.662604 -58.432459 
L 122.558958 -58.338899 
L 123.455312 -58.290481 
L 124.351667 -58.257785 
L 125.248021 -58.36866 
L 126.144375 -58.446421 
L 127.040729 -58.337183 
L 127.937083 -58.203275 
L 128.833437 -58.168872 
L 129.729792 -58.219776 
L 130.626146 -58.045266 
L 131.5225 -57.7761 
L 132.418854 -57.714058 
L 133.315208 -57.777554 
L 134.211562 -57.791915 
L 135.107917 -57.463485 
L 136.004271 -57.322577 
L 136.900625 -57.858743 
L 137.796979 -57.762212 
L 138.693333 -57.22785 
L 139.589687 -57.195617 
L 139.589687 -59.143218 
L 139.589687 -59.143218 
L 138.693333 -59.027276 
L 137.796979 -59.237994 
L 136.900625 -59.238926 
L 136.004271 -58.81748 
L 135.107917 -58.792104 
L 134.211562 -59.366738 
L 133.315208 -59.490202 
L 132.418854 -59.103922 
L 131.5225 -59.162966 
L 130.626146 -59.415973 
L 129.729792 -59.442521 
L 128.833437 -59.367422 
L 127.937083 -59.245654 
L 127.040729 -59.40555 
L 126.144375 -59.361153 
L 125.248021 -58.980716 
L 124.351667 -59.064626 
L 123.455312 -59.521574 
L 122.558958 -59.608183 
L 121.662604 -59.434131 
L 120.76625 -59.516478 
L 119.869896 -59.486519 
L 118.973542 -59.396003 
L 118.077187 -59.48669 
L 117.180833 -59.477441 
L 116.284479 -59.199204 
L 115.388125 -59.090897 
L 114.491771 -59.467276 
L 113.595417 -59.607449 
L 112.699062 -59.543622 
L 111.802708 -59.580635 
L 110.906354 -59.413335 
L 110.01 -59.440614 
L 109.113646 -59.601792 
L 108.217292 -59.508292 
L 107.320937 -59.600645 
L 106.424583 -59.540693 
L 105.528229 -59.479926 
L 104.631875 -59.553918 
L 103.735521 -59.406296 
L 102.839167 -59.471286 
L 101.942813 -59.853336 
L 101.046458 -59.84107 
L 100.150104 -59.788373 
L 99.25375 -59.787598 
L 98.357396 -59.816944 
L 97.461042 -59.71046 
L 96.564687 -59.358779 
L 95.668333 -59.366303 
L 94.771979 -59.522782 
L 93.875625 -59.711256 
L 92.979271 -60.090608 
L 92.082917 -60.179155 
L 91.186562 -60.266462 
L 90.290208 -60.250763 
L 89.393854 -60.0007 
L 88.4975 -59.9202 
L 87.601146 -59.805782 
L 86.704792 -59.84902 
L 85.808437 -60.082862 
L 84.912083 -60.28625 
L 84.015729 -60.425847 
L 83.119375 -60.438672 
L 82.223021 -60.318094 
L 81.326667 -60.457608 
L 80.430312 -60.594897 
L 79.533958 -60.600769 
L 78.637604 -60.720796 
L 77.74125 -60.89722 
L 76.844896 -60.934573 
L 75.948542 -61.193588 
L 75.052188 -61.404392 
L 74.155833 -61.576293 
L 73.259479 -61.691962 
L 72.363125 -61.977991 
L 71.466771 -61.625531 
L 70.570417 -61.247142 
L 69.674062 -60.614219 
L 68.777708 -60.303239 
L 67.881354 -60.07663 
L 66.985 -59.959598 
L 66.088646 -59.548055 
L 65.192292 -59.215146 
L 64.295937 -58.700894 
L 63.399583 -58.138611 
L 62.503229 -57.521052 
L 61.606875 -56.809711 
L 60.710521 -56.139336 
L 59.814167 -55.640141 
L 58.917812 -55.05017 
L 58.021458 -54.664092 
L 57.125104 -53.956508 
L 56.22875 -53.499103 
L 55.332396 -52.690229 
L 54.436042 -52.346051 
L 53.539687 -52.261241 
L 52.643333 -52.26948 
L 51.746979 -51.829267 
L 50.850625 -51.479994 
L 49.954271 -51.046407 
L 49.057917 -50.422243 
L 48.161563 -49.625597 
L 47.265208 -48.679352 
L 46.368854 -47.638435 
L 45.4725 -46.388709 
L 44.576146 -45.12238 
L 43.679792 -43.126426 
L 42.783438 -40.630215 
L 41.887083 -39.078217 
L 40.990729 -37.349745 
L 40.094375 -35.875447 
L 39.198021 -34.46106 
L 38.301667 -33.321166 
L 37.405313 -32.345401 
L 36.508958 -31.758429 
L 35.612604 -31.427704 
L 34.71625 -31.172749 
L 33.819896 -31.242457 
L 32.923542 -31.132405 
z
" id="mbb4cf2f121" style="stroke:#ff9200;stroke-opacity:0.3;"/>
    </defs>
    <g clip-path="url(#pc21fb53c5e)">
     <use style="fill:#ff9200;fill-opacity:0.3;stroke:#ff9200;stroke-opacity:0.3;" x="0" xlink:href="#mbb4cf2f121" y="93.677813"/>
    </g>
   </g>
   <g id="matplotlib.axis_1">
    <g id="xtick_1">
     <g id="line2d_1">
      <path clip-path="url(#pc21fb53c5e)" d="M 32.027188 64.36 
L 32.027188 7.2 
" style="fill:none;stroke:#b0b0b0;stroke-dasharray:1.85,0.8;stroke-dashoffset:0;stroke-opacity:0.6;stroke-width:0.5;"/>
     </g>
     <g id="line2d_2">
      <defs>
       <path d="M 0 0 
L 0 3.5 
" id="mbb2d42e762" style="stroke:#000000;stroke-width:0.8;"/>
      </defs>
      <g>
       <use style="stroke:#000000;stroke-width:0.8;" x="32.027188" xlink:href="#mbb2d42e762" y="64.36"/>
      </g>
     </g>
     <g id="text_1">
      <!-- 0 -->
      <g transform="translate(30.358906 75.654688)scale(0.06 -0.06)">
       <defs>
        <path d="M 4.15625 35.296875 
Q 4.15625 48 6.765625 55.734375 
Q 9.375 63.484375 14.515625 67.671875 
Q 19.671875 71.875 27.484375 71.875 
Q 33.25 71.875 37.59375 69.546875 
Q 41.9375 67.234375 44.765625 62.859375 
Q 47.609375 58.5 49.21875 52.21875 
Q 50.828125 45.953125 50.828125 35.296875 
Q 50.828125 22.703125 48.234375 14.96875 
Q 45.65625 7.234375 40.5 3 
Q 35.359375 -1.21875 27.484375 -1.21875 
Q 17.140625 -1.21875 11.234375 6.203125 
Q 4.15625 15.140625 4.15625 35.296875 
z
M 13.1875 35.296875 
Q 13.1875 17.671875 17.3125 11.828125 
Q 21.4375 6 27.484375 6 
Q 33.546875 6 37.671875 11.859375 
Q 41.796875 17.71875 41.796875 35.296875 
Q 41.796875 52.984375 37.671875 58.78125 
Q 33.546875 64.59375 27.390625 64.59375 
Q 21.34375 64.59375 17.71875 59.46875 
Q 13.1875 52.9375 13.1875 35.296875 
z
" id="ArialMT-48"/>
       </defs>
       <use xlink:href="#ArialMT-48"/>
      </g>
     </g>
    </g>
    <g id="xtick_2">
     <g id="line2d_3">
      <path clip-path="url(#pc21fb53c5e)" d="M 49.954271 64.36 
L 49.954271 7.2 
" style="fill:none;stroke:#b0b0b0;stroke-dasharray:1.85,0.8;stroke-dashoffset:0;stroke-opacity:0.6;stroke-width:0.5;"/>
     </g>
     <g id="line2d_4">
      <g>
       <use style="stroke:#000000;stroke-width:0.8;" x="49.954271" xlink:href="#mbb2d42e762" y="64.36"/>
      </g>
     </g>
     <g id="text_2">
      <!-- 200 -->
      <g transform="translate(44.949427 75.654688)scale(0.06 -0.06)">
       <defs>
        <path d="M 50.34375 8.453125 
L 50.34375 0 
L 3.03125 0 
Q 2.9375 3.171875 4.046875 6.109375 
Q 5.859375 10.9375 9.828125 15.625 
Q 13.8125 20.3125 21.34375 26.46875 
Q 33.015625 36.03125 37.109375 41.625 
Q 41.21875 47.21875 41.21875 52.203125 
Q 41.21875 57.421875 37.46875 61 
Q 33.734375 64.59375 27.734375 64.59375 
Q 21.390625 64.59375 17.578125 60.78125 
Q 13.765625 56.984375 13.71875 50.25 
L 4.6875 51.171875 
Q 5.609375 61.28125 11.65625 66.578125 
Q 17.71875 71.875 27.9375 71.875 
Q 38.234375 71.875 44.234375 66.15625 
Q 50.25 60.453125 50.25 52 
Q 50.25 47.703125 48.484375 43.546875 
Q 46.734375 39.40625 42.65625 34.8125 
Q 38.578125 30.21875 29.109375 22.21875 
Q 21.1875 15.578125 18.9375 13.203125 
Q 16.703125 10.84375 15.234375 8.453125 
z
" id="ArialMT-50"/>
       </defs>
       <use xlink:href="#ArialMT-50"/>
       <use x="55.615234" xlink:href="#ArialMT-48"/>
       <use x="111.230469" xlink:href="#ArialMT-48"/>
      </g>
     </g>
    </g>
    <g id="xtick_3">
     <g id="line2d_5">
      <path clip-path="url(#pc21fb53c5e)" d="M 67.881354 64.36 
L 67.881354 7.2 
" style="fill:none;stroke:#b0b0b0;stroke-dasharray:1.85,0.8;stroke-dashoffset:0;stroke-opacity:0.6;stroke-width:0.5;"/>
     </g>
     <g id="line2d_6">
      <g>
       <use style="stroke:#000000;stroke-width:0.8;" x="67.881354" xlink:href="#mbb2d42e762" y="64.36"/>
      </g>
     </g>
     <g id="text_3">
      <!-- 400 -->
      <g transform="translate(62.87651 75.654688)scale(0.06 -0.06)">
       <defs>
        <path d="M 32.328125 0 
L 32.328125 17.140625 
L 1.265625 17.140625 
L 1.265625 25.203125 
L 33.9375 71.578125 
L 41.109375 71.578125 
L 41.109375 25.203125 
L 50.78125 25.203125 
L 50.78125 17.140625 
L 41.109375 17.140625 
L 41.109375 0 
z
M 32.328125 25.203125 
L 32.328125 57.46875 
L 9.90625 25.203125 
z
" id="ArialMT-52"/>
       </defs>
       <use xlink:href="#ArialMT-52"/>
       <use x="55.615234" xlink:href="#ArialMT-48"/>
       <use x="111.230469" xlink:href="#ArialMT-48"/>
      </g>
     </g>
    </g>
    <g id="xtick_4">
     <g id="line2d_7">
      <path clip-path="url(#pc21fb53c5e)" d="M 85.808437 64.36 
L 85.808437 7.2 
" style="fill:none;stroke:#b0b0b0;stroke-dasharray:1.85,0.8;stroke-dashoffset:0;stroke-opacity:0.6;stroke-width:0.5;"/>
     </g>
     <g id="line2d_8">
      <g>
       <use style="stroke:#000000;stroke-width:0.8;" x="85.808437" xlink:href="#mbb2d42e762" y="64.36"/>
      </g>
     </g>
     <g id="text_4">
      <!-- 600 -->
      <g transform="translate(80.803594 75.654688)scale(0.06 -0.06)">
       <defs>
        <path d="M 49.75 54.046875 
L 41.015625 53.375 
Q 39.84375 58.546875 37.703125 60.890625 
Q 34.125 64.65625 28.90625 64.65625 
Q 24.703125 64.65625 21.53125 62.3125 
Q 17.390625 59.28125 14.984375 53.46875 
Q 12.59375 47.65625 12.5 36.921875 
Q 15.671875 41.75 20.265625 44.09375 
Q 24.859375 46.4375 29.890625 46.4375 
Q 38.671875 46.4375 44.84375 39.96875 
Q 51.03125 33.5 51.03125 23.25 
Q 51.03125 16.5 48.125 10.71875 
Q 45.21875 4.9375 40.140625 1.859375 
Q 35.0625 -1.21875 28.609375 -1.21875 
Q 17.625 -1.21875 10.6875 6.859375 
Q 3.765625 14.9375 3.765625 33.5 
Q 3.765625 54.25 11.421875 63.671875 
Q 18.109375 71.875 29.4375 71.875 
Q 37.890625 71.875 43.28125 67.140625 
Q 48.6875 62.40625 49.75 54.046875 
z
M 13.875 23.1875 
Q 13.875 18.65625 15.796875 14.5 
Q 17.71875 10.359375 21.1875 8.171875 
Q 24.65625 6 28.46875 6 
Q 34.03125 6 38.03125 10.484375 
Q 42.046875 14.984375 42.046875 22.703125 
Q 42.046875 30.125 38.078125 34.390625 
Q 34.125 38.671875 28.125 38.671875 
Q 22.171875 38.671875 18.015625 34.390625 
Q 13.875 30.125 13.875 23.1875 
z
" id="ArialMT-54"/>
       </defs>
       <use xlink:href="#ArialMT-54"/>
       <use x="55.615234" xlink:href="#ArialMT-48"/>
       <use x="111.230469" xlink:href="#ArialMT-48"/>
      </g>
     </g>
    </g>
    <g id="xtick_5">
     <g id="line2d_9">
      <path clip-path="url(#pc21fb53c5e)" d="M 103.735521 64.36 
L 103.735521 7.2 
" style="fill:none;stroke:#b0b0b0;stroke-dasharray:1.85,0.8;stroke-dashoffset:0;stroke-opacity:0.6;stroke-width:0.5;"/>
     </g>
     <g id="line2d_10">
      <g>
       <use style="stroke:#000000;stroke-width:0.8;" x="103.735521" xlink:href="#mbb2d42e762" y="64.36"/>
      </g>
     </g>
     <g id="text_5">
      <!-- 800 -->
      <g transform="translate(98.730677 75.654688)scale(0.06 -0.06)">
       <defs>
        <path d="M 17.671875 38.8125 
Q 12.203125 40.828125 9.5625 44.53125 
Q 6.9375 48.25 6.9375 53.421875 
Q 6.9375 61.234375 12.546875 66.546875 
Q 18.171875 71.875 27.484375 71.875 
Q 36.859375 71.875 42.578125 66.421875 
Q 48.296875 60.984375 48.296875 53.171875 
Q 48.296875 48.1875 45.671875 44.5 
Q 43.0625 40.828125 37.75 38.8125 
Q 44.34375 36.671875 47.78125 31.875 
Q 51.21875 27.09375 51.21875 20.453125 
Q 51.21875 11.28125 44.71875 5.03125 
Q 38.234375 -1.21875 27.640625 -1.21875 
Q 17.046875 -1.21875 10.546875 5.046875 
Q 4.046875 11.328125 4.046875 20.703125 
Q 4.046875 27.6875 7.59375 32.390625 
Q 11.140625 37.109375 17.671875 38.8125 
z
M 15.921875 53.71875 
Q 15.921875 48.640625 19.1875 45.40625 
Q 22.46875 42.1875 27.6875 42.1875 
Q 32.765625 42.1875 36.015625 45.375 
Q 39.265625 48.578125 39.265625 53.21875 
Q 39.265625 58.0625 35.90625 61.359375 
Q 32.5625 64.65625 27.59375 64.65625 
Q 22.5625 64.65625 19.234375 61.421875 
Q 15.921875 58.203125 15.921875 53.71875 
z
M 13.09375 20.65625 
Q 13.09375 16.890625 14.875 13.375 
Q 16.65625 9.859375 20.171875 7.921875 
Q 23.6875 6 27.734375 6 
Q 34.03125 6 38.125 10.046875 
Q 42.234375 14.109375 42.234375 20.359375 
Q 42.234375 26.703125 38.015625 30.859375 
Q 33.796875 35.015625 27.4375 35.015625 
Q 21.234375 35.015625 17.15625 30.90625 
Q 13.09375 26.8125 13.09375 20.65625 
z
" id="ArialMT-56"/>
       </defs>
       <use xlink:href="#ArialMT-56"/>
       <use x="55.615234" xlink:href="#ArialMT-48"/>
       <use x="111.230469" xlink:href="#ArialMT-48"/>
      </g>
     </g>
    </g>
    <g id="text_6">
     <!-- Time (mins) -->
     <g transform="translate(59.333594 85.215)scale(0.06 -0.06)">
      <defs>
       <path d="M 25.921875 0 
L 25.921875 63.140625 
L 2.34375 63.140625 
L 2.34375 71.578125 
L 59.078125 71.578125 
L 59.078125 63.140625 
L 35.40625 63.140625 
L 35.40625 0 
z
" id="ArialMT-84"/>
       <path d="M 6.640625 61.46875 
L 6.640625 71.578125 
L 15.4375 71.578125 
L 15.4375 61.46875 
z
M 6.640625 0 
L 6.640625 51.859375 
L 15.4375 51.859375 
L 15.4375 0 
z
" id="ArialMT-105"/>
       <path d="M 6.59375 0 
L 6.59375 51.859375 
L 14.453125 51.859375 
L 14.453125 44.578125 
Q 16.890625 48.390625 20.9375 50.703125 
Q 25 53.03125 30.171875 53.03125 
Q 35.9375 53.03125 39.625 50.640625 
Q 43.3125 48.25 44.828125 43.953125 
Q 50.984375 53.03125 60.84375 53.03125 
Q 68.5625 53.03125 72.703125 48.75 
Q 76.859375 44.484375 76.859375 35.59375 
L 76.859375 0 
L 68.109375 0 
L 68.109375 32.671875 
Q 68.109375 37.9375 67.25 40.25 
Q 66.40625 42.578125 64.15625 43.984375 
Q 61.921875 45.40625 58.890625 45.40625 
Q 53.421875 45.40625 49.796875 41.765625 
Q 46.1875 38.140625 46.1875 30.125 
L 46.1875 0 
L 37.40625 0 
L 37.40625 33.6875 
Q 37.40625 39.546875 35.25 42.46875 
Q 33.109375 45.40625 28.21875 45.40625 
Q 24.515625 45.40625 21.359375 43.453125 
Q 18.21875 41.5 16.796875 37.734375 
Q 15.375 33.984375 15.375 26.90625 
L 15.375 0 
z
" id="ArialMT-109"/>
       <path d="M 42.09375 16.703125 
L 51.171875 15.578125 
Q 49.03125 7.625 43.21875 3.21875 
Q 37.40625 -1.171875 28.375 -1.171875 
Q 17 -1.171875 10.328125 5.828125 
Q 3.65625 12.84375 3.65625 25.484375 
Q 3.65625 38.578125 10.390625 45.796875 
Q 17.140625 53.03125 27.875 53.03125 
Q 38.28125 53.03125 44.875 45.953125 
Q 51.46875 38.875 51.46875 26.03125 
Q 51.46875 25.25 51.421875 23.6875 
L 12.75 23.6875 
Q 13.234375 15.140625 17.578125 10.59375 
Q 21.921875 6.0625 28.421875 6.0625 
Q 33.25 6.0625 36.671875 8.59375 
Q 40.09375 11.140625 42.09375 16.703125 
z
M 13.234375 30.90625 
L 42.1875 30.90625 
Q 41.609375 37.453125 38.875 40.71875 
Q 34.671875 45.796875 27.984375 45.796875 
Q 21.921875 45.796875 17.796875 41.75 
Q 13.671875 37.703125 13.234375 30.90625 
z
" id="ArialMT-101"/>
       <path id="ArialMT-32"/>
       <path d="M 23.390625 -21.046875 
Q 16.109375 -11.859375 11.078125 0.4375 
Q 6.0625 12.75 6.0625 25.921875 
Q 6.0625 37.546875 9.8125 48.1875 
Q 14.203125 60.546875 23.390625 72.796875 
L 29.6875 72.796875 
Q 23.78125 62.640625 21.875 58.296875 
Q 18.890625 51.5625 17.1875 44.234375 
Q 15.09375 35.109375 15.09375 25.875 
Q 15.09375 2.390625 29.6875 -21.046875 
z
" id="ArialMT-40"/>
       <path d="M 6.59375 0 
L 6.59375 51.859375 
L 14.5 51.859375 
L 14.5 44.484375 
Q 20.21875 53.03125 31 53.03125 
Q 35.6875 53.03125 39.625 51.34375 
Q 43.5625 49.65625 45.515625 46.921875 
Q 47.46875 44.1875 48.25 40.4375 
Q 48.734375 37.984375 48.734375 31.890625 
L 48.734375 0 
L 39.9375 0 
L 39.9375 31.546875 
Q 39.9375 36.921875 38.90625 39.578125 
Q 37.890625 42.234375 35.28125 43.8125 
Q 32.671875 45.40625 29.15625 45.40625 
Q 23.53125 45.40625 19.453125 41.84375 
Q 15.375 38.28125 15.375 28.328125 
L 15.375 0 
z
" id="ArialMT-110"/>
       <path d="M 3.078125 15.484375 
L 11.765625 16.84375 
Q 12.5 11.625 15.84375 8.84375 
Q 19.1875 6.0625 25.203125 6.0625 
Q 31.25 6.0625 34.171875 8.515625 
Q 37.109375 10.984375 37.109375 14.3125 
Q 37.109375 17.28125 34.515625 19 
Q 32.71875 20.171875 25.53125 21.96875 
Q 15.875 24.421875 12.140625 26.203125 
Q 8.40625 27.984375 6.46875 31.125 
Q 4.546875 34.28125 4.546875 38.09375 
Q 4.546875 41.546875 6.125 44.5 
Q 7.71875 47.46875 10.453125 49.421875 
Q 12.5 50.921875 16.03125 51.96875 
Q 19.578125 53.03125 23.640625 53.03125 
Q 29.734375 53.03125 34.34375 51.265625 
Q 38.96875 49.515625 41.15625 46.5 
Q 43.359375 43.5 44.1875 38.484375 
L 35.59375 37.3125 
Q 35.015625 41.3125 32.203125 43.546875 
Q 29.390625 45.796875 24.265625 45.796875 
Q 18.21875 45.796875 15.625 43.796875 
Q 13.03125 41.796875 13.03125 39.109375 
Q 13.03125 37.40625 14.109375 36.03125 
Q 15.1875 34.625 17.484375 33.6875 
Q 18.796875 33.203125 25.25 31.453125 
Q 34.578125 28.953125 38.25 27.359375 
Q 41.9375 25.78125 44.03125 22.75 
Q 46.140625 19.734375 46.140625 15.234375 
Q 46.140625 10.84375 43.578125 6.953125 
Q 41.015625 3.078125 36.171875 0.953125 
Q 31.34375 -1.171875 25.25 -1.171875 
Q 15.140625 -1.171875 9.84375 3.03125 
Q 4.546875 7.234375 3.078125 15.484375 
z
" id="ArialMT-115"/>
       <path d="M 12.359375 -21.046875 
L 6.0625 -21.046875 
Q 20.65625 2.390625 20.65625 25.875 
Q 20.65625 35.0625 18.5625 44.09375 
Q 16.890625 51.421875 13.921875 58.15625 
Q 12.015625 62.546875 6.0625 72.796875 
L 12.359375 72.796875 
Q 21.53125 60.546875 25.921875 48.1875 
Q 29.6875 37.546875 29.6875 25.921875 
Q 29.6875 12.75 24.625 0.4375 
Q 19.578125 -11.859375 12.359375 -21.046875 
z
" id="ArialMT-41"/>
      </defs>
      <use xlink:href="#ArialMT-84"/>
      <use x="57.333984" xlink:href="#ArialMT-105"/>
      <use x="79.550781" xlink:href="#ArialMT-109"/>
      <use x="162.851562" xlink:href="#ArialMT-101"/>
      <use x="218.466797" xlink:href="#ArialMT-32"/>
      <use x="246.25" xlink:href="#ArialMT-40"/>
      <use x="279.550781" xlink:href="#ArialMT-109"/>
      <use x="362.851562" xlink:href="#ArialMT-105"/>
      <use x="385.068359" xlink:href="#ArialMT-110"/>
      <use x="440.683594" xlink:href="#ArialMT-115"/>
      <use x="490.683594" xlink:href="#ArialMT-41"/>
     </g>
    </g>
   </g>
   <g id="matplotlib.axis_2">
    <g id="ytick_1">
     <g id="line2d_11">
      <path clip-path="url(#pc21fb53c5e)" d="M 32.027188 64.36 
L 118.077187 64.36 
" style="fill:none;stroke:#b0b0b0;stroke-dasharray:1.85,0.8;stroke-dashoffset:0;stroke-opacity:0.6;stroke-width:0.5;"/>
     </g>
     <g id="line2d_12">
      <defs>
       <path d="M 0 0 
L -3.5 0 
" id="m8507d795fe" style="stroke:#000000;stroke-width:0.8;"/>
      </defs>
      <g>
       <use style="stroke:#000000;stroke-width:0.8;" x="32.027188" xlink:href="#m8507d795fe" y="64.36"/>
      </g>
     </g>
     <g id="text_7">
      <!-- 0.0 -->
      <g transform="translate(16.687188 66.507344)scale(0.06 -0.06)">
       <defs>
        <path d="M 9.078125 0 
L 9.078125 10.015625 
L 19.09375 10.015625 
L 19.09375 0 
z
" id="ArialMT-46"/>
       </defs>
       <use xlink:href="#ArialMT-48"/>
       <use x="55.615234" xlink:href="#ArialMT-46"/>
       <use x="83.398438" xlink:href="#ArialMT-48"/>
      </g>
     </g>
    </g>
    <g id="ytick_2">
     <g id="line2d_13">
      <path clip-path="url(#pc21fb53c5e)" d="M 32.027188 38.378182 
L 118.077187 38.378182 
" style="fill:none;stroke:#b0b0b0;stroke-dasharray:1.85,0.8;stroke-dashoffset:0;stroke-opacity:0.6;stroke-width:0.5;"/>
     </g>
     <g id="line2d_14">
      <g>
       <use style="stroke:#000000;stroke-width:0.8;" x="32.027188" xlink:href="#m8507d795fe" y="38.378182"/>
      </g>
     </g>
     <g id="text_8">
      <!-- 0.5 -->
      <g transform="translate(16.687188 40.525526)scale(0.06 -0.06)">
       <defs>
        <path d="M 4.15625 18.75 
L 13.375 19.53125 
Q 14.40625 12.796875 18.140625 9.390625 
Q 21.875 6 27.15625 6 
Q 33.5 6 37.890625 10.78125 
Q 42.28125 15.578125 42.28125 23.484375 
Q 42.28125 31 38.0625 35.34375 
Q 33.84375 39.703125 27 39.703125 
Q 22.75 39.703125 19.328125 37.765625 
Q 15.921875 35.84375 13.96875 32.765625 
L 5.71875 33.84375 
L 12.640625 70.609375 
L 48.25 70.609375 
L 48.25 62.203125 
L 19.671875 62.203125 
L 15.828125 42.96875 
Q 22.265625 47.46875 29.34375 47.46875 
Q 38.71875 47.46875 45.15625 40.96875 
Q 51.609375 34.46875 51.609375 24.265625 
Q 51.609375 14.546875 45.953125 7.46875 
Q 39.0625 -1.21875 27.15625 -1.21875 
Q 17.390625 -1.21875 11.203125 4.25 
Q 5.03125 9.71875 4.15625 18.75 
z
" id="ArialMT-53"/>
       </defs>
       <use xlink:href="#ArialMT-48"/>
       <use x="55.615234" xlink:href="#ArialMT-46"/>
       <use x="83.398438" xlink:href="#ArialMT-53"/>
      </g>
     </g>
    </g>
    <g id="ytick_3">
     <g id="line2d_15">
      <path clip-path="url(#pc21fb53c5e)" d="M 32.027188 12.396364 
L 118.077187 12.396364 
" style="fill:none;stroke:#b0b0b0;stroke-dasharray:1.85,0.8;stroke-dashoffset:0;stroke-opacity:0.6;stroke-width:0.5;"/>
     </g>
     <g id="line2d_16">
      <g>
       <use style="stroke:#000000;stroke-width:0.8;" x="32.027188" xlink:href="#m8507d795fe" y="12.396364"/>
      </g>
     </g>
     <g id="text_9">
      <!-- 1.0 -->
      <g transform="translate(16.687188 14.543707)scale(0.06 -0.06)">
       <defs>
        <path d="M 37.25 0 
L 28.46875 0 
L 28.46875 56 
Q 25.296875 52.984375 20.140625 49.953125 
Q 14.984375 46.921875 10.890625 45.40625 
L 10.890625 53.90625 
Q 18.265625 57.375 23.78125 62.296875 
Q 29.296875 67.234375 31.59375 71.875 
L 37.25 71.875 
z
" id="ArialMT-49"/>
       </defs>
       <use xlink:href="#ArialMT-49"/>
       <use x="55.615234" xlink:href="#ArialMT-46"/>
       <use x="83.398438" xlink:href="#ArialMT-48"/>
      </g>
     </g>
    </g>
    <g id="text_10">
     <!-- Scaled sfGFP -->
     <g transform="translate(11.494688 54.28625)rotate(-90)scale(0.06 -0.06)">
      <defs>
       <path d="M 4.5 23 
L 13.421875 23.78125 
Q 14.0625 18.40625 16.375 14.96875 
Q 18.703125 11.53125 23.578125 9.40625 
Q 28.46875 7.28125 34.578125 7.28125 
Q 39.984375 7.28125 44.140625 8.890625 
Q 48.296875 10.5 50.3125 13.296875 
Q 52.34375 16.109375 52.34375 19.4375 
Q 52.34375 22.796875 50.390625 25.3125 
Q 48.4375 27.828125 43.953125 29.546875 
Q 41.0625 30.671875 31.203125 33.03125 
Q 21.34375 35.40625 17.390625 37.5 
Q 12.25 40.1875 9.734375 44.15625 
Q 7.234375 48.140625 7.234375 53.078125 
Q 7.234375 58.5 10.296875 63.203125 
Q 13.375 67.921875 19.28125 70.359375 
Q 25.203125 72.796875 32.421875 72.796875 
Q 40.375 72.796875 46.453125 70.234375 
Q 52.546875 67.671875 55.8125 62.6875 
Q 59.078125 57.71875 59.328125 51.421875 
L 50.25 50.734375 
Q 49.515625 57.515625 45.28125 60.984375 
Q 41.0625 64.453125 32.8125 64.453125 
Q 24.21875 64.453125 20.28125 61.296875 
Q 16.359375 58.15625 16.359375 53.71875 
Q 16.359375 49.859375 19.140625 47.359375 
Q 21.875 44.875 33.421875 42.265625 
Q 44.96875 39.65625 49.265625 37.703125 
Q 55.515625 34.8125 58.484375 30.390625 
Q 61.46875 25.984375 61.46875 20.21875 
Q 61.46875 14.5 58.203125 9.4375 
Q 54.9375 4.390625 48.796875 1.578125 
Q 42.671875 -1.21875 35.015625 -1.21875 
Q 25.296875 -1.21875 18.71875 1.609375 
Q 12.15625 4.4375 8.421875 10.125 
Q 4.6875 15.828125 4.5 23 
z
" id="ArialMT-83"/>
       <path d="M 40.4375 19 
L 49.078125 17.875 
Q 47.65625 8.9375 41.8125 3.875 
Q 35.984375 -1.171875 27.484375 -1.171875 
Q 16.84375 -1.171875 10.375 5.78125 
Q 3.90625 12.75 3.90625 25.734375 
Q 3.90625 34.125 6.6875 40.421875 
Q 9.46875 46.734375 15.15625 49.875 
Q 20.84375 53.03125 27.546875 53.03125 
Q 35.984375 53.03125 41.359375 48.75 
Q 46.734375 44.484375 48.25 36.625 
L 39.703125 35.296875 
Q 38.484375 40.53125 35.375 43.15625 
Q 32.28125 45.796875 27.875 45.796875 
Q 21.234375 45.796875 17.078125 41.03125 
Q 12.9375 36.28125 12.9375 25.984375 
Q 12.9375 15.53125 16.9375 10.796875 
Q 20.953125 6.0625 27.390625 6.0625 
Q 32.5625 6.0625 36.03125 9.234375 
Q 39.5 12.40625 40.4375 19 
z
" id="ArialMT-99"/>
       <path d="M 40.4375 6.390625 
Q 35.546875 2.25 31.03125 0.53125 
Q 26.515625 -1.171875 21.34375 -1.171875 
Q 12.796875 -1.171875 8.203125 3 
Q 3.609375 7.171875 3.609375 13.671875 
Q 3.609375 17.484375 5.34375 20.625 
Q 7.078125 23.78125 9.890625 25.6875 
Q 12.703125 27.59375 16.21875 28.5625 
Q 18.796875 29.25 24.03125 29.890625 
Q 34.671875 31.15625 39.703125 32.90625 
Q 39.75 34.71875 39.75 35.203125 
Q 39.75 40.578125 37.25 42.78125 
Q 33.890625 45.75 27.25 45.75 
Q 21.046875 45.75 18.09375 43.578125 
Q 15.140625 41.40625 13.71875 35.890625 
L 5.125 37.0625 
Q 6.296875 42.578125 8.984375 45.96875 
Q 11.671875 49.359375 16.75 51.1875 
Q 21.828125 53.03125 28.515625 53.03125 
Q 35.15625 53.03125 39.296875 51.46875 
Q 43.453125 49.90625 45.40625 47.53125 
Q 47.359375 45.171875 48.140625 41.546875 
Q 48.578125 39.3125 48.578125 33.453125 
L 48.578125 21.734375 
Q 48.578125 9.46875 49.140625 6.21875 
Q 49.703125 2.984375 51.375 0 
L 42.1875 0 
Q 40.828125 2.734375 40.4375 6.390625 
z
M 39.703125 26.03125 
Q 34.90625 24.078125 25.34375 22.703125 
Q 19.921875 21.921875 17.671875 20.9375 
Q 15.4375 19.96875 14.203125 18.09375 
Q 12.984375 16.21875 12.984375 13.921875 
Q 12.984375 10.40625 15.640625 8.0625 
Q 18.3125 5.71875 23.4375 5.71875 
Q 28.515625 5.71875 32.46875 7.9375 
Q 36.421875 10.15625 38.28125 14.015625 
Q 39.703125 17 39.703125 22.796875 
z
" id="ArialMT-97"/>
       <path d="M 6.390625 0 
L 6.390625 71.578125 
L 15.1875 71.578125 
L 15.1875 0 
z
" id="ArialMT-108"/>
       <path d="M 40.234375 0 
L 40.234375 6.546875 
Q 35.296875 -1.171875 25.734375 -1.171875 
Q 19.53125 -1.171875 14.328125 2.25 
Q 9.125 5.671875 6.265625 11.796875 
Q 3.421875 17.921875 3.421875 25.875 
Q 3.421875 33.640625 6 39.96875 
Q 8.59375 46.296875 13.765625 49.65625 
Q 18.953125 53.03125 25.34375 53.03125 
Q 30.03125 53.03125 33.6875 51.046875 
Q 37.359375 49.078125 39.65625 45.90625 
L 39.65625 71.578125 
L 48.390625 71.578125 
L 48.390625 0 
z
M 12.453125 25.875 
Q 12.453125 15.921875 16.640625 10.984375 
Q 20.84375 6.0625 26.5625 6.0625 
Q 32.328125 6.0625 36.34375 10.765625 
Q 40.375 15.484375 40.375 25.140625 
Q 40.375 35.796875 36.265625 40.765625 
Q 32.171875 45.75 26.171875 45.75 
Q 20.3125 45.75 16.375 40.96875 
Q 12.453125 36.1875 12.453125 25.875 
z
" id="ArialMT-100"/>
       <path d="M 8.6875 0 
L 8.6875 45.015625 
L 0.921875 45.015625 
L 0.921875 51.859375 
L 8.6875 51.859375 
L 8.6875 57.375 
Q 8.6875 62.59375 9.625 65.140625 
Q 10.890625 68.5625 14.078125 70.671875 
Q 17.28125 72.796875 23.046875 72.796875 
Q 26.765625 72.796875 31.25 71.921875 
L 29.9375 64.265625 
Q 27.203125 64.75 24.75 64.75 
Q 20.75 64.75 19.09375 63.03125 
Q 17.4375 61.328125 17.4375 56.640625 
L 17.4375 51.859375 
L 27.546875 51.859375 
L 27.546875 45.015625 
L 17.4375 45.015625 
L 17.4375 0 
z
" id="ArialMT-102"/>
       <path d="M 41.21875 28.078125 
L 41.21875 36.46875 
L 71.53125 36.53125 
L 71.53125 9.96875 
Q 64.546875 4.390625 57.125 1.578125 
Q 49.703125 -1.21875 41.890625 -1.21875 
Q 31.34375 -1.21875 22.71875 3.296875 
Q 14.109375 7.8125 9.71875 16.359375 
Q 5.328125 24.90625 5.328125 35.453125 
Q 5.328125 45.90625 9.6875 54.953125 
Q 14.0625 64.015625 22.265625 68.40625 
Q 30.46875 72.796875 41.15625 72.796875 
Q 48.921875 72.796875 55.1875 70.28125 
Q 61.46875 67.78125 65.03125 63.28125 
Q 68.609375 58.796875 70.453125 51.5625 
L 61.921875 49.21875 
Q 60.296875 54.6875 57.90625 57.8125 
Q 55.515625 60.9375 51.0625 62.8125 
Q 46.625 64.703125 41.21875 64.703125 
Q 34.71875 64.703125 29.984375 62.71875 
Q 25.25 60.75 22.34375 57.515625 
Q 19.4375 54.296875 17.828125 50.4375 
Q 15.09375 43.796875 15.09375 36.03125 
Q 15.09375 26.46875 18.390625 20.015625 
Q 21.6875 13.578125 27.984375 10.453125 
Q 34.28125 7.328125 41.359375 7.328125 
Q 47.515625 7.328125 53.375 9.6875 
Q 59.234375 12.0625 62.25 14.75 
L 62.25 28.078125 
z
" id="ArialMT-71"/>
       <path d="M 8.203125 0 
L 8.203125 71.578125 
L 56.5 71.578125 
L 56.5 63.140625 
L 17.671875 63.140625 
L 17.671875 40.96875 
L 51.265625 40.96875 
L 51.265625 32.515625 
L 17.671875 32.515625 
L 17.671875 0 
z
" id="ArialMT-70"/>
       <path d="M 7.71875 0 
L 7.71875 71.578125 
L 34.71875 71.578125 
Q 41.84375 71.578125 45.609375 70.90625 
Q 50.875 70.015625 54.4375 67.546875 
Q 58.015625 65.09375 60.1875 60.640625 
Q 62.359375 56.203125 62.359375 50.875 
Q 62.359375 41.75 56.546875 35.421875 
Q 50.734375 29.109375 35.546875 29.109375 
L 17.1875 29.109375 
L 17.1875 0 
z
M 17.1875 37.546875 
L 35.6875 37.546875 
Q 44.875 37.546875 48.734375 40.96875 
Q 52.59375 44.390625 52.59375 50.59375 
Q 52.59375 55.078125 50.3125 58.265625 
Q 48.046875 61.46875 44.34375 62.5 
Q 41.9375 63.140625 35.5 63.140625 
L 17.1875 63.140625 
z
" id="ArialMT-80"/>
      </defs>
      <use xlink:href="#ArialMT-83"/>
      <use x="66.699219" xlink:href="#ArialMT-99"/>
      <use x="116.699219" xlink:href="#ArialMT-97"/>
      <use x="172.314453" xlink:href="#ArialMT-108"/>
      <use x="194.53125" xlink:href="#ArialMT-101"/>
      <use x="250.146484" xlink:href="#ArialMT-100"/>
      <use x="305.761719" xlink:href="#ArialMT-32"/>
      <use x="333.544922" xlink:href="#ArialMT-115"/>
      <use x="383.544922" xlink:href="#ArialMT-102"/>
      <use x="411.328125" xlink:href="#ArialMT-71"/>
      <use x="489.111328" xlink:href="#ArialMT-70"/>
      <use x="550.195312" xlink:href="#ArialMT-80"/>
     </g>
    </g>
   </g>
   <g id="line2d_17">
    <path clip-path="url(#pc21fb53c5e)" d="M 32.027188 62.434543 
L 32.632855 62.173531 
L 34.291529 61.117305 
L 36.960486 59.184939 
L 39.327867 57.197788 
L 41.576291 55.017689 
L 43.796234 52.551315 
L 46.091571 49.660944 
L 48.579582 46.158904 
L 51.570221 41.542791 
L 60.960997 26.744467 
L 63.342217 23.588761 
L 65.48968 21.102165 
L 67.52365 19.080117 
L 69.504007 17.420418 
L 71.473942 16.057064 
L 73.463044 14.948455 
L 75.517119 14.057076 
L 77.680298 13.361906 
L 79.992188 12.854578 
L 82.520409 12.530981 
L 85.343506 12.398749 
L 88.579068 12.476076 
L 92.407112 12.797433 
L 97.163653 13.429682 
L 103.578868 14.521611 
L 114.180979 16.582863 
L 118.077187 17.365684 
L 118.077187 17.365684 
" style="fill:none;stroke:#008000;stroke-linecap:square;"/>
   </g>
   <g id="line2d_18">
    <path clip-path="url(#pc21fb53c5e)" d="M 32.027188 62.434543 
L 32.632855 62.174189 
L 34.702805 60.895492 
L 37.268765 59.422001 
L 38.565547 58.927746 
L 39.696461 58.733157 
L 40.88769 58.759252 
L 42.432435 59.032152 
L 48.780633 60.373551 
L 51.248539 60.545889 
L 53.857181 60.500042 
L 56.760699 60.221883 
L 60.36622 59.639187 
L 67.97099 58.100907 
L 67.97099 58.100907 
L 73.249619 57.181543 
L 77.871096 56.60554 
L 82.741566 56.227127 
L 88.360953 56.021209 
L 95.498277 55.994286 
L 106.026669 56.198171 
L 118.077187 56.560719 
L 118.077187 56.560719 
" style="fill:none;stroke:#ff0000;stroke-linecap:square;"/>
   </g>
   <g id="line2d_19">
    <path clip-path="url(#pc21fb53c5e)" d="M 32.027188 62.434543 
L 32.636386 62.171553 
L 34.355614 61.080673 
L 37.666281 58.737333 
L 37.666281 58.737333 
L 45.711154 52.857766 
L 49.355178 50.828221 
L 51.843284 49.703642 
L 52.76565 49.327245 
L 53.528035 48.770506 
L 55.576171 47.10904 
L 56.613261 46.620041 
L 57.744175 46.338316 
L 59.152613 46.228157 
L 59.917682 46.094613 
L 60.64688 45.749297 
L 64.381091 43.519464 
L 65.891783 43.072952 
L 67.800682 42.752431 
L 70.536355 42.536354 
L 74.979583 42.430377 
L 81.341905 42.505499 
L 88.727871 42.819703 
L 98.360981 43.468203 
L 117.21848 45.01295 
L 118.077187 45.084722 
L 118.077187 45.084722 
" style="fill:none;stroke:#aa67b2;stroke-linecap:square;"/>
   </g>
   <g id="line2d_20">
    <path clip-path="url(#pc21fb53c5e)" d="M 32.027188 62.434543 
L 32.632855 62.173531 
L 34.292328 61.116767 
L 37.026164 59.140722 
L 39.453265 57.114736 
L 41.773314 54.886516 
L 44.151723 52.284709 
L 46.851386 48.98607 
L 50.657258 44.327276 
L 51.952081 43.122565 
L 53.917847 41.410931 
L 55.202583 40.3737 
L 57.623544 38.64927 
L 58.950081 37.682319 
L 60.020499 37.178014 
L 62.165969 36.298283 
L 63.340424 35.208195 
L 64.841289 33.940778 
L 66.091335 33.176459 
L 67.376213 32.651228 
L 68.84852 32.295663 
L 70.680157 32.092709 
L 73.861534 32.013072 
L 82.198819 31.933897 
L 88.617871 32.173474 
L 95.36656 32.651514 
L 103.549906 33.466313 
L 116.775391 35.039514 
L 118.077187 35.2003 
L 118.077187 35.2003 
" style="fill:none;stroke:#ff9200;stroke-linecap:square;"/>
   </g>
   <g id="line2d_21">
    <path clip-path="url(#pc21fb53c5e)" d="M 32.027188 43.772286 
L 118.077187 43.772286 
" style="fill:none;stroke:#aa67b2;stroke-dasharray:3.7,1.6;stroke-dashoffset:0;"/>
   </g>
   <g id="line2d_22">
    <path clip-path="url(#pc21fb53c5e)" d="M 32.027188 31.240634 
L 118.077187 31.240634 
" style="fill:none;stroke:#ff9200;stroke-dasharray:3.7,1.6;stroke-dashoffset:0;"/>
   </g>
   <g id="patch_3">
    <path d="M 32.027188 64.36 
L 32.027188 7.2 
" style="fill:none;stroke:#000000;stroke-linecap:square;stroke-linejoin:miter;stroke-width:0.5;"/>
   </g>
   <g id="patch_4">
    <path d="M 118.077187 64.36 
L 118.077187 7.2 
" style="fill:none;stroke:#000000;stroke-linecap:square;stroke-linejoin:miter;stroke-width:0.5;"/>
   </g>
   <g id="patch_5">
    <path d="M 32.027188 64.36 
L 118.077187 64.36 
" style="fill:none;stroke:#000000;stroke-linecap:square;stroke-linejoin:miter;stroke-width:0.5;"/>
   </g>
   <g id="patch_6">
    <path d="M 32.027188 7.2 
L 118.077187 7.2 
" style="fill:none;stroke:#000000;stroke-linecap:square;stroke-linejoin:miter;stroke-width:0.5;"/>
   </g>
  </g>
 </g>
 <defs>
  <clipPath id="pc21fb53c5e">
   <rect height="57.16" width="86.05" x="32.027188" y="7.2"/>
  </clipPath>
 </defs>
</svg>
