<?xml version="1.0" encoding="utf-8" standalone="no"?>
<!DOCTYPE svg PUBLIC "-//W3C//DTD SVG 1.1//EN"
  "http://www.w3.org/Graphics/SVG/1.1/DTD/svg11.dtd">
<!-- Created with matplotlib (https://matplotlib.org/) -->
<svg height="106.810781pt" version="1.1" viewBox="0 0 142.971719 106.810781" width="142.971719pt" xmlns="http://www.w3.org/2000/svg" xmlns:xlink="http://www.w3.org/1999/xlink">
 <metadata>
  <rdf:RDF xmlns:cc="http://creativecommons.org/ns#" xmlns:dc="http://purl.org/dc/elements/1.1/" xmlns:rdf="http://www.w3.org/1999/02/22-rdf-syntax-ns#">
   <cc:Work>
    <dc:type rdf:resource="http://purl.org/dc/dcmitype/StillImage"/>
    <dc:date>2025-08-28T10:53:22.458358</dc:date>
    <dc:format>image/svg+xml</dc:format>
    <dc:creator>
     <cc:Agent>
      <dc:title>Matplotlib v3.3.4, https://matplotlib.org/</dc:title>
     </cc:Agent>
    </dc:creator>
   </cc:Work>
  </rdf:RDF>
 </metadata>
 <defs>
  <style type="text/css">*{stroke-linecap:butt;stroke-linejoin:round;}</style>
 </defs>
 <g id="figure_1">
  <g id="patch_1">
   <path d="M 0 106.810781 
L 142.971719 106.810781 
L 142.971719 0 
L 0 0 
z
" style="fill:none;"/>
  </g>
  <g id="axes_1">
   <g id="patch_2">
    <path d="M 34.331719 75.64 
L 135.771719 75.64 
L 135.771719 7.2 
L 34.331719 7.2 
z
" style="fill:none;"/>
   </g>
   <g id="PolyCollection_1">
    <defs>
     <path d="M 35.388385 -37.643782 
L 35.388385 -35.253177 
L 36.445052 -35.195914 
L 37.501719 -35.299236 
L 38.558385 -35.619737 
L 39.615052 -36.06088 
L 40.671719 -36.654195 
L 41.728385 -38.122849 
L 42.785052 -39.374872 
L 43.841719 -40.775605 
L 44.898385 -42.626391 
L 45.955052 -44.716727 
L 47.011719 -46.615223 
L 48.068385 -49.715755 
L 49.125052 -53.182641 
L 50.181719 -56.017604 
L 51.238385 -58.059874 
L 52.295052 -59.806405 
L 53.351719 -61.323032 
L 54.408385 -63.17999 
L 55.465052 -64.567266 
L 56.521719 -65.674389 
L 57.578385 -67.666805 
L 58.635052 -68.018717 
L 59.691719 -69.364982 
L 60.748385 -71.022807 
L 61.805052 -72.184114 
L 62.861719 -73.577372 
L 63.918385 -76.155671 
L 64.975052 -76.156018 
L 66.031719 -76.224002 
L 67.088385 -77.1239 
L 68.145052 -78.104864 
L 69.201719 -79.755675 
L 70.258385 -81.104069 
L 71.315052 -82.520192 
L 72.371719 -83.688784 
L 73.428385 -84.635205 
L 74.485052 -85.428441 
L 75.541719 -86.336373 
L 76.598385 -86.558053 
L 77.655052 -87.269286 
L 78.711719 -87.959127 
L 79.768385 -88.706099 
L 80.825052 -89.555492 
L 81.881719 -90.36929 
L 82.938385 -91.096543 
L 83.995052 -91.799594 
L 85.051719 -92.048946 
L 86.108385 -92.482232 
L 87.165052 -92.805646 
L 88.221719 -93.18721 
L 89.278385 -93.363316 
L 90.335052 -93.565632 
L 91.391719 -93.912378 
L 92.448385 -93.793131 
L 93.505052 -93.933989 
L 94.561719 -93.727635 
L 95.618385 -93.461119 
L 96.675052 -93.464055 
L 97.731719 -93.4501 
L 98.788385 -93.233816 
L 99.845052 -92.941431 
L 100.901719 -92.915069 
L 101.958385 -93.008593 
L 103.015052 -92.811691 
L 104.071719 -92.814041 
L 105.128385 -92.805107 
L 106.185052 -92.565341 
L 107.241719 -92.541149 
L 108.298385 -92.441026 
L 109.355052 -92.405109 
L 110.411719 -92.307098 
L 111.468385 -91.812166 
L 112.525052 -91.946303 
L 113.581719 -92.043514 
L 114.638385 -92.151232 
L 115.695052 -91.897405 
L 116.751719 -91.845838 
L 117.808385 -91.721883 
L 118.865052 -91.689083 
L 119.921719 -91.673079 
L 120.978385 -91.482355 
L 122.035052 -91.431455 
L 123.091719 -91.122832 
L 124.148385 -91.094245 
L 125.205052 -91.079176 
L 126.261719 -91.413345 
L 127.318385 -91.292122 
L 128.375052 -91.160472 
L 129.431719 -90.856725 
L 130.488385 -90.656326 
L 131.545052 -90.446873 
L 132.601719 -90.795569 
L 133.658385 -90.438537 
L 134.715052 -90.188918 
L 135.771719 -90.393925 
L 136.828385 -90.36277 
L 137.885052 -90.024764 
L 138.941719 -90.046254 
L 139.998385 -89.961458 
L 141.055052 -89.838014 
L 142.111719 -89.863662 
L 143.168385 -89.741055 
L 144.225052 -89.302761 
L 144.225052 -94.914001 
L 144.225052 -94.914001 
L 143.168385 -94.89507 
L 142.111719 -94.754115 
L 141.055052 -94.900762 
L 139.998385 -95.044394 
L 138.941719 -95.440212 
L 137.885052 -95.793121 
L 136.828385 -95.941794 
L 135.771719 -96.014396 
L 134.715052 -95.757383 
L 133.658385 -95.463229 
L 132.601719 -95.457214 
L 131.545052 -95.5793 
L 130.488385 -95.529962 
L 129.431719 -95.54027 
L 128.375052 -96.263843 
L 127.318385 -96.209002 
L 126.261719 -96.521172 
L 125.205052 -96.563947 
L 124.148385 -96.585578 
L 123.091719 -96.251532 
L 122.035052 -96.24282 
L 120.978385 -96.049495 
L 119.921719 -96.204915 
L 118.865052 -96.256036 
L 117.808385 -96.125764 
L 116.751719 -96.698487 
L 115.695052 -96.805059 
L 114.638385 -97.208394 
L 113.581719 -96.885835 
L 112.525052 -96.995688 
L 111.468385 -96.74515 
L 110.411719 -96.772349 
L 109.355052 -96.591607 
L 108.298385 -96.871366 
L 107.241719 -96.986006 
L 106.185052 -97.543212 
L 105.128385 -97.666082 
L 104.071719 -97.756604 
L 103.015052 -97.8265 
L 101.958385 -98.032955 
L 100.901719 -97.315179 
L 99.845052 -97.692386 
L 98.788385 -97.539378 
L 97.731719 -97.210781 
L 96.675052 -97.81542 
L 95.618385 -98.255057 
L 94.561719 -98.579174 
L 93.505052 -98.769478 
L 92.448385 -98.443924 
L 91.391719 -98.316975 
L 90.335052 -98.057718 
L 89.278385 -97.729742 
L 88.221719 -97.014415 
L 87.165052 -96.713472 
L 86.108385 -96.641256 
L 85.051719 -96.736981 
L 83.995052 -95.753454 
L 82.938385 -95.032474 
L 81.881719 -94.084427 
L 80.825052 -93.557559 
L 79.768385 -92.794932 
L 78.711719 -92.550072 
L 77.655052 -91.588451 
L 76.598385 -90.41664 
L 75.541719 -89.86335 
L 74.485052 -89.033954 
L 73.428385 -88.10076 
L 72.371719 -87.040521 
L 71.315052 -85.913791 
L 70.258385 -84.161914 
L 69.201719 -82.946165 
L 68.145052 -81.375117 
L 67.088385 -80.520405 
L 66.031719 -79.152883 
L 64.975052 -78.033804 
L 63.918385 -77.014198 
L 62.861719 -76.252399 
L 61.805052 -75.066829 
L 60.748385 -73.689766 
L 59.691719 -72.002831 
L 58.635052 -70.834238 
L 57.578385 -69.319866 
L 56.521719 -67.990943 
L 55.465052 -66.760749 
L 54.408385 -65.41612 
L 53.351719 -63.362208 
L 52.295052 -62.056966 
L 51.238385 -60.282046 
L 50.181719 -58.41727 
L 49.125052 -55.710319 
L 48.068385 -53.600316 
L 47.011719 -51.643197 
L 45.955052 -49.201137 
L 44.898385 -46.870225 
L 43.841719 -44.659541 
L 42.785052 -42.461482 
L 41.728385 -40.627282 
L 40.671719 -39.197137 
L 39.615052 -38.177234 
L 38.558385 -37.482223 
L 37.501719 -37.370962 
L 36.445052 -37.556359 
L 35.388385 -37.643782 
z
" id="m3bca36b12c" style="stroke:#74b867;stroke-opacity:0.7;"/>
    </defs>
    <g clip-path="url(#p9dd7dc12b7)">
     <use style="fill:#74b867;fill-opacity:0.7;stroke:#74b867;stroke-opacity:0.7;" x="0" xlink:href="#m3bca36b12c" y="106.810781"/>
    </g>
   </g>
   <g id="PolyCollection_2">
    <defs>
     <path d="M 35.388385 -35.740944 
L 35.388385 -34.854344 
L 36.445052 -34.657249 
L 37.501719 -34.715411 
L 38.558385 -34.532619 
L 39.615052 -34.275731 
L 40.671719 -34.274231 
L 41.728385 -34.517701 
L 42.785052 -34.605327 
L 43.841719 -34.574106 
L 44.898385 -34.85569 
L 45.955052 -35.193183 
L 47.011719 -35.755233 
L 48.068385 -36.450286 
L 49.125052 -36.753648 
L 50.181719 -37.286658 
L 51.238385 -37.722956 
L 52.295052 -37.767769 
L 53.351719 -37.756079 
L 54.408385 -37.776794 
L 55.465052 -37.74994 
L 56.521719 -37.76292 
L 57.578385 -37.746099 
L 58.635052 -37.804965 
L 59.691719 -37.878207 
L 60.748385 -37.872166 
L 61.805052 -37.945978 
L 62.861719 -38.015817 
L 63.918385 -38.096151 
L 64.975052 -38.166202 
L 66.031719 -38.231524 
L 67.088385 -38.454128 
L 68.145052 -38.68005 
L 69.201719 -38.926331 
L 70.258385 -39.255808 
L 71.315052 -39.558537 
L 72.371719 -39.885983 
L 73.428385 -40.385263 
L 74.485052 -40.632862 
L 75.541719 -40.940024 
L 76.598385 -41.238507 
L 77.655052 -41.673103 
L 78.711719 -41.956302 
L 79.768385 -42.141247 
L 80.825052 -42.341881 
L 81.881719 -42.439505 
L 82.938385 -42.459677 
L 83.995052 -42.456156 
L 85.051719 -42.395634 
L 86.108385 -42.415979 
L 87.165052 -42.303092 
L 88.221719 -42.280319 
L 89.278385 -42.152782 
L 90.335052 -42.267961 
L 91.391719 -42.21926 
L 92.448385 -42.166483 
L 93.505052 -42.067202 
L 94.561719 -42.113356 
L 95.618385 -41.991588 
L 96.675052 -42.025028 
L 97.731719 -42.007488 
L 98.788385 -42.071779 
L 99.845052 -41.992037 
L 100.901719 -41.988863 
L 101.958385 -41.958832 
L 103.015052 -41.763482 
L 104.071719 -41.775203 
L 105.128385 -41.868688 
L 106.185052 -41.839566 
L 107.241719 -41.647393 
L 108.298385 -41.620135 
L 109.355052 -41.59317 
L 110.411719 -41.509969 
L 111.468385 -41.404395 
L 112.525052 -41.347758 
L 113.581719 -41.56598 
L 114.638385 -41.494388 
L 115.695052 -41.460375 
L 116.751719 -41.389435 
L 117.808385 -41.361311 
L 118.865052 -41.318593 
L 119.921719 -41.144402 
L 120.978385 -41.109983 
L 122.035052 -41.1717 
L 123.091719 -41.091784 
L 124.148385 -41.059532 
L 125.205052 -41.030276 
L 126.261719 -40.964618 
L 127.318385 -40.944097 
L 128.375052 -40.787346 
L 129.431719 -40.753531 
L 130.488385 -40.679599 
L 131.545052 -40.625582 
L 132.601719 -40.684396 
L 133.658385 -40.629112 
L 134.715052 -40.564944 
L 135.771719 -40.532302 
L 136.828385 -40.500872 
L 137.885052 -40.433466 
L 138.941719 -40.31844 
L 139.998385 -40.29645 
L 141.055052 -40.380177 
L 142.111719 -40.306467 
L 143.168385 -40.251542 
L 144.225052 -40.219343 
L 144.225052 -43.471238 
L 144.225052 -43.471238 
L 143.168385 -43.560592 
L 142.111719 -43.577097 
L 141.055052 -43.650854 
L 139.998385 -43.726498 
L 138.941719 -43.873818 
L 137.885052 -43.949609 
L 136.828385 -44.040777 
L 135.771719 -44.134837 
L 134.715052 -44.114291 
L 133.658385 -44.146835 
L 132.601719 -44.194036 
L 131.545052 -44.236848 
L 130.488385 -44.307186 
L 129.431719 -44.413803 
L 128.375052 -44.548173 
L 127.318385 -44.634042 
L 126.261719 -44.731549 
L 125.205052 -44.8336 
L 124.148385 -44.888115 
L 123.091719 -44.837418 
L 122.035052 -44.887946 
L 120.978385 -44.992281 
L 119.921719 -44.969004 
L 118.865052 -44.980226 
L 117.808385 -45.079433 
L 116.751719 -45.240573 
L 115.695052 -45.366083 
L 114.638385 -45.418636 
L 113.581719 -45.482633 
L 112.525052 -45.547853 
L 111.468385 -45.502307 
L 110.411719 -45.508483 
L 109.355052 -45.574656 
L 108.298385 -45.653851 
L 107.241719 -45.665781 
L 106.185052 -45.753453 
L 105.128385 -45.859951 
L 104.071719 -45.858091 
L 103.015052 -45.983882 
L 101.958385 -45.928141 
L 100.901719 -45.9193 
L 99.845052 -45.870552 
L 98.788385 -45.928903 
L 97.731719 -45.994458 
L 96.675052 -46.06119 
L 95.618385 -46.118305 
L 94.561719 -46.20709 
L 93.505052 -46.266044 
L 92.448385 -46.259353 
L 91.391719 -46.213753 
L 90.335052 -46.242948 
L 89.278385 -46.212345 
L 88.221719 -46.232068 
L 87.165052 -46.357878 
L 86.108385 -46.493036 
L 85.051719 -46.59482 
L 83.995052 -46.641373 
L 82.938385 -46.680678 
L 81.881719 -46.286769 
L 80.825052 -45.638919 
L 79.768385 -45.094072 
L 78.711719 -44.400589 
L 77.655052 -43.979295 
L 76.598385 -43.400244 
L 75.541719 -42.956215 
L 74.485052 -42.384364 
L 73.428385 -41.801637 
L 72.371719 -41.283064 
L 71.315052 -40.788934 
L 70.258385 -40.286139 
L 69.201719 -39.914198 
L 68.145052 -39.480358 
L 67.088385 -39.212719 
L 66.031719 -38.995205 
L 64.975052 -38.869855 
L 63.918385 -38.710357 
L 62.861719 -38.709438 
L 61.805052 -38.486486 
L 60.748385 -38.394819 
L 59.691719 -38.289431 
L 58.635052 -38.197086 
L 57.578385 -38.131624 
L 56.521719 -38.119002 
L 55.465052 -38.111797 
L 54.408385 -38.138815 
L 53.351719 -38.085562 
L 52.295052 -38.123139 
L 51.238385 -38.085169 
L 50.181719 -38.023719 
L 49.125052 -37.991012 
L 48.068385 -37.890719 
L 47.011719 -37.32223 
L 45.955052 -37.093518 
L 44.898385 -36.823499 
L 43.841719 -36.5303 
L 42.785052 -36.349962 
L 41.728385 -36.12476 
L 40.671719 -35.283165 
L 39.615052 -34.955043 
L 38.558385 -34.938406 
L 37.501719 -34.871646 
L 36.445052 -35.163154 
L 35.388385 -35.740944 
z
" id="me5814832d2" style="stroke:#d94633;stroke-opacity:0.7;"/>
    </defs>
    <g clip-path="url(#p9dd7dc12b7)">
     <use style="fill:#d94633;fill-opacity:0.7;stroke:#d94633;stroke-opacity:0.7;" x="0" xlink:href="#me5814832d2" y="106.810781"/>
    </g>
   </g>
   <g id="matplotlib.axis_1">
    <g id="xtick_1">
     <g id="line2d_1">
      <defs>
       <path d="M 0 0 
L 0 3.5 
" id="mc8431e035b" style="stroke:#000000;stroke-width:0.8;"/>
      </defs>
      <g>
       <use style="stroke:#000000;stroke-width:0.8;" x="34.331719" xlink:href="#mc8431e035b" y="75.64"/>
      </g>
     </g>
     <g id="text_1">
      <!-- 0 -->
      <g transform="translate(32.385391 87.650469)scale(0.07 -0.07)">
       <defs>
        <path d="M 4.15625 35.296875 
Q 4.15625 48 6.765625 55.734375 
Q 9.375 63.484375 14.515625 67.671875 
Q 19.671875 71.875 27.484375 71.875 
Q 33.25 71.875 37.59375 69.546875 
Q 41.9375 67.234375 44.765625 62.859375 
Q 47.609375 58.5 49.21875 52.21875 
Q 50.828125 45.953125 50.828125 35.296875 
Q 50.828125 22.703125 48.234375 14.96875 
Q 45.65625 7.234375 40.5 3 
Q 35.359375 -1.21875 27.484375 -1.21875 
Q 17.140625 -1.21875 11.234375 6.203125 
Q 4.15625 15.140625 4.15625 35.296875 
z
M 13.1875 35.296875 
Q 13.1875 17.671875 17.3125 11.828125 
Q 21.4375 6 27.484375 6 
Q 33.546875 6 37.671875 11.859375 
Q 41.796875 17.71875 41.796875 35.296875 
Q 41.796875 52.984375 37.671875 58.78125 
Q 33.546875 64.59375 27.390625 64.59375 
Q 21.34375 64.59375 17.71875 59.46875 
Q 13.1875 52.9375 13.1875 35.296875 
z
" id="ArialMT-48"/>
       </defs>
       <use xlink:href="#ArialMT-48"/>
      </g>
     </g>
    </g>
    <g id="xtick_2">
     <g id="line2d_2">
      <g>
       <use style="stroke:#000000;stroke-width:0.8;" x="55.465052" xlink:href="#mc8431e035b" y="75.64"/>
      </g>
     </g>
     <g id="text_2">
      <!-- 200 -->
      <g transform="translate(49.626068 87.650469)scale(0.07 -0.07)">
       <defs>
        <path d="M 50.34375 8.453125 
L 50.34375 0 
L 3.03125 0 
Q 2.9375 3.171875 4.046875 6.109375 
Q 5.859375 10.9375 9.828125 15.625 
Q 13.8125 20.3125 21.34375 26.46875 
Q 33.015625 36.03125 37.109375 41.625 
Q 41.21875 47.21875 41.21875 52.203125 
Q 41.21875 57.421875 37.46875 61 
Q 33.734375 64.59375 27.734375 64.59375 
Q 21.390625 64.59375 17.578125 60.78125 
Q 13.765625 56.984375 13.71875 50.25 
L 4.6875 51.171875 
Q 5.609375 61.28125 11.65625 66.578125 
Q 17.71875 71.875 27.9375 71.875 
Q 38.234375 71.875 44.234375 66.15625 
Q 50.25 60.453125 50.25 52 
Q 50.25 47.703125 48.484375 43.546875 
Q 46.734375 39.40625 42.65625 34.8125 
Q 38.578125 30.21875 29.109375 22.21875 
Q 21.1875 15.578125 18.9375 13.203125 
Q 16.703125 10.84375 15.234375 8.453125 
z
" id="ArialMT-50"/>
       </defs>
       <use xlink:href="#ArialMT-50"/>
       <use x="55.615234" xlink:href="#ArialMT-48"/>
       <use x="111.230469" xlink:href="#ArialMT-48"/>
      </g>
     </g>
    </g>
    <g id="xtick_3">
     <g id="line2d_3">
      <g>
       <use style="stroke:#000000;stroke-width:0.8;" x="76.598385" xlink:href="#mc8431e035b" y="75.64"/>
      </g>
     </g>
     <g id="text_3">
      <!-- 400 -->
      <g transform="translate(70.759401 87.650469)scale(0.07 -0.07)">
       <defs>
        <path d="M 32.328125 0 
L 32.328125 17.140625 
L 1.265625 17.140625 
L 1.265625 25.203125 
L 33.9375 71.578125 
L 41.109375 71.578125 
L 41.109375 25.203125 
L 50.78125 25.203125 
L 50.78125 17.140625 
L 41.109375 17.140625 
L 41.109375 0 
z
M 32.328125 25.203125 
L 32.328125 57.46875 
L 9.90625 25.203125 
z
" id="ArialMT-52"/>
       </defs>
       <use xlink:href="#ArialMT-52"/>
       <use x="55.615234" xlink:href="#ArialMT-48"/>
       <use x="111.230469" xlink:href="#ArialMT-48"/>
      </g>
     </g>
    </g>
    <g id="xtick_4">
     <g id="line2d_4">
      <g>
       <use style="stroke:#000000;stroke-width:0.8;" x="97.731719" xlink:href="#mc8431e035b" y="75.64"/>
      </g>
     </g>
     <g id="text_4">
      <!-- 600 -->
      <g transform="translate(91.892734 87.650469)scale(0.07 -0.07)">
       <defs>
        <path d="M 49.75 54.046875 
L 41.015625 53.375 
Q 39.84375 58.546875 37.703125 60.890625 
Q 34.125 64.65625 28.90625 64.65625 
Q 24.703125 64.65625 21.53125 62.3125 
Q 17.390625 59.28125 14.984375 53.46875 
Q 12.59375 47.65625 12.5 36.921875 
Q 15.671875 41.75 20.265625 44.09375 
Q 24.859375 46.4375 29.890625 46.4375 
Q 38.671875 46.4375 44.84375 39.96875 
Q 51.03125 33.5 51.03125 23.25 
Q 51.03125 16.5 48.125 10.71875 
Q 45.21875 4.9375 40.140625 1.859375 
Q 35.0625 -1.21875 28.609375 -1.21875 
Q 17.625 -1.21875 10.6875 6.859375 
Q 3.765625 14.9375 3.765625 33.5 
Q 3.765625 54.25 11.421875 63.671875 
Q 18.109375 71.875 29.4375 71.875 
Q 37.890625 71.875 43.28125 67.140625 
Q 48.6875 62.40625 49.75 54.046875 
z
M 13.875 23.1875 
Q 13.875 18.65625 15.796875 14.5 
Q 17.71875 10.359375 21.1875 8.171875 
Q 24.65625 6 28.46875 6 
Q 34.03125 6 38.03125 10.484375 
Q 42.046875 14.984375 42.046875 22.703125 
Q 42.046875 30.125 38.078125 34.390625 
Q 34.125 38.671875 28.125 38.671875 
Q 22.171875 38.671875 18.015625 34.390625 
Q 13.875 30.125 13.875 23.1875 
z
" id="ArialMT-54"/>
       </defs>
       <use xlink:href="#ArialMT-54"/>
       <use x="55.615234" xlink:href="#ArialMT-48"/>
       <use x="111.230469" xlink:href="#ArialMT-48"/>
      </g>
     </g>
    </g>
    <g id="xtick_5">
     <g id="line2d_5">
      <g>
       <use style="stroke:#000000;stroke-width:0.8;" x="118.865052" xlink:href="#mc8431e035b" y="75.64"/>
      </g>
     </g>
     <g id="text_5">
      <!-- 800 -->
      <g transform="translate(113.026068 87.650469)scale(0.07 -0.07)">
       <defs>
        <path d="M 17.671875 38.8125 
Q 12.203125 40.828125 9.5625 44.53125 
Q 6.9375 48.25 6.9375 53.421875 
Q 6.9375 61.234375 12.546875 66.546875 
Q 18.171875 71.875 27.484375 71.875 
Q 36.859375 71.875 42.578125 66.421875 
Q 48.296875 60.984375 48.296875 53.171875 
Q 48.296875 48.1875 45.671875 44.5 
Q 43.0625 40.828125 37.75 38.8125 
Q 44.34375 36.671875 47.78125 31.875 
Q 51.21875 27.09375 51.21875 20.453125 
Q 51.21875 11.28125 44.71875 5.03125 
Q 38.234375 -1.21875 27.640625 -1.21875 
Q 17.046875 -1.21875 10.546875 5.046875 
Q 4.046875 11.328125 4.046875 20.703125 
Q 4.046875 27.6875 7.59375 32.390625 
Q 11.140625 37.109375 17.671875 38.8125 
z
M 15.921875 53.71875 
Q 15.921875 48.640625 19.1875 45.40625 
Q 22.46875 42.1875 27.6875 42.1875 
Q 32.765625 42.1875 36.015625 45.375 
Q 39.265625 48.578125 39.265625 53.21875 
Q 39.265625 58.0625 35.90625 61.359375 
Q 32.5625 64.65625 27.59375 64.65625 
Q 22.5625 64.65625 19.234375 61.421875 
Q 15.921875 58.203125 15.921875 53.71875 
z
M 13.09375 20.65625 
Q 13.09375 16.890625 14.875 13.375 
Q 16.65625 9.859375 20.171875 7.921875 
Q 23.6875 6 27.734375 6 
Q 34.03125 6 38.125 10.046875 
Q 42.234375 14.109375 42.234375 20.359375 
Q 42.234375 26.703125 38.015625 30.859375 
Q 33.796875 35.015625 27.4375 35.015625 
Q 21.234375 35.015625 17.15625 30.90625 
Q 13.09375 26.8125 13.09375 20.65625 
z
" id="ArialMT-56"/>
       </defs>
       <use xlink:href="#ArialMT-56"/>
       <use x="55.615234" xlink:href="#ArialMT-48"/>
       <use x="111.230469" xlink:href="#ArialMT-48"/>
      </g>
     </g>
    </g>
    <g id="text_6">
     <!-- Time (min) -->
     <g transform="translate(68.463359 98.1375)scale(0.07 -0.07)">
      <defs>
       <path d="M 25.921875 0 
L 25.921875 63.140625 
L 2.34375 63.140625 
L 2.34375 71.578125 
L 59.078125 71.578125 
L 59.078125 63.140625 
L 35.40625 63.140625 
L 35.40625 0 
z
" id="ArialMT-84"/>
       <path d="M 6.640625 61.46875 
L 6.640625 71.578125 
L 15.4375 71.578125 
L 15.4375 61.46875 
z
M 6.640625 0 
L 6.640625 51.859375 
L 15.4375 51.859375 
L 15.4375 0 
z
" id="ArialMT-105"/>
       <path d="M 6.59375 0 
L 6.59375 51.859375 
L 14.453125 51.859375 
L 14.453125 44.578125 
Q 16.890625 48.390625 20.9375 50.703125 
Q 25 53.03125 30.171875 53.03125 
Q 35.9375 53.03125 39.625 50.640625 
Q 43.3125 48.25 44.828125 43.953125 
Q 50.984375 53.03125 60.84375 53.03125 
Q 68.5625 53.03125 72.703125 48.75 
Q 76.859375 44.484375 76.859375 35.59375 
L 76.859375 0 
L 68.109375 0 
L 68.109375 32.671875 
Q 68.109375 37.9375 67.25 40.25 
Q 66.40625 42.578125 64.15625 43.984375 
Q 61.921875 45.40625 58.890625 45.40625 
Q 53.421875 45.40625 49.796875 41.765625 
Q 46.1875 38.140625 46.1875 30.125 
L 46.1875 0 
L 37.40625 0 
L 37.40625 33.6875 
Q 37.40625 39.546875 35.25 42.46875 
Q 33.109375 45.40625 28.21875 45.40625 
Q 24.515625 45.40625 21.359375 43.453125 
Q 18.21875 41.5 16.796875 37.734375 
Q 15.375 33.984375 15.375 26.90625 
L 15.375 0 
z
" id="ArialMT-109"/>
       <path d="M 42.09375 16.703125 
L 51.171875 15.578125 
Q 49.03125 7.625 43.21875 3.21875 
Q 37.40625 -1.171875 28.375 -1.171875 
Q 17 -1.171875 10.328125 5.828125 
Q 3.65625 12.84375 3.65625 25.484375 
Q 3.65625 38.578125 10.390625 45.796875 
Q 17.140625 53.03125 27.875 53.03125 
Q 38.28125 53.03125 44.875 45.953125 
Q 51.46875 38.875 51.46875 26.03125 
Q 51.46875 25.25 51.421875 23.6875 
L 12.75 23.6875 
Q 13.234375 15.140625 17.578125 10.59375 
Q 21.921875 6.0625 28.421875 6.0625 
Q 33.25 6.0625 36.671875 8.59375 
Q 40.09375 11.140625 42.09375 16.703125 
z
M 13.234375 30.90625 
L 42.1875 30.90625 
Q 41.609375 37.453125 38.875 40.71875 
Q 34.671875 45.796875 27.984375 45.796875 
Q 21.921875 45.796875 17.796875 41.75 
Q 13.671875 37.703125 13.234375 30.90625 
z
" id="ArialMT-101"/>
       <path id="ArialMT-32"/>
       <path d="M 23.390625 -21.046875 
Q 16.109375 -11.859375 11.078125 0.4375 
Q 6.0625 12.75 6.0625 25.921875 
Q 6.0625 37.546875 9.8125 48.1875 
Q 14.203125 60.546875 23.390625 72.796875 
L 29.6875 72.796875 
Q 23.78125 62.640625 21.875 58.296875 
Q 18.890625 51.5625 17.1875 44.234375 
Q 15.09375 35.109375 15.09375 25.875 
Q 15.09375 2.390625 29.6875 -21.046875 
z
" id="ArialMT-40"/>
       <path d="M 6.59375 0 
L 6.59375 51.859375 
L 14.5 51.859375 
L 14.5 44.484375 
Q 20.21875 53.03125 31 53.03125 
Q 35.6875 53.03125 39.625 51.34375 
Q 43.5625 49.65625 45.515625 46.921875 
Q 47.46875 44.1875 48.25 40.4375 
Q 48.734375 37.984375 48.734375 31.890625 
L 48.734375 0 
L 39.9375 0 
L 39.9375 31.546875 
Q 39.9375 36.921875 38.90625 39.578125 
Q 37.890625 42.234375 35.28125 43.8125 
Q 32.671875 45.40625 29.15625 45.40625 
Q 23.53125 45.40625 19.453125 41.84375 
Q 15.375 38.28125 15.375 28.328125 
L 15.375 0 
z
" id="ArialMT-110"/>
       <path d="M 12.359375 -21.046875 
L 6.0625 -21.046875 
Q 20.65625 2.390625 20.65625 25.875 
Q 20.65625 35.0625 18.5625 44.09375 
Q 16.890625 51.421875 13.921875 58.15625 
Q 12.015625 62.546875 6.0625 72.796875 
L 12.359375 72.796875 
Q 21.53125 60.546875 25.921875 48.1875 
Q 29.6875 37.546875 29.6875 25.921875 
Q 29.6875 12.75 24.625 0.4375 
Q 19.578125 -11.859375 12.359375 -21.046875 
z
" id="ArialMT-41"/>
      </defs>
      <use xlink:href="#ArialMT-84"/>
      <use x="57.333984" xlink:href="#ArialMT-105"/>
      <use x="79.550781" xlink:href="#ArialMT-109"/>
      <use x="162.851562" xlink:href="#ArialMT-101"/>
      <use x="218.466797" xlink:href="#ArialMT-32"/>
      <use x="246.25" xlink:href="#ArialMT-40"/>
      <use x="279.550781" xlink:href="#ArialMT-109"/>
      <use x="362.851562" xlink:href="#ArialMT-105"/>
      <use x="385.068359" xlink:href="#ArialMT-110"/>
      <use x="440.683594" xlink:href="#ArialMT-41"/>
     </g>
    </g>
   </g>
   <g id="matplotlib.axis_2">
    <g id="ytick_1">
     <g id="line2d_6">
      <defs>
       <path d="M 0 0 
L -3.5 0 
" id="m1c8df9cc2e" style="stroke:#000000;stroke-width:0.8;"/>
      </defs>
      <g>
       <use style="stroke:#000000;stroke-width:0.8;" x="34.331719" xlink:href="#m1c8df9cc2e" y="75.64"/>
      </g>
     </g>
     <g id="text_7">
      <!-- 0.0 -->
      <g transform="translate(17.601719 78.145234)scale(0.07 -0.07)">
       <defs>
        <path d="M 9.078125 0 
L 9.078125 10.015625 
L 19.09375 10.015625 
L 19.09375 0 
z
" id="ArialMT-46"/>
       </defs>
       <use xlink:href="#ArialMT-48"/>
       <use x="55.615234" xlink:href="#ArialMT-46"/>
       <use x="83.398438" xlink:href="#ArialMT-48"/>
      </g>
     </g>
    </g>
    <g id="ytick_2">
     <g id="line2d_7">
      <g>
       <use style="stroke:#000000;stroke-width:0.8;" x="34.331719" xlink:href="#m1c8df9cc2e" y="43.049524"/>
      </g>
     </g>
     <g id="text_8">
      <!-- 0.5 -->
      <g transform="translate(17.601719 45.554758)scale(0.07 -0.07)">
       <defs>
        <path d="M 4.15625 18.75 
L 13.375 19.53125 
Q 14.40625 12.796875 18.140625 9.390625 
Q 21.875 6 27.15625 6 
Q 33.5 6 37.890625 10.78125 
Q 42.28125 15.578125 42.28125 23.484375 
Q 42.28125 31 38.0625 35.34375 
Q 33.84375 39.703125 27 39.703125 
Q 22.75 39.703125 19.328125 37.765625 
Q 15.921875 35.84375 13.96875 32.765625 
L 5.71875 33.84375 
L 12.640625 70.609375 
L 48.25 70.609375 
L 48.25 62.203125 
L 19.671875 62.203125 
L 15.828125 42.96875 
Q 22.265625 47.46875 29.34375 47.46875 
Q 38.71875 47.46875 45.15625 40.96875 
Q 51.609375 34.46875 51.609375 24.265625 
Q 51.609375 14.546875 45.953125 7.46875 
Q 39.0625 -1.21875 27.15625 -1.21875 
Q 17.390625 -1.21875 11.203125 4.25 
Q 5.03125 9.71875 4.15625 18.75 
z
" id="ArialMT-53"/>
       </defs>
       <use xlink:href="#ArialMT-48"/>
       <use x="55.615234" xlink:href="#ArialMT-46"/>
       <use x="83.398438" xlink:href="#ArialMT-53"/>
      </g>
     </g>
    </g>
    <g id="ytick_3">
     <g id="line2d_8">
      <g>
       <use style="stroke:#000000;stroke-width:0.8;" x="34.331719" xlink:href="#m1c8df9cc2e" y="10.459048"/>
      </g>
     </g>
     <g id="text_9">
      <!-- 1.0 -->
      <g transform="translate(17.601719 12.964282)scale(0.07 -0.07)">
       <defs>
        <path d="M 37.25 0 
L 28.46875 0 
L 28.46875 56 
Q 25.296875 52.984375 20.140625 49.953125 
Q 14.984375 46.921875 10.890625 45.40625 
L 10.890625 53.90625 
Q 18.265625 57.375 23.78125 62.296875 
Q 29.296875 67.234375 31.59375 71.875 
L 37.25 71.875 
z
" id="ArialMT-49"/>
       </defs>
       <use xlink:href="#ArialMT-49"/>
       <use x="55.615234" xlink:href="#ArialMT-46"/>
       <use x="83.398438" xlink:href="#ArialMT-48"/>
      </g>
     </g>
    </g>
    <g id="text_10">
     <!-- Scaled sfGFP -->
     <g transform="translate(12.210469 63.010625)rotate(-90)scale(0.07 -0.07)">
      <defs>
       <path d="M 4.5 23 
L 13.421875 23.78125 
Q 14.0625 18.40625 16.375 14.96875 
Q 18.703125 11.53125 23.578125 9.40625 
Q 28.46875 7.28125 34.578125 7.28125 
Q 39.984375 7.28125 44.140625 8.890625 
Q 48.296875 10.5 50.3125 13.296875 
Q 52.34375 16.109375 52.34375 19.4375 
Q 52.34375 22.796875 50.390625 25.3125 
Q 48.4375 27.828125 43.953125 29.546875 
Q 41.0625 30.671875 31.203125 33.03125 
Q 21.34375 35.40625 17.390625 37.5 
Q 12.25 40.1875 9.734375 44.15625 
Q 7.234375 48.140625 7.234375 53.078125 
Q 7.234375 58.5 10.296875 63.203125 
Q 13.375 67.921875 19.28125 70.359375 
Q 25.203125 72.796875 32.421875 72.796875 
Q 40.375 72.796875 46.453125 70.234375 
Q 52.546875 67.671875 55.8125 62.6875 
Q 59.078125 57.71875 59.328125 51.421875 
L 50.25 50.734375 
Q 49.515625 57.515625 45.28125 60.984375 
Q 41.0625 64.453125 32.8125 64.453125 
Q 24.21875 64.453125 20.28125 61.296875 
Q 16.359375 58.15625 16.359375 53.71875 
Q 16.359375 49.859375 19.140625 47.359375 
Q 21.875 44.875 33.421875 42.265625 
Q 44.96875 39.65625 49.265625 37.703125 
Q 55.515625 34.8125 58.484375 30.390625 
Q 61.46875 25.984375 61.46875 20.21875 
Q 61.46875 14.5 58.203125 9.4375 
Q 54.9375 4.390625 48.796875 1.578125 
Q 42.671875 -1.21875 35.015625 -1.21875 
Q 25.296875 -1.21875 18.71875 1.609375 
Q 12.15625 4.4375 8.421875 10.125 
Q 4.6875 15.828125 4.5 23 
z
" id="ArialMT-83"/>
       <path d="M 40.4375 19 
L 49.078125 17.875 
Q 47.65625 8.9375 41.8125 3.875 
Q 35.984375 -1.171875 27.484375 -1.171875 
Q 16.84375 -1.171875 10.375 5.78125 
Q 3.90625 12.75 3.90625 25.734375 
Q 3.90625 34.125 6.6875 40.421875 
Q 9.46875 46.734375 15.15625 49.875 
Q 20.84375 53.03125 27.546875 53.03125 
Q 35.984375 53.03125 41.359375 48.75 
Q 46.734375 44.484375 48.25 36.625 
L 39.703125 35.296875 
Q 38.484375 40.53125 35.375 43.15625 
Q 32.28125 45.796875 27.875 45.796875 
Q 21.234375 45.796875 17.078125 41.03125 
Q 12.9375 36.28125 12.9375 25.984375 
Q 12.9375 15.53125 16.9375 10.796875 
Q 20.953125 6.0625 27.390625 6.0625 
Q 32.5625 6.0625 36.03125 9.234375 
Q 39.5 12.40625 40.4375 19 
z
" id="ArialMT-99"/>
       <path d="M 40.4375 6.390625 
Q 35.546875 2.25 31.03125 0.53125 
Q 26.515625 -1.171875 21.34375 -1.171875 
Q 12.796875 -1.171875 8.203125 3 
Q 3.609375 7.171875 3.609375 13.671875 
Q 3.609375 17.484375 5.34375 20.625 
Q 7.078125 23.78125 9.890625 25.6875 
Q 12.703125 27.59375 16.21875 28.5625 
Q 18.796875 29.25 24.03125 29.890625 
Q 34.671875 31.15625 39.703125 32.90625 
Q 39.75 34.71875 39.75 35.203125 
Q 39.75 40.578125 37.25 42.78125 
Q 33.890625 45.75 27.25 45.75 
Q 21.046875 45.75 18.09375 43.578125 
Q 15.140625 41.40625 13.71875 35.890625 
L 5.125 37.0625 
Q 6.296875 42.578125 8.984375 45.96875 
Q 11.671875 49.359375 16.75 51.1875 
Q 21.828125 53.03125 28.515625 53.03125 
Q 35.15625 53.03125 39.296875 51.46875 
Q 43.453125 49.90625 45.40625 47.53125 
Q 47.359375 45.171875 48.140625 41.546875 
Q 48.578125 39.3125 48.578125 33.453125 
L 48.578125 21.734375 
Q 48.578125 9.46875 49.140625 6.21875 
Q 49.703125 2.984375 51.375 0 
L 42.1875 0 
Q 40.828125 2.734375 40.4375 6.390625 
z
M 39.703125 26.03125 
Q 34.90625 24.078125 25.34375 22.703125 
Q 19.921875 21.921875 17.671875 20.9375 
Q 15.4375 19.96875 14.203125 18.09375 
Q 12.984375 16.21875 12.984375 13.921875 
Q 12.984375 10.40625 15.640625 8.0625 
Q 18.3125 5.71875 23.4375 5.71875 
Q 28.515625 5.71875 32.46875 7.9375 
Q 36.421875 10.15625 38.28125 14.015625 
Q 39.703125 17 39.703125 22.796875 
z
" id="ArialMT-97"/>
       <path d="M 6.390625 0 
L 6.390625 71.578125 
L 15.1875 71.578125 
L 15.1875 0 
z
" id="ArialMT-108"/>
       <path d="M 40.234375 0 
L 40.234375 6.546875 
Q 35.296875 -1.171875 25.734375 -1.171875 
Q 19.53125 -1.171875 14.328125 2.25 
Q 9.125 5.671875 6.265625 11.796875 
Q 3.421875 17.921875 3.421875 25.875 
Q 3.421875 33.640625 6 39.96875 
Q 8.59375 46.296875 13.765625 49.65625 
Q 18.953125 53.03125 25.34375 53.03125 
Q 30.03125 53.03125 33.6875 51.046875 
Q 37.359375 49.078125 39.65625 45.90625 
L 39.65625 71.578125 
L 48.390625 71.578125 
L 48.390625 0 
z
M 12.453125 25.875 
Q 12.453125 15.921875 16.640625 10.984375 
Q 20.84375 6.0625 26.5625 6.0625 
Q 32.328125 6.0625 36.34375 10.765625 
Q 40.375 15.484375 40.375 25.140625 
Q 40.375 35.796875 36.265625 40.765625 
Q 32.171875 45.75 26.171875 45.75 
Q 20.3125 45.75 16.375 40.96875 
Q 12.453125 36.1875 12.453125 25.875 
z
" id="ArialMT-100"/>
       <path d="M 3.078125 15.484375 
L 11.765625 16.84375 
Q 12.5 11.625 15.84375 8.84375 
Q 19.1875 6.0625 25.203125 6.0625 
Q 31.25 6.0625 34.171875 8.515625 
Q 37.109375 10.984375 37.109375 14.3125 
Q 37.109375 17.28125 34.515625 19 
Q 32.71875 20.171875 25.53125 21.96875 
Q 15.875 24.421875 12.140625 26.203125 
Q 8.40625 27.984375 6.46875 31.125 
Q 4.546875 34.28125 4.546875 38.09375 
Q 4.546875 41.546875 6.125 44.5 
Q 7.71875 47.46875 10.453125 49.421875 
Q 12.5 50.921875 16.03125 51.96875 
Q 19.578125 53.03125 23.640625 53.03125 
Q 29.734375 53.03125 34.34375 51.265625 
Q 38.96875 49.515625 41.15625 46.5 
Q 43.359375 43.5 44.1875 38.484375 
L 35.59375 37.3125 
Q 35.015625 41.3125 32.203125 43.546875 
Q 29.390625 45.796875 24.265625 45.796875 
Q 18.21875 45.796875 15.625 43.796875 
Q 13.03125 41.796875 13.03125 39.109375 
Q 13.03125 37.40625 14.109375 36.03125 
Q 15.1875 34.625 17.484375 33.6875 
Q 18.796875 33.203125 25.25 31.453125 
Q 34.578125 28.953125 38.25 27.359375 
Q 41.9375 25.78125 44.03125 22.75 
Q 46.140625 19.734375 46.140625 15.234375 
Q 46.140625 10.84375 43.578125 6.953125 
Q 41.015625 3.078125 36.171875 0.953125 
Q 31.34375 -1.171875 25.25 -1.171875 
Q 15.140625 -1.171875 9.84375 3.03125 
Q 4.546875 7.234375 3.078125 15.484375 
z
" id="ArialMT-115"/>
       <path d="M 8.6875 0 
L 8.6875 45.015625 
L 0.921875 45.015625 
L 0.921875 51.859375 
L 8.6875 51.859375 
L 8.6875 57.375 
Q 8.6875 62.59375 9.625 65.140625 
Q 10.890625 68.5625 14.078125 70.671875 
Q 17.28125 72.796875 23.046875 72.796875 
Q 26.765625 72.796875 31.25 71.921875 
L 29.9375 64.265625 
Q 27.203125 64.75 24.75 64.75 
Q 20.75 64.75 19.09375 63.03125 
Q 17.4375 61.328125 17.4375 56.640625 
L 17.4375 51.859375 
L 27.546875 51.859375 
L 27.546875 45.015625 
L 17.4375 45.015625 
L 17.4375 0 
z
" id="ArialMT-102"/>
       <path d="M 41.21875 28.078125 
L 41.21875 36.46875 
L 71.53125 36.53125 
L 71.53125 9.96875 
Q 64.546875 4.390625 57.125 1.578125 
Q 49.703125 -1.21875 41.890625 -1.21875 
Q 31.34375 -1.21875 22.71875 3.296875 
Q 14.109375 7.8125 9.71875 16.359375 
Q 5.328125 24.90625 5.328125 35.453125 
Q 5.328125 45.90625 9.6875 54.953125 
Q 14.0625 64.015625 22.265625 68.40625 
Q 30.46875 72.796875 41.15625 72.796875 
Q 48.921875 72.796875 55.1875 70.28125 
Q 61.46875 67.78125 65.03125 63.28125 
Q 68.609375 58.796875 70.453125 51.5625 
L 61.921875 49.21875 
Q 60.296875 54.6875 57.90625 57.8125 
Q 55.515625 60.9375 51.0625 62.8125 
Q 46.625 64.703125 41.21875 64.703125 
Q 34.71875 64.703125 29.984375 62.71875 
Q 25.25 60.75 22.34375 57.515625 
Q 19.4375 54.296875 17.828125 50.4375 
Q 15.09375 43.796875 15.09375 36.03125 
Q 15.09375 26.46875 18.390625 20.015625 
Q 21.6875 13.578125 27.984375 10.453125 
Q 34.28125 7.328125 41.359375 7.328125 
Q 47.515625 7.328125 53.375 9.6875 
Q 59.234375 12.0625 62.25 14.75 
L 62.25 28.078125 
z
" id="ArialMT-71"/>
       <path d="M 8.203125 0 
L 8.203125 71.578125 
L 56.5 71.578125 
L 56.5 63.140625 
L 17.671875 63.140625 
L 17.671875 40.96875 
L 51.265625 40.96875 
L 51.265625 32.515625 
L 17.671875 32.515625 
L 17.671875 0 
z
" id="ArialMT-70"/>
       <path d="M 7.71875 0 
L 7.71875 71.578125 
L 34.71875 71.578125 
Q 41.84375 71.578125 45.609375 70.90625 
Q 50.875 70.015625 54.4375 67.546875 
Q 58.015625 65.09375 60.1875 60.640625 
Q 62.359375 56.203125 62.359375 50.875 
Q 62.359375 41.75 56.546875 35.421875 
Q 50.734375 29.109375 35.546875 29.109375 
L 17.1875 29.109375 
L 17.1875 0 
z
M 17.1875 37.546875 
L 35.6875 37.546875 
Q 44.875 37.546875 48.734375 40.96875 
Q 52.59375 44.390625 52.59375 50.59375 
Q 52.59375 55.078125 50.3125 58.265625 
Q 48.046875 61.46875 44.34375 62.5 
Q 41.9375 63.140625 35.5 63.140625 
L 17.1875 63.140625 
z
" id="ArialMT-80"/>
      </defs>
      <use xlink:href="#ArialMT-83"/>
      <use x="66.699219" xlink:href="#ArialMT-99"/>
      <use x="116.699219" xlink:href="#ArialMT-97"/>
      <use x="172.314453" xlink:href="#ArialMT-108"/>
      <use x="194.53125" xlink:href="#ArialMT-101"/>
      <use x="250.146484" xlink:href="#ArialMT-100"/>
      <use x="305.761719" xlink:href="#ArialMT-32"/>
      <use x="333.544922" xlink:href="#ArialMT-115"/>
      <use x="383.544922" xlink:href="#ArialMT-102"/>
      <use x="411.328125" xlink:href="#ArialMT-71"/>
      <use x="489.111328" xlink:href="#ArialMT-70"/>
      <use x="550.195312" xlink:href="#ArialMT-80"/>
     </g>
    </g>
   </g>
   <g id="line2d_9">
    <path clip-path="url(#p9dd7dc12b7)" d="M 34.331719 72.134358 
L 34.935105 71.649312 
L 35.342949 70.887936 
L 35.93647 69.243169 
L 37.222245 64.851245 
L 39.493585 57.297348 
L 41.40941 51.706324 
L 43.341037 46.742308 
L 45.296364 42.324211 
L 47.275392 38.398902 
L 49.278121 34.917484 
L 51.302842 31.83747 
L 53.352775 29.112768 
L 55.452372 26.680255 
L 57.615369 24.504036 
L 59.852688 22.558121 
L 62.210931 20.79681 
L 64.74298 19.188448 
L 67.39156 17.77037 
L 70.277405 16.484385 
L 73.283217 15.382368 
L 76.627972 14.387806 
L 80.261167 13.530445 
L 84.622139 12.739982 
L 89.652663 12.070673 
L 95.731952 11.509869 
L 102.617074 11.096183 
L 112.221878 10.758901 
L 125.618831 10.535418 
L 135.771719 10.459048 
L 135.771719 10.459048 
" style="fill:none;stroke:#000000;stroke-dasharray:3.7,1.6;stroke-dashoffset:0;"/>
   </g>
   <g id="line2d_10">
    <path clip-path="url(#p9dd7dc12b7)" d="M 34.331719 72.134358 
L 35.05361 71.576531 
L 36.054974 70.731134 
L 37.048438 70.19828 
L 38.609105 69.586792 
L 43.770922 68.029102 
L 50.235609 66.70843 
L 60.702949 65.465257 
L 66.5166 65.069808 
L 70.026314 64.890568 
L 83.990825 64.492625 
L 87.357622 64.444648 
L 108.443554 64.284722 
L 116.140432 64.259447 
L 119.995685 64.254907 
L 123.450195 64.249728 
L 128.056077 64.236686 
L 135.771719 64.236471 
L 135.771719 64.236471 
" style="fill:none;stroke:#000000;stroke-dasharray:3.7,1.6;stroke-dashoffset:0;"/>
   </g>
   <g id="patch_3">
    <path d="M 34.331719 75.64 
L 34.331719 7.2 
" style="fill:none;stroke:#000000;stroke-linecap:square;stroke-linejoin:miter;stroke-width:0.5;"/>
   </g>
   <g id="patch_4">
    <path d="M 135.771719 75.64 
L 135.771719 7.2 
" style="fill:none;stroke:#000000;stroke-linecap:square;stroke-linejoin:miter;stroke-width:0.5;"/>
   </g>
   <g id="patch_5">
    <path d="M 34.331719 75.64 
L 135.771719 75.64 
" style="fill:none;stroke:#000000;stroke-linecap:square;stroke-linejoin:miter;stroke-width:0.5;"/>
   </g>
   <g id="patch_6">
    <path d="M 34.331719 7.2 
L 135.771719 7.2 
" style="fill:none;stroke:#000000;stroke-linecap:square;stroke-linejoin:miter;stroke-width:0.5;"/>
   </g>
   <g id="legend_1">
    <g id="line2d_11">
     <path d="M 77.890469 32.383906 
L 89.890469 32.383906 
" style="fill:none;stroke:#000000;stroke-dasharray:3.7,1.6;stroke-dashoffset:0;"/>
    </g>
    <g id="line2d_12"/>
    <g id="text_11">
     <!-- Model Fit -->
     <g transform="translate(94.690469 34.483906)scale(0.06 -0.06)">
      <defs>
       <path d="M 7.421875 0 
L 7.421875 71.578125 
L 21.6875 71.578125 
L 38.625 20.90625 
Q 40.96875 13.8125 42.046875 10.296875 
Q 43.265625 14.203125 45.84375 21.78125 
L 62.984375 71.578125 
L 75.734375 71.578125 
L 75.734375 0 
L 66.609375 0 
L 66.609375 59.90625 
L 45.796875 0 
L 37.25 0 
L 16.546875 60.9375 
L 16.546875 0 
z
" id="ArialMT-77"/>
       <path d="M 3.328125 25.921875 
Q 3.328125 40.328125 11.328125 47.265625 
Q 18.015625 53.03125 27.640625 53.03125 
Q 38.328125 53.03125 45.109375 46.015625 
Q 51.90625 39.015625 51.90625 26.65625 
Q 51.90625 16.65625 48.90625 10.90625 
Q 45.90625 5.171875 40.15625 2 
Q 34.421875 -1.171875 27.640625 -1.171875 
Q 16.75 -1.171875 10.03125 5.8125 
Q 3.328125 12.796875 3.328125 25.921875 
z
M 12.359375 25.921875 
Q 12.359375 15.96875 16.703125 11.015625 
Q 21.046875 6.0625 27.640625 6.0625 
Q 34.1875 6.0625 38.53125 11.03125 
Q 42.875 16.015625 42.875 26.21875 
Q 42.875 35.84375 38.5 40.796875 
Q 34.125 45.75 27.640625 45.75 
Q 21.046875 45.75 16.703125 40.8125 
Q 12.359375 35.890625 12.359375 25.921875 
z
" id="ArialMT-111"/>
       <path d="M 25.78125 7.859375 
L 27.046875 0.09375 
Q 23.34375 -0.6875 20.40625 -0.6875 
Q 15.625 -0.6875 12.984375 0.828125 
Q 10.359375 2.34375 9.28125 4.8125 
Q 8.203125 7.28125 8.203125 15.1875 
L 8.203125 45.015625 
L 1.765625 45.015625 
L 1.765625 51.859375 
L 8.203125 51.859375 
L 8.203125 64.703125 
L 16.9375 69.96875 
L 16.9375 51.859375 
L 25.78125 51.859375 
L 25.78125 45.015625 
L 16.9375 45.015625 
L 16.9375 14.703125 
Q 16.9375 10.9375 17.40625 9.859375 
Q 17.875 8.796875 18.921875 8.15625 
Q 19.96875 7.515625 21.921875 7.515625 
Q 23.390625 7.515625 25.78125 7.859375 
z
" id="ArialMT-116"/>
      </defs>
      <use xlink:href="#ArialMT-77"/>
      <use x="83.300781" xlink:href="#ArialMT-111"/>
      <use x="138.916016" xlink:href="#ArialMT-100"/>
      <use x="194.53125" xlink:href="#ArialMT-101"/>
      <use x="250.146484" xlink:href="#ArialMT-108"/>
      <use x="272.363281" xlink:href="#ArialMT-32"/>
      <use x="300.146484" xlink:href="#ArialMT-70"/>
      <use x="361.230469" xlink:href="#ArialMT-105"/>
      <use x="383.447266" xlink:href="#ArialMT-116"/>
     </g>
    </g>
    <g id="patch_7">
     <path d="M 77.890469 42.971094 
L 89.890469 42.971094 
L 89.890469 38.771094 
L 77.890469 38.771094 
z
" style="fill:#74b867;opacity:0.7;stroke:#74b867;stroke-linejoin:miter;"/>
    </g>
    <g id="text_12">
     <!-- Const. Green -->
     <g transform="translate(94.690469 42.971094)scale(0.06 -0.06)">
      <defs>
       <path d="M 58.796875 25.09375 
L 68.265625 22.703125 
Q 65.28125 11.03125 57.546875 4.90625 
Q 49.8125 -1.21875 38.625 -1.21875 
Q 27.046875 -1.21875 19.796875 3.484375 
Q 12.546875 8.203125 8.765625 17.140625 
Q 4.984375 26.078125 4.984375 36.328125 
Q 4.984375 47.515625 9.25 55.828125 
Q 13.53125 64.15625 21.40625 68.46875 
Q 29.296875 72.796875 38.765625 72.796875 
Q 49.515625 72.796875 56.828125 67.328125 
Q 64.15625 61.859375 67.046875 51.953125 
L 57.71875 49.75 
Q 55.21875 57.5625 50.484375 61.125 
Q 45.75 64.703125 38.578125 64.703125 
Q 30.328125 64.703125 24.78125 60.734375 
Q 19.234375 56.78125 16.984375 50.109375 
Q 14.75 43.453125 14.75 36.375 
Q 14.75 27.25 17.40625 20.4375 
Q 20.0625 13.625 25.671875 10.25 
Q 31.296875 6.890625 37.84375 6.890625 
Q 45.796875 6.890625 51.3125 11.46875 
Q 56.84375 16.0625 58.796875 25.09375 
z
" id="ArialMT-67"/>
       <path d="M 6.5 0 
L 6.5 51.859375 
L 14.40625 51.859375 
L 14.40625 44 
Q 17.4375 49.515625 20 51.265625 
Q 22.5625 53.03125 25.640625 53.03125 
Q 30.078125 53.03125 34.671875 50.203125 
L 31.640625 42.046875 
Q 28.421875 43.953125 25.203125 43.953125 
Q 22.3125 43.953125 20.015625 42.21875 
Q 17.71875 40.484375 16.75 37.40625 
Q 15.28125 32.71875 15.28125 27.15625 
L 15.28125 0 
z
" id="ArialMT-114"/>
      </defs>
      <use xlink:href="#ArialMT-67"/>
      <use x="72.216797" xlink:href="#ArialMT-111"/>
      <use x="127.832031" xlink:href="#ArialMT-110"/>
      <use x="183.447266" xlink:href="#ArialMT-115"/>
      <use x="233.447266" xlink:href="#ArialMT-116"/>
      <use x="261.230469" xlink:href="#ArialMT-46"/>
      <use x="289.013672" xlink:href="#ArialMT-32"/>
      <use x="316.796875" xlink:href="#ArialMT-71"/>
      <use x="394.580078" xlink:href="#ArialMT-114"/>
      <use x="427.880859" xlink:href="#ArialMT-101"/>
      <use x="483.496094" xlink:href="#ArialMT-101"/>
      <use x="539.111328" xlink:href="#ArialMT-110"/>
     </g>
    </g>
    <g id="patch_8">
     <path d="M 77.890469 51.458281 
L 89.890469 51.458281 
L 89.890469 47.258281 
L 77.890469 47.258281 
z
" style="fill:#d94633;opacity:0.7;stroke:#d94633;stroke-linejoin:miter;"/>
    </g>
    <g id="text_13">
     <!-- Const. Red -->
     <g transform="translate(94.690469 51.458281)scale(0.06 -0.06)">
      <defs>
       <path d="M 7.859375 0 
L 7.859375 71.578125 
L 39.59375 71.578125 
Q 49.171875 71.578125 54.140625 69.640625 
Q 59.125 67.71875 62.109375 62.828125 
Q 65.09375 57.953125 65.09375 52.046875 
Q 65.09375 44.4375 60.15625 39.203125 
Q 55.21875 33.984375 44.921875 32.5625 
Q 48.6875 30.765625 50.640625 29 
Q 54.78125 25.203125 58.5 19.484375 
L 70.953125 0 
L 59.03125 0 
L 49.5625 14.890625 
Q 45.40625 21.34375 42.71875 24.75 
Q 40.046875 28.171875 37.921875 29.53125 
Q 35.796875 30.90625 33.59375 31.453125 
Q 31.984375 31.78125 28.328125 31.78125 
L 17.328125 31.78125 
L 17.328125 0 
z
M 17.328125 39.984375 
L 37.703125 39.984375 
Q 44.1875 39.984375 47.84375 41.328125 
Q 51.515625 42.671875 53.421875 45.625 
Q 55.328125 48.578125 55.328125 52.046875 
Q 55.328125 57.125 51.640625 60.390625 
Q 47.953125 63.671875 39.984375 63.671875 
L 17.328125 63.671875 
z
" id="ArialMT-82"/>
      </defs>
      <use xlink:href="#ArialMT-67"/>
      <use x="72.216797" xlink:href="#ArialMT-111"/>
      <use x="127.832031" xlink:href="#ArialMT-110"/>
      <use x="183.447266" xlink:href="#ArialMT-115"/>
      <use x="233.447266" xlink:href="#ArialMT-116"/>
      <use x="261.230469" xlink:href="#ArialMT-46"/>
      <use x="289.013672" xlink:href="#ArialMT-32"/>
      <use x="316.796875" xlink:href="#ArialMT-82"/>
      <use x="389.013672" xlink:href="#ArialMT-101"/>
      <use x="444.628906" xlink:href="#ArialMT-100"/>
     </g>
    </g>
   </g>
  </g>
 </g>
 <defs>
  <clipPath id="p9dd7dc12b7">
   <rect height="68.44" width="101.44" x="34.331719" y="7.2"/>
  </clipPath>
 </defs>
</svg>
