<?xml version="1.0" encoding="UTF-8"?>
<svg id="Layer_1" xmlns="http://www.w3.org/2000/svg" xmlns:xlink="http://www.w3.org/1999/xlink" version="1.1" viewBox="0 0 116.84 87.91">
  <!-- Generator: Adobe Illustrator 29.7.1, SVG Export Plug-In . SVG Version: 2.1.1 Build 8)  -->
  <defs>
    <style>
      .st0, .st1, .st2, .st3, .st4 {
        fill: none;
      }

      .st1, .st2 {
        stroke-dasharray: 3.7 1.6;
      }

      .st1, .st2, .st3, .st5, .st6, .st7 {
        stroke-linejoin: round;
      }

      .st1, .st3 {
        stroke: #f29935;
      }

      .st2, .st7 {
        stroke: #74b867;
      }

      .st8 {
        clip-path: url(#clippath-17);
      }

      .st9 {
        clip-path: url(#clippath-19);
      }

      .st10 {
        clip-path: url(#clippath-11);
      }

      .st11 {
        clip-path: url(#clippath-16);
      }

      .st12 {
        clip-path: url(#clippath-18);
      }

      .st13 {
        clip-path: url(#clippath-10);
      }

      .st14 {
        clip-path: url(#clippath-15);
      }

      .st15 {
        clip-path: url(#clippath-13);
      }

      .st16 {
        clip-path: url(#clippath-14);
      }

      .st17 {
        clip-path: url(#clippath-12);
      }

      .st18 {
        clip-path: url(#clippath-27);
      }

      .st19 {
        clip-path: url(#clippath-26);
      }

      .st20 {
        clip-path: url(#clippath-28);
      }

      .st21 {
        clip-path: url(#clippath-20);
      }

      .st22 {
        clip-path: url(#clippath-21);
      }

      .st23 {
        clip-path: url(#clippath-22);
      }

      .st24 {
        clip-path: url(#clippath-23);
      }

      .st25 {
        clip-path: url(#clippath-24);
      }

      .st26 {
        clip-path: url(#clippath-25);
      }

      .st27 {
        clip-path: url(#clippath-1);
      }

      .st28 {
        clip-path: url(#clippath-3);
      }

      .st29 {
        clip-path: url(#clippath-4);
      }

      .st30 {
        clip-path: url(#clippath-2);
      }

      .st31 {
        clip-path: url(#clippath-7);
      }

      .st32 {
        clip-path: url(#clippath-6);
      }

      .st33 {
        clip-path: url(#clippath-9);
      }

      .st34 {
        clip-path: url(#clippath-8);
      }

      .st35 {
        clip-path: url(#clippath-5);
      }

      .st36, .st37, .st7 {
        fill: #74b867;
      }

      .st3, .st4 {
        stroke-linecap: square;
      }

      .st5 {
        stroke-width: .6px;
      }

      .st5, .st6, .st4 {
        stroke: #000;
      }

      .st6 {
        stroke-width: .8px;
      }

      .st4 {
        stroke-width: .5px;
      }

      .st37 {
        fill-opacity: .5;
      }

      .st38 {
        clip-path: url(#clippath);
      }
    </style>
    <clipPath id="clippath">
      <rect class="st0" x="30.01" y="9.35" width="56.49" height="52.74"/>
    </clipPath>
    <clipPath id="clippath-1">
      <rect class="st0" x="30.01" y="9.35" width="56.49" height="52.74"/>
    </clipPath>
    <clipPath id="clippath-2">
      <rect class="st0" x="30.01" y="9.35" width="56.49" height="52.74"/>
    </clipPath>
    <clipPath id="clippath-3">
      <rect class="st0" x="30.01" y="9.35" width="56.49" height="52.74"/>
    </clipPath>
    <clipPath id="clippath-4">
      <rect class="st0" x="30.01" y="9.35" width="56.49" height="52.74"/>
    </clipPath>
    <clipPath id="clippath-5">
      <rect class="st0" x="30.01" y="9.35" width="56.49" height="52.74"/>
    </clipPath>
    <clipPath id="clippath-6">
      <rect class="st0" x="30.01" y="9.35" width="56.49" height="52.74"/>
    </clipPath>
    <clipPath id="clippath-7">
      <rect class="st0" x="30.01" y="9.35" width="56.49" height="52.74"/>
    </clipPath>
    <clipPath id="clippath-8">
      <rect class="st0" x="30.01" y="9.35" width="56.49" height="52.74"/>
    </clipPath>
    <clipPath id="clippath-9">
      <rect class="st0" x="30.01" y="9.35" width="56.49" height="52.74"/>
    </clipPath>
    <clipPath id="clippath-10">
      <rect class="st0" x="30.01" y="9.35" width="56.49" height="52.74"/>
    </clipPath>
    <clipPath id="clippath-11">
      <rect class="st0" x="30.01" y="9.35" width="56.49" height="52.74"/>
    </clipPath>
    <clipPath id="clippath-12">
      <rect class="st0" x="30.01" y="9.35" width="56.49" height="52.74"/>
    </clipPath>
    <clipPath id="clippath-13">
      <rect class="st0" x="30.01" y="9.35" width="56.49" height="52.74"/>
    </clipPath>
    <clipPath id="clippath-14">
      <rect class="st0" x="30.01" y="9.35" width="56.49" height="52.74"/>
    </clipPath>
    <clipPath id="clippath-15">
      <rect class="st0" x="30.01" y="9.35" width="56.49" height="52.74"/>
    </clipPath>
    <clipPath id="clippath-16">
      <rect class="st0" x="30.01" y="9.35" width="56.49" height="52.74"/>
    </clipPath>
    <clipPath id="clippath-17">
      <rect class="st0" x="30.01" y="9.35" width="56.49" height="52.74"/>
    </clipPath>
    <clipPath id="clippath-18">
      <rect class="st0" x="30.01" y="9.35" width="56.49" height="52.74"/>
    </clipPath>
    <clipPath id="clippath-19">
      <rect class="st0" x="30.01" y="9.35" width="56.49" height="52.74"/>
    </clipPath>
    <clipPath id="clippath-20">
      <rect class="st0" x="30.01" y="9.35" width="56.49" height="52.74"/>
    </clipPath>
    <clipPath id="clippath-21">
      <rect class="st0" x="30.01" y="9.35" width="56.49" height="52.74"/>
    </clipPath>
    <clipPath id="clippath-22">
      <rect class="st0" x="30.01" y="9.35" width="56.49" height="52.74"/>
    </clipPath>
    <clipPath id="clippath-23">
      <rect class="st0" x="30.01" y="9.35" width="56.49" height="52.74"/>
    </clipPath>
    <clipPath id="clippath-24">
      <rect class="st0" x="30.01" y="9.35" width="56.49" height="52.74"/>
    </clipPath>
    <clipPath id="clippath-25">
      <rect class="st0" x="30.01" y="9.35" width="56.49" height="52.74"/>
    </clipPath>
    <clipPath id="clippath-26">
      <rect class="st0" x="30.01" y="9.35" width="56.49" height="52.74"/>
    </clipPath>
    <clipPath id="clippath-27">
      <rect class="st0" x="30.01" y="9.35" width="56.49" height="52.74"/>
    </clipPath>
    <clipPath id="clippath-28">
      <rect class="st0" x="30.01" y="9.35" width="56.49" height="52.74"/>
    </clipPath>
  </defs>
  <g id="axes_1">
    <g id="patch_2">
      <path class="st0" d="M30.01,62.09h56.49V9.35H30.01v52.74Z"/>
    </g>
    <g id="matplotlib.axis_1">
      <g id="xtick_1">
        <g id="line2d_1">
          <path id="m062c38361f" class="st6" d="M30.01,62.09v3.5"/>
        </g>
        <g id="text_1">
          <path id="ArialMT-30" d="M28.59,69.76c0-.51.05-.92.16-1.23.1-.31.26-.55.46-.72.21-.17.47-.25.78-.25.23,0,.43.05.61.14.17.09.32.23.43.4.11.17.2.39.27.64.06.25.1.59.1,1.02,0,.5-.05.91-.16,1.22-.1.31-.26.55-.46.72-.21.17-.47.25-.78.25-.41,0-.74-.15-.97-.45-.28-.36-.42-.94-.42-1.75ZM29.13,69.76c0,.7.08,1.17.25,1.41.16.23.37.35.61.35s.45-.12.61-.35.25-.7.25-1.41-.08-1.18-.25-1.41c-.16-.23-.37-.35-.62-.35s-.44.1-.58.31c-.18.26-.27.74-.27,1.45Z"/>
        </g>
      </g>
      <g id="xtick_2">
        <g id="line2d_2">
          <path id="m062c38361f1" data-name="m062c38361f" class="st6" d="M75.2,62.09v3.5"/>
        </g>
        <g id="text_2">
          <g>
            <path id="ArialMT-32" d="M73.22,71.37v.51h-2.84c0-.13.02-.25.06-.37.07-.19.19-.38.35-.57.16-.19.39-.4.69-.65.47-.38.78-.69.95-.91.16-.22.25-.44.25-.63s-.07-.38-.22-.53c-.15-.14-.34-.22-.58-.22-.25,0-.46.08-.61.23-.15.15-.23.36-.23.63l-.54-.06c.04-.4.18-.71.42-.92.24-.21.57-.32.98-.32s.74.11.98.34c.24.23.36.51.36.85,0,.17-.04.34-.11.51-.07.17-.19.34-.35.52s-.43.44-.81.76c-.32.27-.52.45-.61.54-.09.09-.16.19-.22.28h2.11Z"/>
            <path id="ArialMT-301" data-name="ArialMT-30" d="M73.78,69.76c0-.51.05-.92.16-1.23.1-.31.26-.55.46-.72.21-.17.47-.25.78-.25.23,0,.43.05.61.14.17.09.32.23.43.4.11.17.2.39.27.64.06.25.1.59.1,1.02,0,.5-.05.91-.16,1.22-.1.31-.26.55-.46.72-.21.17-.47.25-.78.25-.41,0-.74-.15-.97-.45-.28-.36-.42-.94-.42-1.75ZM74.32,69.76c0,.7.08,1.17.25,1.41.16.23.37.35.61.35s.45-.12.61-.35.25-.7.25-1.41-.08-1.18-.25-1.41c-.16-.23-.37-.35-.62-.35s-.44.1-.58.31c-.18.26-.27.74-.27,1.45Z"/>
            <path id="ArialMT-302" data-name="ArialMT-30" d="M77.12,69.76c0-.51.05-.92.16-1.23.1-.31.26-.55.46-.72.21-.17.47-.25.78-.25.23,0,.43.05.61.14.17.09.32.23.43.4.11.17.2.39.27.64.06.25.1.59.1,1.02,0,.5-.05.91-.16,1.22-.1.31-.26.55-.46.72-.21.17-.47.25-.78.25-.41,0-.74-.15-.97-.45-.28-.36-.42-.94-.42-1.75ZM77.66,69.76c0,.7.08,1.17.25,1.41.16.23.37.35.61.35s.45-.12.61-.35.25-.7.25-1.41-.08-1.18-.25-1.41c-.16-.23-.37-.35-.62-.35s-.44.1-.58.31c-.18.26-.27.74-.27,1.45Z"/>
          </g>
        </g>
      </g>
      <g id="xtick_3">
        <g id="line2d_3">
          <path id="me619d9ee39" class="st5" d="M52.6,62.09v2"/>
        </g>
      </g>
      <g id="text_3">
        <g>
          <path id="ArialMT-54" d="M44.09,79.44v-3.79h-1.41v-.51h3.4v.51h-1.42v3.79h-.57Z"/>
          <path id="ArialMT-69" d="M46.37,75.75v-.61h.53v.61h-.53ZM46.37,79.44v-3.11h.53v3.11h-.53Z"/>
          <path id="ArialMT-6d" d="M47.7,79.44v-3.11h.47v.44c.1-.15.23-.27.39-.37.16-.09.35-.14.55-.14.23,0,.42.05.57.14s.25.23.31.4c.25-.36.57-.54.96-.54.31,0,.55.09.71.26.17.17.25.43.25.79v2.14h-.52v-1.96c0-.21-.02-.36-.05-.45-.03-.09-.1-.17-.19-.22-.09-.06-.19-.09-.32-.09-.22,0-.4.07-.55.22-.14.15-.22.38-.22.7v1.81h-.53v-2.02c0-.23-.04-.41-.13-.53-.09-.12-.23-.18-.42-.18-.15,0-.29.04-.41.12-.13.08-.22.19-.27.34-.06.15-.09.37-.09.65v1.61h-.53Z"/>
          <path id="ArialMT-65" d="M54.83,78.44l.54.07c-.09.32-.24.57-.48.74-.23.18-.53.26-.89.26-.46,0-.82-.14-1.08-.42-.27-.28-.4-.67-.4-1.18s.13-.93.4-1.22c.27-.29.62-.43,1.05-.43s.76.14,1.02.42.4.68.4,1.2c0,.03,0,.08,0,.14h-2.32c.02.34.12.6.29.79.17.18.39.27.65.27.19,0,.36-.05.49-.15.14-.1.25-.26.33-.49ZM53.1,77.59h1.74c-.02-.26-.09-.46-.2-.59-.17-.2-.39-.3-.65-.3-.24,0-.45.08-.61.24s-.26.38-.27.65Z"/>
          <path id="ArialMT-20" d="M55.64,79.44"/>
          <path id="ArialMT-28" d="M58.71,80.71c-.29-.37-.54-.8-.74-1.29-.2-.49-.3-1-.3-1.53,0-.46.07-.91.22-1.34.18-.49.45-.99.81-1.48h.38c-.24.41-.39.7-.47.87-.12.27-.21.55-.28.84-.08.36-.13.73-.13,1.1,0,.94.29,1.88.88,2.82h-.38Z"/>
          <path id="ArialMT-6d1" data-name="ArialMT-6d" d="M59.7,79.44v-3.11h.47v.44c.1-.15.23-.27.39-.37.16-.09.35-.14.55-.14.23,0,.42.05.57.14s.25.23.31.4c.25-.36.57-.54.96-.54.31,0,.55.09.71.26.17.17.25.43.25.79v2.14h-.52v-1.96c0-.21-.02-.36-.05-.45-.03-.09-.1-.17-.19-.22-.09-.06-.19-.09-.32-.09-.22,0-.4.07-.55.22-.14.15-.22.38-.22.7v1.81h-.53v-2.02c0-.23-.04-.41-.13-.53-.09-.12-.23-.18-.42-.18-.15,0-.29.04-.41.12-.13.08-.22.19-.27.34-.06.15-.09.37-.09.65v1.61h-.53Z"/>
          <path id="ArialMT-691" data-name="ArialMT-69" d="M64.7,75.75v-.61h.53v.61h-.53ZM64.7,79.44v-3.11h.53v3.11h-.53Z"/>
          <path id="ArialMT-6e" d="M66.03,79.44v-3.11h.47v.44c.23-.34.56-.51.99-.51.19,0,.36.03.52.1s.28.16.35.27.13.24.16.39c.02.1.03.27.03.51v1.91h-.53v-1.89c0-.21-.02-.38-.06-.48-.04-.11-.11-.19-.22-.25-.1-.06-.23-.1-.37-.1-.22,0-.42.07-.58.21s-.24.41-.24.81v1.7h-.53Z"/>
          <path id="ArialMT-73" d="M69.16,78.51l.52-.08c.03.21.11.37.24.48.13.11.32.17.56.17s.42-.05.54-.15c.12-.1.18-.21.18-.35,0-.12-.05-.21-.16-.28-.07-.05-.25-.11-.54-.18-.39-.1-.65-.18-.8-.25s-.26-.17-.34-.3c-.08-.13-.12-.27-.12-.42,0-.14.03-.27.09-.38.06-.12.15-.22.26-.3.08-.06.19-.11.33-.15.14-.04.29-.06.46-.06.24,0,.46.04.64.11.18.07.32.17.41.29.09.12.15.28.18.48l-.52.07c-.02-.16-.09-.28-.2-.37-.11-.09-.27-.13-.48-.13-.24,0-.41.04-.52.12-.1.08-.16.17-.16.28,0,.07.02.13.06.18.04.06.11.1.2.14.05.02.21.06.47.13.37.1.63.18.78.25.15.06.26.16.35.28.08.12.13.27.13.45s-.05.34-.15.5c-.1.16-.25.27-.44.36-.19.08-.41.13-.66.13-.4,0-.71-.08-.92-.25-.21-.17-.35-.42-.41-.75Z"/>
          <path id="ArialMT-29" d="M72.72,80.71h-.38c.58-.94.88-1.88.88-2.82,0-.37-.04-.73-.13-1.09-.07-.29-.16-.57-.28-.84-.08-.18-.23-.47-.47-.88h.38c.37.49.64.98.81,1.48.15.43.23.87.23,1.34,0,.53-.1,1.04-.3,1.53-.2.49-.45.92-.74,1.29Z"/>
        </g>
      </g>
    </g>
    <g id="matplotlib.axis_2">
      <g id="ytick_1">
        <g id="line2d_4">
          <path id="mcbf4b548f8" class="st6" d="M30.01,62.09h-3.5"/>
        </g>
        <g id="text_4">
          <g>
            <path id="ArialMT-303" data-name="ArialMT-30" d="M18.42,62.12c0-.51.05-.92.16-1.23.1-.31.26-.55.46-.72.21-.17.47-.25.78-.25.23,0,.43.05.61.14.17.09.32.23.43.4.11.17.2.39.27.64.06.25.1.59.1,1.02,0,.5-.05.91-.16,1.22-.1.31-.26.55-.46.72-.21.17-.47.25-.78.25-.41,0-.74-.15-.97-.45-.28-.36-.42-.94-.42-1.75ZM18.96,62.12c0,.7.08,1.17.25,1.41.16.23.37.35.61.35s.45-.12.61-.35.25-.7.25-1.41-.08-1.18-.25-1.41c-.16-.23-.37-.35-.62-.35s-.44.1-.58.31c-.18.26-.27.74-.27,1.45Z"/>
            <path id="ArialMT-6b" d="M21.91,64.23v-4.29h.53v2.45l1.25-1.27h.68l-1.19,1.15,1.31,1.96h-.65l-1.03-1.59-.37.36v1.23h-.53Z"/>
          </g>
        </g>
      </g>
      <g id="ytick_2">
        <g id="line2d_5">
          <path id="mcbf4b548f81" data-name="mcbf4b548f8" class="st6" d="M30.01,40.99h-3.5"/>
        </g>
        <g id="text_5">
          <g>
            <path id="ArialMT-31" d="M17.07,43.14h-.53v-3.36c-.13.12-.29.24-.5.36s-.39.21-.55.27v-.51c.3-.14.55-.31.77-.5.22-.2.38-.39.47-.57h.34v4.31Z"/>
            <path id="ArialMT-304" data-name="ArialMT-30" d="M18.42,41.02c0-.51.05-.92.16-1.23.1-.31.26-.55.46-.72.21-.17.47-.25.78-.25.23,0,.43.05.61.14.17.09.32.23.43.4.11.17.2.39.27.64.06.25.1.59.1,1.02,0,.5-.05.91-.16,1.22-.1.31-.26.55-.46.72-.21.17-.47.25-.78.25-.41,0-.74-.15-.97-.45-.28-.36-.42-.94-.42-1.75ZM18.96,41.02c0,.7.08,1.17.25,1.41.16.23.37.35.61.35s.45-.12.61-.35.25-.7.25-1.41-.08-1.18-.25-1.41c-.16-.23-.37-.35-.62-.35s-.44.1-.58.31c-.18.26-.27.74-.27,1.45Z"/>
            <path id="ArialMT-6b1" data-name="ArialMT-6b" d="M21.91,43.14v-4.29h.53v2.45l1.25-1.27h.68l-1.19,1.15,1.31,1.96h-.65l-1.03-1.59-.37.36v1.23h-.53Z"/>
          </g>
        </g>
      </g>
      <g id="ytick_3">
        <g id="line2d_6">
          <path id="mcbf4b548f82" data-name="mcbf4b548f8" class="st6" d="M30.01,19.9h-3.5"/>
        </g>
        <g id="text_6">
          <g>
            <path id="ArialMT-321" data-name="ArialMT-32" d="M17.86,21.54v.51h-2.84c0-.13.02-.25.06-.37.07-.19.19-.38.35-.57.16-.19.39-.4.69-.65.47-.38.78-.69.95-.91.16-.22.25-.44.25-.63s-.07-.38-.22-.53c-.15-.14-.34-.22-.58-.22-.25,0-.46.08-.61.23-.15.15-.23.36-.23.63l-.54-.06c.04-.4.18-.71.42-.92.24-.21.57-.32.98-.32s.74.11.98.34c.24.23.36.51.36.85,0,.17-.04.34-.11.51-.07.17-.19.34-.35.52s-.43.44-.81.76c-.32.27-.52.45-.61.54-.09.09-.16.19-.22.28h2.11Z"/>
            <path id="ArialMT-305" data-name="ArialMT-30" d="M18.42,19.92c0-.51.05-.92.16-1.23.1-.31.26-.55.46-.72.21-.17.47-.25.78-.25.23,0,.43.05.61.14.17.09.32.23.43.4.11.17.2.39.27.64.06.25.1.59.1,1.02,0,.5-.05.91-.16,1.22-.1.31-.26.55-.46.72-.21.17-.47.25-.78.25-.41,0-.74-.15-.97-.45-.28-.36-.42-.94-.42-1.75ZM18.96,19.92c0,.7.08,1.17.25,1.41.16.23.37.35.61.35s.45-.12.61-.35.25-.7.25-1.41-.08-1.18-.25-1.41c-.16-.23-.37-.35-.62-.35s-.44.1-.58.31c-.18.26-.27.74-.27,1.45Z"/>
            <path id="ArialMT-6b2" data-name="ArialMT-6b" d="M21.91,22.04v-4.29h.53v2.45l1.25-1.27h.68l-1.19,1.15,1.31,1.96h-.65l-1.03-1.59-.37.36v1.23h-.53Z"/>
          </g>
        </g>
      </g>
      <g id="ytick_4">
        <g id="line2d_7">
          <path id="m01885614a8" class="st5" d="M30.01,51.54h-2"/>
        </g>
      </g>
      <g id="ytick_5">
        <g id="line2d_8">
          <path id="m01885614a81" data-name="m01885614a8" class="st5" d="M30.01,30.44h-2"/>
        </g>
      </g>
      <g id="ytick_6">
        <g id="line2d_9">
          <path id="m01885614a82" data-name="m01885614a8" class="st5" d="M30.01,9.35h-2"/>
        </g>
      </g>
      <g id="text_7">
        <g>
          <path id="ArialMT-46" d="M11.57,51.89h-4.29v-2.9h.51v2.33h1.33v-2.02h.51v2.02h1.95v.57Z"/>
          <path id="ArialMT-4c" d="M11.57,48.28h-4.29v-.57h3.79v-2.11h.51v2.68Z"/>
          <path id="ArialMT-2f" d="M11.64,45.38l-4.44-1.24v-.42l4.44,1.24v.42Z"/>
          <path id="ArialMT-4f" d="M9.48,43.43c-.71,0-1.27-.19-1.67-.57-.4-.38-.61-.88-.61-1.48,0-.4.1-.75.28-1.07.19-.32.45-.56.79-.73.34-.17.72-.25,1.15-.25s.82.09,1.17.26c.34.18.6.42.78.75.18.32.27.67.27,1.04,0,.4-.1.77-.29,1.08-.2.32-.46.56-.8.72-.34.16-.7.25-1.07.25ZM9.49,42.84c.52,0,.93-.14,1.22-.42.3-.28.45-.63.45-1.05s-.15-.78-.45-1.06c-.3-.28-.73-.42-1.28-.42-.35,0-.65.06-.91.18s-.46.29-.61.52c-.14.23-.22.48-.22.77,0,.4.14.75.42,1.04.28.29.74.43,1.38.43Z"/>
          <path id="ArialMT-44" d="M11.57,38.59h-4.29v-1.48c0-.33.02-.59.06-.76.06-.25.16-.46.31-.63.19-.23.44-.4.73-.51.3-.11.64-.17,1.02-.17.33,0,.62.04.87.11.25.08.46.17.63.29.16.12.29.25.39.39.09.14.17.31.21.51s.07.43.07.69v1.55ZM11.06,38.02v-.92c0-.28-.03-.51-.08-.67s-.13-.29-.22-.39c-.13-.13-.32-.24-.54-.31s-.5-.11-.83-.11c-.45,0-.79.07-1.04.22s-.4.33-.48.54c-.06.15-.09.4-.09.73v.9h3.28Z"/>
          <path id="ArialMT-201" data-name="ArialMT-20" d="M11.57,34.72"/>
          <path id="ArialMT-281" data-name="ArialMT-28" d="M12.83,31.65c-.37.29-.8.54-1.29.74-.49.2-1,.3-1.53.3-.46,0-.91-.07-1.34-.22-.49-.18-.99-.45-1.48-.81v-.38c.41.24.7.39.87.47.27.12.55.21.84.28.36.08.73.13,1.1.13.94,0,1.88-.29,2.82-.88v.38Z"/>
          <path id="ArialMT-61" d="M11.19,28.63c.17.2.28.38.35.56.07.18.1.37.1.58,0,.34-.08.6-.25.79s-.38.28-.64.28c-.15,0-.29-.03-.42-.1-.13-.07-.23-.16-.3-.27s-.13-.24-.17-.38c-.03-.1-.05-.26-.08-.47-.05-.43-.11-.74-.18-.94-.07,0-.12,0-.14,0-.21,0-.37.05-.45.15-.12.13-.18.33-.18.6,0,.25.04.43.13.55s.24.21.46.26l-.07.52c-.22-.05-.4-.12-.53-.23-.14-.11-.24-.26-.31-.47-.07-.2-.11-.44-.11-.71s.03-.48.09-.65c.06-.17.14-.29.24-.37.09-.08.21-.13.36-.16.09-.02.25-.03.49-.03h.7c.49,0,.8-.01.93-.03.13-.02.25-.07.37-.13v.55c-.11.05-.24.09-.38.1ZM10.01,28.67c.08.19.14.48.2.86.03.22.07.37.11.46.04.09.1.16.17.21.07.05.16.07.25.07.14,0,.26-.05.35-.16.09-.11.14-.26.14-.47s-.04-.38-.13-.54c-.09-.16-.21-.27-.36-.35-.12-.06-.29-.09-.53-.09h-.19Z"/>
          <path id="ArialMT-2e" d="M11.57,27.17h-.6v-.6h.6v.6Z"/>
          <path id="ArialMT-75" d="M11.57,23.61h-.46c.35.24.53.57.53.99,0,.18-.03.36-.1.51-.07.16-.16.28-.27.35-.11.08-.24.13-.39.16-.1.02-.27.03-.49.03h-1.93v-.53h1.73c.28,0,.46-.01.56-.03.14-.03.25-.1.33-.21.08-.11.12-.24.12-.4s-.04-.31-.12-.45c-.08-.14-.19-.24-.33-.29-.14-.06-.34-.09-.61-.09h-1.67v-.53h3.11v.47Z"/>
          <path id="ArialMT-2e1" data-name="ArialMT-2e" d="M11.57,22.17h-.6v-.6h.6v.6Z"/>
          <path id="ArialMT-291" data-name="ArialMT-29" d="M12.83,20.3v.38c-.94-.58-1.88-.88-2.82-.88-.37,0-.73.04-1.09.13-.29.07-.57.16-.84.28-.18.08-.47.23-.88.47v-.38c.49-.37.98-.64,1.48-.81.43-.15.87-.23,1.34-.23.53,0,1.04.1,1.53.3.49.2.92.45,1.29.74Z"/>
        </g>
      </g>
    </g>
    <g id="line2d_10">
      <g class="st38">
        <path class="st3" d="M32.27,50.85l2.26.36,2.26.74,2.26.22,2.26.07,2.26-1.47,2.26-1.63,2.26-2.01,2.26-2.46,2.26-3.08,2.26-2.67,2.26-2.83,2.26-2.78,2.26-2.01,2.26-1.8,2.26-1.96,2.26-1.84,2.26-1.53,2.26-2.3,2.26-1.16,2.26-1.17,2.26-1.06,2.26-1.24,2.26-.89,2.26-.9,2.26-.99,2.26-1.18,2.26.47,2.26.4,2.26.11,2.26.18,2.26-.2,2.26-.45,2.26-.6,2.26-.09,2.26-.05,2.26-.11,2.26-.16,1.97.12"/>
      </g>
    </g>
    <g id="line2d_11">
      <g class="st27">
        <path class="st1" d="M30.01,23.06h56.49"/>
      </g>
    </g>
    <g id="patch_3">
      <path class="st4" d="M30.01,62.09V9.35"/>
    </g>
    <g id="patch_4">
      <path class="st4" d="M86.5,62.09V9.35"/>
    </g>
    <g id="patch_5">
      <path class="st4" d="M30.01,62.09h56.49"/>
    </g>
    <g id="patch_6">
      <path class="st4" d="M30.01,9.35h56.49"/>
    </g>
  </g>
  <g id="axes_2">
    <g id="FillBetweenPolyCollection_1">
      <g class="st30">
        <path id="m2ef7bbb09d" class="st37" d="M30.23,35.86v26.23h1.81v-26.23h-1.81Z"/>
      </g>
    </g>
    <g id="FillBetweenPolyCollection_2">
      <g class="st28">
        <path id="mbb51881a25" class="st37" d="M32.49,35.86v26.23h1.81v-26.23h-1.81Z"/>
      </g>
    </g>
    <g id="FillBetweenPolyCollection_3">
      <g class="st29">
        <path id="m88026c797a" class="st37" d="M34.75,9.69v52.4h1.81V9.69h-1.81Z"/>
      </g>
    </g>
    <g id="FillBetweenPolyCollection_4">
      <g class="st35">
        <path id="m15d3ed576b" class="st37" d="M37.01,9.69v52.4h1.81V9.69h-1.81Z"/>
      </g>
    </g>
    <g id="FillBetweenPolyCollection_5">
      <g class="st32">
        <path id="mad9b940914" class="st37" d="M39.27,9.69v52.4h1.81V9.69h-1.81Z"/>
      </g>
    </g>
    <g id="FillBetweenPolyCollection_6">
      <g class="st31">
        <path id="m710e4e5468" class="st37" d="M41.53,9.69v52.4h1.81V9.69h-1.81Z"/>
      </g>
    </g>
    <g id="FillBetweenPolyCollection_7">
      <g class="st34">
        <path id="m1dd0fcfe62" class="st37" d="M43.79,11.02v51.07h1.81V11.02h-1.81Z"/>
      </g>
    </g>
    <g id="FillBetweenPolyCollection_8">
      <g class="st33">
        <path id="m7a4686337c" class="st37" d="M46.05,9.69v52.4h1.81V9.69h-1.81Z"/>
      </g>
    </g>
    <g id="FillBetweenPolyCollection_9">
      <g class="st13">
        <path id="ma1f27d4af8" class="st37" d="M48.31,12.35v49.73h1.81V12.35h-1.81Z"/>
      </g>
    </g>
    <g id="FillBetweenPolyCollection_10">
      <g class="st10">
        <path id="m02a00a7577" class="st37" d="M50.57,9.69v52.4h1.81V9.69h-1.81Z"/>
      </g>
    </g>
    <g id="FillBetweenPolyCollection_11">
      <g class="st17">
        <path id="md8193b879b" class="st37" d="M52.83,12.02v50.07h1.81V12.02h-1.81Z"/>
      </g>
    </g>
    <g id="FillBetweenPolyCollection_12">
      <g class="st15">
        <path id="mdd1dddca23" class="st37" d="M55.09,9.29v52.8h1.81V9.29h-1.81Z"/>
      </g>
    </g>
    <g id="FillBetweenPolyCollection_13">
      <g class="st16">
        <path id="m52fa0659dd" class="st37" d="M57.35,12.02v50.07h1.81V12.02h-1.81Z"/>
      </g>
    </g>
    <g id="FillBetweenPolyCollection_14">
      <g class="st14">
        <path id="m1cee75214d" class="st37" d="M59.61,18.55v43.54h1.81V18.55h-1.81Z"/>
      </g>
    </g>
    <g id="FillBetweenPolyCollection_15">
      <g class="st11">
        <path id="m04c2b5d75e" class="st37" d="M61.87,34.46v27.63h1.81v-27.63h-1.81Z"/>
      </g>
    </g>
    <g id="FillBetweenPolyCollection_16">
      <g class="st8">
        <path id="m79353d5c8f" class="st37" d="M64.13,34.52v27.56h1.81v-27.56h-1.81Z"/>
      </g>
    </g>
    <g id="FillBetweenPolyCollection_17">
      <g class="st12">
        <path id="ma659772301" class="st37" d="M66.39,47.11v14.98h1.81v-14.98h-1.81Z"/>
      </g>
    </g>
    <g id="FillBetweenPolyCollection_18">
      <g class="st9">
        <path id="m29b8eb7ada" class="st37" d="M68.65,47.11v14.98h1.81v-14.98h-1.81Z"/>
      </g>
    </g>
    <g id="FillBetweenPolyCollection_19">
      <g class="st21">
        <path id="mf639d9dc72" class="st37" d="M70.91,58.36v3.73h1.81v-3.73h-1.81Z"/>
      </g>
    </g>
    <g id="FillBetweenPolyCollection_20">
      <g class="st22">
        <path id="mfc5e05e64d" class="st37" d="M73.17,58.29v3.79h1.81v-3.79h-1.81Z"/>
      </g>
    </g>
    <g id="FillBetweenPolyCollection_21">
      <g class="st23">
        <path id="m53996359e8" class="st37" d="M75.43,62.09h1.81-1.81Z"/>
      </g>
    </g>
    <g id="FillBetweenPolyCollection_22">
      <g class="st24">
        <path id="m3988df2365" class="st37" d="M77.69,62.09h1.81-1.81Z"/>
      </g>
    </g>
    <g id="FillBetweenPolyCollection_23">
      <g class="st25">
        <path id="m3151fbc0d0" class="st37" d="M79.94,62.09h1.81-1.81Z"/>
      </g>
    </g>
    <g id="FillBetweenPolyCollection_24">
      <g class="st26">
        <path id="mdddd932f34" class="st37" d="M82.2,62.09h1.81-1.81Z"/>
      </g>
    </g>
    <g id="FillBetweenPolyCollection_25">
      <g class="st19">
        <path id="m5dbc3e702c" class="st37" d="M84.46,62.09h1.81-1.81Z"/>
      </g>
    </g>
    <g id="matplotlib.axis_3">
      <g id="ytick_7">
        <g id="line2d_12">
          <path id="mc3dc7dc0ac" class="st6" d="M86.5,62.09h3.5"/>
        </g>
        <g id="text_8">
          <path id="ArialMT-306" data-name="ArialMT-30" class="st36" d="M92.25,62.12c0-.51.05-.92.16-1.23.1-.31.26-.55.46-.72.21-.17.47-.25.78-.25.23,0,.43.05.61.14.17.09.32.23.43.4.11.17.2.39.27.64.06.25.1.59.1,1.02,0,.5-.05.91-.16,1.22-.1.31-.26.55-.46.72-.21.17-.47.25-.78.25-.41,0-.74-.15-.97-.45-.28-.36-.42-.94-.42-1.75ZM92.79,62.12c0,.7.08,1.17.25,1.41.16.23.37.35.61.35s.45-.12.61-.35.25-.7.25-1.41-.08-1.18-.25-1.41c-.16-.23-.37-.35-.62-.35s-.44.1-.58.31c-.18.26-.27.74-.27,1.45Z"/>
        </g>
      </g>
      <g id="ytick_8">
        <g id="line2d_13">
          <path id="mc3dc7dc0ac1" data-name="mc3dc7dc0ac" class="st6" d="M86.5,48.9h3.5"/>
        </g>
        <g id="text_9">
          <g>
            <path id="ArialMT-322" data-name="ArialMT-32" class="st36" d="M95.02,50.54v.51h-2.84c0-.13.02-.25.06-.37.07-.19.19-.38.35-.57.16-.19.39-.4.69-.65.47-.38.78-.69.95-.91.16-.22.25-.44.25-.63s-.07-.38-.22-.53c-.15-.14-.34-.22-.58-.22-.25,0-.46.08-.61.23-.15.15-.23.36-.23.63l-.54-.06c.04-.4.18-.71.42-.92.24-.21.57-.32.98-.32s.74.11.98.34c.24.23.36.51.36.85,0,.17-.04.34-.11.51-.07.17-.19.34-.35.52s-.43.44-.81.76c-.32.27-.52.45-.61.54-.09.09-.16.19-.22.28h2.11Z"/>
            <path id="ArialMT-35" class="st36" d="M95.58,49.92l.55-.05c.04.27.14.47.29.61.15.14.33.2.54.2.25,0,.47-.1.64-.29.18-.19.26-.45.26-.76s-.08-.54-.25-.71c-.17-.17-.39-.26-.66-.26-.17,0-.32.04-.46.12-.14.08-.24.18-.32.3l-.49-.06.42-2.21h2.14v.5h-1.71l-.23,1.15c.26-.18.53-.27.81-.27.37,0,.69.13.95.39.26.26.39.59.39,1s-.11.72-.34,1.01c-.28.35-.65.52-1.13.52-.39,0-.71-.11-.96-.33-.25-.22-.39-.51-.42-.87Z"/>
          </g>
        </g>
      </g>
      <g id="ytick_9">
        <g id="line2d_14">
          <path id="mc3dc7dc0ac2" data-name="mc3dc7dc0ac" class="st6" d="M86.5,35.72h3.5"/>
        </g>
        <g id="text_10">
          <g>
            <path id="ArialMT-351" data-name="ArialMT-35" class="st36" d="M92.25,36.74l.55-.05c.04.27.14.47.29.61.15.14.33.2.54.2.25,0,.47-.1.64-.29.18-.19.26-.45.26-.76s-.08-.54-.25-.71c-.17-.17-.39-.26-.66-.26-.17,0-.32.04-.46.12-.14.08-.24.18-.32.3l-.49-.06.42-2.21h2.14v.5h-1.71l-.23,1.15c.26-.18.53-.27.81-.27.37,0,.69.13.95.39.26.26.39.59.39,1s-.11.72-.34,1.01c-.28.35-.65.52-1.13.52-.39,0-.71-.11-.96-.33-.25-.22-.39-.51-.42-.87Z"/>
            <path id="ArialMT-307" data-name="ArialMT-30" class="st36" d="M95.58,35.75c0-.51.05-.92.16-1.23.1-.31.26-.55.46-.72.21-.17.47-.25.78-.25.23,0,.43.05.61.14.17.09.32.23.43.4.11.17.2.39.27.64.06.25.1.59.1,1.02,0,.5-.05.91-.16,1.22-.1.31-.26.55-.46.72-.21.17-.47.25-.78.25-.41,0-.74-.15-.97-.45-.28-.36-.42-.94-.42-1.75ZM96.13,35.75c0,.7.08,1.17.25,1.41.16.23.37.35.61.35s.45-.12.61-.35.25-.7.25-1.41-.08-1.18-.25-1.41c-.16-.23-.37-.35-.62-.35s-.44.1-.58.31c-.18.26-.27.74-.27,1.45Z"/>
          </g>
        </g>
      </g>
      <g id="ytick_10">
        <g id="line2d_15">
          <path id="mc3dc7dc0ac3" data-name="mc3dc7dc0ac" class="st6" d="M86.5,22.53h3.5"/>
        </g>
        <g id="text_11">
          <g>
            <path id="ArialMT-37" class="st36" d="M92.28,20.95v-.51h2.78v.41c-.27.29-.54.68-.81,1.16-.27.48-.48.98-.62,1.49-.11.36-.17.75-.2,1.18h-.54c0-.34.07-.75.2-1.22.13-.48.31-.94.55-1.38s.49-.82.76-1.12h-2.1Z"/>
            <path id="ArialMT-352" data-name="ArialMT-35" class="st36" d="M95.58,23.55l.55-.05c.04.27.14.47.29.61.15.14.33.2.54.2.25,0,.47-.1.64-.29.18-.19.26-.45.26-.76s-.08-.54-.25-.71c-.17-.17-.39-.26-.66-.26-.17,0-.32.04-.46.12-.14.08-.24.18-.32.3l-.49-.06.42-2.21h2.14v.5h-1.71l-.23,1.15c.26-.18.53-.27.81-.27.37,0,.69.13.95.39.26.26.39.59.39,1s-.11.72-.34,1.01c-.28.35-.65.52-1.13.52-.39,0-.71-.11-.96-.33-.25-.22-.39-.51-.42-.87Z"/>
          </g>
        </g>
      </g>
      <g id="ytick_11">
        <g id="line2d_16">
          <path id="mc3dc7dc0ac4" data-name="mc3dc7dc0ac" class="st6" d="M86.5,9.35h3.5"/>
        </g>
        <g id="text_12">
          <g>
            <path id="ArialMT-311" data-name="ArialMT-31" class="st36" d="M94.23,11.49h-.53v-3.36c-.13.12-.29.24-.5.36s-.39.21-.55.27v-.51c.3-.14.55-.31.77-.5.22-.2.38-.39.47-.57h.34v4.31Z"/>
            <path id="ArialMT-308" data-name="ArialMT-30" class="st36" d="M95.58,9.38c0-.51.05-.92.16-1.23.1-.31.26-.55.46-.72.21-.17.47-.25.78-.25.23,0,.43.05.61.14.17.09.32.23.43.4.11.17.2.39.27.64.06.25.1.59.1,1.02,0,.5-.05.91-.16,1.22-.1.31-.26.55-.46.72-.21.17-.47.25-.78.25-.41,0-.74-.15-.97-.45-.28-.36-.42-.94-.42-1.75ZM96.13,9.38c0,.7.08,1.17.25,1.41.16.23.37.35.61.35s.45-.12.61-.35.25-.7.25-1.41-.08-1.18-.25-1.41c-.16-.23-.37-.35-.62-.35s-.44.1-.58.31c-.18.26-.27.74-.27,1.45Z"/>
            <path id="ArialMT-309" data-name="ArialMT-30" class="st36" d="M98.92,9.38c0-.51.05-.92.16-1.23.1-.31.26-.55.46-.72.21-.17.47-.25.78-.25.23,0,.43.05.61.14.17.09.32.23.43.4.11.17.2.39.27.64.06.25.1.59.1,1.02,0,.5-.05.91-.16,1.22-.1.31-.26.55-.46.72-.21.17-.47.25-.78.25-.41,0-.74-.15-.97-.45-.28-.36-.42-.94-.42-1.75ZM99.46,9.38c0,.7.08,1.17.25,1.41.16.23.37.35.61.35s.45-.12.61-.35.25-.7.25-1.41-.08-1.18-.25-1.41c-.16-.23-.37-.35-.62-.35s-.44.1-.58.31c-.18.26-.27.74-.27,1.45Z"/>
          </g>
        </g>
      </g>
      <g id="text_13">
        <g>
          <path id="ArialMT-441" data-name="ArialMT-44" class="st36" d="M108.38,55.26h-4.29v-1.48c0-.33.02-.59.06-.76.06-.25.16-.46.31-.63.19-.23.44-.4.73-.51.3-.11.64-.17,1.02-.17.33,0,.62.04.87.11.25.08.46.17.63.29.16.12.29.25.39.39.09.14.17.31.21.51s.07.43.07.69v1.55ZM107.87,54.69v-.92c0-.28-.03-.51-.08-.67s-.13-.29-.22-.39c-.13-.13-.32-.24-.54-.31s-.5-.11-.83-.11c-.45,0-.79.07-1.04.22s-.4.33-.48.54c-.06.15-.09.4-.09.73v.9h3.28Z"/>
          <path id="ArialMT-751" data-name="ArialMT-75" class="st36" d="M108.38,48.95h-.46c.35.24.53.57.53.99,0,.18-.03.36-.1.51-.07.16-.16.28-.27.35-.11.08-.24.13-.39.16-.1.02-.27.03-.49.03h-1.93v-.53h1.73c.28,0,.46-.01.56-.03.14-.03.25-.1.33-.21.08-.11.12-.24.12-.4s-.04-.31-.12-.45c-.08-.14-.19-.24-.33-.29-.14-.06-.34-.09-.61-.09h-1.67v-.53h3.11v.47Z"/>
          <path id="ArialMT-74" class="st36" d="M107.9,46.5l.47-.08c.03.15.05.28.05.4,0,.19-.03.34-.09.45-.06.1-.14.18-.24.22-.1.04-.31.06-.62.06h-1.79v.39h-.41v-.39h-.77l-.32-.52h1.09v-.53h.41v.53h1.82c.15,0,.25,0,.29-.03.04-.02.08-.05.1-.09.03-.04.04-.1.04-.18,0-.06,0-.14-.02-.23Z"/>
          <path id="ArialMT-79" class="st36" d="M109.57,46.01l-.49.06c.03-.12.05-.22.05-.3,0-.12-.02-.21-.06-.28-.04-.07-.09-.13-.16-.17-.05-.03-.18-.09-.39-.16-.03,0-.07-.02-.13-.05l-3.12,1.18v-.57l1.8-.65c.23-.08.47-.16.72-.23-.24-.06-.48-.13-.71-.22l-1.81-.66v-.53l3.16,1.18c.34.13.58.23.71.3.17.09.3.2.38.32.08.12.12.27.12.43,0,.1-.02.21-.06.34Z"/>
          <path id="ArialMT-202" data-name="ArialMT-20" class="st36" d="M108.38,43.38"/>
          <path id="ArialMT-43" class="st36" d="M106.87,38.19l.14-.57c.47.12.82.33,1.07.64.24.31.37.69.37,1.14s-.09.84-.28,1.13c-.19.29-.46.51-.82.66-.36.15-.74.23-1.15.23-.45,0-.84-.09-1.17-.26-.33-.17-.59-.41-.76-.73-.17-.32-.26-.66-.26-1.04,0-.43.11-.79.33-1.08.22-.29.53-.5.92-.61l.13.56c-.31.1-.54.24-.68.43-.14.19-.21.43-.21.71,0,.33.08.61.24.83.16.22.37.38.64.47.27.09.54.13.82.13.37,0,.68-.05.96-.16.27-.11.48-.27.61-.5.13-.22.2-.47.2-.73,0-.32-.09-.59-.27-.81-.18-.22-.46-.37-.82-.45Z"/>
          <path id="ArialMT-791" data-name="ArialMT-79" class="st36" d="M109.57,37.01l-.49.06c.03-.12.05-.22.05-.3,0-.12-.02-.21-.06-.28-.04-.07-.09-.13-.16-.17-.05-.03-.18-.09-.39-.16-.03,0-.07-.02-.13-.05l-3.12,1.18v-.57l1.8-.65c.23-.08.47-.16.72-.23-.24-.06-.48-.13-.71-.22l-1.81-.66v-.53l3.16,1.18c.34.13.58.23.71.3.17.09.3.2.38.32.08.12.12.27.12.43,0,.1-.02.21-.06.34Z"/>
          <path id="ArialMT-63" class="st36" d="M107.24,31.96l.07-.52c.36.06.64.2.84.44.2.23.3.52.3.86,0,.43-.14.77-.42,1.03-.28.26-.68.39-1.2.39-.34,0-.63-.06-.88-.17-.25-.11-.44-.28-.57-.51-.13-.23-.19-.48-.19-.74,0-.34.09-.61.26-.83.17-.21.41-.35.73-.41l.08.51c-.21.05-.37.14-.47.26-.11.12-.16.27-.16.45,0,.27.1.48.29.65.19.17.49.25.9.25s.72-.08.91-.24c.19-.16.28-.37.28-.63,0-.21-.06-.38-.19-.52-.13-.14-.32-.23-.59-.26Z"/>
          <path id="ArialMT-6c" class="st36" d="M108.38,31h-4.29v-.53h4.29v.53Z"/>
          <path id="ArialMT-651" data-name="ArialMT-65" class="st36" d="M107.37,27.52l.07-.54c.32.09.57.24.74.48.18.23.26.53.26.89,0,.46-.14.82-.42,1.08-.28.27-.67.4-1.18.4s-.93-.13-1.22-.4c-.29-.27-.43-.62-.43-1.05s.14-.76.42-1.02.68-.4,1.2-.4c.03,0,.08,0,.14,0v2.32c.34-.02.6-.12.79-.29.18-.17.27-.39.27-.65,0-.19-.05-.36-.15-.49-.1-.14-.26-.25-.49-.33ZM106.52,29.26v-1.74c-.26.02-.46.09-.59.2-.2.17-.3.39-.3.65,0,.24.08.45.24.61s.38.26.65.27Z"/>
          <path id="ArialMT-203" data-name="ArialMT-20" class="st36" d="M108.38,26.71"/>
          <path id="ArialMT-282" data-name="ArialMT-28" class="st36" d="M109.64,23.64c-.37.29-.8.54-1.29.74-.49.2-1,.3-1.53.3-.46,0-.91-.07-1.34-.22-.49-.18-.99-.45-1.48-.81v-.38c.41.24.7.39.87.47.27.12.55.21.84.28.36.08.73.13,1.1.13.94,0,1.88-.29,2.82-.88v.38Z"/>
          <path id="ArialMT-25" class="st36" d="M105.11,22.7c-.31,0-.57-.08-.78-.23-.22-.15-.32-.38-.32-.67,0-.27.1-.49.29-.67.19-.18.47-.27.85-.27s.64.09.84.27c.2.18.29.4.29.66s-.1.48-.29.65c-.19.17-.48.26-.88.26ZM104.37,21.78c0,.13.06.24.17.33.11.09.32.13.62.13.28,0,.47-.04.58-.13.11-.09.17-.2.17-.33s-.06-.24-.17-.33c-.11-.09-.32-.13-.62-.13-.28,0-.47.04-.58.13-.11.09-.17.2-.17.33ZM108.53,21.78l-4.53-2.35v-.43l4.53,2.34v.44ZM107.37,19.92c-.31,0-.57-.08-.78-.23s-.32-.38-.32-.67c0-.27.1-.49.29-.67.19-.18.47-.27.85-.27s.64.09.84.27c.2.18.29.4.29.66s-.1.48-.29.65c-.19.17-.49.26-.87.26ZM106.63,19c0,.13.06.24.17.33.11.09.32.13.62.13.27,0,.47-.04.58-.13.11-.09.17-.2.17-.33s-.06-.25-.17-.33c-.11-.09-.32-.13-.62-.13-.28,0-.47.04-.58.13-.11.09-.17.2-.17.33Z"/>
          <path id="ArialMT-292" data-name="ArialMT-29" class="st36" d="M109.64,16.97v.38c-.94-.58-1.88-.88-2.82-.88-.37,0-.73.04-1.09.13-.29.07-.57.16-.84.28-.18.08-.47.23-.88.47v-.38c.49-.37.98-.64,1.48-.81.43-.15.87-.23,1.34-.23.53,0,1.04.1,1.53.3.49.2.92.45,1.29.74Z"/>
        </g>
      </g>
    </g>
    <g id="line2d_17">
      <g class="st18">
        <path class="st2" d="M31.14,35.86h2.26l2.26-26.17h6.78l2.26,1.33,2.26-1.33,2.26,2.66,2.26-2.66,2.26,2.33,2.26-2.73,2.26,2.73,2.26,6.52,2.26,15.91,2.26.07,2.26,12.58h2.26l2.26,11.25,2.26-.07,2.26,3.79h9.04"/>
      </g>
      <g class="st20">
        <g>
          <path id="m9739caf26e" class="st7" d="M31.14,36.36c.13,0,.26-.05.35-.15.09-.09.15-.22.15-.35s-.05-.26-.15-.35c-.09-.09-.22-.15-.35-.15s-.26.05-.35.15c-.09.09-.15.22-.15.35s.05.26.15.35c.09.09.22.15.35.15Z"/>
          <path id="m9739caf26e1" data-name="m9739caf26e" class="st7" d="M33.4,36.36c.13,0,.26-.05.35-.15.09-.09.15-.22.15-.35s-.05-.26-.15-.35c-.09-.09-.22-.15-.35-.15s-.26.05-.35.15c-.09.09-.15.22-.15.35s.05.26.15.35c.09.09.22.15.35.15Z"/>
          <path id="m9739caf26e2" data-name="m9739caf26e" class="st7" d="M35.66,10.19c.13,0,.26-.05.35-.15.09-.09.15-.22.15-.35s-.05-.26-.15-.35c-.09-.09-.22-.15-.35-.15s-.26.05-.35.15c-.09.09-.15.22-.15.35s.05.26.15.35c.09.09.22.15.35.15Z"/>
          <path id="m9739caf26e3" data-name="m9739caf26e" class="st7" d="M37.92,10.19c.13,0,.26-.05.35-.15.09-.09.15-.22.15-.35s-.05-.26-.15-.35c-.09-.09-.22-.15-.35-.15s-.26.05-.35.15c-.09.09-.15.22-.15.35s.05.26.15.35c.09.09.22.15.35.15Z"/>
          <path id="m9739caf26e4" data-name="m9739caf26e" class="st7" d="M40.18,10.19c.13,0,.26-.05.35-.15.09-.09.15-.22.15-.35s-.05-.26-.15-.35c-.09-.09-.22-.15-.35-.15s-.26.05-.35.15c-.09.09-.15.22-.15.35s.05.26.15.35c.09.09.22.15.35.15Z"/>
          <path id="m9739caf26e5" data-name="m9739caf26e" class="st7" d="M42.44,10.19c.13,0,.26-.05.35-.15.09-.09.15-.22.15-.35s-.05-.26-.15-.35c-.09-.09-.22-.15-.35-.15s-.26.05-.35.15c-.09.09-.15.22-.15.35s.05.26.15.35c.09.09.22.15.35.15Z"/>
          <path id="m9739caf26e6" data-name="m9739caf26e" class="st7" d="M44.69,11.52c.13,0,.26-.05.35-.15.09-.09.15-.22.15-.35s-.05-.26-.15-.35c-.09-.09-.22-.15-.35-.15s-.26.05-.35.15c-.09.09-.15.22-.15.35s.05.26.15.35c.09.09.22.15.35.15Z"/>
          <path id="m9739caf26e7" data-name="m9739caf26e" class="st7" d="M46.95,10.19c.13,0,.26-.05.35-.15.09-.09.15-.22.15-.35s-.05-.26-.15-.35c-.09-.09-.22-.15-.35-.15s-.26.05-.35.15c-.09.09-.15.22-.15.35s.05.26.15.35c.09.09.22.15.35.15Z"/>
          <path id="m9739caf26e8" data-name="m9739caf26e" class="st7" d="M49.21,12.85c.13,0,.26-.05.35-.15.09-.09.15-.22.15-.35s-.05-.26-.15-.35c-.09-.09-.22-.15-.35-.15s-.26.05-.35.15c-.09.09-.15.22-.15.35s.05.26.15.35c.09.09.22.15.35.15Z"/>
          <path id="m9739caf26e9" data-name="m9739caf26e" class="st7" d="M51.47,10.19c.13,0,.26-.05.35-.15.09-.09.15-.22.15-.35s-.05-.26-.15-.35c-.09-.09-.22-.15-.35-.15s-.26.05-.35.15c-.09.09-.15.22-.15.35s.05.26.15.35c.09.09.22.15.35.15Z"/>
          <path id="m9739caf26e10" data-name="m9739caf26e" class="st7" d="M53.73,12.52c.13,0,.26-.05.35-.15.09-.09.15-.22.15-.35s-.05-.26-.15-.35c-.09-.09-.22-.15-.35-.15s-.26.05-.35.15c-.09.09-.15.22-.15.35s.05.26.15.35c.09.09.22.15.35.15Z"/>
          <path id="m9739caf26e11" data-name="m9739caf26e" class="st7" d="M55.99,9.79c.13,0,.26-.05.35-.15.09-.09.15-.22.15-.35s-.05-.26-.15-.35c-.09-.09-.22-.15-.35-.15s-.26.05-.35.15c-.09.09-.15.22-.15.35s.05.26.15.35c.09.09.22.15.35.15Z"/>
          <path id="m9739caf26e12" data-name="m9739caf26e" class="st7" d="M58.25,12.52c.13,0,.26-.05.35-.15.09-.09.15-.22.15-.35s-.05-.26-.15-.35c-.09-.09-.22-.15-.35-.15s-.26.05-.35.15c-.09.09-.15.22-.15.35s.05.26.15.35c.09.09.22.15.35.15Z"/>
          <path id="m9739caf26e13" data-name="m9739caf26e" class="st7" d="M60.51,19.05c.13,0,.26-.05.35-.15.09-.09.15-.22.15-.35s-.05-.26-.15-.35c-.09-.09-.22-.15-.35-.15s-.26.05-.35.15c-.09.09-.15.22-.15.35s.05.26.15.35c.09.09.22.15.35.15Z"/>
          <path id="m9739caf26e14" data-name="m9739caf26e" class="st7" d="M62.77,34.96c.13,0,.26-.05.35-.15.09-.09.15-.22.15-.35s-.05-.26-.15-.35c-.09-.09-.22-.15-.35-.15s-.26.05-.35.15c-.09.09-.15.22-.15.35s.05.26.15.35c.09.09.22.15.35.15Z"/>
          <path id="m9739caf26e15" data-name="m9739caf26e" class="st7" d="M65.03,35.02c.13,0,.26-.05.35-.15.09-.09.15-.22.15-.35s-.05-.26-.15-.35c-.09-.09-.22-.15-.35-.15s-.26.05-.35.15c-.09.09-.15.22-.15.35s.05.26.15.35c.09.09.22.15.35.15Z"/>
          <path id="m9739caf26e16" data-name="m9739caf26e" class="st7" d="M67.29,47.61c.13,0,.26-.05.35-.15.09-.09.15-.22.15-.35s-.05-.26-.15-.35c-.09-.09-.22-.15-.35-.15s-.26.05-.35.15c-.09.09-.15.22-.15.35s.05.26.15.35c.09.09.22.15.35.15Z"/>
          <path id="m9739caf26e17" data-name="m9739caf26e" class="st7" d="M69.55,47.61c.13,0,.26-.05.35-.15.09-.09.15-.22.15-.35s-.05-.26-.15-.35c-.09-.09-.22-.15-.35-.15s-.26.05-.35.15c-.09.09-.15.22-.15.35s.05.26.15.35c.09.09.22.15.35.15Z"/>
          <path id="m9739caf26e18" data-name="m9739caf26e" class="st7" d="M71.81,58.86c.13,0,.26-.05.35-.15.09-.09.15-.22.15-.35s-.05-.26-.15-.35c-.09-.09-.22-.15-.35-.15s-.26.05-.35.15c-.09.09-.15.22-.15.35s.05.26.15.35c.09.09.22.15.35.15Z"/>
          <path id="m9739caf26e19" data-name="m9739caf26e" class="st7" d="M74.07,58.79c.13,0,.26-.05.35-.15.09-.09.15-.22.15-.35s-.05-.26-.15-.35c-.09-.09-.22-.15-.35-.15s-.26.05-.35.15c-.09.09-.15.22-.15.35s.05.26.15.35c.09.09.22.15.35.15Z"/>
          <path id="m9739caf26e20" data-name="m9739caf26e" class="st7" d="M76.33,62.59c.13,0,.26-.05.35-.15.09-.09.15-.22.15-.35s-.05-.26-.15-.35c-.09-.09-.22-.15-.35-.15s-.26.05-.35.15c-.09.09-.15.22-.15.35s.05.26.15.35c.09.09.22.15.35.15Z"/>
          <path id="m9739caf26e21" data-name="m9739caf26e" class="st7" d="M78.59,62.59c.13,0,.26-.05.35-.15.09-.09.15-.22.15-.35s-.05-.26-.15-.35c-.09-.09-.22-.15-.35-.15s-.26.05-.35.15c-.09.09-.15.22-.15.35s.05.26.15.35c.09.09.22.15.35.15Z"/>
          <path id="m9739caf26e22" data-name="m9739caf26e" class="st7" d="M80.85,62.59c.13,0,.26-.05.35-.15.09-.09.15-.22.15-.35s-.05-.26-.15-.35c-.09-.09-.22-.15-.35-.15s-.26.05-.35.15c-.09.09-.15.22-.15.35s.05.26.15.35c.09.09.22.15.35.15Z"/>
          <path id="m9739caf26e23" data-name="m9739caf26e" class="st7" d="M83.11,62.59c.13,0,.26-.05.35-.15.09-.09.15-.22.15-.35s-.05-.26-.15-.35c-.09-.09-.22-.15-.35-.15s-.26.05-.35.15c-.09.09-.15.22-.15.35s.05.26.15.35c.09.09.22.15.35.15Z"/>
          <path id="m9739caf26e24" data-name="m9739caf26e" class="st7" d="M85.37,62.59c.13,0,.26-.05.35-.15.09-.09.15-.22.15-.35s-.05-.26-.15-.35c-.09-.09-.22-.15-.35-.15s-.26.05-.35.15c-.09.09-.15.22-.15.35s.05.26.15.35c.09.09.22.15.35.15Z"/>
        </g>
      </g>
    </g>
    <g id="patch_7">
      <path class="st4" d="M30.01,62.09V9.35"/>
    </g>
    <g id="patch_8">
      <path class="st4" d="M86.5,62.09V9.35"/>
    </g>
    <g id="patch_9">
      <path class="st4" d="M30.01,62.09h56.49"/>
    </g>
    <g id="patch_10">
      <path class="st4" d="M30.01,9.35h56.49"/>
    </g>
  </g>
</svg>