<?xml version="1.0" encoding="utf-8" standalone="no"?>
<!DOCTYPE svg PUBLIC "-//W3C//DTD SVG 1.1//EN"
  "http://www.w3.org/Graphics/SVG/1.1/DTD/svg11.dtd">
<!-- Created with matplotlib (https://matplotlib.org/) -->
<svg height="91.568594pt" version="1.1" viewBox="0 0 116.857813 91.568594" width="116.857813pt" xmlns="http://www.w3.org/2000/svg" xmlns:xlink="http://www.w3.org/1999/xlink">
 <metadata>
  <rdf:RDF xmlns:cc="http://creativecommons.org/ns#" xmlns:dc="http://purl.org/dc/elements/1.1/" xmlns:rdf="http://www.w3.org/1999/02/22-rdf-syntax-ns#">
   <cc:Work>
    <dc:type rdf:resource="http://purl.org/dc/dcmitype/StillImage"/>
    <dc:date>2025-09-20T16:49:30.924276</dc:date>
    <dc:format>image/svg+xml</dc:format>
    <dc:creator>
     <cc:Agent>
      <dc:title>Matplotlib v3.3.4, https://matplotlib.org/</dc:title>
     </cc:Agent>
    </dc:creator>
   </cc:Work>
  </rdf:RDF>
 </metadata>
 <defs>
  <style type="text/css">*{stroke-linecap:butt;stroke-linejoin:round;}</style>
 </defs>
 <g id="figure_1">
  <g id="patch_1">
   <path d="M 0 91.568594 
L 116.857813 91.568594 
L 116.857813 0 
L 0 0 
z
" style="fill:none;"/>
  </g>
  <g id="axes_1">
   <g id="patch_2">
    <path d="M 35.4875 61.383594 
L 86.5175 61.383594 
L 86.5175 13.083594 
L 35.4875 13.083594 
z
" style="fill:none;"/>
   </g>
   <g id="matplotlib.axis_1">
    <g id="xtick_1">
     <g id="line2d_1">
      <defs>
       <path d="M 0 0 
L 0 3.5 
" id="m4f08e9cb17" style="stroke:#000000;stroke-width:0.8;"/>
      </defs>
      <g>
       <use style="stroke:#000000;stroke-width:0.8;" x="35.4875" xlink:href="#m4f08e9cb17" y="61.383594"/>
      </g>
     </g>
     <g id="text_1">
      <!-- 0 -->
      <g transform="translate(33.57875 71.442656)scale(0.06 -0.06)">
       <defs>
        <path d="M 31.78125 66.40625 
Q 24.171875 66.40625 20.328125 58.90625 
Q 16.5 51.421875 16.5 36.375 
Q 16.5 21.390625 20.328125 13.890625 
Q 24.171875 6.390625 31.78125 6.390625 
Q 39.453125 6.390625 43.28125 13.890625 
Q 47.125 21.390625 47.125 36.375 
Q 47.125 51.421875 43.28125 58.90625 
Q 39.453125 66.40625 31.78125 66.40625 
z
M 31.78125 74.21875 
Q 44.046875 74.21875 50.515625 64.515625 
Q 56.984375 54.828125 56.984375 36.375 
Q 56.984375 17.96875 50.515625 8.265625 
Q 44.046875 -1.421875 31.78125 -1.421875 
Q 19.53125 -1.421875 13.0625 8.265625 
Q 6.59375 17.96875 6.59375 36.375 
Q 6.59375 54.828125 13.0625 64.515625 
Q 19.53125 74.21875 31.78125 74.21875 
z
" id="DejaVuSans-48"/>
       </defs>
       <use xlink:href="#DejaVuSans-48"/>
      </g>
     </g>
    </g>
    <g id="xtick_2">
     <g id="line2d_2">
      <g>
       <use style="stroke:#000000;stroke-width:0.8;" x="76.3115" xlink:href="#m4f08e9cb17" y="61.383594"/>
      </g>
     </g>
     <g id="text_2">
      <!-- 200 -->
      <g transform="translate(70.58525 71.442656)scale(0.06 -0.06)">
       <defs>
        <path d="M 19.1875 8.296875 
L 53.609375 8.296875 
L 53.609375 0 
L 7.328125 0 
L 7.328125 8.296875 
Q 12.9375 14.109375 22.625 23.890625 
Q 32.328125 33.6875 34.8125 36.53125 
Q 39.546875 41.84375 41.421875 45.53125 
Q 43.3125 49.21875 43.3125 52.78125 
Q 43.3125 58.59375 39.234375 62.25 
Q 35.15625 65.921875 28.609375 65.921875 
Q 23.96875 65.921875 18.8125 64.3125 
Q 13.671875 62.703125 7.8125 59.421875 
L 7.8125 69.390625 
Q 13.765625 71.78125 18.9375 73 
Q 24.125 74.21875 28.421875 74.21875 
Q 39.75 74.21875 46.484375 68.546875 
Q 53.21875 62.890625 53.21875 53.421875 
Q 53.21875 48.921875 51.53125 44.890625 
Q 49.859375 40.875 45.40625 35.40625 
Q 44.1875 33.984375 37.640625 27.21875 
Q 31.109375 20.453125 19.1875 8.296875 
z
" id="DejaVuSans-50"/>
       </defs>
       <use xlink:href="#DejaVuSans-50"/>
       <use x="63.623047" xlink:href="#DejaVuSans-48"/>
       <use x="127.246094" xlink:href="#DejaVuSans-48"/>
      </g>
     </g>
    </g>
    <g id="xtick_3">
     <g id="line2d_3">
      <defs>
       <path d="M 0 0 
L 0 2 
" id="md7b2f6c639" style="stroke:#000000;stroke-width:0.6;"/>
      </defs>
      <g>
       <use style="stroke:#000000;stroke-width:0.6;" x="55.8995" xlink:href="#md7b2f6c639" y="61.383594"/>
      </g>
     </g>
    </g>
    <g id="text_3">
     <!-- Time (mins) -->
     <g transform="translate(31.245469 82.288906)scale(0.1 -0.1)">
      <defs>
       <path d="M -0.296875 72.90625 
L 61.375 72.90625 
L 61.375 64.59375 
L 35.5 64.59375 
L 35.5 0 
L 25.59375 0 
L 25.59375 64.59375 
L -0.296875 64.59375 
z
" id="DejaVuSans-84"/>
       <path d="M 9.421875 54.6875 
L 18.40625 54.6875 
L 18.40625 0 
L 9.421875 0 
z
M 9.421875 75.984375 
L 18.40625 75.984375 
L 18.40625 64.59375 
L 9.421875 64.59375 
z
" id="DejaVuSans-105"/>
       <path d="M 52 44.1875 
Q 55.375 50.25 60.0625 53.125 
Q 64.75 56 71.09375 56 
Q 79.640625 56 84.28125 50.015625 
Q 88.921875 44.046875 88.921875 33.015625 
L 88.921875 0 
L 79.890625 0 
L 79.890625 32.71875 
Q 79.890625 40.578125 77.09375 44.375 
Q 74.3125 48.1875 68.609375 48.1875 
Q 61.625 48.1875 57.5625 43.546875 
Q 53.515625 38.921875 53.515625 30.90625 
L 53.515625 0 
L 44.484375 0 
L 44.484375 32.71875 
Q 44.484375 40.625 41.703125 44.40625 
Q 38.921875 48.1875 33.109375 48.1875 
Q 26.21875 48.1875 22.15625 43.53125 
Q 18.109375 38.875 18.109375 30.90625 
L 18.109375 0 
L 9.078125 0 
L 9.078125 54.6875 
L 18.109375 54.6875 
L 18.109375 46.1875 
Q 21.1875 51.21875 25.484375 53.609375 
Q 29.78125 56 35.6875 56 
Q 41.65625 56 45.828125 52.96875 
Q 50 49.953125 52 44.1875 
z
" id="DejaVuSans-109"/>
       <path d="M 56.203125 29.59375 
L 56.203125 25.203125 
L 14.890625 25.203125 
Q 15.484375 15.921875 20.484375 11.0625 
Q 25.484375 6.203125 34.421875 6.203125 
Q 39.59375 6.203125 44.453125 7.46875 
Q 49.3125 8.734375 54.109375 11.28125 
L 54.109375 2.78125 
Q 49.265625 0.734375 44.1875 -0.34375 
Q 39.109375 -1.421875 33.890625 -1.421875 
Q 20.796875 -1.421875 13.15625 6.1875 
Q 5.515625 13.8125 5.515625 26.8125 
Q 5.515625 40.234375 12.765625 48.109375 
Q 20.015625 56 32.328125 56 
Q 43.359375 56 49.78125 48.890625 
Q 56.203125 41.796875 56.203125 29.59375 
z
M 47.21875 32.234375 
Q 47.125 39.59375 43.09375 43.984375 
Q 39.0625 48.390625 32.421875 48.390625 
Q 24.90625 48.390625 20.390625 44.140625 
Q 15.875 39.890625 15.1875 32.171875 
z
" id="DejaVuSans-101"/>
       <path id="DejaVuSans-32"/>
       <path d="M 31 75.875 
Q 24.46875 64.65625 21.28125 53.65625 
Q 18.109375 42.671875 18.109375 31.390625 
Q 18.109375 20.125 21.3125 9.0625 
Q 24.515625 -2 31 -13.1875 
L 23.1875 -13.1875 
Q 15.875 -1.703125 12.234375 9.375 
Q 8.59375 20.453125 8.59375 31.390625 
Q 8.59375 42.28125 12.203125 53.3125 
Q 15.828125 64.359375 23.1875 75.875 
z
" id="DejaVuSans-40"/>
       <path d="M 54.890625 33.015625 
L 54.890625 0 
L 45.90625 0 
L 45.90625 32.71875 
Q 45.90625 40.484375 42.875 44.328125 
Q 39.84375 48.1875 33.796875 48.1875 
Q 26.515625 48.1875 22.3125 43.546875 
Q 18.109375 38.921875 18.109375 30.90625 
L 18.109375 0 
L 9.078125 0 
L 9.078125 54.6875 
L 18.109375 54.6875 
L 18.109375 46.1875 
Q 21.34375 51.125 25.703125 53.5625 
Q 30.078125 56 35.796875 56 
Q 45.21875 56 50.046875 50.171875 
Q 54.890625 44.34375 54.890625 33.015625 
z
" id="DejaVuSans-110"/>
       <path d="M 44.28125 53.078125 
L 44.28125 44.578125 
Q 40.484375 46.53125 36.375 47.5 
Q 32.28125 48.484375 27.875 48.484375 
Q 21.1875 48.484375 17.84375 46.4375 
Q 14.5 44.390625 14.5 40.28125 
Q 14.5 37.15625 16.890625 35.375 
Q 19.28125 33.59375 26.515625 31.984375 
L 29.59375 31.296875 
Q 39.15625 29.25 43.1875 25.515625 
Q 47.21875 21.78125 47.21875 15.09375 
Q 47.21875 7.46875 41.1875 3.015625 
Q 35.15625 -1.421875 24.609375 -1.421875 
Q 20.21875 -1.421875 15.453125 -0.5625 
Q 10.6875 0.296875 5.421875 2 
L 5.421875 11.28125 
Q 10.40625 8.6875 15.234375 7.390625 
Q 20.0625 6.109375 24.8125 6.109375 
Q 31.15625 6.109375 34.5625 8.28125 
Q 37.984375 10.453125 37.984375 14.40625 
Q 37.984375 18.0625 35.515625 20.015625 
Q 33.0625 21.96875 24.703125 23.78125 
L 21.578125 24.515625 
Q 13.234375 26.265625 9.515625 29.90625 
Q 5.8125 33.546875 5.8125 39.890625 
Q 5.8125 47.609375 11.28125 51.796875 
Q 16.75 56 26.8125 56 
Q 31.78125 56 36.171875 55.265625 
Q 40.578125 54.546875 44.28125 53.078125 
z
" id="DejaVuSans-115"/>
       <path d="M 8.015625 75.875 
L 15.828125 75.875 
Q 23.140625 64.359375 26.78125 53.3125 
Q 30.421875 42.28125 30.421875 31.390625 
Q 30.421875 20.453125 26.78125 9.375 
Q 23.140625 -1.703125 15.828125 -13.1875 
L 8.015625 -13.1875 
Q 14.5 -2 17.703125 9.0625 
Q 20.90625 20.125 20.90625 31.390625 
Q 20.90625 42.671875 17.703125 53.65625 
Q 14.5 64.65625 8.015625 75.875 
z
" id="DejaVuSans-41"/>
      </defs>
      <use xlink:href="#DejaVuSans-84"/>
      <use x="57.958984" xlink:href="#DejaVuSans-105"/>
      <use x="85.742188" xlink:href="#DejaVuSans-109"/>
      <use x="183.154297" xlink:href="#DejaVuSans-101"/>
      <use x="244.677734" xlink:href="#DejaVuSans-32"/>
      <use x="276.464844" xlink:href="#DejaVuSans-40"/>
      <use x="315.478516" xlink:href="#DejaVuSans-109"/>
      <use x="412.890625" xlink:href="#DejaVuSans-105"/>
      <use x="440.673828" xlink:href="#DejaVuSans-110"/>
      <use x="504.052734" xlink:href="#DejaVuSans-115"/>
      <use x="556.152344" xlink:href="#DejaVuSans-41"/>
     </g>
    </g>
   </g>
   <g id="matplotlib.axis_2">
    <g id="ytick_1">
     <g id="line2d_4">
      <defs>
       <path d="M 0 0 
L -3.5 0 
" id="m1d7c7da50b" style="stroke:#000000;stroke-width:0.8;"/>
      </defs>
      <g>
       <use style="stroke:#000000;stroke-width:0.8;" x="35.4875" xlink:href="#m1d7c7da50b" y="61.383594"/>
      </g>
     </g>
     <g id="text_4">
      <!-- 0k -->
      <g transform="translate(22.695625 63.663125)scale(0.06 -0.06)">
       <defs>
        <path d="M 9.078125 75.984375 
L 18.109375 75.984375 
L 18.109375 31.109375 
L 44.921875 54.6875 
L 56.390625 54.6875 
L 27.390625 29.109375 
L 57.625 0 
L 45.90625 0 
L 18.109375 26.703125 
L 18.109375 0 
L 9.078125 0 
z
" id="DejaVuSans-107"/>
       </defs>
       <use xlink:href="#DejaVuSans-48"/>
       <use x="63.623047" xlink:href="#DejaVuSans-107"/>
      </g>
     </g>
    </g>
    <g id="ytick_2">
     <g id="line2d_5">
      <g>
       <use style="stroke:#000000;stroke-width:0.8;" x="35.4875" xlink:href="#m1d7c7da50b" y="42.063594"/>
      </g>
     </g>
     <g id="text_5">
      <!-- 10k -->
      <g transform="translate(18.878125 44.343125)scale(0.06 -0.06)">
       <defs>
        <path d="M 12.40625 8.296875 
L 28.515625 8.296875 
L 28.515625 63.921875 
L 10.984375 60.40625 
L 10.984375 69.390625 
L 28.421875 72.90625 
L 38.28125 72.90625 
L 38.28125 8.296875 
L 54.390625 8.296875 
L 54.390625 0 
L 12.40625 0 
z
" id="DejaVuSans-49"/>
       </defs>
       <use xlink:href="#DejaVuSans-49"/>
       <use x="63.623047" xlink:href="#DejaVuSans-48"/>
       <use x="127.246094" xlink:href="#DejaVuSans-107"/>
      </g>
     </g>
    </g>
    <g id="ytick_3">
     <g id="line2d_6">
      <g>
       <use style="stroke:#000000;stroke-width:0.8;" x="35.4875" xlink:href="#m1d7c7da50b" y="22.743594"/>
      </g>
     </g>
     <g id="text_6">
      <!-- 20k -->
      <g transform="translate(18.878125 25.023125)scale(0.06 -0.06)">
       <use xlink:href="#DejaVuSans-50"/>
       <use x="63.623047" xlink:href="#DejaVuSans-48"/>
       <use x="127.246094" xlink:href="#DejaVuSans-107"/>
      </g>
     </g>
    </g>
    <g id="ytick_4">
     <g id="line2d_7">
      <defs>
       <path d="M 0 0 
L -2 0 
" id="m3503052b54" style="stroke:#000000;stroke-width:0.6;"/>
      </defs>
      <g>
       <use style="stroke:#000000;stroke-width:0.6;" x="35.4875" xlink:href="#m3503052b54" y="51.723594"/>
      </g>
     </g>
    </g>
    <g id="ytick_5">
     <g id="line2d_8">
      <g>
       <use style="stroke:#000000;stroke-width:0.6;" x="35.4875" xlink:href="#m3503052b54" y="32.403594"/>
      </g>
     </g>
    </g>
    <g id="ytick_6">
     <g id="line2d_9">
      <g>
       <use style="stroke:#000000;stroke-width:0.6;" x="35.4875" xlink:href="#m3503052b54" y="13.083594"/>
      </g>
     </g>
    </g>
    <g id="text_7">
     <!-- FL/OD (a.u.) -->
     <g transform="translate(14.798438 67.267188)rotate(-90)scale(0.1 -0.1)">
      <defs>
       <path d="M 9.8125 72.90625 
L 51.703125 72.90625 
L 51.703125 64.59375 
L 19.671875 64.59375 
L 19.671875 43.109375 
L 48.578125 43.109375 
L 48.578125 34.8125 
L 19.671875 34.8125 
L 19.671875 0 
L 9.8125 0 
z
" id="DejaVuSans-70"/>
       <path d="M 9.8125 72.90625 
L 19.671875 72.90625 
L 19.671875 8.296875 
L 55.171875 8.296875 
L 55.171875 0 
L 9.8125 0 
z
" id="DejaVuSans-76"/>
       <path d="M 25.390625 72.90625 
L 33.6875 72.90625 
L 8.296875 -9.28125 
L 0 -9.28125 
z
" id="DejaVuSans-47"/>
       <path d="M 39.40625 66.21875 
Q 28.65625 66.21875 22.328125 58.203125 
Q 16.015625 50.203125 16.015625 36.375 
Q 16.015625 22.609375 22.328125 14.59375 
Q 28.65625 6.59375 39.40625 6.59375 
Q 50.140625 6.59375 56.421875 14.59375 
Q 62.703125 22.609375 62.703125 36.375 
Q 62.703125 50.203125 56.421875 58.203125 
Q 50.140625 66.21875 39.40625 66.21875 
z
M 39.40625 74.21875 
Q 54.734375 74.21875 63.90625 63.9375 
Q 73.09375 53.65625 73.09375 36.375 
Q 73.09375 19.140625 63.90625 8.859375 
Q 54.734375 -1.421875 39.40625 -1.421875 
Q 24.03125 -1.421875 14.8125 8.828125 
Q 5.609375 19.09375 5.609375 36.375 
Q 5.609375 53.65625 14.8125 63.9375 
Q 24.03125 74.21875 39.40625 74.21875 
z
" id="DejaVuSans-79"/>
       <path d="M 19.671875 64.796875 
L 19.671875 8.109375 
L 31.59375 8.109375 
Q 46.6875 8.109375 53.6875 14.9375 
Q 60.6875 21.78125 60.6875 36.53125 
Q 60.6875 51.171875 53.6875 57.984375 
Q 46.6875 64.796875 31.59375 64.796875 
z
M 9.8125 72.90625 
L 30.078125 72.90625 
Q 51.265625 72.90625 61.171875 64.09375 
Q 71.09375 55.28125 71.09375 36.53125 
Q 71.09375 17.671875 61.125 8.828125 
Q 51.171875 0 30.078125 0 
L 9.8125 0 
z
" id="DejaVuSans-68"/>
       <path d="M 34.28125 27.484375 
Q 23.390625 27.484375 19.1875 25 
Q 14.984375 22.515625 14.984375 16.5 
Q 14.984375 11.71875 18.140625 8.90625 
Q 21.296875 6.109375 26.703125 6.109375 
Q 34.1875 6.109375 38.703125 11.40625 
Q 43.21875 16.703125 43.21875 25.484375 
L 43.21875 27.484375 
z
M 52.203125 31.203125 
L 52.203125 0 
L 43.21875 0 
L 43.21875 8.296875 
Q 40.140625 3.328125 35.546875 0.953125 
Q 30.953125 -1.421875 24.3125 -1.421875 
Q 15.921875 -1.421875 10.953125 3.296875 
Q 6 8.015625 6 15.921875 
Q 6 25.140625 12.171875 29.828125 
Q 18.359375 34.515625 30.609375 34.515625 
L 43.21875 34.515625 
L 43.21875 35.40625 
Q 43.21875 41.609375 39.140625 45 
Q 35.0625 48.390625 27.6875 48.390625 
Q 23 48.390625 18.546875 47.265625 
Q 14.109375 46.140625 10.015625 43.890625 
L 10.015625 52.203125 
Q 14.9375 54.109375 19.578125 55.046875 
Q 24.21875 56 28.609375 56 
Q 40.484375 56 46.34375 49.84375 
Q 52.203125 43.703125 52.203125 31.203125 
z
" id="DejaVuSans-97"/>
       <path d="M 10.6875 12.40625 
L 21 12.40625 
L 21 0 
L 10.6875 0 
z
" id="DejaVuSans-46"/>
       <path d="M 8.5 21.578125 
L 8.5 54.6875 
L 17.484375 54.6875 
L 17.484375 21.921875 
Q 17.484375 14.15625 20.5 10.265625 
Q 23.53125 6.390625 29.59375 6.390625 
Q 36.859375 6.390625 41.078125 11.03125 
Q 45.3125 15.671875 45.3125 23.6875 
L 45.3125 54.6875 
L 54.296875 54.6875 
L 54.296875 0 
L 45.3125 0 
L 45.3125 8.40625 
Q 42.046875 3.421875 37.71875 1 
Q 33.40625 -1.421875 27.6875 -1.421875 
Q 18.265625 -1.421875 13.375 4.4375 
Q 8.5 10.296875 8.5 21.578125 
z
M 31.109375 56 
z
" id="DejaVuSans-117"/>
      </defs>
      <use xlink:href="#DejaVuSans-70"/>
      <use x="57.519531" xlink:href="#DejaVuSans-76"/>
      <use x="113.232422" xlink:href="#DejaVuSans-47"/>
      <use x="146.923828" xlink:href="#DejaVuSans-79"/>
      <use x="225.634766" xlink:href="#DejaVuSans-68"/>
      <use x="302.636719" xlink:href="#DejaVuSans-32"/>
      <use x="334.423828" xlink:href="#DejaVuSans-40"/>
      <use x="373.4375" xlink:href="#DejaVuSans-97"/>
      <use x="434.716797" xlink:href="#DejaVuSans-46"/>
      <use x="466.503906" xlink:href="#DejaVuSans-117"/>
      <use x="529.882812" xlink:href="#DejaVuSans-46"/>
      <use x="561.669922" xlink:href="#DejaVuSans-41"/>
     </g>
    </g>
   </g>
   <g id="line2d_10">
    <path clip-path="url(#pa7249013b9)" d="M 37.5287 56.006497 
L 39.5699 56.647922 
L 41.6111 56.892597 
L 43.6523 57.242658 
L 45.6935 57.256798 
L 47.7347 56.760216 
L 49.7759 55.148612 
L 51.8171 53.705559 
L 53.8583 51.889555 
L 55.8995 48.59268 
L 57.9407 44.214433 
L 59.9819 40.701412 
L 62.0231 38.978299 
L 64.0643 36.348999 
L 66.1055 34.380428 
L 68.1467 32.619742 
L 70.1879 31.100494 
L 72.2291 29.861459 
L 74.2703 28.73045 
L 76.3115 27.923914 
L 78.3527 27.467601 
L 80.3939 27.05365 
L 82.4351 26.433064 
L 84.4763 26.31278 
L 86.5175 26.540341 
L 88.5587 26.43855 
L 90.5999 26.481024 
L 92.6411 26.963451 
L 94.6823 27.368904 
L 96.7235 27.995595 
L 98.7647 28.194999 
L 100.8059 28.133499 
L 102.8471 28.066323 
L 104.8883 27.920807 
L 106.9295 27.816265 
L 108.9707 27.619878 
L 111.0119 27.509985 
L 113.0531 27.458147 
L 115.0943 27.434256 
L 117.1355 27.504636 
L 117.857813 27.496766 
" style="fill:none;stroke:#a06aaf;stroke-linecap:square;"/>
   </g>
   <g id="line2d_11">
    <path clip-path="url(#pa7249013b9)" d="M 35.4875 39.165594 
L 86.5175 39.165594 
" style="fill:none;stroke:#a06aaf;stroke-dasharray:3.7,1.6;stroke-dashoffset:0;"/>
   </g>
   <g id="patch_3">
    <path d="M 35.4875 61.383594 
L 35.4875 13.083594 
" style="fill:none;stroke:#000000;stroke-linecap:square;stroke-linejoin:miter;stroke-width:0.5;"/>
   </g>
   <g id="patch_4">
    <path d="M 86.5175 61.383594 
L 86.5175 13.083594 
" style="fill:none;stroke:#000000;stroke-linecap:square;stroke-linejoin:miter;stroke-width:0.5;"/>
   </g>
   <g id="patch_5">
    <path d="M 35.4875 61.383594 
L 86.5175 61.383594 
" style="fill:none;stroke:#000000;stroke-linecap:square;stroke-linejoin:miter;stroke-width:0.5;"/>
   </g>
   <g id="patch_6">
    <path d="M 35.4875 13.083594 
L 86.5175 13.083594 
" style="fill:none;stroke:#000000;stroke-linecap:square;stroke-linejoin:miter;stroke-width:0.5;"/>
   </g>
  </g>
  <g id="axes_2">
   <g id="PolyCollection_1">
    <defs>
     <path d="M 35.69162 -54.208414 
L 35.69162 -30.185 
L 37.32458 -30.185 
L 37.32458 -54.208414 
L 37.32458 -54.208414 
L 35.69162 -54.208414 
z
" id="m8da784bc78"/>
    </defs>
    <g clip-path="url(#pa7249013b9)">
     <use style="fill:#74b867;fill-opacity:0.5;" x="0" xlink:href="#m8da784bc78" y="91.568594"/>
    </g>
   </g>
   <g id="PolyCollection_2">
    <defs>
     <path d="M 37.73282 -54.208414 
L 37.73282 -30.185 
L 39.36578 -30.185 
L 39.36578 -54.208414 
L 39.36578 -54.208414 
L 37.73282 -54.208414 
z
" id="m350655cc7d"/>
    </defs>
    <g clip-path="url(#pa7249013b9)">
     <use style="fill:#74b867;fill-opacity:0.5;" x="0" xlink:href="#m350655cc7d" y="91.568594"/>
    </g>
   </g>
   <g id="PolyCollection_3">
    <defs>
     <path d="M 39.77402 -78.170854 
L 39.77402 -30.185 
L 41.40698 -30.185 
L 41.40698 -78.170854 
L 41.40698 -78.170854 
L 39.77402 -78.170854 
z
" id="m1edc806696"/>
    </defs>
    <g clip-path="url(#pa7249013b9)">
     <use style="fill:#74b867;fill-opacity:0.5;" x="0" xlink:href="#m1edc806696" y="91.568594"/>
    </g>
   </g>
   <g id="PolyCollection_4">
    <defs>
     <path d="M 41.81522 -78.170854 
L 41.81522 -30.185 
L 43.44818 -30.185 
L 43.44818 -78.170854 
L 43.44818 -78.170854 
L 41.81522 -78.170854 
z
" id="mdf6a9273a0"/>
    </defs>
    <g clip-path="url(#pa7249013b9)">
     <use style="fill:#74b867;fill-opacity:0.5;" x="0" xlink:href="#mdf6a9273a0" y="91.568594"/>
    </g>
   </g>
   <g id="PolyCollection_5">
    <defs>
     <path d="M 43.85642 -78.170854 
L 43.85642 -30.185 
L 45.48938 -30.185 
L 45.48938 -78.170854 
L 45.48938 -78.170854 
L 43.85642 -78.170854 
z
" id="m06e2f91516"/>
    </defs>
    <g clip-path="url(#pa7249013b9)">
     <use style="fill:#74b867;fill-opacity:0.5;" x="0" xlink:href="#m06e2f91516" y="91.568594"/>
    </g>
   </g>
   <g id="PolyCollection_6">
    <defs>
     <path d="M 45.89762 -78.170854 
L 45.89762 -30.185 
L 47.53058 -30.185 
L 47.53058 -78.170854 
L 47.53058 -78.170854 
L 45.89762 -78.170854 
z
" id="m6450ad186a"/>
    </defs>
    <g clip-path="url(#pa7249013b9)">
     <use style="fill:#74b867;fill-opacity:0.5;" x="0" xlink:href="#m6450ad186a" y="91.568594"/>
    </g>
   </g>
   <g id="PolyCollection_7">
    <defs>
     <path d="M 47.93882 -76.951391 
L 47.93882 -30.185 
L 49.57178 -30.185 
L 49.57178 -76.951391 
L 49.57178 -76.951391 
L 47.93882 -76.951391 
z
" id="mbf208c0577"/>
    </defs>
    <g clip-path="url(#pa7249013b9)">
     <use style="fill:#74b867;fill-opacity:0.5;" x="0" xlink:href="#mbf208c0577" y="91.568594"/>
    </g>
   </g>
   <g id="PolyCollection_8">
    <defs>
     <path d="M 49.98002 -78.170854 
L 49.98002 -30.185 
L 51.61298 -30.185 
L 51.61298 -78.170854 
L 51.61298 -78.170854 
L 49.98002 -78.170854 
z
" id="m3dbbb273a3"/>
    </defs>
    <g clip-path="url(#pa7249013b9)">
     <use style="fill:#74b867;fill-opacity:0.5;" x="0" xlink:href="#m3dbbb273a3" y="91.568594"/>
    </g>
   </g>
   <g id="PolyCollection_9">
    <defs>
     <path d="M 52.02122 -75.731929 
L 52.02122 -30.185 
L 53.65418 -30.185 
L 53.65418 -75.731929 
L 53.65418 -75.731929 
L 52.02122 -75.731929 
z
" id="m92fc58eb0e"/>
    </defs>
    <g clip-path="url(#pa7249013b9)">
     <use style="fill:#74b867;fill-opacity:0.5;" x="0" xlink:href="#m92fc58eb0e" y="91.568594"/>
    </g>
   </g>
   <g id="PolyCollection_10">
    <defs>
     <path d="M 54.06242 -78.170854 
L 54.06242 -30.185 
L 55.69538 -30.185 
L 55.69538 -78.170854 
L 55.69538 -78.170854 
L 54.06242 -78.170854 
z
" id="m41725a296d"/>
    </defs>
    <g clip-path="url(#pa7249013b9)">
     <use style="fill:#74b867;fill-opacity:0.5;" x="0" xlink:href="#m41725a296d" y="91.568594"/>
    </g>
   </g>
   <g id="PolyCollection_11">
    <defs>
     <path d="M 56.10362 -65.305523 
L 56.10362 -30.185 
L 57.73658 -30.185 
L 57.73658 -65.305523 
L 57.73658 -65.305523 
L 56.10362 -65.305523 
z
" id="m3ab2002e74"/>
    </defs>
    <g clip-path="url(#pa7249013b9)">
     <use style="fill:#74b867;fill-opacity:0.5;" x="0" xlink:href="#m3ab2002e74" y="91.568594"/>
    </g>
   </g>
   <g id="PolyCollection_12">
    <defs>
     <path d="M 58.14482 -61.586162 
L 58.14482 -30.185 
L 59.77778 -30.185 
L 59.77778 -61.586162 
L 59.77778 -61.586162 
L 58.14482 -61.586162 
z
" id="m3750a0ee2d"/>
    </defs>
    <g clip-path="url(#pa7249013b9)">
     <use style="fill:#74b867;fill-opacity:0.5;" x="0" xlink:href="#m3750a0ee2d" y="91.568594"/>
    </g>
   </g>
   <g id="PolyCollection_13">
    <defs>
     <path d="M 60.18602 -35.24577 
L 60.18602 -30.185 
L 61.81898 -30.185 
L 61.81898 -35.24577 
L 61.81898 -35.24577 
L 60.18602 -35.24577 
z
" id="m3f2e84dec6"/>
    </defs>
    <g clip-path="url(#pa7249013b9)">
     <use style="fill:#74b867;fill-opacity:0.5;" x="0" xlink:href="#m3f2e84dec6" y="91.568594"/>
    </g>
   </g>
   <g id="PolyCollection_14">
    <defs>
     <path d="M 62.22722 -35.306743 
L 62.22722 -30.185 
L 63.86018 -30.185 
L 63.86018 -35.306743 
L 63.86018 -35.306743 
L 62.22722 -35.306743 
z
" id="m7e4eecea93"/>
    </defs>
    <g clip-path="url(#pa7249013b9)">
     <use style="fill:#74b867;fill-opacity:0.5;" x="0" xlink:href="#m7e4eecea93" y="91.568594"/>
    </g>
   </g>
   <g id="PolyCollection_15">
    <defs>
     <path d="M 64.26842 -30.185 
L 64.26842 -30.185 
L 65.90138 -30.185 
L 65.90138 -30.185 
L 65.90138 -30.185 
L 64.26842 -30.185 
z
" id="ma1b303ecad"/>
    </defs>
    <g clip-path="url(#pa7249013b9)">
     <use style="fill:#74b867;fill-opacity:0.5;" x="0" xlink:href="#ma1b303ecad" y="91.568594"/>
    </g>
   </g>
   <g id="PolyCollection_16">
    <defs>
     <path d="M 66.30962 -30.185 
L 66.30962 -30.185 
L 67.94258 -30.185 
L 67.94258 -30.185 
L 67.94258 -30.185 
L 66.30962 -30.185 
z
" id="mf638e76756"/>
    </defs>
    <g clip-path="url(#pa7249013b9)">
     <use style="fill:#74b867;fill-opacity:0.5;" x="0" xlink:href="#mf638e76756" y="91.568594"/>
    </g>
   </g>
   <g id="PolyCollection_17">
    <defs>
     <path d="M 68.35082 -30.185 
L 68.35082 -30.185 
L 69.98378 -30.185 
L 69.98378 -30.185 
L 69.98378 -30.185 
L 68.35082 -30.185 
z
" id="m9c32bc4ebc"/>
    </defs>
    <g clip-path="url(#pa7249013b9)">
     <use style="fill:#74b867;fill-opacity:0.5;" x="0" xlink:href="#m9c32bc4ebc" y="91.568594"/>
    </g>
   </g>
   <g id="PolyCollection_18">
    <defs>
     <path d="M 70.39202 -30.185 
L 70.39202 -30.185 
L 72.02498 -30.185 
L 72.02498 -30.185 
L 72.02498 -30.185 
L 70.39202 -30.185 
z
" id="m0296361949"/>
    </defs>
    <g clip-path="url(#pa7249013b9)">
     <use style="fill:#74b867;fill-opacity:0.5;" x="0" xlink:href="#m0296361949" y="91.568594"/>
    </g>
   </g>
   <g id="PolyCollection_19">
    <defs>
     <path d="M 72.43322 -30.185 
L 72.43322 -30.185 
L 74.06618 -30.185 
L 74.06618 -30.185 
L 74.06618 -30.185 
L 72.43322 -30.185 
z
" id="m853f1b85b1"/>
    </defs>
    <g clip-path="url(#pa7249013b9)">
     <use style="fill:#74b867;fill-opacity:0.5;" x="0" xlink:href="#m853f1b85b1" y="91.568594"/>
    </g>
   </g>
   <g id="PolyCollection_20">
    <defs>
     <path d="M 74.47442 -30.185 
L 74.47442 -30.185 
L 76.10738 -30.185 
L 76.10738 -30.185 
L 76.10738 -30.185 
L 74.47442 -30.185 
z
" id="me5544a53fc"/>
    </defs>
    <g clip-path="url(#pa7249013b9)">
     <use style="fill:#74b867;fill-opacity:0.5;" x="0" xlink:href="#me5544a53fc" y="91.568594"/>
    </g>
   </g>
   <g id="PolyCollection_21">
    <defs>
     <path d="M 76.51562 -30.185 
L 76.51562 -30.185 
L 78.14858 -30.185 
L 78.14858 -30.185 
L 78.14858 -30.185 
L 76.51562 -30.185 
z
" id="m3d934608f4"/>
    </defs>
    <g clip-path="url(#pa7249013b9)">
     <use style="fill:#74b867;fill-opacity:0.5;" x="0" xlink:href="#m3d934608f4" y="91.568594"/>
    </g>
   </g>
   <g id="PolyCollection_22">
    <defs>
     <path d="M 78.55682 -30.185 
L 78.55682 -30.185 
L 80.18978 -30.185 
L 80.18978 -30.185 
L 80.18978 -30.185 
L 78.55682 -30.185 
z
" id="mab56a2c8f7"/>
    </defs>
    <g clip-path="url(#pa7249013b9)">
     <use style="fill:#74b867;fill-opacity:0.5;" x="0" xlink:href="#mab56a2c8f7" y="91.568594"/>
    </g>
   </g>
   <g id="PolyCollection_23">
    <defs>
     <path d="M 80.59802 -30.185 
L 80.59802 -30.185 
L 82.23098 -30.185 
L 82.23098 -30.185 
L 82.23098 -30.185 
L 80.59802 -30.185 
z
" id="m9b052babb7"/>
    </defs>
    <g clip-path="url(#pa7249013b9)">
     <use style="fill:#74b867;fill-opacity:0.5;" x="0" xlink:href="#m9b052babb7" y="91.568594"/>
    </g>
   </g>
   <g id="PolyCollection_24">
    <defs>
     <path d="M 82.63922 -30.185 
L 82.63922 -30.185 
L 84.27218 -30.185 
L 84.27218 -30.185 
L 84.27218 -30.185 
L 82.63922 -30.185 
z
" id="m8018546d3f"/>
    </defs>
    <g clip-path="url(#pa7249013b9)">
     <use style="fill:#74b867;fill-opacity:0.5;" x="0" xlink:href="#m8018546d3f" y="91.568594"/>
    </g>
   </g>
   <g id="PolyCollection_25">
    <defs>
     <path d="M 84.68042 -30.185 
L 84.68042 -30.185 
L 86.31338 -30.185 
L 86.31338 -30.185 
L 86.31338 -30.185 
L 84.68042 -30.185 
z
" id="m4b280b2aa6"/>
    </defs>
    <g clip-path="url(#pa7249013b9)">
     <use style="fill:#74b867;fill-opacity:0.5;" x="0" xlink:href="#m4b280b2aa6" y="91.568594"/>
    </g>
   </g>
   <g id="matplotlib.axis_3">
    <g id="ytick_7">
     <g id="line2d_12">
      <defs>
       <path d="M 0 0 
L 3.5 0 
" id="mdfd9883838" style="stroke:#000000;stroke-width:0.8;"/>
      </defs>
      <g>
       <use style="stroke:#000000;stroke-width:0.8;" x="86.5175" xlink:href="#mdfd9883838" y="61.383594"/>
      </g>
     </g>
     <g id="text_8">
      <!-- 0 -->
      <g style="fill:#74b867;" transform="translate(92.0175 63.530938)scale(0.06 -0.06)">
       <defs>
        <path d="M 4.15625 35.296875 
Q 4.15625 48 6.765625 55.734375 
Q 9.375 63.484375 14.515625 67.671875 
Q 19.671875 71.875 27.484375 71.875 
Q 33.25 71.875 37.59375 69.546875 
Q 41.9375 67.234375 44.765625 62.859375 
Q 47.609375 58.5 49.21875 52.21875 
Q 50.828125 45.953125 50.828125 35.296875 
Q 50.828125 22.703125 48.234375 14.96875 
Q 45.65625 7.234375 40.5 3 
Q 35.359375 -1.21875 27.484375 -1.21875 
Q 17.140625 -1.21875 11.234375 6.203125 
Q 4.15625 15.140625 4.15625 35.296875 
z
M 13.1875 35.296875 
Q 13.1875 17.671875 17.3125 11.828125 
Q 21.4375 6 27.484375 6 
Q 33.546875 6 37.671875 11.859375 
Q 41.796875 17.71875 41.796875 35.296875 
Q 41.796875 52.984375 37.671875 58.78125 
Q 33.546875 64.59375 27.390625 64.59375 
Q 21.34375 64.59375 17.71875 59.46875 
Q 13.1875 52.9375 13.1875 35.296875 
z
" id="ArialMT-48"/>
       </defs>
       <use xlink:href="#ArialMT-48"/>
      </g>
     </g>
    </g>
    <g id="ytick_8">
     <g id="line2d_13">
      <g>
       <use style="stroke:#000000;stroke-width:0.8;" x="86.5175" xlink:href="#mdfd9883838" y="49.308594"/>
      </g>
     </g>
     <g id="text_9">
      <!-- 25 -->
      <g style="fill:#74b867;" transform="translate(92.0175 51.455937)scale(0.06 -0.06)">
       <defs>
        <path d="M 50.34375 8.453125 
L 50.34375 0 
L 3.03125 0 
Q 2.9375 3.171875 4.046875 6.109375 
Q 5.859375 10.9375 9.828125 15.625 
Q 13.8125 20.3125 21.34375 26.46875 
Q 33.015625 36.03125 37.109375 41.625 
Q 41.21875 47.21875 41.21875 52.203125 
Q 41.21875 57.421875 37.46875 61 
Q 33.734375 64.59375 27.734375 64.59375 
Q 21.390625 64.59375 17.578125 60.78125 
Q 13.765625 56.984375 13.71875 50.25 
L 4.6875 51.171875 
Q 5.609375 61.28125 11.65625 66.578125 
Q 17.71875 71.875 27.9375 71.875 
Q 38.234375 71.875 44.234375 66.15625 
Q 50.25 60.453125 50.25 52 
Q 50.25 47.703125 48.484375 43.546875 
Q 46.734375 39.40625 42.65625 34.8125 
Q 38.578125 30.21875 29.109375 22.21875 
Q 21.1875 15.578125 18.9375 13.203125 
Q 16.703125 10.84375 15.234375 8.453125 
z
" id="ArialMT-50"/>
        <path d="M 4.15625 18.75 
L 13.375 19.53125 
Q 14.40625 12.796875 18.140625 9.390625 
Q 21.875 6 27.15625 6 
Q 33.5 6 37.890625 10.78125 
Q 42.28125 15.578125 42.28125 23.484375 
Q 42.28125 31 38.0625 35.34375 
Q 33.84375 39.703125 27 39.703125 
Q 22.75 39.703125 19.328125 37.765625 
Q 15.921875 35.84375 13.96875 32.765625 
L 5.71875 33.84375 
L 12.640625 70.609375 
L 48.25 70.609375 
L 48.25 62.203125 
L 19.671875 62.203125 
L 15.828125 42.96875 
Q 22.265625 47.46875 29.34375 47.46875 
Q 38.71875 47.46875 45.15625 40.96875 
Q 51.609375 34.46875 51.609375 24.265625 
Q 51.609375 14.546875 45.953125 7.46875 
Q 39.0625 -1.21875 27.15625 -1.21875 
Q 17.390625 -1.21875 11.203125 4.25 
Q 5.03125 9.71875 4.15625 18.75 
z
" id="ArialMT-53"/>
       </defs>
       <use xlink:href="#ArialMT-50"/>
       <use x="55.615234" xlink:href="#ArialMT-53"/>
      </g>
     </g>
    </g>
    <g id="ytick_9">
     <g id="line2d_14">
      <g>
       <use style="stroke:#000000;stroke-width:0.8;" x="86.5175" xlink:href="#mdfd9883838" y="37.233594"/>
      </g>
     </g>
     <g id="text_10">
      <!-- 50 -->
      <g style="fill:#74b867;" transform="translate(92.0175 39.380938)scale(0.06 -0.06)">
       <use xlink:href="#ArialMT-53"/>
       <use x="55.615234" xlink:href="#ArialMT-48"/>
      </g>
     </g>
    </g>
    <g id="ytick_10">
     <g id="line2d_15">
      <g>
       <use style="stroke:#000000;stroke-width:0.8;" x="86.5175" xlink:href="#mdfd9883838" y="25.158594"/>
      </g>
     </g>
     <g id="text_11">
      <!-- 75 -->
      <g style="fill:#74b867;" transform="translate(92.0175 27.305938)scale(0.06 -0.06)">
       <defs>
        <path d="M 4.734375 62.203125 
L 4.734375 70.65625 
L 51.078125 70.65625 
L 51.078125 63.8125 
Q 44.234375 56.546875 37.515625 44.484375 
Q 30.8125 32.421875 27.15625 19.671875 
Q 24.515625 10.6875 23.78125 0 
L 14.75 0 
Q 14.890625 8.453125 18.0625 20.40625 
Q 21.234375 32.375 27.171875 43.484375 
Q 33.109375 54.59375 39.796875 62.203125 
z
" id="ArialMT-55"/>
       </defs>
       <use xlink:href="#ArialMT-55"/>
       <use x="55.615234" xlink:href="#ArialMT-53"/>
      </g>
     </g>
    </g>
    <g id="ytick_11">
     <g id="line2d_16">
      <g>
       <use style="stroke:#000000;stroke-width:0.8;" x="86.5175" xlink:href="#mdfd9883838" y="13.083594"/>
      </g>
     </g>
     <g id="text_12">
      <!-- 100 -->
      <g style="fill:#74b867;" transform="translate(92.0175 15.230938)scale(0.06 -0.06)">
       <defs>
        <path d="M 37.25 0 
L 28.46875 0 
L 28.46875 56 
Q 25.296875 52.984375 20.140625 49.953125 
Q 14.984375 46.921875 10.890625 45.40625 
L 10.890625 53.90625 
Q 18.265625 57.375 23.78125 62.296875 
Q 29.296875 67.234375 31.59375 71.875 
L 37.25 71.875 
z
" id="ArialMT-49"/>
       </defs>
       <use xlink:href="#ArialMT-49"/>
       <use x="55.615234" xlink:href="#ArialMT-48"/>
       <use x="111.230469" xlink:href="#ArialMT-48"/>
      </g>
     </g>
    </g>
    <g id="text_13">
     <!-- Duty Cycle (%) -->
     <g style="fill:#74b867;" transform="translate(108.395 57.235625)rotate(-90)scale(0.06 -0.06)">
      <defs>
       <path d="M 7.71875 0 
L 7.71875 71.578125 
L 32.375 71.578125 
Q 40.71875 71.578125 45.125 70.5625 
Q 51.265625 69.140625 55.609375 65.4375 
Q 61.28125 60.640625 64.078125 53.1875 
Q 66.890625 45.75 66.890625 36.1875 
Q 66.890625 28.03125 64.984375 21.734375 
Q 63.09375 15.4375 60.109375 11.296875 
Q 57.125 7.171875 53.578125 4.796875 
Q 50.046875 2.4375 45.046875 1.21875 
Q 40.046875 0 33.546875 0 
z
M 17.1875 8.453125 
L 32.46875 8.453125 
Q 39.546875 8.453125 43.578125 9.765625 
Q 47.609375 11.078125 50 13.484375 
Q 53.375 16.84375 55.25 22.53125 
Q 57.125 28.21875 57.125 36.328125 
Q 57.125 47.5625 53.4375 53.59375 
Q 49.75 59.625 44.484375 61.671875 
Q 40.671875 63.140625 32.234375 63.140625 
L 17.1875 63.140625 
z
" id="ArialMT-68"/>
       <path d="M 40.578125 0 
L 40.578125 7.625 
Q 34.515625 -1.171875 24.125 -1.171875 
Q 19.53125 -1.171875 15.546875 0.578125 
Q 11.578125 2.34375 9.640625 5 
Q 7.71875 7.671875 6.9375 11.53125 
Q 6.390625 14.109375 6.390625 19.734375 
L 6.390625 51.859375 
L 15.1875 51.859375 
L 15.1875 23.09375 
Q 15.1875 16.21875 15.71875 13.8125 
Q 16.546875 10.359375 19.234375 8.375 
Q 21.921875 6.390625 25.875 6.390625 
Q 29.828125 6.390625 33.296875 8.421875 
Q 36.765625 10.453125 38.203125 13.9375 
Q 39.65625 17.4375 39.65625 24.078125 
L 39.65625 51.859375 
L 48.4375 51.859375 
L 48.4375 0 
z
" id="ArialMT-117"/>
       <path d="M 25.78125 7.859375 
L 27.046875 0.09375 
Q 23.34375 -0.6875 20.40625 -0.6875 
Q 15.625 -0.6875 12.984375 0.828125 
Q 10.359375 2.34375 9.28125 4.8125 
Q 8.203125 7.28125 8.203125 15.1875 
L 8.203125 45.015625 
L 1.765625 45.015625 
L 1.765625 51.859375 
L 8.203125 51.859375 
L 8.203125 64.703125 
L 16.9375 69.96875 
L 16.9375 51.859375 
L 25.78125 51.859375 
L 25.78125 45.015625 
L 16.9375 45.015625 
L 16.9375 14.703125 
Q 16.9375 10.9375 17.40625 9.859375 
Q 17.875 8.796875 18.921875 8.15625 
Q 19.96875 7.515625 21.921875 7.515625 
Q 23.390625 7.515625 25.78125 7.859375 
z
" id="ArialMT-116"/>
       <path d="M 6.203125 -19.96875 
L 5.21875 -11.71875 
Q 8.109375 -12.5 10.25 -12.5 
Q 13.1875 -12.5 14.9375 -11.515625 
Q 16.703125 -10.546875 17.828125 -8.796875 
Q 18.65625 -7.46875 20.515625 -2.25 
Q 20.75 -1.515625 21.296875 -0.09375 
L 1.609375 51.859375 
L 11.078125 51.859375 
L 21.875 21.828125 
Q 23.96875 16.109375 25.640625 9.8125 
Q 27.15625 15.875 29.25 21.625 
L 40.328125 51.859375 
L 49.125 51.859375 
L 29.390625 -0.875 
Q 26.21875 -9.421875 24.46875 -12.640625 
Q 22.125 -17 19.09375 -19.015625 
Q 16.0625 -21.046875 11.859375 -21.046875 
Q 9.328125 -21.046875 6.203125 -19.96875 
z
" id="ArialMT-121"/>
       <path id="ArialMT-32"/>
       <path d="M 58.796875 25.09375 
L 68.265625 22.703125 
Q 65.28125 11.03125 57.546875 4.90625 
Q 49.8125 -1.21875 38.625 -1.21875 
Q 27.046875 -1.21875 19.796875 3.484375 
Q 12.546875 8.203125 8.765625 17.140625 
Q 4.984375 26.078125 4.984375 36.328125 
Q 4.984375 47.515625 9.25 55.828125 
Q 13.53125 64.15625 21.40625 68.46875 
Q 29.296875 72.796875 38.765625 72.796875 
Q 49.515625 72.796875 56.828125 67.328125 
Q 64.15625 61.859375 67.046875 51.953125 
L 57.71875 49.75 
Q 55.21875 57.5625 50.484375 61.125 
Q 45.75 64.703125 38.578125 64.703125 
Q 30.328125 64.703125 24.78125 60.734375 
Q 19.234375 56.78125 16.984375 50.109375 
Q 14.75 43.453125 14.75 36.375 
Q 14.75 27.25 17.40625 20.4375 
Q 20.0625 13.625 25.671875 10.25 
Q 31.296875 6.890625 37.84375 6.890625 
Q 45.796875 6.890625 51.3125 11.46875 
Q 56.84375 16.0625 58.796875 25.09375 
z
" id="ArialMT-67"/>
       <path d="M 40.4375 19 
L 49.078125 17.875 
Q 47.65625 8.9375 41.8125 3.875 
Q 35.984375 -1.171875 27.484375 -1.171875 
Q 16.84375 -1.171875 10.375 5.78125 
Q 3.90625 12.75 3.90625 25.734375 
Q 3.90625 34.125 6.6875 40.421875 
Q 9.46875 46.734375 15.15625 49.875 
Q 20.84375 53.03125 27.546875 53.03125 
Q 35.984375 53.03125 41.359375 48.75 
Q 46.734375 44.484375 48.25 36.625 
L 39.703125 35.296875 
Q 38.484375 40.53125 35.375 43.15625 
Q 32.28125 45.796875 27.875 45.796875 
Q 21.234375 45.796875 17.078125 41.03125 
Q 12.9375 36.28125 12.9375 25.984375 
Q 12.9375 15.53125 16.9375 10.796875 
Q 20.953125 6.0625 27.390625 6.0625 
Q 32.5625 6.0625 36.03125 9.234375 
Q 39.5 12.40625 40.4375 19 
z
" id="ArialMT-99"/>
       <path d="M 6.390625 0 
L 6.390625 71.578125 
L 15.1875 71.578125 
L 15.1875 0 
z
" id="ArialMT-108"/>
       <path d="M 42.09375 16.703125 
L 51.171875 15.578125 
Q 49.03125 7.625 43.21875 3.21875 
Q 37.40625 -1.171875 28.375 -1.171875 
Q 17 -1.171875 10.328125 5.828125 
Q 3.65625 12.84375 3.65625 25.484375 
Q 3.65625 38.578125 10.390625 45.796875 
Q 17.140625 53.03125 27.875 53.03125 
Q 38.28125 53.03125 44.875 45.953125 
Q 51.46875 38.875 51.46875 26.03125 
Q 51.46875 25.25 51.421875 23.6875 
L 12.75 23.6875 
Q 13.234375 15.140625 17.578125 10.59375 
Q 21.921875 6.0625 28.421875 6.0625 
Q 33.25 6.0625 36.671875 8.59375 
Q 40.09375 11.140625 42.09375 16.703125 
z
M 13.234375 30.90625 
L 42.1875 30.90625 
Q 41.609375 37.453125 38.875 40.71875 
Q 34.671875 45.796875 27.984375 45.796875 
Q 21.921875 45.796875 17.796875 41.75 
Q 13.671875 37.703125 13.234375 30.90625 
z
" id="ArialMT-101"/>
       <path d="M 23.390625 -21.046875 
Q 16.109375 -11.859375 11.078125 0.4375 
Q 6.0625 12.75 6.0625 25.921875 
Q 6.0625 37.546875 9.8125 48.1875 
Q 14.203125 60.546875 23.390625 72.796875 
L 29.6875 72.796875 
Q 23.78125 62.640625 21.875 58.296875 
Q 18.890625 51.5625 17.1875 44.234375 
Q 15.09375 35.109375 15.09375 25.875 
Q 15.09375 2.390625 29.6875 -21.046875 
z
" id="ArialMT-40"/>
       <path d="M 5.8125 54.390625 
Q 5.8125 62.0625 9.671875 67.421875 
Q 13.53125 72.796875 20.84375 72.796875 
Q 27.59375 72.796875 32 67.984375 
Q 36.421875 63.1875 36.421875 53.859375 
Q 36.421875 44.78125 31.953125 39.875 
Q 27.484375 34.96875 20.953125 34.96875 
Q 14.453125 34.96875 10.125 39.796875 
Q 5.8125 44.625 5.8125 54.390625 
z
M 21.09375 66.75 
Q 17.828125 66.75 15.65625 63.90625 
Q 13.484375 61.078125 13.484375 53.515625 
Q 13.484375 46.625 15.671875 43.8125 
Q 17.875 41.015625 21.09375 41.015625 
Q 24.421875 41.015625 26.59375 43.84375 
Q 28.765625 46.6875 28.765625 54.203125 
Q 28.765625 61.140625 26.5625 63.9375 
Q 24.359375 66.75 21.09375 66.75 
z
M 21.140625 -2.640625 
L 60.296875 72.796875 
L 67.4375 72.796875 
L 28.421875 -2.640625 
z
M 52.09375 16.796875 
Q 52.09375 24.515625 55.953125 29.859375 
Q 59.8125 35.203125 67.1875 35.203125 
Q 73.921875 35.203125 78.34375 30.390625 
Q 82.765625 25.59375 82.765625 16.265625 
Q 82.765625 7.171875 78.296875 2.265625 
Q 73.828125 -2.640625 67.234375 -2.640625 
Q 60.75 -2.640625 56.421875 2.21875 
Q 52.09375 7.078125 52.09375 16.796875 
z
M 67.4375 29.15625 
Q 64.109375 29.15625 61.9375 26.3125 
Q 59.765625 23.484375 59.765625 15.921875 
Q 59.765625 9.078125 61.953125 6.25 
Q 64.15625 3.421875 67.390625 3.421875 
Q 70.75 3.421875 72.921875 6.25 
Q 75.09375 9.078125 75.09375 16.609375 
Q 75.09375 23.53125 72.890625 26.34375 
Q 70.703125 29.15625 67.4375 29.15625 
z
" id="ArialMT-37"/>
       <path d="M 12.359375 -21.046875 
L 6.0625 -21.046875 
Q 20.65625 2.390625 20.65625 25.875 
Q 20.65625 35.0625 18.5625 44.09375 
Q 16.890625 51.421875 13.921875 58.15625 
Q 12.015625 62.546875 6.0625 72.796875 
L 12.359375 72.796875 
Q 21.53125 60.546875 25.921875 48.1875 
Q 29.6875 37.546875 29.6875 25.921875 
Q 29.6875 12.75 24.625 0.4375 
Q 19.578125 -11.859375 12.359375 -21.046875 
z
" id="ArialMT-41"/>
      </defs>
      <use xlink:href="#ArialMT-68"/>
      <use x="72.216797" xlink:href="#ArialMT-117"/>
      <use x="127.832031" xlink:href="#ArialMT-116"/>
      <use x="155.615234" xlink:href="#ArialMT-121"/>
      <use x="205.615234" xlink:href="#ArialMT-32"/>
      <use x="233.398438" xlink:href="#ArialMT-67"/>
      <use x="305.615234" xlink:href="#ArialMT-121"/>
      <use x="355.615234" xlink:href="#ArialMT-99"/>
      <use x="405.615234" xlink:href="#ArialMT-108"/>
      <use x="427.832031" xlink:href="#ArialMT-101"/>
      <use x="483.447266" xlink:href="#ArialMT-32"/>
      <use x="511.230469" xlink:href="#ArialMT-40"/>
      <use x="544.53125" xlink:href="#ArialMT-37"/>
      <use x="633.447266" xlink:href="#ArialMT-41"/>
     </g>
    </g>
   </g>
   <g id="line2d_17">
    <path clip-path="url(#pa7249013b9)" d="M 36.5081 37.36018 
L 38.5493 37.36018 
L 40.5905 13.39774 
L 42.6317 13.39774 
L 44.6729 13.39774 
L 46.7141 13.39774 
L 48.7553 14.617202 
L 50.7965 13.39774 
L 52.8377 15.836665 
L 54.8789 13.39774 
L 56.9201 26.26307 
L 58.9613 29.982431 
L 61.0025 56.322824 
L 63.0437 56.261851 
L 65.0849 61.383594 
L 67.1261 61.383594 
L 69.1673 61.383594 
L 71.2085 61.383594 
L 73.2497 61.383594 
L 75.2909 61.383594 
L 77.3321 61.383594 
L 79.3733 61.383594 
L 81.4145 61.383594 
L 83.4557 61.383594 
L 85.4969 61.383594 
" style="fill:none;stroke:#74b867;stroke-dasharray:3.7,1.6;stroke-dashoffset:0;"/>
    <defs>
     <path d="M 0 0.25 
C 0.066301 0.25 0.129895 0.223658 0.176777 0.176777 
C 0.223658 0.129895 0.25 0.066301 0.25 0 
C 0.25 -0.066301 0.223658 -0.129895 0.176777 -0.176777 
C 0.129895 -0.223658 0.066301 -0.25 0 -0.25 
C -0.066301 -0.25 -0.129895 -0.223658 -0.176777 -0.176777 
C -0.223658 -0.129895 -0.25 -0.066301 -0.25 0 
C -0.25 0.066301 -0.223658 0.129895 -0.176777 0.176777 
C -0.129895 0.223658 -0.066301 0.25 0 0.25 
z
" id="m77659ef60d" style="stroke:#74b867;"/>
    </defs>
    <g clip-path="url(#pa7249013b9)">
     <use style="fill:#74b867;stroke:#74b867;" x="36.5081" xlink:href="#m77659ef60d" y="37.36018"/>
     <use style="fill:#74b867;stroke:#74b867;" x="38.5493" xlink:href="#m77659ef60d" y="37.36018"/>
     <use style="fill:#74b867;stroke:#74b867;" x="40.5905" xlink:href="#m77659ef60d" y="13.39774"/>
     <use style="fill:#74b867;stroke:#74b867;" x="42.6317" xlink:href="#m77659ef60d" y="13.39774"/>
     <use style="fill:#74b867;stroke:#74b867;" x="44.6729" xlink:href="#m77659ef60d" y="13.39774"/>
     <use style="fill:#74b867;stroke:#74b867;" x="46.7141" xlink:href="#m77659ef60d" y="13.39774"/>
     <use style="fill:#74b867;stroke:#74b867;" x="48.7553" xlink:href="#m77659ef60d" y="14.617202"/>
     <use style="fill:#74b867;stroke:#74b867;" x="50.7965" xlink:href="#m77659ef60d" y="13.39774"/>
     <use style="fill:#74b867;stroke:#74b867;" x="52.8377" xlink:href="#m77659ef60d" y="15.836665"/>
     <use style="fill:#74b867;stroke:#74b867;" x="54.8789" xlink:href="#m77659ef60d" y="13.39774"/>
     <use style="fill:#74b867;stroke:#74b867;" x="56.9201" xlink:href="#m77659ef60d" y="26.26307"/>
     <use style="fill:#74b867;stroke:#74b867;" x="58.9613" xlink:href="#m77659ef60d" y="29.982431"/>
     <use style="fill:#74b867;stroke:#74b867;" x="61.0025" xlink:href="#m77659ef60d" y="56.322824"/>
     <use style="fill:#74b867;stroke:#74b867;" x="63.0437" xlink:href="#m77659ef60d" y="56.261851"/>
     <use style="fill:#74b867;stroke:#74b867;" x="65.0849" xlink:href="#m77659ef60d" y="61.383594"/>
     <use style="fill:#74b867;stroke:#74b867;" x="67.1261" xlink:href="#m77659ef60d" y="61.383594"/>
     <use style="fill:#74b867;stroke:#74b867;" x="69.1673" xlink:href="#m77659ef60d" y="61.383594"/>
     <use style="fill:#74b867;stroke:#74b867;" x="71.2085" xlink:href="#m77659ef60d" y="61.383594"/>
     <use style="fill:#74b867;stroke:#74b867;" x="73.2497" xlink:href="#m77659ef60d" y="61.383594"/>
     <use style="fill:#74b867;stroke:#74b867;" x="75.2909" xlink:href="#m77659ef60d" y="61.383594"/>
     <use style="fill:#74b867;stroke:#74b867;" x="77.3321" xlink:href="#m77659ef60d" y="61.383594"/>
     <use style="fill:#74b867;stroke:#74b867;" x="79.3733" xlink:href="#m77659ef60d" y="61.383594"/>
     <use style="fill:#74b867;stroke:#74b867;" x="81.4145" xlink:href="#m77659ef60d" y="61.383594"/>
     <use style="fill:#74b867;stroke:#74b867;" x="83.4557" xlink:href="#m77659ef60d" y="61.383594"/>
     <use style="fill:#74b867;stroke:#74b867;" x="85.4969" xlink:href="#m77659ef60d" y="61.383594"/>
    </g>
   </g>
   <g id="patch_7">
    <path d="M 35.4875 61.383594 
L 35.4875 13.083594 
" style="fill:none;stroke:#000000;stroke-linecap:square;stroke-linejoin:miter;stroke-width:0.5;"/>
   </g>
   <g id="patch_8">
    <path d="M 86.5175 61.383594 
L 86.5175 13.083594 
" style="fill:none;stroke:#000000;stroke-linecap:square;stroke-linejoin:miter;stroke-width:0.5;"/>
   </g>
   <g id="patch_9">
    <path d="M 35.4875 61.383594 
L 86.5175 61.383594 
" style="fill:none;stroke:#000000;stroke-linecap:square;stroke-linejoin:miter;stroke-width:0.5;"/>
   </g>
   <g id="patch_10">
    <path d="M 35.4875 13.083594 
L 86.5175 13.083594 
" style="fill:none;stroke:#000000;stroke-linecap:square;stroke-linejoin:miter;stroke-width:0.5;"/>
   </g>
  </g>
 </g>
 <defs>
  <clipPath id="pa7249013b9">
   <rect height="48.3" width="51.03" x="35.4875" y="13.083594"/>
  </clipPath>
 </defs>
</svg>
