<?xml version="1.0" encoding="utf-8" standalone="no"?>
<!DOCTYPE svg PUBLIC "-//W3C//DTD SVG 1.1//EN"
  "http://www.w3.org/Graphics/SVG/1.1/DTD/svg11.dtd">
<svg xmlns:xlink="http://www.w3.org/1999/xlink" width="173.917812pt" height="109.084531pt" viewBox="0 0 173.917812 109.084531" xmlns="http://www.w3.org/2000/svg" version="1.1">
 <metadata>
  <rdf:RDF xmlns:dc="http://purl.org/dc/elements/1.1/" xmlns:cc="http://creativecommons.org/ns#" xmlns:rdf="http://www.w3.org/1999/02/22-rdf-syntax-ns#">
   <cc:Work>
    <dc:type rdf:resource="http://purl.org/dc/dcmitype/StillImage"/>
    <dc:date>2025-08-20T13:06:21.773001</dc:date>
    <dc:format>image/svg+xml</dc:format>
    <dc:creator>
     <cc:Agent>
      <dc:title>Matplotlib v3.10.1, https://matplotlib.org/</dc:title>
     </cc:Agent>
    </dc:creator>
   </cc:Work>
  </rdf:RDF>
 </metadata>
 <defs>
  <style type="text/css">*{stroke-linejoin: round; stroke-linecap: butt}</style>
 </defs>
 <g id="figure_1">
  <g id="patch_1">
   <path d="M 0 109.084531 
L 173.917812 109.084531 
L 173.917812 0 
L 0 0 
L 0 109.084531 
z
" style="fill: none"/>
  </g>
  <g id="axes_1">
   <g id="patch_2">
    <path d="M 35.4875 78.899531 
L 143.5775 78.899531 
L 143.5775 9.479531 
L 35.4875 9.479531 
L 35.4875 78.899531 
z
" style="fill: none"/>
   </g>
   <g id="matplotlib.axis_1">
    <g id="xtick_1">
     <g id="line2d_1">
      <defs>
       <path id="m9a9ec756c6" d="M 0 0 
L 0 3.5 
" style="stroke: #000000; stroke-width: 0.8"/>
      </defs>
      <g>
       <use xlink:href="#m9a9ec756c6" x="35.4875" y="78.899531" style="stroke: #000000; stroke-width: 0.8"/>
      </g>
     </g>
     <g id="text_1">
      <!-- 0 -->
      <g transform="translate(33.57875 88.958594) scale(0.06 -0.06)">
       <defs>
        <path id="DejaVuSans-30" d="M 2034 4250 
Q 1547 4250 1301 3770 
Q 1056 3291 1056 2328 
Q 1056 1369 1301 889 
Q 1547 409 2034 409 
Q 2525 409 2770 889 
Q 3016 1369 3016 2328 
Q 3016 3291 2770 3770 
Q 2525 4250 2034 4250 
z
M 2034 4750 
Q 2819 4750 3233 4129 
Q 3647 3509 3647 2328 
Q 3647 1150 3233 529 
Q 2819 -91 2034 -91 
Q 1250 -91 836 529 
Q 422 1150 422 2328 
Q 422 3509 836 4129 
Q 1250 4750 2034 4750 
z
" transform="scale(0.015625)"/>
       </defs>
       <use xlink:href="#DejaVuSans-30"/>
      </g>
     </g>
    </g>
    <g id="xtick_2">
     <g id="line2d_2">
      <g>
       <use xlink:href="#m9a9ec756c6" x="62.51" y="78.899531" style="stroke: #000000; stroke-width: 0.8"/>
      </g>
     </g>
     <g id="text_2">
      <!-- 100 -->
      <g transform="translate(56.78375 88.958594) scale(0.06 -0.06)">
       <defs>
        <path id="DejaVuSans-31" d="M 794 531 
L 1825 531 
L 1825 4091 
L 703 3866 
L 703 4441 
L 1819 4666 
L 2450 4666 
L 2450 531 
L 3481 531 
L 3481 0 
L 794 0 
L 794 531 
z
" transform="scale(0.015625)"/>
       </defs>
       <use xlink:href="#DejaVuSans-31"/>
       <use xlink:href="#DejaVuSans-30" transform="translate(63.623047 0)"/>
       <use xlink:href="#DejaVuSans-30" transform="translate(127.246094 0)"/>
      </g>
     </g>
    </g>
    <g id="xtick_3">
     <g id="line2d_3">
      <g>
       <use xlink:href="#m9a9ec756c6" x="89.5325" y="78.899531" style="stroke: #000000; stroke-width: 0.8"/>
      </g>
     </g>
     <g id="text_3">
      <!-- 200 -->
      <g transform="translate(83.80625 88.958594) scale(0.06 -0.06)">
       <defs>
        <path id="DejaVuSans-32" d="M 1228 531 
L 3431 531 
L 3431 0 
L 469 0 
L 469 531 
Q 828 903 1448 1529 
Q 2069 2156 2228 2338 
Q 2531 2678 2651 2914 
Q 2772 3150 2772 3378 
Q 2772 3750 2511 3984 
Q 2250 4219 1831 4219 
Q 1534 4219 1204 4116 
Q 875 4013 500 3803 
L 500 4441 
Q 881 4594 1212 4672 
Q 1544 4750 1819 4750 
Q 2544 4750 2975 4387 
Q 3406 4025 3406 3419 
Q 3406 3131 3298 2873 
Q 3191 2616 2906 2266 
Q 2828 2175 2409 1742 
Q 1991 1309 1228 531 
z
" transform="scale(0.015625)"/>
       </defs>
       <use xlink:href="#DejaVuSans-32"/>
       <use xlink:href="#DejaVuSans-30" transform="translate(63.623047 0)"/>
       <use xlink:href="#DejaVuSans-30" transform="translate(127.246094 0)"/>
      </g>
     </g>
    </g>
    <g id="xtick_4">
     <g id="line2d_4">
      <g>
       <use xlink:href="#m9a9ec756c6" x="116.555" y="78.899531" style="stroke: #000000; stroke-width: 0.8"/>
      </g>
     </g>
     <g id="text_4">
      <!-- 300 -->
      <g transform="translate(110.82875 88.958594) scale(0.06 -0.06)">
       <defs>
        <path id="DejaVuSans-33" d="M 2597 2516 
Q 3050 2419 3304 2112 
Q 3559 1806 3559 1356 
Q 3559 666 3084 287 
Q 2609 -91 1734 -91 
Q 1441 -91 1130 -33 
Q 819 25 488 141 
L 488 750 
Q 750 597 1062 519 
Q 1375 441 1716 441 
Q 2309 441 2620 675 
Q 2931 909 2931 1356 
Q 2931 1769 2642 2001 
Q 2353 2234 1838 2234 
L 1294 2234 
L 1294 2753 
L 1863 2753 
Q 2328 2753 2575 2939 
Q 2822 3125 2822 3475 
Q 2822 3834 2567 4026 
Q 2313 4219 1838 4219 
Q 1578 4219 1281 4162 
Q 984 4106 628 3988 
L 628 4550 
Q 988 4650 1302 4700 
Q 1616 4750 1894 4750 
Q 2613 4750 3031 4423 
Q 3450 4097 3450 3541 
Q 3450 3153 3228 2886 
Q 3006 2619 2597 2516 
z
" transform="scale(0.015625)"/>
       </defs>
       <use xlink:href="#DejaVuSans-33"/>
       <use xlink:href="#DejaVuSans-30" transform="translate(63.623047 0)"/>
       <use xlink:href="#DejaVuSans-30" transform="translate(127.246094 0)"/>
      </g>
     </g>
    </g>
    <g id="xtick_5">
     <g id="line2d_5">
      <g>
       <use xlink:href="#m9a9ec756c6" x="143.5775" y="78.899531" style="stroke: #000000; stroke-width: 0.8"/>
      </g>
     </g>
     <g id="text_5">
      <!-- 400 -->
      <g transform="translate(137.85125 88.958594) scale(0.06 -0.06)">
       <defs>
        <path id="DejaVuSans-34" d="M 2419 4116 
L 825 1625 
L 2419 1625 
L 2419 4116 
z
M 2253 4666 
L 3047 4666 
L 3047 1625 
L 3713 1625 
L 3713 1100 
L 3047 1100 
L 3047 0 
L 2419 0 
L 2419 1100 
L 313 1100 
L 313 1709 
L 2253 4666 
z
" transform="scale(0.015625)"/>
       </defs>
       <use xlink:href="#DejaVuSans-34"/>
       <use xlink:href="#DejaVuSans-30" transform="translate(63.623047 0)"/>
       <use xlink:href="#DejaVuSans-30" transform="translate(127.246094 0)"/>
      </g>
     </g>
    </g>
    <g id="text_6">
     <!-- Time (mins) -->
     <g transform="translate(59.775469 99.804844) scale(0.1 -0.1)">
      <defs>
       <path id="DejaVuSans-54" d="M -19 4666 
L 3928 4666 
L 3928 4134 
L 2272 4134 
L 2272 0 
L 1638 0 
L 1638 4134 
L -19 4134 
L -19 4666 
z
" transform="scale(0.015625)"/>
       <path id="DejaVuSans-69" d="M 603 3500 
L 1178 3500 
L 1178 0 
L 603 0 
L 603 3500 
z
M 603 4863 
L 1178 4863 
L 1178 4134 
L 603 4134 
L 603 4863 
z
" transform="scale(0.015625)"/>
       <path id="DejaVuSans-6d" d="M 3328 2828 
Q 3544 3216 3844 3400 
Q 4144 3584 4550 3584 
Q 5097 3584 5394 3201 
Q 5691 2819 5691 2113 
L 5691 0 
L 5113 0 
L 5113 2094 
Q 5113 2597 4934 2840 
Q 4756 3084 4391 3084 
Q 3944 3084 3684 2787 
Q 3425 2491 3425 1978 
L 3425 0 
L 2847 0 
L 2847 2094 
Q 2847 2600 2669 2842 
Q 2491 3084 2119 3084 
Q 1678 3084 1418 2786 
Q 1159 2488 1159 1978 
L 1159 0 
L 581 0 
L 581 3500 
L 1159 3500 
L 1159 2956 
Q 1356 3278 1631 3431 
Q 1906 3584 2284 3584 
Q 2666 3584 2933 3390 
Q 3200 3197 3328 2828 
z
" transform="scale(0.015625)"/>
       <path id="DejaVuSans-65" d="M 3597 1894 
L 3597 1613 
L 953 1613 
Q 991 1019 1311 708 
Q 1631 397 2203 397 
Q 2534 397 2845 478 
Q 3156 559 3463 722 
L 3463 178 
Q 3153 47 2828 -22 
Q 2503 -91 2169 -91 
Q 1331 -91 842 396 
Q 353 884 353 1716 
Q 353 2575 817 3079 
Q 1281 3584 2069 3584 
Q 2775 3584 3186 3129 
Q 3597 2675 3597 1894 
z
M 3022 2063 
Q 3016 2534 2758 2815 
Q 2500 3097 2075 3097 
Q 1594 3097 1305 2825 
Q 1016 2553 972 2059 
L 3022 2063 
z
" transform="scale(0.015625)"/>
       <path id="DejaVuSans-20" transform="scale(0.015625)"/>
       <path id="DejaVuSans-28" d="M 1984 4856 
Q 1566 4138 1362 3434 
Q 1159 2731 1159 2009 
Q 1159 1288 1364 580 
Q 1569 -128 1984 -844 
L 1484 -844 
Q 1016 -109 783 600 
Q 550 1309 550 2009 
Q 550 2706 781 3412 
Q 1013 4119 1484 4856 
L 1984 4856 
z
" transform="scale(0.015625)"/>
       <path id="DejaVuSans-6e" d="M 3513 2113 
L 3513 0 
L 2938 0 
L 2938 2094 
Q 2938 2591 2744 2837 
Q 2550 3084 2163 3084 
Q 1697 3084 1428 2787 
Q 1159 2491 1159 1978 
L 1159 0 
L 581 0 
L 581 3500 
L 1159 3500 
L 1159 2956 
Q 1366 3272 1645 3428 
Q 1925 3584 2291 3584 
Q 2894 3584 3203 3211 
Q 3513 2838 3513 2113 
z
" transform="scale(0.015625)"/>
       <path id="DejaVuSans-73" d="M 2834 3397 
L 2834 2853 
Q 2591 2978 2328 3040 
Q 2066 3103 1784 3103 
Q 1356 3103 1142 2972 
Q 928 2841 928 2578 
Q 928 2378 1081 2264 
Q 1234 2150 1697 2047 
L 1894 2003 
Q 2506 1872 2764 1633 
Q 3022 1394 3022 966 
Q 3022 478 2636 193 
Q 2250 -91 1575 -91 
Q 1294 -91 989 -36 
Q 684 19 347 128 
L 347 722 
Q 666 556 975 473 
Q 1284 391 1588 391 
Q 1994 391 2212 530 
Q 2431 669 2431 922 
Q 2431 1156 2273 1281 
Q 2116 1406 1581 1522 
L 1381 1569 
Q 847 1681 609 1914 
Q 372 2147 372 2553 
Q 372 3047 722 3315 
Q 1072 3584 1716 3584 
Q 2034 3584 2315 3537 
Q 2597 3491 2834 3397 
z
" transform="scale(0.015625)"/>
       <path id="DejaVuSans-29" d="M 513 4856 
L 1013 4856 
Q 1481 4119 1714 3412 
Q 1947 2706 1947 2009 
Q 1947 1309 1714 600 
Q 1481 -109 1013 -844 
L 513 -844 
Q 928 -128 1133 580 
Q 1338 1288 1338 2009 
Q 1338 2731 1133 3434 
Q 928 4138 513 4856 
z
" transform="scale(0.015625)"/>
      </defs>
      <use xlink:href="#DejaVuSans-54"/>
      <use xlink:href="#DejaVuSans-69" transform="translate(57.958984 0)"/>
      <use xlink:href="#DejaVuSans-6d" transform="translate(85.742188 0)"/>
      <use xlink:href="#DejaVuSans-65" transform="translate(183.154297 0)"/>
      <use xlink:href="#DejaVuSans-20" transform="translate(244.677734 0)"/>
      <use xlink:href="#DejaVuSans-28" transform="translate(276.464844 0)"/>
      <use xlink:href="#DejaVuSans-6d" transform="translate(315.478516 0)"/>
      <use xlink:href="#DejaVuSans-69" transform="translate(412.890625 0)"/>
      <use xlink:href="#DejaVuSans-6e" transform="translate(440.673828 0)"/>
      <use xlink:href="#DejaVuSans-73" transform="translate(504.052734 0)"/>
      <use xlink:href="#DejaVuSans-29" transform="translate(556.152344 0)"/>
     </g>
    </g>
   </g>
   <g id="matplotlib.axis_2">
    <g id="ytick_1">
     <g id="line2d_6">
      <defs>
       <path id="me68b92ee11" d="M 0 0 
L -3.5 0 
" style="stroke: #000000; stroke-width: 0.8"/>
      </defs>
      <g>
       <use xlink:href="#me68b92ee11" x="35.4875" y="78.899531" style="stroke: #000000; stroke-width: 0.8"/>
      </g>
     </g>
     <g id="text_7">
      <!-- 0k -->
      <g transform="translate(22.695625 81.179063) scale(0.06 -0.06)">
       <defs>
        <path id="DejaVuSans-6b" d="M 581 4863 
L 1159 4863 
L 1159 1991 
L 2875 3500 
L 3609 3500 
L 1753 1863 
L 3688 0 
L 2938 0 
L 1159 1709 
L 1159 0 
L 581 0 
L 581 4863 
z
" transform="scale(0.015625)"/>
       </defs>
       <use xlink:href="#DejaVuSans-30"/>
       <use xlink:href="#DejaVuSans-6b" transform="translate(63.623047 0)"/>
      </g>
     </g>
    </g>
    <g id="ytick_2">
     <g id="line2d_7">
      <g>
       <use xlink:href="#me68b92ee11" x="35.4875" y="65.015531" style="stroke: #000000; stroke-width: 0.8"/>
      </g>
     </g>
     <g id="text_8">
      <!-- 5k -->
      <g transform="translate(22.695625 67.295063) scale(0.06 -0.06)">
       <defs>
        <path id="DejaVuSans-35" d="M 691 4666 
L 3169 4666 
L 3169 4134 
L 1269 4134 
L 1269 2991 
Q 1406 3038 1543 3061 
Q 1681 3084 1819 3084 
Q 2600 3084 3056 2656 
Q 3513 2228 3513 1497 
Q 3513 744 3044 326 
Q 2575 -91 1722 -91 
Q 1428 -91 1123 -41 
Q 819 9 494 109 
L 494 744 
Q 775 591 1075 516 
Q 1375 441 1709 441 
Q 2250 441 2565 725 
Q 2881 1009 2881 1497 
Q 2881 1984 2565 2268 
Q 2250 2553 1709 2553 
Q 1456 2553 1204 2497 
Q 953 2441 691 2322 
L 691 4666 
z
" transform="scale(0.015625)"/>
       </defs>
       <use xlink:href="#DejaVuSans-35"/>
       <use xlink:href="#DejaVuSans-6b" transform="translate(63.623047 0)"/>
      </g>
     </g>
    </g>
    <g id="ytick_3">
     <g id="line2d_8">
      <g>
       <use xlink:href="#me68b92ee11" x="35.4875" y="51.131531" style="stroke: #000000; stroke-width: 0.8"/>
      </g>
     </g>
     <g id="text_9">
      <!-- 10k -->
      <g transform="translate(18.878125 53.411063) scale(0.06 -0.06)">
       <use xlink:href="#DejaVuSans-31"/>
       <use xlink:href="#DejaVuSans-30" transform="translate(63.623047 0)"/>
       <use xlink:href="#DejaVuSans-6b" transform="translate(127.246094 0)"/>
      </g>
     </g>
    </g>
    <g id="ytick_4">
     <g id="line2d_9">
      <g>
       <use xlink:href="#me68b92ee11" x="35.4875" y="37.247531" style="stroke: #000000; stroke-width: 0.8"/>
      </g>
     </g>
     <g id="text_10">
      <!-- 15k -->
      <g transform="translate(18.878125 39.527063) scale(0.06 -0.06)">
       <use xlink:href="#DejaVuSans-31"/>
       <use xlink:href="#DejaVuSans-35" transform="translate(63.623047 0)"/>
       <use xlink:href="#DejaVuSans-6b" transform="translate(127.246094 0)"/>
      </g>
     </g>
    </g>
    <g id="ytick_5">
     <g id="line2d_10">
      <g>
       <use xlink:href="#me68b92ee11" x="35.4875" y="23.363531" style="stroke: #000000; stroke-width: 0.8"/>
      </g>
     </g>
     <g id="text_11">
      <!-- 20k -->
      <g transform="translate(18.878125 25.643063) scale(0.06 -0.06)">
       <use xlink:href="#DejaVuSans-32"/>
       <use xlink:href="#DejaVuSans-30" transform="translate(63.623047 0)"/>
       <use xlink:href="#DejaVuSans-6b" transform="translate(127.246094 0)"/>
      </g>
     </g>
    </g>
    <g id="ytick_6">
     <g id="line2d_11">
      <g>
       <use xlink:href="#me68b92ee11" x="35.4875" y="9.479531" style="stroke: #000000; stroke-width: 0.8"/>
      </g>
     </g>
     <g id="text_12">
      <!-- 25k -->
      <g transform="translate(18.878125 11.759063) scale(0.06 -0.06)">
       <use xlink:href="#DejaVuSans-32"/>
       <use xlink:href="#DejaVuSans-35" transform="translate(63.623047 0)"/>
       <use xlink:href="#DejaVuSans-6b" transform="translate(127.246094 0)"/>
      </g>
     </g>
    </g>
    <g id="text_13">
     <!-- FL/OD (a.u.) -->
     <g transform="translate(14.798438 74.223125) rotate(-90) scale(0.1 -0.1)">
      <defs>
       <path id="DejaVuSans-46" d="M 628 4666 
L 3309 4666 
L 3309 4134 
L 1259 4134 
L 1259 2759 
L 3109 2759 
L 3109 2228 
L 1259 2228 
L 1259 0 
L 628 0 
L 628 4666 
z
" transform="scale(0.015625)"/>
       <path id="DejaVuSans-4c" d="M 628 4666 
L 1259 4666 
L 1259 531 
L 3531 531 
L 3531 0 
L 628 0 
L 628 4666 
z
" transform="scale(0.015625)"/>
       <path id="DejaVuSans-2f" d="M 1625 4666 
L 2156 4666 
L 531 -594 
L 0 -594 
L 1625 4666 
z
" transform="scale(0.015625)"/>
       <path id="DejaVuSans-4f" d="M 2522 4238 
Q 1834 4238 1429 3725 
Q 1025 3213 1025 2328 
Q 1025 1447 1429 934 
Q 1834 422 2522 422 
Q 3209 422 3611 934 
Q 4013 1447 4013 2328 
Q 4013 3213 3611 3725 
Q 3209 4238 2522 4238 
z
M 2522 4750 
Q 3503 4750 4090 4092 
Q 4678 3434 4678 2328 
Q 4678 1225 4090 567 
Q 3503 -91 2522 -91 
Q 1538 -91 948 565 
Q 359 1222 359 2328 
Q 359 3434 948 4092 
Q 1538 4750 2522 4750 
z
" transform="scale(0.015625)"/>
       <path id="DejaVuSans-44" d="M 1259 4147 
L 1259 519 
L 2022 519 
Q 2988 519 3436 956 
Q 3884 1394 3884 2338 
Q 3884 3275 3436 3711 
Q 2988 4147 2022 4147 
L 1259 4147 
z
M 628 4666 
L 1925 4666 
Q 3281 4666 3915 4102 
Q 4550 3538 4550 2338 
Q 4550 1131 3912 565 
Q 3275 0 1925 0 
L 628 0 
L 628 4666 
z
" transform="scale(0.015625)"/>
       <path id="DejaVuSans-61" d="M 2194 1759 
Q 1497 1759 1228 1600 
Q 959 1441 959 1056 
Q 959 750 1161 570 
Q 1363 391 1709 391 
Q 2188 391 2477 730 
Q 2766 1069 2766 1631 
L 2766 1759 
L 2194 1759 
z
M 3341 1997 
L 3341 0 
L 2766 0 
L 2766 531 
Q 2569 213 2275 61 
Q 1981 -91 1556 -91 
Q 1019 -91 701 211 
Q 384 513 384 1019 
Q 384 1609 779 1909 
Q 1175 2209 1959 2209 
L 2766 2209 
L 2766 2266 
Q 2766 2663 2505 2880 
Q 2244 3097 1772 3097 
Q 1472 3097 1187 3025 
Q 903 2953 641 2809 
L 641 3341 
Q 956 3463 1253 3523 
Q 1550 3584 1831 3584 
Q 2591 3584 2966 3190 
Q 3341 2797 3341 1997 
z
" transform="scale(0.015625)"/>
       <path id="DejaVuSans-2e" d="M 684 794 
L 1344 794 
L 1344 0 
L 684 0 
L 684 794 
z
" transform="scale(0.015625)"/>
       <path id="DejaVuSans-75" d="M 544 1381 
L 544 3500 
L 1119 3500 
L 1119 1403 
Q 1119 906 1312 657 
Q 1506 409 1894 409 
Q 2359 409 2629 706 
Q 2900 1003 2900 1516 
L 2900 3500 
L 3475 3500 
L 3475 0 
L 2900 0 
L 2900 538 
Q 2691 219 2414 64 
Q 2138 -91 1772 -91 
Q 1169 -91 856 284 
Q 544 659 544 1381 
z
M 1991 3584 
L 1991 3584 
z
" transform="scale(0.015625)"/>
      </defs>
      <use xlink:href="#DejaVuSans-46"/>
      <use xlink:href="#DejaVuSans-4c" transform="translate(57.519531 0)"/>
      <use xlink:href="#DejaVuSans-2f" transform="translate(113.232422 0)"/>
      <use xlink:href="#DejaVuSans-4f" transform="translate(146.923828 0)"/>
      <use xlink:href="#DejaVuSans-44" transform="translate(225.634766 0)"/>
      <use xlink:href="#DejaVuSans-20" transform="translate(302.636719 0)"/>
      <use xlink:href="#DejaVuSans-28" transform="translate(334.423828 0)"/>
      <use xlink:href="#DejaVuSans-61" transform="translate(373.4375 0)"/>
      <use xlink:href="#DejaVuSans-2e" transform="translate(434.716797 0)"/>
      <use xlink:href="#DejaVuSans-75" transform="translate(466.503906 0)"/>
      <use xlink:href="#DejaVuSans-2e" transform="translate(529.882812 0)"/>
      <use xlink:href="#DejaVuSans-29" transform="translate(561.669922 0)"/>
     </g>
    </g>
   </g>
   <g id="line2d_12">
    <path d="M 38.18975 74.035924 
L 40.892 74.212565 
L 43.59425 73.60407 
L 46.2965 73.237744 
L 48.99875 72.407108 
L 51.701 71.514667 
L 54.40325 69.862364 
L 57.1055 68.078012 
L 59.80775 65.683883 
L 62.51 63.470901 
L 65.21225 60.741281 
L 67.9145 57.724996 
L 70.61675 56.163176 
L 73.319 52.929722 
L 76.02125 52.078606 
L 78.7235 50.245772 
L 81.42575 48.049989 
L 84.128 47.47171 
L 86.83025 46.824118 
L 89.5325 45.577882 
L 92.23475 44.613273 
L 94.937 43.883891 
L 97.63925 43.636684 
L 100.3415 43.275967 
L 103.04375 43.085784 
L 105.746 43.348842 
L 108.44825 43.141915 
L 111.1505 44.255718 
L 113.85275 44.644763 
L 116.555 45.005702 
L 119.25725 45.384306 
L 121.9595 45.395451 
L 124.66175 45.697811 
L 127.364 45.017334 
L 130.06625 45.358618 
L 132.7685 45.246569 
L 135.47075 45.22238 
L 138.173 45.448569 
L 140.87525 45.606241 
L 143.5775 45.644745 
L 146.27975 45.484894 
L 148.982 45.470313 
L 151.68425 45.325678 
L 154.3865 44.998629 
L 157.08875 44.612078 
L 159.791 44.891415 
L 162.49325 44.936694 
L 165.1955 45.130083 
L 167.89775 45.581842 
L 170.6 45.9732 
L 173.30225 46.168661 
L 174.917812 46.364545 
" clip-path="url(#p927773bfb4)" style="fill: none; stroke: #a06aaf; stroke-linecap: square"/>
   </g>
   <g id="line2d_13">
    <path d="M 35.4875 46.966331 
L 143.5775 46.966331 
" clip-path="url(#p927773bfb4)" style="fill: none; stroke-dasharray: 3.7,1.6; stroke-dashoffset: 0; stroke: #a06aaf"/>
   </g>
   <g id="patch_3">
    <path d="M 35.4875 78.899531 
L 35.4875 9.479531 
" style="fill: none; stroke: #000000; stroke-width: 0.5; stroke-linejoin: miter; stroke-linecap: square"/>
   </g>
   <g id="patch_4">
    <path d="M 143.5775 78.899531 
L 143.5775 9.479531 
" style="fill: none; stroke: #000000; stroke-width: 0.5; stroke-linejoin: miter; stroke-linecap: square"/>
   </g>
   <g id="patch_5">
    <path d="M 35.4875 78.899531 
L 143.5775 78.899531 
" style="fill: none; stroke: #000000; stroke-width: 0.5; stroke-linejoin: miter; stroke-linecap: square"/>
   </g>
   <g id="patch_6">
    <path d="M 35.4875 9.479531 
L 143.5775 9.479531 
" style="fill: none; stroke: #000000; stroke-width: 0.5; stroke-linejoin: miter; stroke-linecap: square"/>
   </g>
  </g>
  <g id="axes_2">
   <g id="FillBetweenPolyCollection_1">
    <defs>
     <path id="m2fee83673f" d="M 35.757725 -64.948813 
L 35.757725 -30.185 
L 37.919525 -30.185 
L 37.919525 -64.948813 
L 37.919525 -64.948813 
L 35.757725 -64.948813 
z
"/>
    </defs>
    <g clip-path="url(#p927773bfb4)">
     <use xlink:href="#m2fee83673f" x="0" y="109.084531" style="fill: #74b867; fill-opacity: 0.5"/>
    </g>
   </g>
   <g id="FillBetweenPolyCollection_2">
    <defs>
     <path id="m5c4480e6f8" d="M 38.459975 -64.948813 
L 38.459975 -30.185 
L 40.621775 -30.185 
L 40.621775 -64.948813 
L 40.621775 -64.948813 
L 38.459975 -64.948813 
z
"/>
    </defs>
    <g clip-path="url(#p927773bfb4)">
     <use xlink:href="#m5c4480e6f8" x="0" y="109.084531" style="fill: #74b867; fill-opacity: 0.5"/>
    </g>
   </g>
   <g id="FillBetweenPolyCollection_3">
    <defs>
     <path id="m6bca437473" d="M 41.162225 -48.713936 
L 41.162225 -30.185 
L 43.324025 -30.185 
L 43.324025 -48.713936 
L 43.324025 -48.713936 
L 41.162225 -48.713936 
z
"/>
    </defs>
    <g clip-path="url(#p927773bfb4)">
     <use xlink:href="#m6bca437473" x="0" y="109.084531" style="fill: #74b867; fill-opacity: 0.5"/>
    </g>
   </g>
   <g id="FillBetweenPolyCollection_4">
    <defs>
     <path id="mc683e1f5d9" d="M 43.864475 -48.802169 
L 43.864475 -30.185 
L 46.026275 -30.185 
L 46.026275 -48.802169 
L 46.026275 -48.802169 
L 43.864475 -48.802169 
z
"/>
    </defs>
    <g clip-path="url(#p927773bfb4)">
     <use xlink:href="#mc683e1f5d9" x="0" y="109.084531" style="fill: #74b867; fill-opacity: 0.5"/>
    </g>
   </g>
   <g id="FillBetweenPolyCollection_5">
    <defs>
     <path id="m27b4a17574" d="M 46.566725 -48.272771 
L 46.566725 -30.185 
L 48.728525 -30.185 
L 48.728525 -48.272771 
L 48.728525 -48.272771 
L 46.566725 -48.272771 
z
"/>
    </defs>
    <g clip-path="url(#p927773bfb4)">
     <use xlink:href="#m27b4a17574" x="0" y="109.084531" style="fill: #74b867; fill-opacity: 0.5"/>
    </g>
   </g>
   <g id="FillBetweenPolyCollection_6">
    <defs>
     <path id="mf7ec6c7dea" d="M 49.268975 -48.361004 
L 49.268975 -30.185 
L 51.430775 -30.185 
L 51.430775 -48.361004 
L 51.430775 -48.361004 
L 49.268975 -48.361004 
z
"/>
    </defs>
    <g clip-path="url(#p927773bfb4)">
     <use xlink:href="#mf7ec6c7dea" x="0" y="109.084531" style="fill: #74b867; fill-opacity: 0.5"/>
    </g>
   </g>
   <g id="FillBetweenPolyCollection_7">
    <defs>
     <path id="m55d187c8b5" d="M 51.971225 -47.302207 
L 51.971225 -30.185 
L 54.133025 -30.185 
L 54.133025 -47.302207 
L 54.133025 -47.302207 
L 51.971225 -47.302207 
z
"/>
    </defs>
    <g clip-path="url(#p927773bfb4)">
     <use xlink:href="#m55d187c8b5" x="0" y="109.084531" style="fill: #74b867; fill-opacity: 0.5"/>
    </g>
   </g>
   <g id="FillBetweenPolyCollection_8">
    <defs>
     <path id="m945d1c5cbd" d="M 54.673475 -47.39044 
L 54.673475 -30.185 
L 56.835275 -30.185 
L 56.835275 -47.39044 
L 56.835275 -47.39044 
L 54.673475 -47.39044 
z
"/>
    </defs>
    <g clip-path="url(#p927773bfb4)">
     <use xlink:href="#m945d1c5cbd" x="0" y="109.084531" style="fill: #74b867; fill-opacity: 0.5"/>
    </g>
   </g>
   <g id="FillBetweenPolyCollection_9">
    <defs>
     <path id="m5802b81ea3" d="M 57.375725 -45.272848 
L 57.375725 -30.185 
L 59.537525 -30.185 
L 59.537525 -45.272848 
L 59.537525 -45.272848 
L 57.375725 -45.272848 
z
"/>
    </defs>
    <g clip-path="url(#p927773bfb4)">
     <use xlink:href="#m5802b81ea3" x="0" y="109.084531" style="fill: #74b867; fill-opacity: 0.5"/>
    </g>
   </g>
   <g id="FillBetweenPolyCollection_10">
    <defs>
     <path id="me58d0a8530" d="M 60.077975 -45.272848 
L 60.077975 -30.185 
L 62.239775 -30.185 
L 62.239775 -45.272848 
L 62.239775 -45.272848 
L 60.077975 -45.272848 
z
"/>
    </defs>
    <g clip-path="url(#p927773bfb4)">
     <use xlink:href="#me58d0a8530" x="0" y="109.084531" style="fill: #74b867; fill-opacity: 0.5"/>
    </g>
   </g>
   <g id="FillBetweenPolyCollection_11">
    <defs>
     <path id="maba2d1b796" d="M 62.780225 -42.272925 
L 62.780225 -30.185 
L 64.942025 -30.185 
L 64.942025 -42.272925 
L 64.942025 -42.272925 
L 62.780225 -42.272925 
z
"/>
    </defs>
    <g clip-path="url(#p927773bfb4)">
     <use xlink:href="#maba2d1b796" x="0" y="109.084531" style="fill: #74b867; fill-opacity: 0.5"/>
    </g>
   </g>
   <g id="FillBetweenPolyCollection_12">
    <defs>
     <path id="m1633eb9164" d="M 65.482475 -42.272925 
L 65.482475 -30.185 
L 67.644275 -30.185 
L 67.644275 -42.272925 
L 67.644275 -42.272925 
L 65.482475 -42.272925 
z
"/>
    </defs>
    <g clip-path="url(#p927773bfb4)">
     <use xlink:href="#m1633eb9164" x="0" y="109.084531" style="fill: #74b867; fill-opacity: 0.5"/>
    </g>
   </g>
   <g id="FillBetweenPolyCollection_13">
    <defs>
     <path id="m626272f668" d="M 68.184725 -38.567138 
L 68.184725 -30.185 
L 70.346525 -30.185 
L 70.346525 -38.567138 
L 70.346525 -38.567138 
L 68.184725 -38.567138 
z
"/>
    </defs>
    <g clip-path="url(#p927773bfb4)">
     <use xlink:href="#m626272f668" x="0" y="109.084531" style="fill: #74b867; fill-opacity: 0.5"/>
    </g>
   </g>
   <g id="FillBetweenPolyCollection_14">
    <defs>
     <path id="m140f40faf9" d="M 70.886975 -38.478905 
L 70.886975 -30.185 
L 73.048775 -30.185 
L 73.048775 -38.478905 
L 73.048775 -38.478905 
L 70.886975 -38.478905 
z
"/>
    </defs>
    <g clip-path="url(#p927773bfb4)">
     <use xlink:href="#m140f40faf9" x="0" y="109.084531" style="fill: #74b867; fill-opacity: 0.5"/>
    </g>
   </g>
   <g id="FillBetweenPolyCollection_15">
    <defs>
     <path id="m09454d3208" d="M 73.589225 -35.390749 
L 73.589225 -30.185 
L 75.751025 -30.185 
L 75.751025 -35.390749 
L 75.751025 -35.390749 
L 73.589225 -35.390749 
z
"/>
    </defs>
    <g clip-path="url(#p927773bfb4)">
     <use xlink:href="#m09454d3208" x="0" y="109.084531" style="fill: #74b867; fill-opacity: 0.5"/>
    </g>
   </g>
   <g id="FillBetweenPolyCollection_16">
    <defs>
     <path id="m5cda3b38e7" d="M 76.291475 -35.390749 
L 76.291475 -30.185 
L 78.453275 -30.185 
L 78.453275 -35.390749 
L 78.453275 -35.390749 
L 76.291475 -35.390749 
z
"/>
    </defs>
    <g clip-path="url(#p927773bfb4)">
     <use xlink:href="#m5cda3b38e7" x="0" y="109.084531" style="fill: #74b867; fill-opacity: 0.5"/>
    </g>
   </g>
   <g id="FillBetweenPolyCollection_17">
    <defs>
     <path id="m07894b5341" d="M 78.993725 -33.537855 
L 78.993725 -30.185 
L 81.155525 -30.185 
L 81.155525 -33.537855 
L 81.155525 -33.537855 
L 78.993725 -33.537855 
z
"/>
    </defs>
    <g clip-path="url(#p927773bfb4)">
     <use xlink:href="#m07894b5341" x="0" y="109.084531" style="fill: #74b867; fill-opacity: 0.5"/>
    </g>
   </g>
   <g id="FillBetweenPolyCollection_18">
    <defs>
     <path id="m81db9cda74" d="M 81.695975 -33.626088 
L 81.695975 -30.185 
L 83.857775 -30.185 
L 83.857775 -33.626088 
L 83.857775 -33.626088 
L 81.695975 -33.626088 
z
"/>
    </defs>
    <g clip-path="url(#p927773bfb4)">
     <use xlink:href="#m81db9cda74" x="0" y="109.084531" style="fill: #74b867; fill-opacity: 0.5"/>
    </g>
   </g>
   <g id="FillBetweenPolyCollection_19">
    <defs>
     <path id="mb834d87171" d="M 84.398225 -31.684961 
L 84.398225 -30.185 
L 86.560025 -30.185 
L 86.560025 -31.684961 
L 86.560025 -31.684961 
L 84.398225 -31.684961 
z
"/>
    </defs>
    <g clip-path="url(#p927773bfb4)">
     <use xlink:href="#mb834d87171" x="0" y="109.084531" style="fill: #74b867; fill-opacity: 0.5"/>
    </g>
   </g>
   <g id="FillBetweenPolyCollection_20">
    <defs>
     <path id="mf98b905d46" d="M 87.100475 -31.773194 
L 87.100475 -30.185 
L 89.262275 -30.185 
L 89.262275 -31.773194 
L 89.262275 -31.773194 
L 87.100475 -31.773194 
z
"/>
    </defs>
    <g clip-path="url(#p927773bfb4)">
     <use xlink:href="#mf98b905d46" x="0" y="109.084531" style="fill: #74b867; fill-opacity: 0.5"/>
    </g>
   </g>
   <g id="FillBetweenPolyCollection_21">
    <defs>
     <path id="m89f6c198ec" d="M 89.802725 -30.361466 
L 89.802725 -30.185 
L 91.964525 -30.185 
L 91.964525 -30.361466 
L 91.964525 -30.361466 
L 89.802725 -30.361466 
z
"/>
    </defs>
    <g clip-path="url(#p927773bfb4)">
     <use xlink:href="#m89f6c198ec" x="0" y="109.084531" style="fill: #74b867; fill-opacity: 0.5"/>
    </g>
   </g>
   <g id="FillBetweenPolyCollection_22">
    <defs>
     <path id="m1bf77d0849" d="M 92.504975 -30.361466 
L 92.504975 -30.185 
L 94.666775 -30.185 
L 94.666775 -30.361466 
L 94.666775 -30.361466 
L 92.504975 -30.361466 
z
"/>
    </defs>
    <g clip-path="url(#p927773bfb4)">
     <use xlink:href="#m1bf77d0849" x="0" y="109.084531" style="fill: #74b867; fill-opacity: 0.5"/>
    </g>
   </g>
   <g id="FillBetweenPolyCollection_23">
    <defs>
     <path id="m0b1feb60aa" d="M 95.207225 -30.185 
L 95.207225 -30.185 
L 97.369025 -30.185 
L 97.369025 -30.185 
L 97.369025 -30.185 
L 95.207225 -30.185 
z
"/>
    </defs>
    <g clip-path="url(#p927773bfb4)">
     <use xlink:href="#m0b1feb60aa" x="0" y="109.084531" style="fill: #74b867; fill-opacity: 0.5"/>
    </g>
   </g>
   <g id="FillBetweenPolyCollection_24">
    <defs>
     <path id="me89bfddbf8" d="M 97.909475 -30.185 
L 97.909475 -30.185 
L 100.071275 -30.185 
L 100.071275 -30.185 
L 100.071275 -30.185 
L 97.909475 -30.185 
z
"/>
    </defs>
    <g clip-path="url(#p927773bfb4)">
     <use xlink:href="#me89bfddbf8" x="0" y="109.084531" style="fill: #74b867; fill-opacity: 0.5"/>
    </g>
   </g>
   <g id="FillBetweenPolyCollection_25">
    <defs>
     <path id="m1ed294e854" d="M 100.611725 -30.185 
L 100.611725 -30.185 
L 102.773525 -30.185 
L 102.773525 -30.185 
L 102.773525 -30.185 
L 100.611725 -30.185 
z
"/>
    </defs>
    <g clip-path="url(#p927773bfb4)">
     <use xlink:href="#m1ed294e854" x="0" y="109.084531" style="fill: #74b867; fill-opacity: 0.5"/>
    </g>
   </g>
   <g id="FillBetweenPolyCollection_26">
    <defs>
     <path id="mbeca34b95f" d="M 103.313975 -30.185 
L 103.313975 -30.185 
L 105.475775 -30.185 
L 105.475775 -30.185 
L 105.475775 -30.185 
L 103.313975 -30.185 
z
"/>
    </defs>
    <g clip-path="url(#p927773bfb4)">
     <use xlink:href="#mbeca34b95f" x="0" y="109.084531" style="fill: #74b867; fill-opacity: 0.5"/>
    </g>
   </g>
   <g id="FillBetweenPolyCollection_27">
    <defs>
     <path id="md0a409a9b3" d="M 106.016225 -30.185 
L 106.016225 -30.185 
L 108.178025 -30.185 
L 108.178025 -30.185 
L 108.178025 -30.185 
L 106.016225 -30.185 
z
"/>
    </defs>
    <g clip-path="url(#p927773bfb4)">
     <use xlink:href="#md0a409a9b3" x="0" y="109.084531" style="fill: #74b867; fill-opacity: 0.5"/>
    </g>
   </g>
   <g id="FillBetweenPolyCollection_28">
    <defs>
     <path id="md36400bcf0" d="M 108.718475 -30.185 
L 108.718475 -30.185 
L 110.880275 -30.185 
L 110.880275 -30.185 
L 110.880275 -30.185 
L 108.718475 -30.185 
z
"/>
    </defs>
    <g clip-path="url(#p927773bfb4)">
     <use xlink:href="#md36400bcf0" x="0" y="109.084531" style="fill: #74b867; fill-opacity: 0.5"/>
    </g>
   </g>
   <g id="FillBetweenPolyCollection_29">
    <defs>
     <path id="mf45c8b2c58" d="M 111.420725 -30.185 
L 111.420725 -30.185 
L 113.582525 -30.185 
L 113.582525 -30.185 
L 113.582525 -30.185 
L 111.420725 -30.185 
z
"/>
    </defs>
    <g clip-path="url(#p927773bfb4)">
     <use xlink:href="#mf45c8b2c58" x="0" y="109.084531" style="fill: #74b867; fill-opacity: 0.5"/>
    </g>
   </g>
   <g id="FillBetweenPolyCollection_30">
    <defs>
     <path id="m21c4ab8ca0" d="M 114.122975 -30.185 
L 114.122975 -30.185 
L 116.284775 -30.185 
L 116.284775 -30.185 
L 116.284775 -30.185 
L 114.122975 -30.185 
z
"/>
    </defs>
    <g clip-path="url(#p927773bfb4)">
     <use xlink:href="#m21c4ab8ca0" x="0" y="109.084531" style="fill: #74b867; fill-opacity: 0.5"/>
    </g>
   </g>
   <g id="FillBetweenPolyCollection_31">
    <defs>
     <path id="mcba0030410" d="M 116.825225 -30.185 
L 116.825225 -30.185 
L 118.987025 -30.185 
L 118.987025 -30.185 
L 118.987025 -30.185 
L 116.825225 -30.185 
z
"/>
    </defs>
    <g clip-path="url(#p927773bfb4)">
     <use xlink:href="#mcba0030410" x="0" y="109.084531" style="fill: #74b867; fill-opacity: 0.5"/>
    </g>
   </g>
   <g id="FillBetweenPolyCollection_32">
    <defs>
     <path id="mc6b14800d0" d="M 119.527475 -30.185 
L 119.527475 -30.185 
L 121.689275 -30.185 
L 121.689275 -30.185 
L 121.689275 -30.185 
L 119.527475 -30.185 
z
"/>
    </defs>
    <g clip-path="url(#p927773bfb4)">
     <use xlink:href="#mc6b14800d0" x="0" y="109.084531" style="fill: #74b867; fill-opacity: 0.5"/>
    </g>
   </g>
   <g id="FillBetweenPolyCollection_33">
    <defs>
     <path id="m9a0ecee210" d="M 122.229725 -30.185 
L 122.229725 -30.185 
L 124.391525 -30.185 
L 124.391525 -30.185 
L 124.391525 -30.185 
L 122.229725 -30.185 
z
"/>
    </defs>
    <g clip-path="url(#p927773bfb4)">
     <use xlink:href="#m9a0ecee210" x="0" y="109.084531" style="fill: #74b867; fill-opacity: 0.5"/>
    </g>
   </g>
   <g id="FillBetweenPolyCollection_34">
    <defs>
     <path id="m241f261d03" d="M 124.931975 -30.185 
L 124.931975 -30.185 
L 127.093775 -30.185 
L 127.093775 -30.185 
L 127.093775 -30.185 
L 124.931975 -30.185 
z
"/>
    </defs>
    <g clip-path="url(#p927773bfb4)">
     <use xlink:href="#m241f261d03" x="0" y="109.084531" style="fill: #74b867; fill-opacity: 0.5"/>
    </g>
   </g>
   <g id="FillBetweenPolyCollection_35">
    <defs>
     <path id="m9b57ae8a7f" d="M 127.634225 -30.185 
L 127.634225 -30.185 
L 129.796025 -30.185 
L 129.796025 -30.185 
L 129.796025 -30.185 
L 127.634225 -30.185 
z
"/>
    </defs>
    <g clip-path="url(#p927773bfb4)">
     <use xlink:href="#m9b57ae8a7f" x="0" y="109.084531" style="fill: #74b867; fill-opacity: 0.5"/>
    </g>
   </g>
   <g id="FillBetweenPolyCollection_36">
    <defs>
     <path id="m030d5c8b3c" d="M 130.336475 -30.185 
L 130.336475 -30.185 
L 132.498275 -30.185 
L 132.498275 -30.185 
L 132.498275 -30.185 
L 130.336475 -30.185 
z
"/>
    </defs>
    <g clip-path="url(#p927773bfb4)">
     <use xlink:href="#m030d5c8b3c" x="0" y="109.084531" style="fill: #74b867; fill-opacity: 0.5"/>
    </g>
   </g>
   <g id="FillBetweenPolyCollection_37">
    <defs>
     <path id="mfc63bb4bfe" d="M 133.038725 -30.185 
L 133.038725 -30.185 
L 135.200525 -30.185 
L 135.200525 -30.185 
L 135.200525 -30.185 
L 133.038725 -30.185 
z
"/>
    </defs>
    <g clip-path="url(#p927773bfb4)">
     <use xlink:href="#mfc63bb4bfe" x="0" y="109.084531" style="fill: #74b867; fill-opacity: 0.5"/>
    </g>
   </g>
   <g id="FillBetweenPolyCollection_38">
    <defs>
     <path id="m3cffc297d7" d="M 135.740975 -30.185 
L 135.740975 -30.185 
L 137.902775 -30.185 
L 137.902775 -30.185 
L 137.902775 -30.185 
L 135.740975 -30.185 
z
"/>
    </defs>
    <g clip-path="url(#p927773bfb4)">
     <use xlink:href="#m3cffc297d7" x="0" y="109.084531" style="fill: #74b867; fill-opacity: 0.5"/>
    </g>
   </g>
   <g id="FillBetweenPolyCollection_39">
    <defs>
     <path id="mb66d804307" d="M 138.443225 -30.185 
L 138.443225 -30.185 
L 140.605025 -30.185 
L 140.605025 -30.185 
L 140.605025 -30.185 
L 138.443225 -30.185 
z
"/>
    </defs>
    <g clip-path="url(#p927773bfb4)">
     <use xlink:href="#mb66d804307" x="0" y="109.084531" style="fill: #74b867; fill-opacity: 0.5"/>
    </g>
   </g>
   <g id="FillBetweenPolyCollection_40">
    <defs>
     <path id="ma4254ba736" d="M 141.145475 -30.185 
L 141.145475 -30.185 
L 143.307275 -30.185 
L 143.307275 -30.185 
L 143.307275 -30.185 
L 141.145475 -30.185 
z
"/>
    </defs>
    <g clip-path="url(#p927773bfb4)">
     <use xlink:href="#ma4254ba736" x="0" y="109.084531" style="fill: #74b867; fill-opacity: 0.5"/>
    </g>
   </g>
   <g id="matplotlib.axis_3">
    <g id="ytick_7">
     <g id="line2d_14">
      <defs>
       <path id="m42a792f91d" d="M 0 0 
L 3.5 0 
" style="stroke: #000000; stroke-width: 0.8"/>
      </defs>
      <g>
       <use xlink:href="#m42a792f91d" x="143.5775" y="78.899531" style="stroke: #000000; stroke-width: 0.8"/>
      </g>
     </g>
     <g id="text_14">
      <!-- 0 -->
      <g style="fill: #74b867" transform="translate(149.0775 81.046875) scale(0.06 -0.06)">
       <defs>
        <path id="ArialMT-30" d="M 266 2259 
Q 266 3072 433 3567 
Q 600 4063 929 4331 
Q 1259 4600 1759 4600 
Q 2128 4600 2406 4451 
Q 2684 4303 2865 4023 
Q 3047 3744 3150 3342 
Q 3253 2941 3253 2259 
Q 3253 1453 3087 958 
Q 2922 463 2592 192 
Q 2263 -78 1759 -78 
Q 1097 -78 719 397 
Q 266 969 266 2259 
z
M 844 2259 
Q 844 1131 1108 757 
Q 1372 384 1759 384 
Q 2147 384 2411 759 
Q 2675 1134 2675 2259 
Q 2675 3391 2411 3762 
Q 2147 4134 1753 4134 
Q 1366 4134 1134 3806 
Q 844 3388 844 2259 
z
" transform="scale(0.015625)"/>
       </defs>
       <use xlink:href="#ArialMT-30"/>
      </g>
     </g>
    </g>
    <g id="ytick_8">
     <g id="line2d_15">
      <g>
       <use xlink:href="#m42a792f91d" x="143.5775" y="65.015531" style="stroke: #000000; stroke-width: 0.8"/>
      </g>
     </g>
     <g id="text_15">
      <!-- 20 -->
      <g style="fill: #74b867" transform="translate(149.0775 67.162875) scale(0.06 -0.06)">
       <defs>
        <path id="ArialMT-32" d="M 3222 541 
L 3222 0 
L 194 0 
Q 188 203 259 391 
Q 375 700 629 1000 
Q 884 1300 1366 1694 
Q 2113 2306 2375 2664 
Q 2638 3022 2638 3341 
Q 2638 3675 2398 3904 
Q 2159 4134 1775 4134 
Q 1369 4134 1125 3890 
Q 881 3647 878 3216 
L 300 3275 
Q 359 3922 746 4261 
Q 1134 4600 1788 4600 
Q 2447 4600 2831 4234 
Q 3216 3869 3216 3328 
Q 3216 3053 3103 2787 
Q 2991 2522 2730 2228 
Q 2469 1934 1863 1422 
Q 1356 997 1212 845 
Q 1069 694 975 541 
L 3222 541 
z
" transform="scale(0.015625)"/>
       </defs>
       <use xlink:href="#ArialMT-32"/>
       <use xlink:href="#ArialMT-30" transform="translate(55.615234 0)"/>
      </g>
     </g>
    </g>
    <g id="ytick_9">
     <g id="line2d_16">
      <g>
       <use xlink:href="#m42a792f91d" x="143.5775" y="51.131531" style="stroke: #000000; stroke-width: 0.8"/>
      </g>
     </g>
     <g id="text_16">
      <!-- 40 -->
      <g style="fill: #74b867" transform="translate(149.0775 53.278875) scale(0.06 -0.06)">
       <defs>
        <path id="ArialMT-34" d="M 2069 0 
L 2069 1097 
L 81 1097 
L 81 1613 
L 2172 4581 
L 2631 4581 
L 2631 1613 
L 3250 1613 
L 3250 1097 
L 2631 1097 
L 2631 0 
L 2069 0 
z
M 2069 1613 
L 2069 3678 
L 634 1613 
L 2069 1613 
z
" transform="scale(0.015625)"/>
       </defs>
       <use xlink:href="#ArialMT-34"/>
       <use xlink:href="#ArialMT-30" transform="translate(55.615234 0)"/>
      </g>
     </g>
    </g>
    <g id="ytick_10">
     <g id="line2d_17">
      <g>
       <use xlink:href="#m42a792f91d" x="143.5775" y="37.247531" style="stroke: #000000; stroke-width: 0.8"/>
      </g>
     </g>
     <g id="text_17">
      <!-- 60 -->
      <g style="fill: #74b867" transform="translate(149.0775 39.394875) scale(0.06 -0.06)">
       <defs>
        <path id="ArialMT-36" d="M 3184 3459 
L 2625 3416 
Q 2550 3747 2413 3897 
Q 2184 4138 1850 4138 
Q 1581 4138 1378 3988 
Q 1113 3794 959 3422 
Q 806 3050 800 2363 
Q 1003 2672 1297 2822 
Q 1591 2972 1913 2972 
Q 2475 2972 2870 2558 
Q 3266 2144 3266 1488 
Q 3266 1056 3080 686 
Q 2894 316 2569 119 
Q 2244 -78 1831 -78 
Q 1128 -78 684 439 
Q 241 956 241 2144 
Q 241 3472 731 4075 
Q 1159 4600 1884 4600 
Q 2425 4600 2770 4297 
Q 3116 3994 3184 3459 
z
M 888 1484 
Q 888 1194 1011 928 
Q 1134 663 1356 523 
Q 1578 384 1822 384 
Q 2178 384 2434 671 
Q 2691 959 2691 1453 
Q 2691 1928 2437 2201 
Q 2184 2475 1800 2475 
Q 1419 2475 1153 2201 
Q 888 1928 888 1484 
z
" transform="scale(0.015625)"/>
       </defs>
       <use xlink:href="#ArialMT-36"/>
       <use xlink:href="#ArialMT-30" transform="translate(55.615234 0)"/>
      </g>
     </g>
    </g>
    <g id="ytick_11">
     <g id="line2d_18">
      <g>
       <use xlink:href="#m42a792f91d" x="143.5775" y="23.363531" style="stroke: #000000; stroke-width: 0.8"/>
      </g>
     </g>
     <g id="text_18">
      <!-- 80 -->
      <g style="fill: #74b867" transform="translate(149.0775 25.510875) scale(0.06 -0.06)">
       <defs>
        <path id="ArialMT-38" d="M 1131 2484 
Q 781 2613 612 2850 
Q 444 3088 444 3419 
Q 444 3919 803 4259 
Q 1163 4600 1759 4600 
Q 2359 4600 2725 4251 
Q 3091 3903 3091 3403 
Q 3091 3084 2923 2848 
Q 2756 2613 2416 2484 
Q 2838 2347 3058 2040 
Q 3278 1734 3278 1309 
Q 3278 722 2862 322 
Q 2447 -78 1769 -78 
Q 1091 -78 675 323 
Q 259 725 259 1325 
Q 259 1772 486 2073 
Q 713 2375 1131 2484 
z
M 1019 3438 
Q 1019 3113 1228 2906 
Q 1438 2700 1772 2700 
Q 2097 2700 2305 2904 
Q 2513 3109 2513 3406 
Q 2513 3716 2298 3927 
Q 2084 4138 1766 4138 
Q 1444 4138 1231 3931 
Q 1019 3725 1019 3438 
z
M 838 1322 
Q 838 1081 952 856 
Q 1066 631 1291 507 
Q 1516 384 1775 384 
Q 2178 384 2440 643 
Q 2703 903 2703 1303 
Q 2703 1709 2433 1975 
Q 2163 2241 1756 2241 
Q 1359 2241 1098 1978 
Q 838 1716 838 1322 
z
" transform="scale(0.015625)"/>
       </defs>
       <use xlink:href="#ArialMT-38"/>
       <use xlink:href="#ArialMT-30" transform="translate(55.615234 0)"/>
      </g>
     </g>
    </g>
    <g id="ytick_12">
     <g id="line2d_19">
      <g>
       <use xlink:href="#m42a792f91d" x="143.5775" y="9.479531" style="stroke: #000000; stroke-width: 0.8"/>
      </g>
     </g>
     <g id="text_19">
      <!-- 100 -->
      <g style="fill: #74b867" transform="translate(149.0775 11.626875) scale(0.06 -0.06)">
       <defs>
        <path id="ArialMT-31" d="M 2384 0 
L 1822 0 
L 1822 3584 
Q 1619 3391 1289 3197 
Q 959 3003 697 2906 
L 697 3450 
Q 1169 3672 1522 3987 
Q 1875 4303 2022 4600 
L 2384 4600 
L 2384 0 
z
" transform="scale(0.015625)"/>
       </defs>
       <use xlink:href="#ArialMT-31"/>
       <use xlink:href="#ArialMT-30" transform="translate(55.615234 0)"/>
       <use xlink:href="#ArialMT-30" transform="translate(111.230469 0)"/>
      </g>
     </g>
    </g>
    <g id="text_20">
     <!-- Duty Cycle (%) -->
     <g style="fill: #74b867" transform="translate(165.455 64.191563) rotate(-90) scale(0.06 -0.06)">
      <defs>
       <path id="ArialMT-44" d="M 494 0 
L 494 4581 
L 2072 4581 
Q 2606 4581 2888 4516 
Q 3281 4425 3559 4188 
Q 3922 3881 4101 3404 
Q 4281 2928 4281 2316 
Q 4281 1794 4159 1391 
Q 4038 988 3847 723 
Q 3656 459 3429 307 
Q 3203 156 2883 78 
Q 2563 0 2147 0 
L 494 0 
z
M 1100 541 
L 2078 541 
Q 2531 541 2789 625 
Q 3047 709 3200 863 
Q 3416 1078 3536 1442 
Q 3656 1806 3656 2325 
Q 3656 3044 3420 3430 
Q 3184 3816 2847 3947 
Q 2603 4041 2063 4041 
L 1100 4041 
L 1100 541 
z
" transform="scale(0.015625)"/>
       <path id="ArialMT-75" d="M 2597 0 
L 2597 488 
Q 2209 -75 1544 -75 
Q 1250 -75 995 37 
Q 741 150 617 320 
Q 494 491 444 738 
Q 409 903 409 1263 
L 409 3319 
L 972 3319 
L 972 1478 
Q 972 1038 1006 884 
Q 1059 663 1231 536 
Q 1403 409 1656 409 
Q 1909 409 2131 539 
Q 2353 669 2445 892 
Q 2538 1116 2538 1541 
L 2538 3319 
L 3100 3319 
L 3100 0 
L 2597 0 
z
" transform="scale(0.015625)"/>
       <path id="ArialMT-74" d="M 1650 503 
L 1731 6 
Q 1494 -44 1306 -44 
Q 1000 -44 831 53 
Q 663 150 594 308 
Q 525 466 525 972 
L 525 2881 
L 113 2881 
L 113 3319 
L 525 3319 
L 525 4141 
L 1084 4478 
L 1084 3319 
L 1650 3319 
L 1650 2881 
L 1084 2881 
L 1084 941 
Q 1084 700 1114 631 
Q 1144 563 1211 522 
Q 1278 481 1403 481 
Q 1497 481 1650 503 
z
" transform="scale(0.015625)"/>
       <path id="ArialMT-79" d="M 397 -1278 
L 334 -750 
Q 519 -800 656 -800 
Q 844 -800 956 -737 
Q 1069 -675 1141 -563 
Q 1194 -478 1313 -144 
Q 1328 -97 1363 -6 
L 103 3319 
L 709 3319 
L 1400 1397 
Q 1534 1031 1641 628 
Q 1738 1016 1872 1384 
L 2581 3319 
L 3144 3319 
L 1881 -56 
Q 1678 -603 1566 -809 
Q 1416 -1088 1222 -1217 
Q 1028 -1347 759 -1347 
Q 597 -1347 397 -1278 
z
" transform="scale(0.015625)"/>
       <path id="ArialMT-20" transform="scale(0.015625)"/>
       <path id="ArialMT-43" d="M 3763 1606 
L 4369 1453 
Q 4178 706 3683 314 
Q 3188 -78 2472 -78 
Q 1731 -78 1267 223 
Q 803 525 561 1097 
Q 319 1669 319 2325 
Q 319 3041 592 3573 
Q 866 4106 1370 4382 
Q 1875 4659 2481 4659 
Q 3169 4659 3637 4309 
Q 4106 3959 4291 3325 
L 3694 3184 
Q 3534 3684 3231 3912 
Q 2928 4141 2469 4141 
Q 1941 4141 1586 3887 
Q 1231 3634 1087 3207 
Q 944 2781 944 2328 
Q 944 1744 1114 1308 
Q 1284 872 1643 656 
Q 2003 441 2422 441 
Q 2931 441 3284 734 
Q 3638 1028 3763 1606 
z
" transform="scale(0.015625)"/>
       <path id="ArialMT-63" d="M 2588 1216 
L 3141 1144 
Q 3050 572 2676 248 
Q 2303 -75 1759 -75 
Q 1078 -75 664 370 
Q 250 816 250 1647 
Q 250 2184 428 2587 
Q 606 2991 970 3192 
Q 1334 3394 1763 3394 
Q 2303 3394 2647 3120 
Q 2991 2847 3088 2344 
L 2541 2259 
Q 2463 2594 2264 2762 
Q 2066 2931 1784 2931 
Q 1359 2931 1093 2626 
Q 828 2322 828 1663 
Q 828 994 1084 691 
Q 1341 388 1753 388 
Q 2084 388 2306 591 
Q 2528 794 2588 1216 
z
" transform="scale(0.015625)"/>
       <path id="ArialMT-6c" d="M 409 0 
L 409 4581 
L 972 4581 
L 972 0 
L 409 0 
z
" transform="scale(0.015625)"/>
       <path id="ArialMT-65" d="M 2694 1069 
L 3275 997 
Q 3138 488 2766 206 
Q 2394 -75 1816 -75 
Q 1088 -75 661 373 
Q 234 822 234 1631 
Q 234 2469 665 2931 
Q 1097 3394 1784 3394 
Q 2450 3394 2872 2941 
Q 3294 2488 3294 1666 
Q 3294 1616 3291 1516 
L 816 1516 
Q 847 969 1125 678 
Q 1403 388 1819 388 
Q 2128 388 2347 550 
Q 2566 713 2694 1069 
z
M 847 1978 
L 2700 1978 
Q 2663 2397 2488 2606 
Q 2219 2931 1791 2931 
Q 1403 2931 1139 2672 
Q 875 2413 847 1978 
z
" transform="scale(0.015625)"/>
       <path id="ArialMT-28" d="M 1497 -1347 
Q 1031 -759 709 28 
Q 388 816 388 1659 
Q 388 2403 628 3084 
Q 909 3875 1497 4659 
L 1900 4659 
Q 1522 4009 1400 3731 
Q 1209 3300 1100 2831 
Q 966 2247 966 1656 
Q 966 153 1900 -1347 
L 1497 -1347 
z
" transform="scale(0.015625)"/>
       <path id="ArialMT-25" d="M 372 3481 
Q 372 3972 619 4315 
Q 866 4659 1334 4659 
Q 1766 4659 2048 4351 
Q 2331 4044 2331 3447 
Q 2331 2866 2045 2552 
Q 1759 2238 1341 2238 
Q 925 2238 648 2547 
Q 372 2856 372 3481 
z
M 1350 4272 
Q 1141 4272 1002 4090 
Q 863 3909 863 3425 
Q 863 2984 1003 2804 
Q 1144 2625 1350 2625 
Q 1563 2625 1702 2806 
Q 1841 2988 1841 3469 
Q 1841 3913 1700 4092 
Q 1559 4272 1350 4272 
z
M 1353 -169 
L 3859 4659 
L 4316 4659 
L 1819 -169 
L 1353 -169 
z
M 3334 1075 
Q 3334 1569 3581 1911 
Q 3828 2253 4300 2253 
Q 4731 2253 5014 1945 
Q 5297 1638 5297 1041 
Q 5297 459 5011 145 
Q 4725 -169 4303 -169 
Q 3888 -169 3611 142 
Q 3334 453 3334 1075 
z
M 4316 1866 
Q 4103 1866 3964 1684 
Q 3825 1503 3825 1019 
Q 3825 581 3965 400 
Q 4106 219 4313 219 
Q 4528 219 4667 400 
Q 4806 581 4806 1063 
Q 4806 1506 4665 1686 
Q 4525 1866 4316 1866 
z
" transform="scale(0.015625)"/>
       <path id="ArialMT-29" d="M 791 -1347 
L 388 -1347 
Q 1322 153 1322 1656 
Q 1322 2244 1188 2822 
Q 1081 3291 891 3722 
Q 769 4003 388 4659 
L 791 4659 
Q 1378 3875 1659 3084 
Q 1900 2403 1900 1659 
Q 1900 816 1576 28 
Q 1253 -759 791 -1347 
z
" transform="scale(0.015625)"/>
      </defs>
      <use xlink:href="#ArialMT-44"/>
      <use xlink:href="#ArialMT-75" transform="translate(72.216797 0)"/>
      <use xlink:href="#ArialMT-74" transform="translate(127.832031 0)"/>
      <use xlink:href="#ArialMT-79" transform="translate(155.615234 0)"/>
      <use xlink:href="#ArialMT-20" transform="translate(205.615234 0)"/>
      <use xlink:href="#ArialMT-43" transform="translate(233.398438 0)"/>
      <use xlink:href="#ArialMT-79" transform="translate(305.615234 0)"/>
      <use xlink:href="#ArialMT-63" transform="translate(355.615234 0)"/>
      <use xlink:href="#ArialMT-6c" transform="translate(405.615234 0)"/>
      <use xlink:href="#ArialMT-65" transform="translate(427.832031 0)"/>
      <use xlink:href="#ArialMT-20" transform="translate(483.447266 0)"/>
      <use xlink:href="#ArialMT-28" transform="translate(511.230469 0)"/>
      <use xlink:href="#ArialMT-25" transform="translate(544.53125 0)"/>
      <use xlink:href="#ArialMT-29" transform="translate(633.447266 0)"/>
     </g>
    </g>
   </g>
   <g id="line2d_20">
    <path d="M 36.838625 44.135718 
L 39.540875 44.135718 
L 42.243125 60.370595 
L 44.945375 60.282362 
L 47.647625 60.811761 
L 50.349875 60.723528 
L 53.052125 61.782324 
L 55.754375 61.694091 
L 58.456625 63.811684 
L 61.158875 63.811684 
L 63.861125 66.811606 
L 66.563375 66.811606 
L 69.265625 70.517394 
L 71.967875 70.605627 
L 74.670125 73.693783 
L 77.372375 73.693783 
L 80.074625 75.546676 
L 82.776875 75.458443 
L 85.479125 77.39957 
L 88.181375 77.311337 
L 90.883625 78.723065 
L 93.585875 78.723065 
L 96.288125 78.899531 
L 98.990375 78.899531 
L 101.692625 78.899531 
L 104.394875 78.899531 
L 107.097125 78.899531 
L 109.799375 78.899531 
L 112.501625 78.899531 
L 115.203875 78.899531 
L 117.906125 78.899531 
L 120.608375 78.899531 
L 123.310625 78.899531 
L 126.012875 78.899531 
L 128.715125 78.899531 
L 131.417375 78.899531 
L 134.119625 78.899531 
L 136.821875 78.899531 
L 139.524125 78.899531 
L 142.226375 78.899531 
" clip-path="url(#p927773bfb4)" style="fill: none; stroke-dasharray: 3.7,1.6; stroke-dashoffset: 0; stroke: #74b867"/>
    <defs>
     <path id="m54aefc3216" d="M 0 0.25 
C 0.066301 0.25 0.129895 0.223658 0.176777 0.176777 
C 0.223658 0.129895 0.25 0.066301 0.25 0 
C 0.25 -0.066301 0.223658 -0.129895 0.176777 -0.176777 
C 0.129895 -0.223658 0.066301 -0.25 0 -0.25 
C -0.066301 -0.25 -0.129895 -0.223658 -0.176777 -0.176777 
C -0.223658 -0.129895 -0.25 -0.066301 -0.25 0 
C -0.25 0.066301 -0.223658 0.129895 -0.176777 0.176777 
C -0.129895 0.223658 -0.066301 0.25 0 0.25 
z
" style="stroke: #74b867"/>
    </defs>
    <g clip-path="url(#p927773bfb4)">
     <use xlink:href="#m54aefc3216" x="36.838625" y="44.135718" style="fill: #74b867; stroke: #74b867"/>
     <use xlink:href="#m54aefc3216" x="39.540875" y="44.135718" style="fill: #74b867; stroke: #74b867"/>
     <use xlink:href="#m54aefc3216" x="42.243125" y="60.370595" style="fill: #74b867; stroke: #74b867"/>
     <use xlink:href="#m54aefc3216" x="44.945375" y="60.282362" style="fill: #74b867; stroke: #74b867"/>
     <use xlink:href="#m54aefc3216" x="47.647625" y="60.811761" style="fill: #74b867; stroke: #74b867"/>
     <use xlink:href="#m54aefc3216" x="50.349875" y="60.723528" style="fill: #74b867; stroke: #74b867"/>
     <use xlink:href="#m54aefc3216" x="53.052125" y="61.782324" style="fill: #74b867; stroke: #74b867"/>
     <use xlink:href="#m54aefc3216" x="55.754375" y="61.694091" style="fill: #74b867; stroke: #74b867"/>
     <use xlink:href="#m54aefc3216" x="58.456625" y="63.811684" style="fill: #74b867; stroke: #74b867"/>
     <use xlink:href="#m54aefc3216" x="61.158875" y="63.811684" style="fill: #74b867; stroke: #74b867"/>
     <use xlink:href="#m54aefc3216" x="63.861125" y="66.811606" style="fill: #74b867; stroke: #74b867"/>
     <use xlink:href="#m54aefc3216" x="66.563375" y="66.811606" style="fill: #74b867; stroke: #74b867"/>
     <use xlink:href="#m54aefc3216" x="69.265625" y="70.517394" style="fill: #74b867; stroke: #74b867"/>
     <use xlink:href="#m54aefc3216" x="71.967875" y="70.605627" style="fill: #74b867; stroke: #74b867"/>
     <use xlink:href="#m54aefc3216" x="74.670125" y="73.693783" style="fill: #74b867; stroke: #74b867"/>
     <use xlink:href="#m54aefc3216" x="77.372375" y="73.693783" style="fill: #74b867; stroke: #74b867"/>
     <use xlink:href="#m54aefc3216" x="80.074625" y="75.546676" style="fill: #74b867; stroke: #74b867"/>
     <use xlink:href="#m54aefc3216" x="82.776875" y="75.458443" style="fill: #74b867; stroke: #74b867"/>
     <use xlink:href="#m54aefc3216" x="85.479125" y="77.39957" style="fill: #74b867; stroke: #74b867"/>
     <use xlink:href="#m54aefc3216" x="88.181375" y="77.311337" style="fill: #74b867; stroke: #74b867"/>
     <use xlink:href="#m54aefc3216" x="90.883625" y="78.723065" style="fill: #74b867; stroke: #74b867"/>
     <use xlink:href="#m54aefc3216" x="93.585875" y="78.723065" style="fill: #74b867; stroke: #74b867"/>
     <use xlink:href="#m54aefc3216" x="96.288125" y="78.899531" style="fill: #74b867; stroke: #74b867"/>
     <use xlink:href="#m54aefc3216" x="98.990375" y="78.899531" style="fill: #74b867; stroke: #74b867"/>
     <use xlink:href="#m54aefc3216" x="101.692625" y="78.899531" style="fill: #74b867; stroke: #74b867"/>
     <use xlink:href="#m54aefc3216" x="104.394875" y="78.899531" style="fill: #74b867; stroke: #74b867"/>
     <use xlink:href="#m54aefc3216" x="107.097125" y="78.899531" style="fill: #74b867; stroke: #74b867"/>
     <use xlink:href="#m54aefc3216" x="109.799375" y="78.899531" style="fill: #74b867; stroke: #74b867"/>
     <use xlink:href="#m54aefc3216" x="112.501625" y="78.899531" style="fill: #74b867; stroke: #74b867"/>
     <use xlink:href="#m54aefc3216" x="115.203875" y="78.899531" style="fill: #74b867; stroke: #74b867"/>
     <use xlink:href="#m54aefc3216" x="117.906125" y="78.899531" style="fill: #74b867; stroke: #74b867"/>
     <use xlink:href="#m54aefc3216" x="120.608375" y="78.899531" style="fill: #74b867; stroke: #74b867"/>
     <use xlink:href="#m54aefc3216" x="123.310625" y="78.899531" style="fill: #74b867; stroke: #74b867"/>
     <use xlink:href="#m54aefc3216" x="126.012875" y="78.899531" style="fill: #74b867; stroke: #74b867"/>
     <use xlink:href="#m54aefc3216" x="128.715125" y="78.899531" style="fill: #74b867; stroke: #74b867"/>
     <use xlink:href="#m54aefc3216" x="131.417375" y="78.899531" style="fill: #74b867; stroke: #74b867"/>
     <use xlink:href="#m54aefc3216" x="134.119625" y="78.899531" style="fill: #74b867; stroke: #74b867"/>
     <use xlink:href="#m54aefc3216" x="136.821875" y="78.899531" style="fill: #74b867; stroke: #74b867"/>
     <use xlink:href="#m54aefc3216" x="139.524125" y="78.899531" style="fill: #74b867; stroke: #74b867"/>
     <use xlink:href="#m54aefc3216" x="142.226375" y="78.899531" style="fill: #74b867; stroke: #74b867"/>
    </g>
   </g>
   <g id="patch_7">
    <path d="M 35.4875 78.899531 
L 35.4875 9.479531 
" style="fill: none; stroke: #000000; stroke-width: 0.5; stroke-linejoin: miter; stroke-linecap: square"/>
   </g>
   <g id="patch_8">
    <path d="M 143.5775 78.899531 
L 143.5775 9.479531 
" style="fill: none; stroke: #000000; stroke-width: 0.5; stroke-linejoin: miter; stroke-linecap: square"/>
   </g>
   <g id="patch_9">
    <path d="M 35.4875 78.899531 
L 143.5775 78.899531 
" style="fill: none; stroke: #000000; stroke-width: 0.5; stroke-linejoin: miter; stroke-linecap: square"/>
   </g>
   <g id="patch_10">
    <path d="M 35.4875 9.479531 
L 143.5775 9.479531 
" style="fill: none; stroke: #000000; stroke-width: 0.5; stroke-linejoin: miter; stroke-linecap: square"/>
   </g>
  </g>
 </g>
 <defs>
  <clipPath id="p927773bfb4">
   <rect x="35.4875" y="9.479531" width="108.09" height="69.42"/>
  </clipPath>
 </defs>
</svg>
