<?xml version="1.0" encoding="utf-8" standalone="no"?>
<!DOCTYPE svg PUBLIC "-//W3C//DTD SVG 1.1//EN"
  "http://www.w3.org/Graphics/SVG/1.1/DTD/svg11.dtd">
<!-- Created with matplotlib (https://matplotlib.org/) -->
<svg height="106.810781pt" version="1.1" viewBox="0 0 142.971719 106.810781" width="142.971719pt" xmlns="http://www.w3.org/2000/svg" xmlns:xlink="http://www.w3.org/1999/xlink">
 <metadata>
  <rdf:RDF xmlns:cc="http://creativecommons.org/ns#" xmlns:dc="http://purl.org/dc/elements/1.1/" xmlns:rdf="http://www.w3.org/1999/02/22-rdf-syntax-ns#">
   <cc:Work>
    <dc:type rdf:resource="http://purl.org/dc/dcmitype/StillImage"/>
    <dc:date>2025-08-28T10:51:21.981664</dc:date>
    <dc:format>image/svg+xml</dc:format>
    <dc:creator>
     <cc:Agent>
      <dc:title>Matplotlib v3.3.4, https://matplotlib.org/</dc:title>
     </cc:Agent>
    </dc:creator>
   </cc:Work>
  </rdf:RDF>
 </metadata>
 <defs>
  <style type="text/css">*{stroke-linecap:butt;stroke-linejoin:round;}</style>
 </defs>
 <g id="figure_1">
  <g id="patch_1">
   <path d="M 0 106.810781 
L 142.971719 106.810781 
L 142.971719 0 
L 0 0 
z
" style="fill:none;"/>
  </g>
  <g id="axes_1">
   <g id="patch_2">
    <path d="M 34.331719 75.64 
L 135.771719 75.64 
L 135.771719 7.2 
L 34.331719 7.2 
z
" style="fill:none;"/>
   </g>
   <g id="PolyCollection_1">
    <defs>
     <path d="M 35.388385 -37.349554 
L 35.388385 -35.067614 
L 36.445052 -35.012953 
L 37.501719 -35.111579 
L 38.558385 -35.417512 
L 39.615052 -35.838603 
L 40.671719 -36.404949 
L 41.728385 -37.806845 
L 42.785052 -39.001959 
L 43.841719 -40.339022 
L 44.898385 -42.105682 
L 45.955052 -44.101002 
L 47.011719 -45.913203 
L 48.068385 -48.872802 
L 49.125052 -52.182102 
L 50.181719 -54.888203 
L 51.238385 -56.837642 
L 52.295052 -58.504786 
L 53.351719 -59.952475 
L 54.408385 -61.725026 
L 55.465052 -63.049244 
L 56.521719 -64.106043 
L 57.578385 -66.007894 
L 58.635052 -66.343811 
L 59.691719 -67.628882 
L 60.748385 -69.211351 
L 61.805052 -70.319871 
L 62.861719 -71.649799 
L 63.918385 -74.110904 
L 64.975052 -74.111234 
L 66.031719 -74.176128 
L 67.088385 -75.035122 
L 68.145052 -75.971497 
L 69.201719 -77.547271 
L 70.258385 -78.834374 
L 71.315052 -80.186128 
L 72.371719 -81.301602 
L 73.428385 -82.205004 
L 74.485052 -82.962184 
L 75.541719 -83.828846 
L 76.598385 -84.04045 
L 77.655052 -84.719354 
L 78.711719 -85.377838 
L 79.768385 -86.090857 
L 80.825052 -86.901642 
L 81.881719 -87.678449 
L 82.938385 -88.372645 
L 83.995052 -89.043739 
L 85.051719 -89.281757 
L 86.108385 -89.695348 
L 87.165052 -90.004061 
L 88.221719 -90.368281 
L 89.278385 -90.536383 
L 90.335052 -90.729503 
L 91.391719 -91.060487 
L 92.448385 -90.946661 
L 93.505052 -91.081116 
L 94.561719 -90.884142 
L 95.618385 -90.62974 
L 96.675052 -90.632543 
L 97.731719 -90.619222 
L 98.788385 -90.412769 
L 99.845052 -90.133674 
L 100.901719 -90.108511 
L 101.958385 -90.197784 
L 103.015052 -90.009831 
L 104.071719 -90.012075 
L 105.128385 -90.003547 
L 106.185052 -89.774679 
L 107.241719 -89.751586 
L 108.298385 -89.656015 
L 109.355052 -89.621731 
L 110.411719 -89.528174 
L 111.468385 -89.055739 
L 112.525052 -89.183779 
L 113.581719 -89.276571 
L 114.638385 -89.379393 
L 115.695052 -89.137104 
L 116.751719 -89.087881 
L 117.808385 -88.96956 
L 118.865052 -88.938251 
L 119.921719 -88.922975 
L 120.978385 -88.74092 
L 122.035052 -88.692334 
L 123.091719 -88.397739 
L 124.148385 -88.370451 
L 125.205052 -88.356067 
L 126.261719 -88.675046 
L 127.318385 -88.559334 
L 128.375052 -88.433668 
L 129.431719 -88.143728 
L 130.488385 -87.952438 
L 131.545052 -87.752505 
L 132.601719 -88.085352 
L 133.658385 -87.744548 
L 134.715052 -87.506275 
L 135.771719 -87.701964 
L 136.828385 -87.672225 
L 137.885052 -87.349583 
L 138.941719 -87.370096 
L 139.998385 -87.289155 
L 141.055052 -87.171322 
L 142.111719 -87.195804 
L 143.168385 -87.07877 
L 144.225052 -86.660398 
L 144.225052 -92.016582 
L 144.225052 -92.016582 
L 143.168385 -91.998511 
L 142.111719 -91.863964 
L 141.055052 -92.003945 
L 139.998385 -92.141048 
L 138.941719 -92.518874 
L 137.885052 -92.855742 
L 136.828385 -92.997657 
L 135.771719 -93.066959 
L 134.715052 -92.821629 
L 133.658385 -92.540845 
L 132.601719 -92.535103 
L 131.545052 -92.65164 
L 130.488385 -92.604544 
L 129.431719 -92.614384 
L 128.375052 -93.305067 
L 127.318385 -93.252719 
L 126.261719 -93.5507 
L 125.205052 -93.59153 
L 124.148385 -93.612178 
L 123.091719 -93.293316 
L 122.035052 -93.285 
L 120.978385 -93.100463 
L 119.921719 -93.248818 
L 118.865052 -93.297616 
L 117.808385 -93.173264 
L 116.751719 -93.719955 
L 115.695052 -93.821683 
L 114.638385 -94.206684 
L 113.581719 -93.898787 
L 112.525052 -94.003647 
L 111.468385 -93.764497 
L 110.411719 -93.79046 
L 109.355052 -93.617933 
L 108.298385 -93.884976 
L 107.241719 -93.994405 
L 106.185052 -94.526283 
L 105.128385 -94.643569 
L 104.071719 -94.729976 
L 103.015052 -94.796695 
L 101.958385 -94.993766 
L 100.901719 -94.308615 
L 99.845052 -94.668676 
L 98.788385 -94.522623 
L 97.731719 -94.208963 
L 96.675052 -94.786119 
L 95.618385 -95.205772 
L 94.561719 -95.515156 
L 93.505052 -95.69681 
L 92.448385 -95.386054 
L 91.391719 -95.264875 
L 90.335052 -95.017403 
L 89.278385 -94.704335 
L 88.221719 -94.021523 
L 87.165052 -93.734259 
L 86.108385 -93.665325 
L 85.051719 -93.756699 
L 83.995052 -92.817878 
L 82.938385 -92.12967 
L 81.881719 -91.224715 
L 80.825052 -90.721796 
L 79.768385 -89.993834 
L 78.711719 -89.760105 
L 77.655052 -88.842193 
L 76.598385 -87.723647 
L 75.541719 -87.195506 
L 74.485052 -86.403809 
L 73.428385 -85.513033 
L 72.371719 -84.500988 
L 71.315052 -83.425472 
L 70.258385 -81.753226 
L 69.201719 -80.592739 
L 68.145052 -79.093102 
L 67.088385 -78.277241 
L 66.031719 -76.971879 
L 64.975052 -75.903667 
L 63.918385 -74.930407 
L 62.861719 -74.203235 
L 61.805052 -73.071554 
L 60.748385 -71.757085 
L 59.691719 -70.146829 
L 58.635052 -69.031354 
L 57.578385 -67.585817 
L 56.521719 -66.317299 
L 55.465052 -65.143023 
L 54.408385 -63.859514 
L 53.351719 -61.898961 
L 52.295052 -60.653048 
L 51.238385 -58.958807 
L 50.181719 -57.178793 
L 49.125052 -54.594885 
L 48.068385 -52.580792 
L 47.011719 -50.712633 
L 45.955052 -48.381575 
L 44.898385 -46.156614 
L 43.841719 -44.046416 
L 42.785052 -41.948269 
L 41.728385 -40.197441 
L 40.671719 -38.832303 
L 39.615052 -37.858758 
L 38.558385 -37.195339 
L 37.501719 -37.089136 
L 36.445052 -37.266106 
L 35.388385 -37.349554 
z
" id="mb13b891bea" style="stroke:#74b867;stroke-opacity:0.7;"/>
    </defs>
    <g clip-path="url(#p496c02096d)">
     <use style="fill:#74b867;fill-opacity:0.7;stroke:#74b867;stroke-opacity:0.7;" x="0" xlink:href="#mb13b891bea" y="106.810781"/>
    </g>
   </g>
   <g id="PolyCollection_2">
    <defs>
     <path d="M 35.388385 -35.533209 
L 35.388385 -34.686909 
L 36.445052 -34.498773 
L 37.501719 -34.554292 
L 38.558385 -34.379808 
L 39.615052 -34.134597 
L 40.671719 -34.133165 
L 41.728385 -34.365568 
L 42.785052 -34.449211 
L 43.841719 -34.41941 
L 44.898385 -34.688194 
L 45.955052 -35.010346 
L 47.011719 -35.546849 
L 48.068385 -36.210308 
L 49.125052 -36.499882 
L 50.181719 -37.008663 
L 51.238385 -37.42513 
L 52.295052 -37.467906 
L 53.351719 -37.456748 
L 54.408385 -37.476521 
L 55.465052 -37.450888 
L 56.521719 -37.463278 
L 57.578385 -37.447221 
L 58.635052 -37.503411 
L 59.691719 -37.573324 
L 60.748385 -37.567557 
L 61.805052 -37.638014 
L 62.861719 -37.704679 
L 63.918385 -37.781362 
L 64.975052 -37.848228 
L 66.031719 -37.910581 
L 67.088385 -38.123067 
L 68.145052 -38.33872 
L 69.201719 -38.573806 
L 70.258385 -38.888307 
L 71.315052 -39.177275 
L 72.371719 -39.489838 
L 73.428385 -39.966423 
L 74.485052 -40.202767 
L 75.541719 -40.495968 
L 76.598385 -40.780883 
L 77.655052 -41.195725 
L 78.711719 -41.466051 
L 79.768385 -41.642589 
L 80.825052 -41.834104 
L 81.881719 -41.92729 
L 82.938385 -41.946545 
L 83.995052 -41.943184 
L 85.051719 -41.885413 
L 86.108385 -41.904834 
L 87.165052 -41.797078 
L 88.221719 -41.77534 
L 89.278385 -41.6536 
L 90.335052 -41.763543 
L 91.391719 -41.717056 
L 92.448385 -41.666678 
L 93.505052 -41.57191 
L 94.561719 -41.615966 
L 95.618385 -41.499733 
L 96.675052 -41.531653 
L 97.731719 -41.51491 
L 98.788385 -41.576279 
L 99.845052 -41.500161 
L 100.901719 -41.497132 
L 101.958385 -41.468466 
L 103.015052 -41.281996 
L 104.071719 -41.293184 
L 105.128385 -41.38242 
L 106.185052 -41.354621 
L 107.241719 -41.171183 
L 108.298385 -41.145164 
L 109.355052 -41.119425 
L 110.411719 -41.040006 
L 111.468385 -40.939231 
L 112.525052 -40.885168 
L 113.581719 -41.093471 
L 114.638385 -41.025133 
L 115.695052 -40.992666 
L 116.751719 -40.924951 
L 117.808385 -40.898106 
L 118.865052 -40.857329 
L 119.921719 -40.691055 
L 120.978385 -40.658201 
L 122.035052 -40.717113 
L 123.091719 -40.640829 
L 124.148385 -40.610043 
L 125.205052 -40.582117 
L 126.261719 -40.519444 
L 127.318385 -40.499855 
L 128.375052 -40.35023 
L 129.431719 -40.317951 
L 130.488385 -40.24738 
L 131.545052 -40.195819 
L 132.601719 -40.251959 
L 133.658385 -40.199187 
L 134.715052 -40.137937 
L 135.771719 -40.106778 
L 136.828385 -40.076777 
L 137.885052 -40.012435 
L 138.941719 -39.902637 
L 139.998385 -39.881647 
L 141.055052 -39.961568 
L 142.111719 -39.891208 
L 143.168385 -39.83878 
L 144.225052 -39.808045 
L 144.225052 -42.912127 
L 144.225052 -42.912127 
L 143.168385 -42.997418 
L 142.111719 -43.013174 
L 141.055052 -43.083578 
L 139.998385 -43.155783 
L 138.941719 -43.296407 
L 137.885052 -43.368754 
L 136.828385 -43.455778 
L 135.771719 -43.545562 
L 134.715052 -43.525949 
L 133.658385 -43.557015 
L 132.601719 -43.60207 
L 131.545052 -43.642936 
L 130.488385 -43.710077 
L 129.431719 -43.811848 
L 128.375052 -43.94011 
L 127.318385 -44.022076 
L 126.261719 -44.11515 
L 125.205052 -44.212563 
L 124.148385 -44.2646 
L 123.091719 -44.216207 
L 122.035052 -44.264438 
L 120.978385 -44.364031 
L 119.921719 -44.341812 
L 118.865052 -44.352524 
L 117.808385 -44.447221 
L 116.751719 -44.601037 
L 115.695052 -44.720842 
L 114.638385 -44.771006 
L 113.581719 -44.832094 
L 112.525052 -44.89435 
L 111.468385 -44.850874 
L 110.411719 -44.856769 
L 109.355052 -44.919934 
L 108.298385 -44.995529 
L 107.241719 -45.006917 
L 106.185052 -45.090604 
L 105.128385 -45.192261 
L 104.071719 -45.190486 
L 103.015052 -45.31056 
L 101.958385 -45.257352 
L 100.901719 -45.248913 
L 99.845052 -45.202381 
L 98.788385 -45.258079 
L 97.731719 -45.320655 
L 96.675052 -45.384353 
L 95.618385 -45.438873 
L 94.561719 -45.523622 
L 93.505052 -45.579896 
L 92.448385 -45.573509 
L 91.391719 -45.529982 
L 90.335052 -45.557849 
L 89.278385 -45.528638 
L 88.221719 -45.547464 
L 87.165052 -45.667555 
L 86.108385 -45.79657 
L 85.051719 -45.893727 
L 83.995052 -45.938165 
L 82.938385 -45.975683 
L 81.881719 -45.599679 
L 80.825052 -44.981276 
L 79.768385 -44.461195 
L 78.711719 -43.799234 
L 77.655052 -43.397089 
L 76.598385 -42.84436 
L 75.541719 -42.420513 
L 74.485052 -41.874655 
L 73.428385 -41.318417 
L 72.371719 -40.823415 
L 71.315052 -40.351745 
L 70.258385 -39.871805 
L 69.201719 -39.51677 
L 68.145052 -39.10265 
L 67.088385 -38.847177 
L 66.031719 -38.63955 
L 64.975052 -38.519897 
L 63.918385 -38.367649 
L 62.861719 -38.366772 
L 61.805052 -38.153954 
L 60.748385 -38.066453 
L 59.691719 -37.965856 
L 58.635052 -37.877708 
L 57.578385 -37.815222 
L 56.521719 -37.803174 
L 55.465052 -37.796297 
L 54.408385 -37.822086 
L 53.351719 -37.771253 
L 52.295052 -37.807123 
L 51.238385 -37.770879 
L 50.181719 -37.712222 
L 49.125052 -37.681002 
L 48.068385 -37.585267 
L 47.011719 -37.042619 
L 45.955052 -36.824302 
L 44.898385 -36.566558 
L 43.841719 -36.286686 
L 42.785052 -36.114545 
L 41.728385 -35.899579 
L 40.671719 -35.096239 
L 39.615052 -34.783031 
L 38.558385 -34.767151 
L 37.501719 -34.703425 
L 36.445052 -34.981683 
L 35.388385 -35.533209 
z
" id="m73ddb8e839" style="stroke:#d94633;stroke-opacity:0.7;"/>
    </defs>
    <g clip-path="url(#p496c02096d)">
     <use style="fill:#d94633;fill-opacity:0.7;stroke:#d94633;stroke-opacity:0.7;" x="0" xlink:href="#m73ddb8e839" y="106.810781"/>
    </g>
   </g>
   <g id="PolyCollection_3">
    <defs>
     <path d="M 35.388385 -36.208211 
L 35.388385 -34.561472 
L 36.445052 -34.698432 
L 37.501719 -35.19226 
L 38.558385 -35.216176 
L 39.615052 -35.406014 
L 40.671719 -36.073507 
L 41.728385 -37.502158 
L 42.785052 -38.935078 
L 43.841719 -40.604869 
L 44.898385 -43.141519 
L 45.955052 -46.162034 
L 47.011719 -49.053447 
L 48.068385 -51.533082 
L 49.125052 -52.955291 
L 50.181719 -54.930196 
L 51.238385 -56.332411 
L 52.295052 -57.736657 
L 53.351719 -59.359739 
L 54.408385 -60.317786 
L 55.465052 -61.130154 
L 56.521719 -61.665336 
L 57.578385 -62.287633 
L 58.635052 -62.623502 
L 59.691719 -62.713952 
L 60.748385 -62.757404 
L 61.805052 -62.896818 
L 62.861719 -62.385485 
L 63.918385 -62.130514 
L 64.975052 -61.7172 
L 66.031719 -61.161835 
L 67.088385 -61.16779 
L 68.145052 -60.865031 
L 69.201719 -60.702087 
L 70.258385 -60.727457 
L 71.315052 -60.673633 
L 72.371719 -60.613674 
L 73.428385 -60.778668 
L 74.485052 -60.885857 
L 75.541719 -60.653426 
L 76.598385 -60.56207 
L 77.655052 -60.718336 
L 78.711719 -60.667089 
L 79.768385 -60.431816 
L 80.825052 -60.481084 
L 81.881719 -60.278704 
L 82.938385 -60.256212 
L 83.995052 -60.049127 
L 85.051719 -59.855496 
L 86.108385 -59.680756 
L 87.165052 -59.392141 
L 88.221719 -59.106402 
L 89.278385 -58.699373 
L 90.335052 -58.620784 
L 91.391719 -58.462222 
L 92.448385 -58.109626 
L 93.505052 -57.961156 
L 94.561719 -57.855824 
L 95.618385 -57.801483 
L 96.675052 -57.762802 
L 97.731719 -57.619594 
L 98.788385 -57.623648 
L 99.845052 -57.45408 
L 100.901719 -57.118882 
L 101.958385 -56.8566 
L 103.015052 -56.488223 
L 104.071719 -56.40211 
L 105.128385 -56.603679 
L 106.185052 -56.512138 
L 107.241719 -56.205987 
L 108.298385 -56.108427 
L 109.355052 -55.97903 
L 110.411719 -55.824471 
L 111.468385 -55.433661 
L 112.525052 -55.027823 
L 113.581719 -55.419451 
L 114.638385 -55.300974 
L 115.695052 -55.160254 
L 116.751719 -55.152936 
L 117.808385 -55.161872 
L 118.865052 -55.071803 
L 119.921719 -54.591043 
L 120.978385 -54.464577 
L 122.035052 -54.525458 
L 123.091719 -54.326307 
L 124.148385 -54.14274 
L 125.205052 -54.039106 
L 126.261719 -53.95545 
L 127.318385 -53.83003 
L 128.375052 -53.620108 
L 129.431719 -53.47457 
L 130.488385 -53.333547 
L 131.545052 -53.248055 
L 132.601719 -53.342822 
L 133.658385 -53.095606 
L 134.715052 -52.892041 
L 135.771719 -52.791298 
L 136.828385 -52.686202 
L 137.885052 -52.593669 
L 138.941719 -52.31964 
L 139.998385 -52.208604 
L 141.055052 -52.464683 
L 142.111719 -52.395976 
L 143.168385 -52.279811 
L 144.225052 -52.055203 
L 144.225052 -56.511532 
L 144.225052 -56.511532 
L 143.168385 -56.553285 
L 142.111719 -56.692697 
L 141.055052 -56.798164 
L 139.998385 -56.926394 
L 138.941719 -57.180666 
L 137.885052 -57.370444 
L 136.828385 -57.539775 
L 135.771719 -57.586345 
L 134.715052 -57.820345 
L 133.658385 -57.851219 
L 132.601719 -57.935452 
L 131.545052 -57.981219 
L 130.488385 -58.063254 
L 129.431719 -58.296632 
L 128.375052 -58.506177 
L 127.318385 -58.74257 
L 126.261719 -58.835364 
L 125.205052 -59.000597 
L 124.148385 -59.14433 
L 123.091719 -59.15389 
L 122.035052 -59.328121 
L 120.978385 -59.303218 
L 119.921719 -59.432208 
L 118.865052 -59.701028 
L 117.808385 -59.834685 
L 116.751719 -59.982971 
L 115.695052 -60.247859 
L 114.638385 -60.353222 
L 113.581719 -60.461509 
L 112.525052 -60.517249 
L 111.468385 -60.588392 
L 110.411719 -60.75892 
L 109.355052 -60.681516 
L 108.298385 -60.893554 
L 107.241719 -61.008387 
L 106.185052 -61.316136 
L 105.128385 -61.445658 
L 104.071719 -61.477111 
L 103.015052 -61.65015 
L 101.958385 -61.711892 
L 100.901719 -61.781745 
L 99.845052 -61.811171 
L 98.788385 -61.872359 
L 97.731719 -62.085395 
L 96.675052 -62.289623 
L 95.618385 -62.527853 
L 94.561719 -62.588242 
L 93.505052 -62.862681 
L 92.448385 -62.967567 
L 91.391719 -63.144395 
L 90.335052 -63.083688 
L 89.278385 -63.27295 
L 88.221719 -63.519702 
L 87.165052 -63.733672 
L 86.108385 -64.164046 
L 85.051719 -64.379283 
L 83.995052 -64.760177 
L 82.938385 -64.709384 
L 81.881719 -64.523207 
L 80.825052 -64.359729 
L 79.768385 -64.116246 
L 78.711719 -63.977327 
L 77.655052 -63.787675 
L 76.598385 -63.70628 
L 75.541719 -63.77145 
L 74.485052 -63.821253 
L 73.428385 -63.66738 
L 72.371719 -63.619787 
L 71.315052 -63.523166 
L 70.258385 -63.425916 
L 69.201719 -63.398815 
L 68.145052 -63.427231 
L 67.088385 -63.562467 
L 66.031719 -63.760121 
L 64.975052 -64.352813 
L 63.918385 -64.843979 
L 62.861719 -65.288656 
L 61.805052 -65.411997 
L 60.748385 -65.443207 
L 59.691719 -65.486717 
L 58.635052 -65.292264 
L 57.578385 -64.833979 
L 56.521719 -64.34421 
L 55.465052 -63.878906 
L 54.408385 -62.87363 
L 53.351719 -61.80867 
L 52.295052 -60.48526 
L 51.238385 -58.826965 
L 50.181719 -57.180824 
L 49.125052 -54.978596 
L 48.068385 -53.065848 
L 47.011719 -50.978197 
L 45.955052 -48.389999 
L 44.898385 -45.927615 
L 43.841719 -43.859569 
L 42.785052 -41.71282 
L 41.728385 -39.766266 
L 40.671719 -38.245774 
L 39.615052 -37.26025 
L 38.558385 -36.551223 
L 37.501719 -36.452145 
L 36.445052 -35.9713 
L 35.388385 -36.208211 
z
" id="m0400c95160" style="stroke:#a06aaf;stroke-opacity:0.5;"/>
    </defs>
    <g clip-path="url(#p496c02096d)">
     <use style="fill:#a06aaf;fill-opacity:0.5;stroke:#a06aaf;stroke-opacity:0.5;" x="0" xlink:href="#m0400c95160" y="106.810781"/>
    </g>
   </g>
   <g id="PolyCollection_4">
    <defs>
     <path d="M 35.388385 -38.493462 
L 35.388385 -33.653838 
L 36.445052 -33.554922 
L 37.501719 -33.864159 
L 38.558385 -34.034334 
L 39.615052 -34.598743 
L 40.671719 -35.370585 
L 41.728385 -36.581084 
L 42.785052 -37.962369 
L 43.841719 -39.516201 
L 44.898385 -41.204999 
L 45.955052 -42.992564 
L 47.011719 -44.514385 
L 48.068385 -46.549529 
L 49.125052 -48.017211 
L 50.181719 -49.296309 
L 51.238385 -50.797067 
L 52.295052 -52.257659 
L 53.351719 -53.9554 
L 54.408385 -55.743097 
L 55.465052 -57.006398 
L 56.521719 -58.034218 
L 57.578385 -59.330841 
L 58.635052 -61.261516 
L 59.691719 -62.558903 
L 60.748385 -63.766262 
L 61.805052 -65.023293 
L 62.861719 -66.195319 
L 63.918385 -67.303712 
L 64.975052 -67.844424 
L 66.031719 -68.872518 
L 67.088385 -70.468073 
L 68.145052 -70.956165 
L 69.201719 -71.649123 
L 70.258385 -72.154732 
L 71.315052 -72.097302 
L 72.371719 -72.488393 
L 73.428385 -73.681063 
L 74.485052 -73.886829 
L 75.541719 -73.43465 
L 76.598385 -73.250656 
L 77.655052 -73.912567 
L 78.711719 -73.685903 
L 79.768385 -73.270703 
L 80.825052 -73.320493 
L 81.881719 -72.690446 
L 82.938385 -72.962713 
L 83.995052 -72.764995 
L 85.051719 -72.497654 
L 86.108385 -72.160675 
L 87.165052 -71.84757 
L 88.221719 -71.510097 
L 89.278385 -71.046948 
L 90.335052 -71.181534 
L 91.391719 -70.799938 
L 92.448385 -70.359043 
L 93.505052 -69.970911 
L 94.561719 -70.012557 
L 95.618385 -69.981954 
L 96.675052 -69.709501 
L 97.731719 -69.466566 
L 98.788385 -69.789086 
L 99.845052 -69.356572 
L 100.901719 -69.14077 
L 101.958385 -68.962646 
L 103.015052 -68.240401 
L 104.071719 -68.037177 
L 105.128385 -68.390788 
L 106.185052 -68.267413 
L 107.241719 -67.713383 
L 108.298385 -67.606436 
L 109.355052 -67.359461 
L 110.411719 -67.223183 
L 111.468385 -66.631921 
L 112.525052 -66.225491 
L 113.581719 -66.914113 
L 114.638385 -66.875888 
L 115.695052 -66.719174 
L 116.751719 -66.530692 
L 117.808385 -66.559561 
L 118.865052 -66.324029 
L 119.921719 -65.77768 
L 120.978385 -65.594136 
L 122.035052 -65.785575 
L 123.091719 -65.583947 
L 124.148385 -65.375851 
L 125.205052 -65.27547 
L 126.261719 -65.228604 
L 127.318385 -65.13304 
L 128.375052 -64.714046 
L 129.431719 -64.417853 
L 130.488385 -64.294558 
L 131.545052 -64.298779 
L 132.601719 -64.433416 
L 133.658385 -64.158383 
L 134.715052 -64.040639 
L 135.771719 -63.985782 
L 136.828385 -63.755818 
L 137.885052 -63.791855 
L 138.941719 -63.343357 
L 139.998385 -63.169508 
L 141.055052 -63.475955 
L 142.111719 -63.277614 
L 143.168385 -63.134216 
L 144.225052 -62.909023 
L 144.225052 -69.250236 
L 144.225052 -69.250236 
L 143.168385 -69.445829 
L 142.111719 -69.549049 
L 141.055052 -69.589724 
L 139.998385 -69.559054 
L 138.941719 -69.67766 
L 137.885052 -69.999493 
L 136.828385 -70.041784 
L 135.771719 -70.199234 
L 134.715052 -70.393693 
L 133.658385 -70.44871 
L 132.601719 -70.634783 
L 131.545052 -70.57718 
L 130.488385 -70.695584 
L 129.431719 -70.773065 
L 128.375052 -71.010346 
L 127.318385 -71.324132 
L 126.261719 -71.447874 
L 125.205052 -71.487325 
L 124.148385 -71.497444 
L 123.091719 -71.663687 
L 122.035052 -71.921711 
L 120.978385 -71.644523 
L 119.921719 -71.906472 
L 118.865052 -72.273861 
L 117.808385 -72.333208 
L 116.751719 -72.585309 
L 115.695052 -72.665165 
L 114.638385 -72.869245 
L 113.581719 -72.880894 
L 112.525052 -72.437368 
L 111.468385 -72.465151 
L 110.411719 -72.792845 
L 109.355052 -73.032815 
L 108.298385 -73.083957 
L 107.241719 -73.377913 
L 106.185052 -73.606701 
L 105.128385 -73.759147 
L 104.071719 -73.74238 
L 103.015052 -73.91204 
L 101.958385 -74.168762 
L 100.901719 -74.111531 
L 99.845052 -74.291196 
L 98.788385 -74.508524 
L 97.731719 -74.280952 
L 96.675052 -74.490919 
L 95.618385 -74.748562 
L 94.561719 -74.779352 
L 93.505052 -74.974765 
L 92.448385 -75.081226 
L 91.391719 -75.474399 
L 90.335052 -75.427065 
L 89.278385 -75.439611 
L 88.221719 -75.549117 
L 87.165052 -75.946368 
L 86.108385 -76.141905 
L 85.051719 -76.365116 
L 83.995052 -76.626373 
L 82.938385 -76.557064 
L 81.881719 -76.16459 
L 80.825052 -76.065892 
L 79.768385 -75.919803 
L 78.711719 -75.820412 
L 77.655052 -75.824351 
L 76.598385 -75.349011 
L 75.541719 -75.506858 
L 74.485052 -75.790119 
L 73.428385 -75.810292 
L 72.371719 -75.705495 
L 71.315052 -75.596729 
L 70.258385 -75.476547 
L 69.201719 -75.100708 
L 68.145052 -74.859206 
L 67.088385 -74.633351 
L 66.031719 -74.325733 
L 64.975052 -74.126859 
L 63.918385 -74.128987 
L 62.861719 -73.854902 
L 61.805052 -73.008845 
L 60.748385 -72.071054 
L 59.691719 -71.022912 
L 58.635052 -70.132102 
L 57.578385 -68.813902 
L 56.521719 -67.862385 
L 55.465052 -66.653958 
L 54.408385 -65.682503 
L 53.351719 -63.977597 
L 52.295052 -62.447727 
L 51.238385 -60.814341 
L 50.181719 -59.136993 
L 49.125052 -57.427747 
L 48.068385 -55.9011 
L 47.011719 -53.053634 
L 45.955052 -50.602522 
L 44.898385 -47.847968 
L 43.841719 -45.256315 
L 42.785052 -43.035702 
L 41.728385 -41.09361 
L 40.671719 -39.514552 
L 39.615052 -38.411681 
L 38.558385 -38.02642 
L 37.501719 -38.127393 
L 36.445052 -38.191318 
L 35.388385 -38.493462 
z
" id="m832a4bc43c" style="stroke:#f29935;stroke-opacity:0.5;"/>
    </defs>
    <g clip-path="url(#p496c02096d)">
     <use style="fill:#f29935;fill-opacity:0.5;stroke:#f29935;stroke-opacity:0.5;" x="0" xlink:href="#m832a4bc43c" y="106.810781"/>
    </g>
   </g>
   <g id="matplotlib.axis_1">
    <g id="xtick_1">
     <g id="line2d_1">
      <path clip-path="url(#p496c02096d)" d="M 34.331719 75.64 
L 34.331719 7.2 
" style="fill:none;stroke:#b0b0b0;stroke-dasharray:1.85,0.8;stroke-dashoffset:0;stroke-opacity:0.6;stroke-width:0.5;"/>
     </g>
     <g id="line2d_2">
      <defs>
       <path d="M 0 0 
L 0 3.5 
" id="me18f733635" style="stroke:#000000;stroke-width:0.8;"/>
      </defs>
      <g>
       <use style="stroke:#000000;stroke-width:0.8;" x="34.331719" xlink:href="#me18f733635" y="75.64"/>
      </g>
     </g>
     <g id="text_1">
      <!-- 0 -->
      <g transform="translate(32.385391 87.650469)scale(0.07 -0.07)">
       <defs>
        <path d="M 4.15625 35.296875 
Q 4.15625 48 6.765625 55.734375 
Q 9.375 63.484375 14.515625 67.671875 
Q 19.671875 71.875 27.484375 71.875 
Q 33.25 71.875 37.59375 69.546875 
Q 41.9375 67.234375 44.765625 62.859375 
Q 47.609375 58.5 49.21875 52.21875 
Q 50.828125 45.953125 50.828125 35.296875 
Q 50.828125 22.703125 48.234375 14.96875 
Q 45.65625 7.234375 40.5 3 
Q 35.359375 -1.21875 27.484375 -1.21875 
Q 17.140625 -1.21875 11.234375 6.203125 
Q 4.15625 15.140625 4.15625 35.296875 
z
M 13.1875 35.296875 
Q 13.1875 17.671875 17.3125 11.828125 
Q 21.4375 6 27.484375 6 
Q 33.546875 6 37.671875 11.859375 
Q 41.796875 17.71875 41.796875 35.296875 
Q 41.796875 52.984375 37.671875 58.78125 
Q 33.546875 64.59375 27.390625 64.59375 
Q 21.34375 64.59375 17.71875 59.46875 
Q 13.1875 52.9375 13.1875 35.296875 
z
" id="ArialMT-48"/>
       </defs>
       <use xlink:href="#ArialMT-48"/>
      </g>
     </g>
    </g>
    <g id="xtick_2">
     <g id="line2d_3">
      <path clip-path="url(#p496c02096d)" d="M 55.465052 75.64 
L 55.465052 7.2 
" style="fill:none;stroke:#b0b0b0;stroke-dasharray:1.85,0.8;stroke-dashoffset:0;stroke-opacity:0.6;stroke-width:0.5;"/>
     </g>
     <g id="line2d_4">
      <g>
       <use style="stroke:#000000;stroke-width:0.8;" x="55.465052" xlink:href="#me18f733635" y="75.64"/>
      </g>
     </g>
     <g id="text_2">
      <!-- 200 -->
      <g transform="translate(49.626068 87.650469)scale(0.07 -0.07)">
       <defs>
        <path d="M 50.34375 8.453125 
L 50.34375 0 
L 3.03125 0 
Q 2.9375 3.171875 4.046875 6.109375 
Q 5.859375 10.9375 9.828125 15.625 
Q 13.8125 20.3125 21.34375 26.46875 
Q 33.015625 36.03125 37.109375 41.625 
Q 41.21875 47.21875 41.21875 52.203125 
Q 41.21875 57.421875 37.46875 61 
Q 33.734375 64.59375 27.734375 64.59375 
Q 21.390625 64.59375 17.578125 60.78125 
Q 13.765625 56.984375 13.71875 50.25 
L 4.6875 51.171875 
Q 5.609375 61.28125 11.65625 66.578125 
Q 17.71875 71.875 27.9375 71.875 
Q 38.234375 71.875 44.234375 66.15625 
Q 50.25 60.453125 50.25 52 
Q 50.25 47.703125 48.484375 43.546875 
Q 46.734375 39.40625 42.65625 34.8125 
Q 38.578125 30.21875 29.109375 22.21875 
Q 21.1875 15.578125 18.9375 13.203125 
Q 16.703125 10.84375 15.234375 8.453125 
z
" id="ArialMT-50"/>
       </defs>
       <use xlink:href="#ArialMT-50"/>
       <use x="55.615234" xlink:href="#ArialMT-48"/>
       <use x="111.230469" xlink:href="#ArialMT-48"/>
      </g>
     </g>
    </g>
    <g id="xtick_3">
     <g id="line2d_5">
      <path clip-path="url(#p496c02096d)" d="M 76.598385 75.64 
L 76.598385 7.2 
" style="fill:none;stroke:#b0b0b0;stroke-dasharray:1.85,0.8;stroke-dashoffset:0;stroke-opacity:0.6;stroke-width:0.5;"/>
     </g>
     <g id="line2d_6">
      <g>
       <use style="stroke:#000000;stroke-width:0.8;" x="76.598385" xlink:href="#me18f733635" y="75.64"/>
      </g>
     </g>
     <g id="text_3">
      <!-- 400 -->
      <g transform="translate(70.759401 87.650469)scale(0.07 -0.07)">
       <defs>
        <path d="M 32.328125 0 
L 32.328125 17.140625 
L 1.265625 17.140625 
L 1.265625 25.203125 
L 33.9375 71.578125 
L 41.109375 71.578125 
L 41.109375 25.203125 
L 50.78125 25.203125 
L 50.78125 17.140625 
L 41.109375 17.140625 
L 41.109375 0 
z
M 32.328125 25.203125 
L 32.328125 57.46875 
L 9.90625 25.203125 
z
" id="ArialMT-52"/>
       </defs>
       <use xlink:href="#ArialMT-52"/>
       <use x="55.615234" xlink:href="#ArialMT-48"/>
       <use x="111.230469" xlink:href="#ArialMT-48"/>
      </g>
     </g>
    </g>
    <g id="xtick_4">
     <g id="line2d_7">
      <path clip-path="url(#p496c02096d)" d="M 97.731719 75.64 
L 97.731719 7.2 
" style="fill:none;stroke:#b0b0b0;stroke-dasharray:1.85,0.8;stroke-dashoffset:0;stroke-opacity:0.6;stroke-width:0.5;"/>
     </g>
     <g id="line2d_8">
      <g>
       <use style="stroke:#000000;stroke-width:0.8;" x="97.731719" xlink:href="#me18f733635" y="75.64"/>
      </g>
     </g>
     <g id="text_4">
      <!-- 600 -->
      <g transform="translate(91.892734 87.650469)scale(0.07 -0.07)">
       <defs>
        <path d="M 49.75 54.046875 
L 41.015625 53.375 
Q 39.84375 58.546875 37.703125 60.890625 
Q 34.125 64.65625 28.90625 64.65625 
Q 24.703125 64.65625 21.53125 62.3125 
Q 17.390625 59.28125 14.984375 53.46875 
Q 12.59375 47.65625 12.5 36.921875 
Q 15.671875 41.75 20.265625 44.09375 
Q 24.859375 46.4375 29.890625 46.4375 
Q 38.671875 46.4375 44.84375 39.96875 
Q 51.03125 33.5 51.03125 23.25 
Q 51.03125 16.5 48.125 10.71875 
Q 45.21875 4.9375 40.140625 1.859375 
Q 35.0625 -1.21875 28.609375 -1.21875 
Q 17.625 -1.21875 10.6875 6.859375 
Q 3.765625 14.9375 3.765625 33.5 
Q 3.765625 54.25 11.421875 63.671875 
Q 18.109375 71.875 29.4375 71.875 
Q 37.890625 71.875 43.28125 67.140625 
Q 48.6875 62.40625 49.75 54.046875 
z
M 13.875 23.1875 
Q 13.875 18.65625 15.796875 14.5 
Q 17.71875 10.359375 21.1875 8.171875 
Q 24.65625 6 28.46875 6 
Q 34.03125 6 38.03125 10.484375 
Q 42.046875 14.984375 42.046875 22.703125 
Q 42.046875 30.125 38.078125 34.390625 
Q 34.125 38.671875 28.125 38.671875 
Q 22.171875 38.671875 18.015625 34.390625 
Q 13.875 30.125 13.875 23.1875 
z
" id="ArialMT-54"/>
       </defs>
       <use xlink:href="#ArialMT-54"/>
       <use x="55.615234" xlink:href="#ArialMT-48"/>
       <use x="111.230469" xlink:href="#ArialMT-48"/>
      </g>
     </g>
    </g>
    <g id="xtick_5">
     <g id="line2d_9">
      <path clip-path="url(#p496c02096d)" d="M 118.865052 75.64 
L 118.865052 7.2 
" style="fill:none;stroke:#b0b0b0;stroke-dasharray:1.85,0.8;stroke-dashoffset:0;stroke-opacity:0.6;stroke-width:0.5;"/>
     </g>
     <g id="line2d_10">
      <g>
       <use style="stroke:#000000;stroke-width:0.8;" x="118.865052" xlink:href="#me18f733635" y="75.64"/>
      </g>
     </g>
     <g id="text_5">
      <!-- 800 -->
      <g transform="translate(113.026068 87.650469)scale(0.07 -0.07)">
       <defs>
        <path d="M 17.671875 38.8125 
Q 12.203125 40.828125 9.5625 44.53125 
Q 6.9375 48.25 6.9375 53.421875 
Q 6.9375 61.234375 12.546875 66.546875 
Q 18.171875 71.875 27.484375 71.875 
Q 36.859375 71.875 42.578125 66.421875 
Q 48.296875 60.984375 48.296875 53.171875 
Q 48.296875 48.1875 45.671875 44.5 
Q 43.0625 40.828125 37.75 38.8125 
Q 44.34375 36.671875 47.78125 31.875 
Q 51.21875 27.09375 51.21875 20.453125 
Q 51.21875 11.28125 44.71875 5.03125 
Q 38.234375 -1.21875 27.640625 -1.21875 
Q 17.046875 -1.21875 10.546875 5.046875 
Q 4.046875 11.328125 4.046875 20.703125 
Q 4.046875 27.6875 7.59375 32.390625 
Q 11.140625 37.109375 17.671875 38.8125 
z
M 15.921875 53.71875 
Q 15.921875 48.640625 19.1875 45.40625 
Q 22.46875 42.1875 27.6875 42.1875 
Q 32.765625 42.1875 36.015625 45.375 
Q 39.265625 48.578125 39.265625 53.21875 
Q 39.265625 58.0625 35.90625 61.359375 
Q 32.5625 64.65625 27.59375 64.65625 
Q 22.5625 64.65625 19.234375 61.421875 
Q 15.921875 58.203125 15.921875 53.71875 
z
M 13.09375 20.65625 
Q 13.09375 16.890625 14.875 13.375 
Q 16.65625 9.859375 20.171875 7.921875 
Q 23.6875 6 27.734375 6 
Q 34.03125 6 38.125 10.046875 
Q 42.234375 14.109375 42.234375 20.359375 
Q 42.234375 26.703125 38.015625 30.859375 
Q 33.796875 35.015625 27.4375 35.015625 
Q 21.234375 35.015625 17.15625 30.90625 
Q 13.09375 26.8125 13.09375 20.65625 
z
" id="ArialMT-56"/>
       </defs>
       <use xlink:href="#ArialMT-56"/>
       <use x="55.615234" xlink:href="#ArialMT-48"/>
       <use x="111.230469" xlink:href="#ArialMT-48"/>
      </g>
     </g>
    </g>
    <g id="text_6">
     <!-- Time (min) -->
     <g transform="translate(68.463359 98.1375)scale(0.07 -0.07)">
      <defs>
       <path d="M 25.921875 0 
L 25.921875 63.140625 
L 2.34375 63.140625 
L 2.34375 71.578125 
L 59.078125 71.578125 
L 59.078125 63.140625 
L 35.40625 63.140625 
L 35.40625 0 
z
" id="ArialMT-84"/>
       <path d="M 6.640625 61.46875 
L 6.640625 71.578125 
L 15.4375 71.578125 
L 15.4375 61.46875 
z
M 6.640625 0 
L 6.640625 51.859375 
L 15.4375 51.859375 
L 15.4375 0 
z
" id="ArialMT-105"/>
       <path d="M 6.59375 0 
L 6.59375 51.859375 
L 14.453125 51.859375 
L 14.453125 44.578125 
Q 16.890625 48.390625 20.9375 50.703125 
Q 25 53.03125 30.171875 53.03125 
Q 35.9375 53.03125 39.625 50.640625 
Q 43.3125 48.25 44.828125 43.953125 
Q 50.984375 53.03125 60.84375 53.03125 
Q 68.5625 53.03125 72.703125 48.75 
Q 76.859375 44.484375 76.859375 35.59375 
L 76.859375 0 
L 68.109375 0 
L 68.109375 32.671875 
Q 68.109375 37.9375 67.25 40.25 
Q 66.40625 42.578125 64.15625 43.984375 
Q 61.921875 45.40625 58.890625 45.40625 
Q 53.421875 45.40625 49.796875 41.765625 
Q 46.1875 38.140625 46.1875 30.125 
L 46.1875 0 
L 37.40625 0 
L 37.40625 33.6875 
Q 37.40625 39.546875 35.25 42.46875 
Q 33.109375 45.40625 28.21875 45.40625 
Q 24.515625 45.40625 21.359375 43.453125 
Q 18.21875 41.5 16.796875 37.734375 
Q 15.375 33.984375 15.375 26.90625 
L 15.375 0 
z
" id="ArialMT-109"/>
       <path d="M 42.09375 16.703125 
L 51.171875 15.578125 
Q 49.03125 7.625 43.21875 3.21875 
Q 37.40625 -1.171875 28.375 -1.171875 
Q 17 -1.171875 10.328125 5.828125 
Q 3.65625 12.84375 3.65625 25.484375 
Q 3.65625 38.578125 10.390625 45.796875 
Q 17.140625 53.03125 27.875 53.03125 
Q 38.28125 53.03125 44.875 45.953125 
Q 51.46875 38.875 51.46875 26.03125 
Q 51.46875 25.25 51.421875 23.6875 
L 12.75 23.6875 
Q 13.234375 15.140625 17.578125 10.59375 
Q 21.921875 6.0625 28.421875 6.0625 
Q 33.25 6.0625 36.671875 8.59375 
Q 40.09375 11.140625 42.09375 16.703125 
z
M 13.234375 30.90625 
L 42.1875 30.90625 
Q 41.609375 37.453125 38.875 40.71875 
Q 34.671875 45.796875 27.984375 45.796875 
Q 21.921875 45.796875 17.796875 41.75 
Q 13.671875 37.703125 13.234375 30.90625 
z
" id="ArialMT-101"/>
       <path id="ArialMT-32"/>
       <path d="M 23.390625 -21.046875 
Q 16.109375 -11.859375 11.078125 0.4375 
Q 6.0625 12.75 6.0625 25.921875 
Q 6.0625 37.546875 9.8125 48.1875 
Q 14.203125 60.546875 23.390625 72.796875 
L 29.6875 72.796875 
Q 23.78125 62.640625 21.875 58.296875 
Q 18.890625 51.5625 17.1875 44.234375 
Q 15.09375 35.109375 15.09375 25.875 
Q 15.09375 2.390625 29.6875 -21.046875 
z
" id="ArialMT-40"/>
       <path d="M 6.59375 0 
L 6.59375 51.859375 
L 14.5 51.859375 
L 14.5 44.484375 
Q 20.21875 53.03125 31 53.03125 
Q 35.6875 53.03125 39.625 51.34375 
Q 43.5625 49.65625 45.515625 46.921875 
Q 47.46875 44.1875 48.25 40.4375 
Q 48.734375 37.984375 48.734375 31.890625 
L 48.734375 0 
L 39.9375 0 
L 39.9375 31.546875 
Q 39.9375 36.921875 38.90625 39.578125 
Q 37.890625 42.234375 35.28125 43.8125 
Q 32.671875 45.40625 29.15625 45.40625 
Q 23.53125 45.40625 19.453125 41.84375 
Q 15.375 38.28125 15.375 28.328125 
L 15.375 0 
z
" id="ArialMT-110"/>
       <path d="M 12.359375 -21.046875 
L 6.0625 -21.046875 
Q 20.65625 2.390625 20.65625 25.875 
Q 20.65625 35.0625 18.5625 44.09375 
Q 16.890625 51.421875 13.921875 58.15625 
Q 12.015625 62.546875 6.0625 72.796875 
L 12.359375 72.796875 
Q 21.53125 60.546875 25.921875 48.1875 
Q 29.6875 37.546875 29.6875 25.921875 
Q 29.6875 12.75 24.625 0.4375 
Q 19.578125 -11.859375 12.359375 -21.046875 
z
" id="ArialMT-41"/>
      </defs>
      <use xlink:href="#ArialMT-84"/>
      <use x="57.333984" xlink:href="#ArialMT-105"/>
      <use x="79.550781" xlink:href="#ArialMT-109"/>
      <use x="162.851562" xlink:href="#ArialMT-101"/>
      <use x="218.466797" xlink:href="#ArialMT-32"/>
      <use x="246.25" xlink:href="#ArialMT-40"/>
      <use x="279.550781" xlink:href="#ArialMT-109"/>
      <use x="362.851562" xlink:href="#ArialMT-105"/>
      <use x="385.068359" xlink:href="#ArialMT-110"/>
      <use x="440.683594" xlink:href="#ArialMT-41"/>
     </g>
    </g>
   </g>
   <g id="matplotlib.axis_2">
    <g id="ytick_1">
     <g id="line2d_11">
      <path clip-path="url(#p496c02096d)" d="M 34.331719 75.64 
L 135.771719 75.64 
" style="fill:none;stroke:#b0b0b0;stroke-dasharray:1.85,0.8;stroke-dashoffset:0;stroke-opacity:0.6;stroke-width:0.5;"/>
     </g>
     <g id="line2d_12">
      <defs>
       <path d="M 0 0 
L -3.5 0 
" id="m9e9a6e6302" style="stroke:#000000;stroke-width:0.8;"/>
      </defs>
      <g>
       <use style="stroke:#000000;stroke-width:0.8;" x="34.331719" xlink:href="#m9e9a6e6302" y="75.64"/>
      </g>
     </g>
     <g id="text_7">
      <!-- 0.0 -->
      <g transform="translate(17.601719 78.145234)scale(0.07 -0.07)">
       <defs>
        <path d="M 9.078125 0 
L 9.078125 10.015625 
L 19.09375 10.015625 
L 19.09375 0 
z
" id="ArialMT-46"/>
       </defs>
       <use xlink:href="#ArialMT-48"/>
       <use x="55.615234" xlink:href="#ArialMT-46"/>
       <use x="83.398438" xlink:href="#ArialMT-48"/>
      </g>
     </g>
    </g>
    <g id="ytick_2">
     <g id="line2d_13">
      <path clip-path="url(#p496c02096d)" d="M 34.331719 44.530909 
L 135.771719 44.530909 
" style="fill:none;stroke:#b0b0b0;stroke-dasharray:1.85,0.8;stroke-dashoffset:0;stroke-opacity:0.6;stroke-width:0.5;"/>
     </g>
     <g id="line2d_14">
      <g>
       <use style="stroke:#000000;stroke-width:0.8;" x="34.331719" xlink:href="#m9e9a6e6302" y="44.530909"/>
      </g>
     </g>
     <g id="text_8">
      <!-- 0.5 -->
      <g transform="translate(17.601719 47.036143)scale(0.07 -0.07)">
       <defs>
        <path d="M 4.15625 18.75 
L 13.375 19.53125 
Q 14.40625 12.796875 18.140625 9.390625 
Q 21.875 6 27.15625 6 
Q 33.5 6 37.890625 10.78125 
Q 42.28125 15.578125 42.28125 23.484375 
Q 42.28125 31 38.0625 35.34375 
Q 33.84375 39.703125 27 39.703125 
Q 22.75 39.703125 19.328125 37.765625 
Q 15.921875 35.84375 13.96875 32.765625 
L 5.71875 33.84375 
L 12.640625 70.609375 
L 48.25 70.609375 
L 48.25 62.203125 
L 19.671875 62.203125 
L 15.828125 42.96875 
Q 22.265625 47.46875 29.34375 47.46875 
Q 38.71875 47.46875 45.15625 40.96875 
Q 51.609375 34.46875 51.609375 24.265625 
Q 51.609375 14.546875 45.953125 7.46875 
Q 39.0625 -1.21875 27.15625 -1.21875 
Q 17.390625 -1.21875 11.203125 4.25 
Q 5.03125 9.71875 4.15625 18.75 
z
" id="ArialMT-53"/>
       </defs>
       <use xlink:href="#ArialMT-48"/>
       <use x="55.615234" xlink:href="#ArialMT-46"/>
       <use x="83.398438" xlink:href="#ArialMT-53"/>
      </g>
     </g>
    </g>
    <g id="ytick_3">
     <g id="line2d_15">
      <path clip-path="url(#p496c02096d)" d="M 34.331719 13.421818 
L 135.771719 13.421818 
" style="fill:none;stroke:#b0b0b0;stroke-dasharray:1.85,0.8;stroke-dashoffset:0;stroke-opacity:0.6;stroke-width:0.5;"/>
     </g>
     <g id="line2d_16">
      <g>
       <use style="stroke:#000000;stroke-width:0.8;" x="34.331719" xlink:href="#m9e9a6e6302" y="13.421818"/>
      </g>
     </g>
     <g id="text_9">
      <!-- 1.0 -->
      <g transform="translate(17.601719 15.927053)scale(0.07 -0.07)">
       <defs>
        <path d="M 37.25 0 
L 28.46875 0 
L 28.46875 56 
Q 25.296875 52.984375 20.140625 49.953125 
Q 14.984375 46.921875 10.890625 45.40625 
L 10.890625 53.90625 
Q 18.265625 57.375 23.78125 62.296875 
Q 29.296875 67.234375 31.59375 71.875 
L 37.25 71.875 
z
" id="ArialMT-49"/>
       </defs>
       <use xlink:href="#ArialMT-49"/>
       <use x="55.615234" xlink:href="#ArialMT-46"/>
       <use x="83.398438" xlink:href="#ArialMT-48"/>
      </g>
     </g>
    </g>
    <g id="text_10">
     <!-- Scaled sfGFP -->
     <g transform="translate(12.210469 63.010625)rotate(-90)scale(0.07 -0.07)">
      <defs>
       <path d="M 4.5 23 
L 13.421875 23.78125 
Q 14.0625 18.40625 16.375 14.96875 
Q 18.703125 11.53125 23.578125 9.40625 
Q 28.46875 7.28125 34.578125 7.28125 
Q 39.984375 7.28125 44.140625 8.890625 
Q 48.296875 10.5 50.3125 13.296875 
Q 52.34375 16.109375 52.34375 19.4375 
Q 52.34375 22.796875 50.390625 25.3125 
Q 48.4375 27.828125 43.953125 29.546875 
Q 41.0625 30.671875 31.203125 33.03125 
Q 21.34375 35.40625 17.390625 37.5 
Q 12.25 40.1875 9.734375 44.15625 
Q 7.234375 48.140625 7.234375 53.078125 
Q 7.234375 58.5 10.296875 63.203125 
Q 13.375 67.921875 19.28125 70.359375 
Q 25.203125 72.796875 32.421875 72.796875 
Q 40.375 72.796875 46.453125 70.234375 
Q 52.546875 67.671875 55.8125 62.6875 
Q 59.078125 57.71875 59.328125 51.421875 
L 50.25 50.734375 
Q 49.515625 57.515625 45.28125 60.984375 
Q 41.0625 64.453125 32.8125 64.453125 
Q 24.21875 64.453125 20.28125 61.296875 
Q 16.359375 58.15625 16.359375 53.71875 
Q 16.359375 49.859375 19.140625 47.359375 
Q 21.875 44.875 33.421875 42.265625 
Q 44.96875 39.65625 49.265625 37.703125 
Q 55.515625 34.8125 58.484375 30.390625 
Q 61.46875 25.984375 61.46875 20.21875 
Q 61.46875 14.5 58.203125 9.4375 
Q 54.9375 4.390625 48.796875 1.578125 
Q 42.671875 -1.21875 35.015625 -1.21875 
Q 25.296875 -1.21875 18.71875 1.609375 
Q 12.15625 4.4375 8.421875 10.125 
Q 4.6875 15.828125 4.5 23 
z
" id="ArialMT-83"/>
       <path d="M 40.4375 19 
L 49.078125 17.875 
Q 47.65625 8.9375 41.8125 3.875 
Q 35.984375 -1.171875 27.484375 -1.171875 
Q 16.84375 -1.171875 10.375 5.78125 
Q 3.90625 12.75 3.90625 25.734375 
Q 3.90625 34.125 6.6875 40.421875 
Q 9.46875 46.734375 15.15625 49.875 
Q 20.84375 53.03125 27.546875 53.03125 
Q 35.984375 53.03125 41.359375 48.75 
Q 46.734375 44.484375 48.25 36.625 
L 39.703125 35.296875 
Q 38.484375 40.53125 35.375 43.15625 
Q 32.28125 45.796875 27.875 45.796875 
Q 21.234375 45.796875 17.078125 41.03125 
Q 12.9375 36.28125 12.9375 25.984375 
Q 12.9375 15.53125 16.9375 10.796875 
Q 20.953125 6.0625 27.390625 6.0625 
Q 32.5625 6.0625 36.03125 9.234375 
Q 39.5 12.40625 40.4375 19 
z
" id="ArialMT-99"/>
       <path d="M 40.4375 6.390625 
Q 35.546875 2.25 31.03125 0.53125 
Q 26.515625 -1.171875 21.34375 -1.171875 
Q 12.796875 -1.171875 8.203125 3 
Q 3.609375 7.171875 3.609375 13.671875 
Q 3.609375 17.484375 5.34375 20.625 
Q 7.078125 23.78125 9.890625 25.6875 
Q 12.703125 27.59375 16.21875 28.5625 
Q 18.796875 29.25 24.03125 29.890625 
Q 34.671875 31.15625 39.703125 32.90625 
Q 39.75 34.71875 39.75 35.203125 
Q 39.75 40.578125 37.25 42.78125 
Q 33.890625 45.75 27.25 45.75 
Q 21.046875 45.75 18.09375 43.578125 
Q 15.140625 41.40625 13.71875 35.890625 
L 5.125 37.0625 
Q 6.296875 42.578125 8.984375 45.96875 
Q 11.671875 49.359375 16.75 51.1875 
Q 21.828125 53.03125 28.515625 53.03125 
Q 35.15625 53.03125 39.296875 51.46875 
Q 43.453125 49.90625 45.40625 47.53125 
Q 47.359375 45.171875 48.140625 41.546875 
Q 48.578125 39.3125 48.578125 33.453125 
L 48.578125 21.734375 
Q 48.578125 9.46875 49.140625 6.21875 
Q 49.703125 2.984375 51.375 0 
L 42.1875 0 
Q 40.828125 2.734375 40.4375 6.390625 
z
M 39.703125 26.03125 
Q 34.90625 24.078125 25.34375 22.703125 
Q 19.921875 21.921875 17.671875 20.9375 
Q 15.4375 19.96875 14.203125 18.09375 
Q 12.984375 16.21875 12.984375 13.921875 
Q 12.984375 10.40625 15.640625 8.0625 
Q 18.3125 5.71875 23.4375 5.71875 
Q 28.515625 5.71875 32.46875 7.9375 
Q 36.421875 10.15625 38.28125 14.015625 
Q 39.703125 17 39.703125 22.796875 
z
" id="ArialMT-97"/>
       <path d="M 6.390625 0 
L 6.390625 71.578125 
L 15.1875 71.578125 
L 15.1875 0 
z
" id="ArialMT-108"/>
       <path d="M 40.234375 0 
L 40.234375 6.546875 
Q 35.296875 -1.171875 25.734375 -1.171875 
Q 19.53125 -1.171875 14.328125 2.25 
Q 9.125 5.671875 6.265625 11.796875 
Q 3.421875 17.921875 3.421875 25.875 
Q 3.421875 33.640625 6 39.96875 
Q 8.59375 46.296875 13.765625 49.65625 
Q 18.953125 53.03125 25.34375 53.03125 
Q 30.03125 53.03125 33.6875 51.046875 
Q 37.359375 49.078125 39.65625 45.90625 
L 39.65625 71.578125 
L 48.390625 71.578125 
L 48.390625 0 
z
M 12.453125 25.875 
Q 12.453125 15.921875 16.640625 10.984375 
Q 20.84375 6.0625 26.5625 6.0625 
Q 32.328125 6.0625 36.34375 10.765625 
Q 40.375 15.484375 40.375 25.140625 
Q 40.375 35.796875 36.265625 40.765625 
Q 32.171875 45.75 26.171875 45.75 
Q 20.3125 45.75 16.375 40.96875 
Q 12.453125 36.1875 12.453125 25.875 
z
" id="ArialMT-100"/>
       <path d="M 3.078125 15.484375 
L 11.765625 16.84375 
Q 12.5 11.625 15.84375 8.84375 
Q 19.1875 6.0625 25.203125 6.0625 
Q 31.25 6.0625 34.171875 8.515625 
Q 37.109375 10.984375 37.109375 14.3125 
Q 37.109375 17.28125 34.515625 19 
Q 32.71875 20.171875 25.53125 21.96875 
Q 15.875 24.421875 12.140625 26.203125 
Q 8.40625 27.984375 6.46875 31.125 
Q 4.546875 34.28125 4.546875 38.09375 
Q 4.546875 41.546875 6.125 44.5 
Q 7.71875 47.46875 10.453125 49.421875 
Q 12.5 50.921875 16.03125 51.96875 
Q 19.578125 53.03125 23.640625 53.03125 
Q 29.734375 53.03125 34.34375 51.265625 
Q 38.96875 49.515625 41.15625 46.5 
Q 43.359375 43.5 44.1875 38.484375 
L 35.59375 37.3125 
Q 35.015625 41.3125 32.203125 43.546875 
Q 29.390625 45.796875 24.265625 45.796875 
Q 18.21875 45.796875 15.625 43.796875 
Q 13.03125 41.796875 13.03125 39.109375 
Q 13.03125 37.40625 14.109375 36.03125 
Q 15.1875 34.625 17.484375 33.6875 
Q 18.796875 33.203125 25.25 31.453125 
Q 34.578125 28.953125 38.25 27.359375 
Q 41.9375 25.78125 44.03125 22.75 
Q 46.140625 19.734375 46.140625 15.234375 
Q 46.140625 10.84375 43.578125 6.953125 
Q 41.015625 3.078125 36.171875 0.953125 
Q 31.34375 -1.171875 25.25 -1.171875 
Q 15.140625 -1.171875 9.84375 3.03125 
Q 4.546875 7.234375 3.078125 15.484375 
z
" id="ArialMT-115"/>
       <path d="M 8.6875 0 
L 8.6875 45.015625 
L 0.921875 45.015625 
L 0.921875 51.859375 
L 8.6875 51.859375 
L 8.6875 57.375 
Q 8.6875 62.59375 9.625 65.140625 
Q 10.890625 68.5625 14.078125 70.671875 
Q 17.28125 72.796875 23.046875 72.796875 
Q 26.765625 72.796875 31.25 71.921875 
L 29.9375 64.265625 
Q 27.203125 64.75 24.75 64.75 
Q 20.75 64.75 19.09375 63.03125 
Q 17.4375 61.328125 17.4375 56.640625 
L 17.4375 51.859375 
L 27.546875 51.859375 
L 27.546875 45.015625 
L 17.4375 45.015625 
L 17.4375 0 
z
" id="ArialMT-102"/>
       <path d="M 41.21875 28.078125 
L 41.21875 36.46875 
L 71.53125 36.53125 
L 71.53125 9.96875 
Q 64.546875 4.390625 57.125 1.578125 
Q 49.703125 -1.21875 41.890625 -1.21875 
Q 31.34375 -1.21875 22.71875 3.296875 
Q 14.109375 7.8125 9.71875 16.359375 
Q 5.328125 24.90625 5.328125 35.453125 
Q 5.328125 45.90625 9.6875 54.953125 
Q 14.0625 64.015625 22.265625 68.40625 
Q 30.46875 72.796875 41.15625 72.796875 
Q 48.921875 72.796875 55.1875 70.28125 
Q 61.46875 67.78125 65.03125 63.28125 
Q 68.609375 58.796875 70.453125 51.5625 
L 61.921875 49.21875 
Q 60.296875 54.6875 57.90625 57.8125 
Q 55.515625 60.9375 51.0625 62.8125 
Q 46.625 64.703125 41.21875 64.703125 
Q 34.71875 64.703125 29.984375 62.71875 
Q 25.25 60.75 22.34375 57.515625 
Q 19.4375 54.296875 17.828125 50.4375 
Q 15.09375 43.796875 15.09375 36.03125 
Q 15.09375 26.46875 18.390625 20.015625 
Q 21.6875 13.578125 27.984375 10.453125 
Q 34.28125 7.328125 41.359375 7.328125 
Q 47.515625 7.328125 53.375 9.6875 
Q 59.234375 12.0625 62.25 14.75 
L 62.25 28.078125 
z
" id="ArialMT-71"/>
       <path d="M 8.203125 0 
L 8.203125 71.578125 
L 56.5 71.578125 
L 56.5 63.140625 
L 17.671875 63.140625 
L 17.671875 40.96875 
L 51.265625 40.96875 
L 51.265625 32.515625 
L 17.671875 32.515625 
L 17.671875 0 
z
" id="ArialMT-70"/>
       <path d="M 7.71875 0 
L 7.71875 71.578125 
L 34.71875 71.578125 
Q 41.84375 71.578125 45.609375 70.90625 
Q 50.875 70.015625 54.4375 67.546875 
Q 58.015625 65.09375 60.1875 60.640625 
Q 62.359375 56.203125 62.359375 50.875 
Q 62.359375 41.75 56.546875 35.421875 
Q 50.734375 29.109375 35.546875 29.109375 
L 17.1875 29.109375 
L 17.1875 0 
z
M 17.1875 37.546875 
L 35.6875 37.546875 
Q 44.875 37.546875 48.734375 40.96875 
Q 52.59375 44.390625 52.59375 50.59375 
Q 52.59375 55.078125 50.3125 58.265625 
Q 48.046875 61.46875 44.34375 62.5 
Q 41.9375 63.140625 35.5 63.140625 
L 17.1875 63.140625 
z
" id="ArialMT-80"/>
      </defs>
      <use xlink:href="#ArialMT-83"/>
      <use x="66.699219" xlink:href="#ArialMT-99"/>
      <use x="116.699219" xlink:href="#ArialMT-97"/>
      <use x="172.314453" xlink:href="#ArialMT-108"/>
      <use x="194.53125" xlink:href="#ArialMT-101"/>
      <use x="250.146484" xlink:href="#ArialMT-100"/>
      <use x="305.761719" xlink:href="#ArialMT-32"/>
      <use x="333.544922" xlink:href="#ArialMT-115"/>
      <use x="383.544922" xlink:href="#ArialMT-102"/>
      <use x="411.328125" xlink:href="#ArialMT-71"/>
      <use x="489.111328" xlink:href="#ArialMT-70"/>
      <use x="550.195312" xlink:href="#ArialMT-80"/>
     </g>
    </g>
   </g>
   <g id="line2d_17">
    <path clip-path="url(#p496c02096d)" d="M 34.331719 73.328812 
L 34.974607 73.055753 
L 36.548605 72.055138 
L 39.485684 69.94375 
L 42.086862 67.80415 
L 44.547809 65.491639 
L 46.938809 62.937891 
L 49.357124 60.027593 
L 51.920775 56.584703 
L 54.735261 52.419787 
L 58.252875 46.790982 
L 67.011249 32.599491 
L 69.718202 28.74054 
L 72.171248 25.623263 
L 74.371485 23.164142 
L 76.493775 21.101132 
L 78.55075 19.387979 
L 80.671984 17.896906 
L 82.761616 16.691912 
L 84.930251 15.68519 
L 87.165052 14.876603 
L 89.494656 14.255056 
L 92.003005 13.800779 
L 95.094002 13.498989 
L 98.493111 13.426273 
L 102.25366 13.587235 
L 106.527728 13.999862 
L 111.78736 14.735851 
L 118.751485 15.944298 
L 129.695392 18.091853 
L 135.771719 19.329095 
L 135.771719 19.329095 
" style="fill:none;stroke:#000000;stroke-dasharray:3.7,1.6;stroke-dashoffset:0;"/>
   </g>
   <g id="line2d_18">
    <path clip-path="url(#p496c02096d)" d="M 34.331719 73.328812 
L 34.974607 73.056156 
L 36.787728 71.927846 
L 40.234239 69.850788 
L 41.711479 69.21955 
L 42.938121 68.932013 
L 44.176494 68.873997 
L 45.620276 69.0409 
L 47.788912 69.54376 
L 52.181485 70.572889 
L 54.822164 70.934628 
L 57.480115 71.07191 
L 60.326706 70.992172 
L 63.520407 70.6711 
L 67.39156 70.043343 
L 73.613055 68.772933 
L 80.803919 67.379164 
L 85.860513 66.634014 
L 90.898937 66.118067 
L 96.411379 65.781855 
L 102.893585 65.617228 
L 111.228413 65.640585 
L 123.663504 65.91972 
L 135.771719 66.295644 
L 135.771719 66.295644 
" style="fill:none;stroke:#000000;stroke-dasharray:3.7,1.6;stroke-dashoffset:0;"/>
   </g>
   <g id="line2d_19">
    <path clip-path="url(#p496c02096d)" d="M 34.331719 73.328812 
L 34.974607 73.055753 
L 36.548605 72.055138 
L 39.485684 69.94375 
L 42.086862 67.80415 
L 44.55245 65.487227 
L 46.975792 62.901956 
L 49.462479 59.917976 
L 52.160437 56.323225 
L 58.993529 46.98748 
L 60.089697 46.03588 
L 61.06736 45.471772 
L 62.037124 45.168154 
L 63.07799 45.079702 
L 64.324264 45.208416 
L 66.066589 45.634223 
L 73.156812 47.579781 
L 76.27941 48.084798 
L 80.039959 48.454796 
L 85.639304 48.757643 
L 101.989029 49.556817 
L 113.861192 50.43392 
L 135.771719 52.300055 
L 135.771719 52.300055 
" style="fill:none;stroke:#a06aaf;stroke-linecap:square;"/>
   </g>
   <g id="line2d_20">
    <path clip-path="url(#p496c02096d)" d="M 34.331719 73.328812 
L 34.974607 73.055753 
L 36.548605 72.055138 
L 39.485684 69.94375 
L 42.086862 67.80415 
L 44.547809 65.491639 
L 46.938809 62.937891 
L 49.357124 60.027593 
L 51.920775 56.584703 
L 54.736945 52.4172 
L 58.283466 46.743188 
L 65.388831 35.285791 
L 67.39946 32.514039 
L 68.898544 30.803967 
L 70.159059 29.690189 
L 71.317165 28.95637 
L 72.477385 28.481989 
L 72.477385 28.481989 
L 73.73946 28.209003 
L 75.238544 28.121209 
L 77.209672 28.24317 
L 80.419174 28.693954 
L 96.724715 31.201567 
L 131.147074 36.244489 
L 135.771719 36.916709 
L 135.771719 36.916709 
" style="fill:none;stroke:#f29935;stroke-linecap:square;"/>
   </g>
   <g id="line2d_21">
    <path clip-path="url(#p496c02096d)" d="M 34.331719 53.33939 
L 135.771719 53.33939 
" style="fill:none;stroke:#a06aaf;stroke-dasharray:3.7,1.6;stroke-dashoffset:0;"/>
   </g>
   <g id="line2d_22">
    <path clip-path="url(#p496c02096d)" d="M 34.331719 39.765106 
L 135.771719 39.765106 
" style="fill:none;stroke:#f29935;stroke-dasharray:3.7,1.6;stroke-dashoffset:0;"/>
   </g>
   <g id="patch_3">
    <path d="M 34.331719 75.64 
L 34.331719 7.2 
" style="fill:none;stroke:#000000;stroke-linecap:square;stroke-linejoin:miter;stroke-width:0.5;"/>
   </g>
   <g id="patch_4">
    <path d="M 135.771719 75.64 
L 135.771719 7.2 
" style="fill:none;stroke:#000000;stroke-linecap:square;stroke-linejoin:miter;stroke-width:0.5;"/>
   </g>
   <g id="patch_5">
    <path d="M 34.331719 75.64 
L 135.771719 75.64 
" style="fill:none;stroke:#000000;stroke-linecap:square;stroke-linejoin:miter;stroke-width:0.5;"/>
   </g>
   <g id="patch_6">
    <path d="M 34.331719 7.2 
L 135.771719 7.2 
" style="fill:none;stroke:#000000;stroke-linecap:square;stroke-linejoin:miter;stroke-width:0.5;"/>
   </g>
  </g>
 </g>
 <defs>
  <clipPath id="p496c02096d">
   <rect height="68.44" width="101.44" x="34.331719" y="7.2"/>
  </clipPath>
 </defs>
</svg>
