<?xml version="1.0" encoding="utf-8" standalone="no"?>
<!DOCTYPE svg PUBLIC "-//W3C//DTD SVG 1.1//EN"
  "http://www.w3.org/Graphics/SVG/1.1/DTD/svg11.dtd">
<!-- Created with matplotlib (https://matplotlib.org/) -->
<svg height="133.21pt" version="1.1" viewBox="0 0 300.304063 133.21" width="300.304063pt" xmlns="http://www.w3.org/2000/svg" xmlns:xlink="http://www.w3.org/1999/xlink">
 <metadata>
  <rdf:RDF xmlns:cc="http://creativecommons.org/ns#" xmlns:dc="http://purl.org/dc/elements/1.1/" xmlns:rdf="http://www.w3.org/1999/02/22-rdf-syntax-ns#">
   <cc:Work>
    <dc:type rdf:resource="http://purl.org/dc/dcmitype/StillImage"/>
    <dc:date>2025-07-07T14:42:40.490535</dc:date>
    <dc:format>image/svg+xml</dc:format>
    <dc:creator>
     <cc:Agent>
      <dc:title>Matplotlib v3.3.4, https://matplotlib.org/</dc:title>
     </cc:Agent>
    </dc:creator>
   </cc:Work>
  </rdf:RDF>
 </metadata>
 <defs>
  <style type="text/css">*{stroke-linecap:butt;stroke-linejoin:round;}</style>
 </defs>
 <g id="figure_1">
  <g id="patch_1">
   <path d="M 0 133.21 
L 300.304063 133.21 
L 300.304063 0 
L 0 0 
z
" style="fill:none;"/>
  </g>
  <g id="axes_1">
   <g id="patch_2">
    <path d="M 58.352031 88.74 
L 148.352031 88.74 
L 148.352031 7.2 
L 58.352031 7.2 
z
" style="fill:none;"/>
   </g>
   <g id="PolyCollection_1">
    <defs>
     <path d="M 59.289531 -51.831443 
L 59.289531 -49.112719 
L 60.227031 -49.047596 
L 61.164531 -49.1651 
L 62.102031 -49.529591 
L 63.039531 -50.031282 
L 63.977031 -50.706032 
L 64.914531 -52.376264 
L 65.852031 -53.800132 
L 66.789531 -55.393121 
L 67.727031 -57.497934 
L 68.664531 -59.875175 
L 69.602031 -62.034246 
L 70.539531 -65.560338 
L 71.477031 -69.503067 
L 72.414531 -72.727138 
L 73.352031 -75.049717 
L 74.289531 -77.035966 
L 75.227031 -78.760755 
L 76.164531 -80.872588 
L 77.102031 -82.450272 
L 78.039531 -83.709352 
L 78.977031 -85.975234 
L 79.914531 -86.375448 
L 80.852031 -87.906492 
L 81.789531 -89.79186 
L 82.727031 -91.11256 
L 83.664531 -92.697048 
L 84.602031 -95.629228 
L 85.539531 -95.629622 
L 86.477031 -95.706937 
L 87.414531 -96.73035 
L 88.352031 -97.845955 
L 89.289531 -99.723346 
L 90.227031 -101.256811 
L 91.164531 -102.867303 
L 92.102031 -104.196288 
L 93.039531 -105.272609 
L 93.977031 -106.174719 
L 94.914531 -107.207267 
L 95.852031 -107.459374 
L 96.789531 -108.268226 
L 97.727031 -109.05275 
L 98.664531 -109.902247 
L 99.602031 -110.868223 
L 100.539531 -111.793718 
L 101.477031 -112.620788 
L 102.414531 -113.420335 
L 103.352031 -113.703912 
L 104.289531 -114.196668 
L 105.227031 -114.564471 
L 106.164531 -114.998407 
L 107.102031 -115.198684 
L 108.039531 -115.428769 
L 108.977031 -115.823107 
L 109.914531 -115.687493 
L 110.852031 -115.847684 
L 111.789531 -115.613007 
L 112.727031 -115.309911 
L 113.664531 -115.31325 
L 114.602031 -115.29738 
L 115.539531 -115.05141 
L 116.477031 -114.718894 
L 117.414531 -114.688914 
L 118.352031 -114.795274 
L 119.289531 -114.571346 
L 120.227031 -114.574019 
L 121.164531 -114.563859 
L 122.102031 -114.291184 
L 123.039531 -114.263671 
L 123.977031 -114.149807 
L 124.914531 -114.10896 
L 125.852031 -113.997496 
L 126.789531 -113.434633 
L 127.727031 -113.587181 
L 128.664531 -113.697734 
L 129.602031 -113.820237 
L 130.539531 -113.531571 
L 131.477031 -113.472927 
L 132.414531 -113.331958 
L 133.352031 -113.294656 
L 134.289531 -113.276456 
L 135.227031 -113.059554 
L 136.164531 -113.001669 
L 137.102031 -112.650686 
L 138.039531 -112.618175 
L 138.977031 -112.601037 
L 139.914531 -112.981072 
L 140.852031 -112.843211 
L 141.789531 -112.693492 
L 142.727031 -112.348054 
L 143.664531 -112.12015 
L 144.602031 -111.881949 
L 145.539531 -112.278505 
L 146.477031 -111.872468 
L 147.414531 -111.588588 
L 148.352031 -111.821733 
L 149.289531 -111.786302 
L 150.227031 -111.401904 
L 151.164531 -111.426344 
L 152.102031 -111.329909 
L 153.039531 -111.189522 
L 153.977031 -111.21869 
L 154.914531 -111.079254 
L 155.852031 -110.580803 
L 155.852031 -116.962206 
L 155.852031 -116.962206 
L 154.914531 -116.940676 
L 153.977031 -116.780376 
L 153.039531 -116.94715 
L 152.102031 -117.110496 
L 151.164531 -117.560641 
L 150.227031 -117.961989 
L 149.289531 -118.131068 
L 148.352031 -118.213635 
L 147.414531 -117.921346 
L 146.477031 -117.586817 
L 145.539531 -117.579977 
L 144.602031 -117.71882 
L 143.664531 -117.662709 
L 142.727031 -117.674433 
L 141.789531 -118.497318 
L 140.852031 -118.434951 
L 139.914531 -118.789968 
L 138.977031 -118.838613 
L 138.039531 -118.863213 
L 137.102031 -118.483318 
L 136.164531 -118.47341 
L 135.227031 -118.253551 
L 134.289531 -118.430303 
L 133.352031 -118.488441 
L 132.414531 -118.340288 
L 131.477031 -118.991619 
L 130.539531 -119.112819 
L 129.602031 -119.571513 
L 128.664531 -119.204681 
L 127.727031 -119.329612 
L 126.789531 -119.044687 
L 125.852031 -119.075619 
L 124.914531 -118.87007 
L 123.977031 -119.188227 
L 123.039531 -119.318601 
L 122.102031 -119.952286 
L 121.164531 -120.092021 
L 120.227031 -120.194966 
L 119.289531 -120.274456 
L 118.352031 -120.509248 
L 117.414531 -119.692954 
L 116.477031 -120.121934 
L 115.539531 -119.947925 
L 114.602031 -119.574227 
L 113.664531 -120.261856 
L 112.727031 -120.761834 
L 111.789531 -121.130437 
L 110.852031 -121.346861 
L 109.914531 -120.976624 
L 108.977031 -120.83225 
L 108.039531 -120.53741 
L 107.102031 -120.164418 
L 106.164531 -119.35091 
L 105.227031 -119.008661 
L 104.289531 -118.926533 
L 103.352031 -119.035396 
L 102.414531 -117.916877 
L 101.477031 -117.09694 
L 100.539531 -116.01877 
L 99.602031 -115.419587 
L 98.664531 -114.552287 
L 97.727031 -114.27382 
L 96.789531 -113.180213 
L 95.852031 -111.847566 
L 94.914531 -111.218335 
L 93.977031 -110.275101 
L 93.039531 -109.213823 
L 92.102031 -108.008063 
L 91.164531 -106.726685 
L 90.227031 -104.734356 
L 89.289531 -103.351742 
L 88.352031 -101.565061 
L 87.414531 -100.593038 
L 86.477031 -99.037818 
L 85.539531 -97.765142 
L 84.602031 -96.605591 
L 83.664531 -95.739232 
L 82.727031 -94.390938 
L 81.789531 -92.824868 
L 80.852031 -90.906396 
L 79.914531 -89.577409 
L 78.977031 -87.855184 
L 78.039531 -86.343862 
L 77.102031 -84.944819 
L 76.164531 -83.415635 
L 75.227031 -81.079816 
L 74.289531 -79.595425 
L 73.352031 -77.576891 
L 72.414531 -75.456167 
L 71.477031 -72.377678 
L 70.539531 -69.978069 
L 69.602031 -67.752329 
L 68.664531 -64.975087 
L 67.727031 -62.324249 
L 66.789531 -59.810141 
L 65.852031 -57.31039 
L 64.914531 -55.224439 
L 63.977031 -53.598003 
L 63.039531 -52.438113 
L 62.102031 -51.64771 
L 61.164531 -51.521178 
L 60.227031 -51.732022 
L 59.289531 -51.831443 
z
" id="m4be6f78035" style="stroke:#74b867;stroke-opacity:0.5;"/>
    </defs>
    <g clip-path="url(#pb010644464)">
     <use style="fill:#74b867;fill-opacity:0.5;stroke:#74b867;stroke-opacity:0.5;" x="0" xlink:href="#m4be6f78035" y="133.21"/>
    </g>
   </g>
   <g id="PolyCollection_2">
    <defs>
     <path d="M 59.289531 -49.667434 
L 59.289531 -48.659145 
L 60.227031 -48.434998 
L 61.164531 -48.501143 
L 62.102031 -48.293262 
L 63.039531 -48.001115 
L 63.977031 -47.999409 
L 64.914531 -48.276297 
L 65.852031 -48.375949 
L 66.789531 -48.340444 
L 67.727031 -48.660676 
L 68.664531 -49.04449 
L 69.602031 -49.683684 
L 70.539531 -50.474136 
L 71.477031 -50.819136 
L 72.414531 -51.425302 
L 73.352031 -51.921484 
L 74.289531 -51.972449 
L 75.227031 -51.959154 
L 76.164531 -51.982712 
L 77.102031 -51.952172 
L 78.039531 -51.966934 
L 78.977031 -51.947803 
L 79.914531 -52.014749 
L 80.852031 -52.098044 
L 81.789531 -52.091173 
L 82.727031 -52.175116 
L 83.664531 -52.254542 
L 84.602031 -52.345902 
L 85.539531 -52.425567 
L 86.477031 -52.499855 
L 87.414531 -52.753012 
L 88.352031 -53.009943 
L 89.289531 -53.290027 
L 90.227031 -53.664725 
L 91.164531 -54.009005 
L 92.102031 -54.381395 
L 93.039531 -54.949203 
L 93.977031 -55.230785 
L 94.914531 -55.580107 
L 95.852031 -55.919557 
L 96.789531 -56.413803 
L 97.727031 -56.735873 
L 98.664531 -56.946202 
L 99.602031 -57.174373 
L 100.539531 -57.285396 
L 101.477031 -57.308337 
L 102.414531 -57.304333 
L 103.352031 -57.235504 
L 104.289531 -57.258642 
L 105.227031 -57.130261 
L 106.164531 -57.104361 
L 107.102031 -56.95932 
L 108.039531 -57.090307 
L 108.977031 -57.034922 
L 109.914531 -56.974901 
L 110.852031 -56.861994 
L 111.789531 -56.914482 
L 112.727031 -56.776001 
L 113.664531 -56.814031 
L 114.602031 -56.794083 
L 115.539531 -56.867199 
L 116.477031 -56.776512 
L 117.414531 -56.772903 
L 118.352031 -56.738749 
L 119.289531 -56.516587 
L 120.227031 -56.529917 
L 121.164531 -56.636233 
L 122.102031 -56.603113 
L 123.039531 -56.384564 
L 123.977031 -56.353565 
L 124.914531 -56.322899 
L 125.852031 -56.228279 
L 126.789531 -56.108215 
L 127.727031 -56.043804 
L 128.664531 -56.291978 
L 129.602031 -56.210559 
L 130.539531 -56.171877 
L 131.477031 -56.091201 
L 132.414531 -56.059217 
L 133.352031 -56.010636 
L 134.289531 -55.812536 
L 135.227031 -55.773393 
L 136.164531 -55.843581 
L 137.102031 -55.752696 
L 138.039531 -55.716017 
L 138.977031 -55.682746 
L 139.914531 -55.608076 
L 140.852031 -55.584738 
L 141.789531 -55.406473 
L 142.727031 -55.368017 
L 143.664531 -55.283937 
L 144.602031 -55.222507 
L 145.539531 -55.289392 
L 146.477031 -55.22652 
L 147.414531 -55.153546 
L 148.352031 -55.116423 
L 149.289531 -55.080679 
L 150.227031 -55.004021 
L 151.164531 -54.873207 
L 152.102031 -54.848199 
L 153.039531 -54.943418 
L 153.977031 -54.859591 
L 154.914531 -54.797128 
L 155.852031 -54.76051 
L 155.852031 -58.458739 
L 155.852031 -58.458739 
L 154.914531 -58.560357 
L 153.977031 -58.579128 
L 153.039531 -58.663007 
L 152.102031 -58.749034 
L 151.164531 -58.916574 
L 150.227031 -59.002768 
L 149.289531 -59.106449 
L 148.352031 -59.213419 
L 147.414531 -59.190053 
L 146.477031 -59.227064 
L 145.539531 -59.280743 
L 144.602031 -59.329431 
L 143.664531 -59.409424 
L 142.727031 -59.530675 
L 141.789531 -59.683487 
L 140.852031 -59.781142 
L 139.914531 -59.892031 
L 138.977031 -60.00809 
L 138.039531 -60.070087 
L 137.102031 -60.012431 
L 136.164531 -60.069895 
L 135.227031 -60.188551 
L 134.289531 -60.162079 
L 133.352031 -60.174841 
L 132.414531 -60.287664 
L 131.477031 -60.470921 
L 130.539531 -60.613658 
L 129.602031 -60.673424 
L 128.664531 -60.746205 
L 127.727031 -60.820377 
L 126.789531 -60.768579 
L 125.852031 -60.775602 
L 124.914531 -60.850858 
L 123.977031 -60.940923 
L 123.039531 -60.95449 
L 122.102031 -61.054196 
L 121.164531 -61.175311 
L 120.227031 -61.173196 
L 119.289531 -61.316253 
L 118.352031 -61.252861 
L 117.414531 -61.242806 
L 116.477031 -61.187367 
L 115.539531 -61.253727 
L 114.602031 -61.32828 
L 113.664531 -61.404171 
L 112.727031 -61.469126 
L 111.789531 -61.570096 
L 110.852031 -61.637142 
L 109.914531 -61.629533 
L 108.977031 -61.577674 
L 108.039531 -61.610876 
L 107.102031 -61.576073 
L 106.164531 -61.598503 
L 105.227031 -61.74158 
L 104.289531 -61.89529 
L 103.352031 -62.011044 
L 102.414531 -62.063987 
L 101.477031 -62.108686 
L 100.539531 -61.660711 
L 99.602031 -60.923942 
L 98.664531 -60.304312 
L 97.727031 -59.515646 
L 96.789531 -59.036528 
L 95.852031 -58.378001 
L 94.914531 -57.873027 
L 93.977031 -57.222687 
L 93.039531 -56.559979 
L 92.102031 -55.97023 
L 91.164531 -55.408279 
L 90.227031 -54.836474 
L 89.289531 -54.413482 
L 88.352031 -53.920096 
L 87.414531 -53.615723 
L 86.477031 -53.368354 
L 85.539531 -53.225799 
L 84.602031 -53.044409 
L 83.664531 -53.043364 
L 82.727031 -52.789812 
L 81.789531 -52.685562 
L 80.852031 -52.56571 
L 79.914531 -52.46069 
L 78.977031 -52.386243 
L 78.039531 -52.371889 
L 77.102031 -52.363696 
L 76.164531 -52.394422 
L 75.227031 -52.333859 
L 74.289531 -52.376594 
L 73.352031 -52.333412 
L 72.414531 -52.263528 
L 71.477031 -52.226332 
L 70.539531 -52.112274 
L 69.602031 -51.465757 
L 68.664531 -51.205653 
L 67.727031 -50.898574 
L 66.789531 -50.565132 
L 65.852031 -50.360042 
L 64.914531 -50.10393 
L 63.977031 -49.146824 
L 63.039531 -48.773666 
L 62.102031 -48.754745 
L 61.164531 -48.678821 
L 60.227031 -49.010341 
L 59.289531 -49.667434 
z
" id="m22cdd34c6f" style="stroke:#d94633;stroke-opacity:0.5;"/>
    </defs>
    <g clip-path="url(#pb010644464)">
     <use style="fill:#d94633;fill-opacity:0.5;stroke:#d94633;stroke-opacity:0.5;" x="0" xlink:href="#m22cdd34c6f" y="133.21"/>
    </g>
   </g>
   <g id="PolyCollection_3">
    <defs>
     <path d="M 59.289531 -50.471637 
L 59.289531 -48.509698 
L 60.227031 -48.672873 
L 61.164531 -49.261224 
L 62.102031 -49.289718 
L 63.039531 -49.515892 
L 63.977031 -50.311149 
L 64.914531 -52.013257 
L 65.852031 -53.72045 
L 66.789531 -55.709853 
L 67.727031 -58.732039 
L 68.664531 -62.330706 
L 69.602031 -65.775561 
L 70.539531 -68.729819 
L 71.477031 -70.424251 
L 72.414531 -72.777169 
L 73.352031 -74.44778 
L 74.289531 -76.120811 
L 75.227031 -78.054565 
L 76.164531 -79.19599 
L 77.102031 -80.163853 
L 78.039531 -80.801473 
L 78.977031 -81.542882 
L 79.914531 -81.94304 
L 80.852031 -82.050803 
L 81.789531 -82.102571 
L 82.727031 -82.268671 
L 83.664531 -81.659465 
L 84.602031 -81.35569 
L 85.539531 -80.863264 
L 86.477031 -80.201597 
L 87.414531 -80.208692 
L 88.352031 -79.847983 
L 89.289531 -79.65385 
L 90.227031 -79.684076 
L 91.164531 -79.619949 
L 92.102031 -79.548514 
L 93.039531 -79.745089 
L 93.977031 -79.872795 
L 94.914531 -79.595875 
L 95.852031 -79.487032 
L 96.789531 -79.673209 
L 97.727031 -79.612153 
L 98.664531 -79.331846 
L 99.602031 -79.390544 
L 100.539531 -79.149427 
L 101.477031 -79.12263 
L 102.414531 -78.875908 
L 103.352031 -78.645214 
L 104.289531 -78.437027 
L 105.227031 -78.093169 
L 106.164531 -77.752737 
L 107.102031 -77.267799 
L 108.039531 -77.174167 
L 108.977031 -76.985256 
L 109.914531 -76.565169 
L 110.852031 -76.388281 
L 111.789531 -76.262788 
L 112.727031 -76.198045 
L 113.664531 -76.15196 
L 114.602031 -75.981342 
L 115.539531 -75.986171 
L 116.477031 -75.784146 
L 117.414531 -75.384789 
L 118.352031 -75.072303 
L 119.289531 -74.633416 
L 120.227031 -74.53082 
L 121.164531 -74.770971 
L 122.102031 -74.661909 
L 123.039531 -74.297158 
L 123.977031 -74.180924 
L 124.914531 -74.026759 
L 125.852031 -73.842616 
L 126.789531 -73.377002 
L 127.727031 -72.893483 
L 128.664531 -73.360072 
L 129.602031 -73.218917 
L 130.539531 -73.051263 
L 131.477031 -73.042544 
L 132.414531 -73.053191 
L 133.352031 -72.945881 
L 134.289531 -72.3731 
L 135.227031 -72.222427 
L 136.164531 -72.294961 
L 137.102031 -72.057691 
L 138.039531 -71.838987 
L 138.977031 -71.715518 
L 139.914531 -71.615848 
L 140.852031 -71.466422 
L 141.789531 -71.216319 
L 142.727031 -71.042924 
L 143.664531 -70.874908 
L 144.602031 -70.773052 
L 145.539531 -70.885959 
L 146.477031 -70.591423 
L 147.414531 -70.348894 
L 148.352031 -70.228868 
L 149.289531 -70.103656 
L 150.227031 -69.993411 
L 151.164531 -69.66693 
L 152.102031 -69.534641 
L 153.039531 -69.839736 
L 153.977031 -69.757878 
L 154.914531 -69.619478 
L 155.852031 -69.351878 
L 155.852031 -74.661187 
L 155.852031 -74.661187 
L 154.914531 -74.710931 
L 153.977031 -74.877028 
L 153.039531 -75.002683 
L 152.102031 -75.155457 
L 151.164531 -75.458398 
L 150.227031 -75.684502 
L 149.289531 -75.886244 
L 148.352031 -75.941728 
L 147.414531 -76.220517 
L 146.477031 -76.257301 
L 145.539531 -76.357657 
L 144.602031 -76.412184 
L 143.664531 -76.509921 
L 142.727031 -76.78797 
L 141.789531 -77.037623 
L 140.852031 -77.319265 
L 139.914531 -77.42982 
L 138.977031 -77.62668 
L 138.039531 -77.797925 
L 137.102031 -77.809315 
L 136.164531 -78.016894 
L 135.227031 -77.987225 
L 134.289531 -78.140905 
L 133.352031 -78.46118 
L 132.414531 -78.620419 
L 131.477031 -78.797089 
L 130.539531 -79.112678 
L 129.602031 -79.238209 
L 128.664531 -79.367223 
L 127.727031 -79.433632 
L 126.789531 -79.518393 
L 125.852031 -79.721561 
L 124.914531 -79.629341 
L 123.977031 -79.881965 
L 123.039531 -80.018778 
L 122.102031 -80.385432 
L 121.164531 -80.539747 
L 120.227031 -80.57722 
L 119.289531 -80.78338 
L 118.352031 -80.85694 
L 117.414531 -80.940163 
L 116.477031 -80.975222 
L 115.539531 -81.048121 
L 114.602031 -81.301935 
L 113.664531 -81.545254 
L 112.727031 -81.829083 
L 111.789531 -81.901031 
L 110.852031 -82.228 
L 109.914531 -82.352961 
L 108.977031 -82.563636 
L 108.039531 -82.491309 
L 107.102031 -82.716798 
L 106.164531 -83.01078 
L 105.227031 -83.265705 
L 104.289531 -83.778457 
L 103.352031 -84.034892 
L 102.414531 -84.488692 
L 101.477031 -84.428177 
L 100.539531 -84.206365 
L 99.602031 -84.011595 
L 98.664531 -83.721508 
L 97.727031 -83.555999 
L 96.789531 -83.330045 
L 95.852031 -83.233071 
L 94.914531 -83.310715 
L 93.977031 -83.370051 
L 93.039531 -83.186725 
L 92.102031 -83.130022 
L 91.164531 -83.014907 
L 90.227031 -82.899042 
L 89.289531 -82.866755 
L 88.352031 -82.90061 
L 87.414531 -83.061731 
L 86.477031 -83.297218 
L 85.539531 -84.003355 
L 84.602031 -84.588535 
L 83.664531 -85.118327 
L 82.727031 -85.265276 
L 81.789531 -85.302461 
L 80.852031 -85.354298 
L 79.914531 -85.122626 
L 78.977031 -84.576621 
L 78.039531 -83.993106 
L 77.102031 -83.438738 
L 76.164531 -82.241044 
L 75.227031 -80.972242 
L 74.289531 -79.39552 
L 73.352031 -77.419813 
L 72.414531 -75.458586 
L 71.477031 -72.834834 
L 70.539531 -70.555969 
L 69.602031 -68.068724 
L 68.664531 -64.985122 
L 67.727031 -62.051418 
L 66.789531 -59.58753 
L 65.852031 -57.029875 
L 64.914531 -54.710734 
L 63.977031 -52.899206 
L 63.039531 -51.725044 
L 62.102031 -50.880304 
L 61.164531 -50.762262 
L 60.227031 -50.189379 
L 59.289531 -50.471637 
z
" id="m4d6b4536be" style="stroke:#a06aaf;stroke-opacity:0.5;"/>
    </defs>
    <g clip-path="url(#pb010644464)">
     <use style="fill:#a06aaf;fill-opacity:0.5;stroke:#a06aaf;stroke-opacity:0.5;" x="0" xlink:href="#m4d6b4536be" y="133.21"/>
    </g>
   </g>
   <g id="PolyCollection_4">
    <defs>
     <path d="M 59.289531 -53.194305 
L 59.289531 -47.428335 
L 60.227031 -47.310486 
L 61.164531 -47.678913 
L 62.102031 -47.881661 
L 63.039531 -48.554102 
L 63.977031 -49.473682 
L 64.914531 -50.915881 
L 65.852031 -52.561556 
L 66.789531 -54.412804 
L 67.727031 -56.424853 
L 68.664531 -58.554573 
L 69.602031 -60.367684 
L 70.539531 -62.792371 
L 71.477031 -64.540981 
L 72.414531 -66.064908 
L 73.352031 -67.852924 
L 74.289531 -69.593086 
L 75.227031 -71.615789 
L 76.164531 -73.745666 
L 77.102031 -75.250775 
L 78.039531 -76.475328 
L 78.977031 -78.020135 
L 79.914531 -80.320358 
L 80.852031 -81.866076 
L 81.789531 -83.304533 
L 82.727031 -84.802171 
L 83.664531 -86.198533 
L 84.602031 -87.519082 
L 85.539531 -88.163291 
L 86.477031 -89.388171 
L 87.414531 -91.289128 
L 88.352031 -91.870645 
L 89.289531 -92.696242 
L 90.227031 -93.298628 
L 91.164531 -93.230206 
L 92.102031 -93.696155 
L 93.039531 -95.117113 
L 93.977031 -95.362264 
L 94.914531 -94.823534 
L 95.852031 -94.604321 
L 96.789531 -95.392928 
L 97.727031 -95.122879 
L 98.664531 -94.628205 
L 99.602031 -94.687526 
L 100.539531 -93.936883 
L 101.477031 -94.261264 
L 102.414531 -94.025701 
L 103.352031 -93.707189 
L 104.289531 -93.305709 
L 105.227031 -92.932673 
L 106.164531 -92.530605 
L 107.102031 -91.978806 
L 108.039531 -92.139152 
L 108.977031 -91.684516 
L 109.914531 -91.159229 
L 110.852031 -90.696805 
L 111.789531 -90.746424 
L 112.727031 -90.709962 
L 113.664531 -90.38536 
L 114.602031 -90.095924 
L 115.539531 -90.480178 
L 116.477031 -89.964877 
L 117.414531 -89.707769 
L 118.352031 -89.49555 
L 119.289531 -88.635061 
L 120.227031 -88.392939 
L 121.164531 -88.814234 
L 122.102031 -88.667244 
L 123.039531 -88.007168 
L 123.977031 -87.87975 
L 124.914531 -87.585502 
L 125.852031 -87.423139 
L 126.789531 -86.718704 
L 127.727031 -86.23448 
L 128.664531 -87.05491 
L 129.602031 -87.009368 
L 130.539531 -86.822659 
L 131.477031 -86.598099 
L 132.414531 -86.632494 
L 133.352031 -86.351879 
L 134.289531 -85.700955 
L 135.227031 -85.482279 
L 136.164531 -85.71036 
L 137.102031 -85.470139 
L 138.039531 -85.222212 
L 138.977031 -85.102617 
L 139.914531 -85.046781 
L 140.852031 -84.932925 
L 141.789531 -84.433731 
L 142.727031 -84.080845 
L 143.664531 -83.93395 
L 144.602031 -83.938979 
L 145.539531 -84.099386 
L 146.477031 -83.77171 
L 147.414531 -83.631429 
L 148.352031 -83.566072 
L 149.289531 -83.292091 
L 150.227031 -83.335025 
L 151.164531 -82.800682 
L 152.102031 -82.593557 
L 153.039531 -82.958659 
L 153.977031 -82.722354 
L 154.914531 -82.551509 
L 155.852031 -82.283212 
L 155.852031 -89.838187 
L 155.852031 -89.838187 
L 154.914531 -90.071218 
L 153.977031 -90.194196 
L 153.039531 -90.242656 
L 152.102031 -90.206115 
L 151.164531 -90.347424 
L 150.227031 -90.730858 
L 149.289531 -90.781244 
L 148.352031 -90.968832 
L 147.414531 -91.200512 
L 146.477031 -91.26606 
L 145.539531 -91.487748 
L 144.602031 -91.419119 
L 143.664531 -91.560187 
L 142.727031 -91.652499 
L 141.789531 -91.935197 
L 140.852031 -92.309045 
L 139.914531 -92.456472 
L 138.977031 -92.503475 
L 138.039531 -92.515531 
L 137.102031 -92.713594 
L 136.164531 -93.021005 
L 135.227031 -92.690762 
L 134.289531 -93.002849 
L 133.352031 -93.44056 
L 132.414531 -93.511266 
L 131.477031 -93.811622 
L 130.539531 -93.906763 
L 129.602031 -94.149905 
L 128.664531 -94.163784 
L 127.727031 -93.635363 
L 126.789531 -93.668465 
L 125.852031 -94.058881 
L 124.914531 -94.344785 
L 123.977031 -94.405716 
L 123.039531 -94.755937 
L 122.102031 -95.028517 
L 121.164531 -95.210142 
L 120.227031 -95.190166 
L 119.289531 -95.392301 
L 118.352031 -95.698161 
L 117.414531 -95.629976 
L 116.477031 -95.84403 
L 115.539531 -96.102957 
L 114.602031 -95.831825 
L 113.664531 -96.081981 
L 112.727031 -96.38894 
L 111.789531 -96.425623 
L 110.852031 -96.65844 
L 109.914531 -96.785278 
L 108.977031 -97.253709 
L 108.039531 -97.197314 
L 107.102031 -97.212262 
L 106.164531 -97.342728 
L 105.227031 -97.816016 
L 104.289531 -98.048981 
L 103.352031 -98.314916 
L 102.414531 -98.62618 
L 101.477031 -98.543605 
L 100.539531 -98.076008 
L 99.602031 -97.958418 
L 98.664531 -97.784366 
L 97.727031 -97.665951 
L 96.789531 -97.670644 
L 95.852031 -97.10432 
L 94.914531 -97.29238 
L 93.977031 -97.62986 
L 93.039531 -97.653894 
L 92.102031 -97.529038 
L 91.164531 -97.399453 
L 90.227031 -97.256268 
L 89.289531 -96.808489 
L 88.352031 -96.520762 
L 87.414531 -96.251677 
L 86.477031 -95.885178 
L 85.539531 -95.648238 
L 84.602031 -95.650773 
L 83.664531 -95.324226 
L 82.727031 -94.316226 
L 81.789531 -93.198934 
L 80.852031 -91.950169 
L 79.914531 -90.88885 
L 78.977031 -89.318335 
L 78.039531 -88.18469 
L 77.102031 -86.74496 
L 76.164531 -85.58756 
L 75.227031 -83.55632 
L 74.289531 -81.73362 
L 73.352031 -79.78759 
L 72.414531 -77.789183 
L 71.477031 -75.752773 
L 70.539531 -73.933913 
L 69.602031 -70.541417 
L 68.664531 -67.621142 
L 67.727031 -64.339342 
L 66.789531 -61.251625 
L 65.852031 -58.605968 
L 64.914531 -56.292143 
L 63.977031 -54.41084 
L 63.039531 -53.09687 
L 62.102031 -52.637867 
L 61.164531 -52.758167 
L 60.227031 -52.834327 
L 59.289531 -53.194305 
z
" id="mc3f5b3bae5" style="stroke:#f29935;stroke-opacity:0.5;"/>
    </defs>
    <g clip-path="url(#pb010644464)">
     <use style="fill:#f29935;fill-opacity:0.5;stroke:#f29935;stroke-opacity:0.5;" x="0" xlink:href="#mc3f5b3bae5" y="133.21"/>
    </g>
   </g>
   <g id="matplotlib.axis_1">
    <g id="xtick_1">
     <g id="line2d_1">
      <path clip-path="url(#pb010644464)" d="M 58.352031 88.74 
L 58.352031 7.2 
" style="fill:none;stroke:#b0b0b0;stroke-dasharray:1.85,0.8;stroke-dashoffset:0;stroke-opacity:0.6;stroke-width:0.5;"/>
     </g>
     <g id="line2d_2">
      <defs>
       <path d="M 0 0 
L 0 3.5 
" id="m059f7ce09d" style="stroke:#000000;stroke-width:0.8;"/>
      </defs>
      <g>
       <use style="stroke:#000000;stroke-width:0.8;" x="58.352031" xlink:href="#m059f7ce09d" y="88.74"/>
      </g>
     </g>
     <g id="text_1">
      <!-- 0 -->
      <g transform="translate(56.127656 101.46625)scale(0.08 -0.08)">
       <defs>
        <path d="M 4.15625 35.296875 
Q 4.15625 48 6.765625 55.734375 
Q 9.375 63.484375 14.515625 67.671875 
Q 19.671875 71.875 27.484375 71.875 
Q 33.25 71.875 37.59375 69.546875 
Q 41.9375 67.234375 44.765625 62.859375 
Q 47.609375 58.5 49.21875 52.21875 
Q 50.828125 45.953125 50.828125 35.296875 
Q 50.828125 22.703125 48.234375 14.96875 
Q 45.65625 7.234375 40.5 3 
Q 35.359375 -1.21875 27.484375 -1.21875 
Q 17.140625 -1.21875 11.234375 6.203125 
Q 4.15625 15.140625 4.15625 35.296875 
z
M 13.1875 35.296875 
Q 13.1875 17.671875 17.3125 11.828125 
Q 21.4375 6 27.484375 6 
Q 33.546875 6 37.671875 11.859375 
Q 41.796875 17.71875 41.796875 35.296875 
Q 41.796875 52.984375 37.671875 58.78125 
Q 33.546875 64.59375 27.390625 64.59375 
Q 21.34375 64.59375 17.71875 59.46875 
Q 13.1875 52.9375 13.1875 35.296875 
z
" id="ArialMT-48"/>
       </defs>
       <use xlink:href="#ArialMT-48"/>
      </g>
     </g>
    </g>
    <g id="xtick_2">
     <g id="line2d_3">
      <path clip-path="url(#pb010644464)" d="M 77.102031 88.74 
L 77.102031 7.2 
" style="fill:none;stroke:#b0b0b0;stroke-dasharray:1.85,0.8;stroke-dashoffset:0;stroke-opacity:0.6;stroke-width:0.5;"/>
     </g>
     <g id="line2d_4">
      <g>
       <use style="stroke:#000000;stroke-width:0.8;" x="77.102031" xlink:href="#m059f7ce09d" y="88.74"/>
      </g>
     </g>
     <g id="text_2">
      <!-- 200 -->
      <g transform="translate(70.428906 101.46625)scale(0.08 -0.08)">
       <defs>
        <path d="M 50.34375 8.453125 
L 50.34375 0 
L 3.03125 0 
Q 2.9375 3.171875 4.046875 6.109375 
Q 5.859375 10.9375 9.828125 15.625 
Q 13.8125 20.3125 21.34375 26.46875 
Q 33.015625 36.03125 37.109375 41.625 
Q 41.21875 47.21875 41.21875 52.203125 
Q 41.21875 57.421875 37.46875 61 
Q 33.734375 64.59375 27.734375 64.59375 
Q 21.390625 64.59375 17.578125 60.78125 
Q 13.765625 56.984375 13.71875 50.25 
L 4.6875 51.171875 
Q 5.609375 61.28125 11.65625 66.578125 
Q 17.71875 71.875 27.9375 71.875 
Q 38.234375 71.875 44.234375 66.15625 
Q 50.25 60.453125 50.25 52 
Q 50.25 47.703125 48.484375 43.546875 
Q 46.734375 39.40625 42.65625 34.8125 
Q 38.578125 30.21875 29.109375 22.21875 
Q 21.1875 15.578125 18.9375 13.203125 
Q 16.703125 10.84375 15.234375 8.453125 
z
" id="ArialMT-50"/>
       </defs>
       <use xlink:href="#ArialMT-50"/>
       <use x="55.615234" xlink:href="#ArialMT-48"/>
       <use x="111.230469" xlink:href="#ArialMT-48"/>
      </g>
     </g>
    </g>
    <g id="xtick_3">
     <g id="line2d_5">
      <path clip-path="url(#pb010644464)" d="M 95.852031 88.74 
L 95.852031 7.2 
" style="fill:none;stroke:#b0b0b0;stroke-dasharray:1.85,0.8;stroke-dashoffset:0;stroke-opacity:0.6;stroke-width:0.5;"/>
     </g>
     <g id="line2d_6">
      <g>
       <use style="stroke:#000000;stroke-width:0.8;" x="95.852031" xlink:href="#m059f7ce09d" y="88.74"/>
      </g>
     </g>
     <g id="text_3">
      <!-- 400 -->
      <g transform="translate(89.178906 101.46625)scale(0.08 -0.08)">
       <defs>
        <path d="M 32.328125 0 
L 32.328125 17.140625 
L 1.265625 17.140625 
L 1.265625 25.203125 
L 33.9375 71.578125 
L 41.109375 71.578125 
L 41.109375 25.203125 
L 50.78125 25.203125 
L 50.78125 17.140625 
L 41.109375 17.140625 
L 41.109375 0 
z
M 32.328125 25.203125 
L 32.328125 57.46875 
L 9.90625 25.203125 
z
" id="ArialMT-52"/>
       </defs>
       <use xlink:href="#ArialMT-52"/>
       <use x="55.615234" xlink:href="#ArialMT-48"/>
       <use x="111.230469" xlink:href="#ArialMT-48"/>
      </g>
     </g>
    </g>
    <g id="xtick_4">
     <g id="line2d_7">
      <path clip-path="url(#pb010644464)" d="M 114.602031 88.74 
L 114.602031 7.2 
" style="fill:none;stroke:#b0b0b0;stroke-dasharray:1.85,0.8;stroke-dashoffset:0;stroke-opacity:0.6;stroke-width:0.5;"/>
     </g>
     <g id="line2d_8">
      <g>
       <use style="stroke:#000000;stroke-width:0.8;" x="114.602031" xlink:href="#m059f7ce09d" y="88.74"/>
      </g>
     </g>
     <g id="text_4">
      <!-- 600 -->
      <g transform="translate(107.928906 101.46625)scale(0.08 -0.08)">
       <defs>
        <path d="M 49.75 54.046875 
L 41.015625 53.375 
Q 39.84375 58.546875 37.703125 60.890625 
Q 34.125 64.65625 28.90625 64.65625 
Q 24.703125 64.65625 21.53125 62.3125 
Q 17.390625 59.28125 14.984375 53.46875 
Q 12.59375 47.65625 12.5 36.921875 
Q 15.671875 41.75 20.265625 44.09375 
Q 24.859375 46.4375 29.890625 46.4375 
Q 38.671875 46.4375 44.84375 39.96875 
Q 51.03125 33.5 51.03125 23.25 
Q 51.03125 16.5 48.125 10.71875 
Q 45.21875 4.9375 40.140625 1.859375 
Q 35.0625 -1.21875 28.609375 -1.21875 
Q 17.625 -1.21875 10.6875 6.859375 
Q 3.765625 14.9375 3.765625 33.5 
Q 3.765625 54.25 11.421875 63.671875 
Q 18.109375 71.875 29.4375 71.875 
Q 37.890625 71.875 43.28125 67.140625 
Q 48.6875 62.40625 49.75 54.046875 
z
M 13.875 23.1875 
Q 13.875 18.65625 15.796875 14.5 
Q 17.71875 10.359375 21.1875 8.171875 
Q 24.65625 6 28.46875 6 
Q 34.03125 6 38.03125 10.484375 
Q 42.046875 14.984375 42.046875 22.703125 
Q 42.046875 30.125 38.078125 34.390625 
Q 34.125 38.671875 28.125 38.671875 
Q 22.171875 38.671875 18.015625 34.390625 
Q 13.875 30.125 13.875 23.1875 
z
" id="ArialMT-54"/>
       </defs>
       <use xlink:href="#ArialMT-54"/>
       <use x="55.615234" xlink:href="#ArialMT-48"/>
       <use x="111.230469" xlink:href="#ArialMT-48"/>
      </g>
     </g>
    </g>
    <g id="xtick_5">
     <g id="line2d_9">
      <path clip-path="url(#pb010644464)" d="M 133.352031 88.74 
L 133.352031 7.2 
" style="fill:none;stroke:#b0b0b0;stroke-dasharray:1.85,0.8;stroke-dashoffset:0;stroke-opacity:0.6;stroke-width:0.5;"/>
     </g>
     <g id="line2d_10">
      <g>
       <use style="stroke:#000000;stroke-width:0.8;" x="133.352031" xlink:href="#m059f7ce09d" y="88.74"/>
      </g>
     </g>
     <g id="text_5">
      <!-- 800 -->
      <g transform="translate(126.678906 101.46625)scale(0.08 -0.08)">
       <defs>
        <path d="M 17.671875 38.8125 
Q 12.203125 40.828125 9.5625 44.53125 
Q 6.9375 48.25 6.9375 53.421875 
Q 6.9375 61.234375 12.546875 66.546875 
Q 18.171875 71.875 27.484375 71.875 
Q 36.859375 71.875 42.578125 66.421875 
Q 48.296875 60.984375 48.296875 53.171875 
Q 48.296875 48.1875 45.671875 44.5 
Q 43.0625 40.828125 37.75 38.8125 
Q 44.34375 36.671875 47.78125 31.875 
Q 51.21875 27.09375 51.21875 20.453125 
Q 51.21875 11.28125 44.71875 5.03125 
Q 38.234375 -1.21875 27.640625 -1.21875 
Q 17.046875 -1.21875 10.546875 5.046875 
Q 4.046875 11.328125 4.046875 20.703125 
Q 4.046875 27.6875 7.59375 32.390625 
Q 11.140625 37.109375 17.671875 38.8125 
z
M 15.921875 53.71875 
Q 15.921875 48.640625 19.1875 45.40625 
Q 22.46875 42.1875 27.6875 42.1875 
Q 32.765625 42.1875 36.015625 45.375 
Q 39.265625 48.578125 39.265625 53.21875 
Q 39.265625 58.0625 35.90625 61.359375 
Q 32.5625 64.65625 27.59375 64.65625 
Q 22.5625 64.65625 19.234375 61.421875 
Q 15.921875 58.203125 15.921875 53.71875 
z
M 13.09375 20.65625 
Q 13.09375 16.890625 14.875 13.375 
Q 16.65625 9.859375 20.171875 7.921875 
Q 23.6875 6 27.734375 6 
Q 34.03125 6 38.125 10.046875 
Q 42.234375 14.109375 42.234375 20.359375 
Q 42.234375 26.703125 38.015625 30.859375 
Q 33.796875 35.015625 27.4375 35.015625 
Q 21.234375 35.015625 17.15625 30.90625 
Q 13.09375 26.8125 13.09375 20.65625 
z
" id="ArialMT-56"/>
       </defs>
       <use xlink:href="#ArialMT-56"/>
       <use x="55.615234" xlink:href="#ArialMT-48"/>
       <use x="111.230469" xlink:href="#ArialMT-48"/>
      </g>
     </g>
    </g>
    <g id="text_6">
     <!-- Time (min) -->
     <g transform="translate(84.393906 112.88)scale(0.08 -0.08)">
      <defs>
       <path d="M 25.921875 0 
L 25.921875 63.140625 
L 2.34375 63.140625 
L 2.34375 71.578125 
L 59.078125 71.578125 
L 59.078125 63.140625 
L 35.40625 63.140625 
L 35.40625 0 
z
" id="ArialMT-84"/>
       <path d="M 6.640625 61.46875 
L 6.640625 71.578125 
L 15.4375 71.578125 
L 15.4375 61.46875 
z
M 6.640625 0 
L 6.640625 51.859375 
L 15.4375 51.859375 
L 15.4375 0 
z
" id="ArialMT-105"/>
       <path d="M 6.59375 0 
L 6.59375 51.859375 
L 14.453125 51.859375 
L 14.453125 44.578125 
Q 16.890625 48.390625 20.9375 50.703125 
Q 25 53.03125 30.171875 53.03125 
Q 35.9375 53.03125 39.625 50.640625 
Q 43.3125 48.25 44.828125 43.953125 
Q 50.984375 53.03125 60.84375 53.03125 
Q 68.5625 53.03125 72.703125 48.75 
Q 76.859375 44.484375 76.859375 35.59375 
L 76.859375 0 
L 68.109375 0 
L 68.109375 32.671875 
Q 68.109375 37.9375 67.25 40.25 
Q 66.40625 42.578125 64.15625 43.984375 
Q 61.921875 45.40625 58.890625 45.40625 
Q 53.421875 45.40625 49.796875 41.765625 
Q 46.1875 38.140625 46.1875 30.125 
L 46.1875 0 
L 37.40625 0 
L 37.40625 33.6875 
Q 37.40625 39.546875 35.25 42.46875 
Q 33.109375 45.40625 28.21875 45.40625 
Q 24.515625 45.40625 21.359375 43.453125 
Q 18.21875 41.5 16.796875 37.734375 
Q 15.375 33.984375 15.375 26.90625 
L 15.375 0 
z
" id="ArialMT-109"/>
       <path d="M 42.09375 16.703125 
L 51.171875 15.578125 
Q 49.03125 7.625 43.21875 3.21875 
Q 37.40625 -1.171875 28.375 -1.171875 
Q 17 -1.171875 10.328125 5.828125 
Q 3.65625 12.84375 3.65625 25.484375 
Q 3.65625 38.578125 10.390625 45.796875 
Q 17.140625 53.03125 27.875 53.03125 
Q 38.28125 53.03125 44.875 45.953125 
Q 51.46875 38.875 51.46875 26.03125 
Q 51.46875 25.25 51.421875 23.6875 
L 12.75 23.6875 
Q 13.234375 15.140625 17.578125 10.59375 
Q 21.921875 6.0625 28.421875 6.0625 
Q 33.25 6.0625 36.671875 8.59375 
Q 40.09375 11.140625 42.09375 16.703125 
z
M 13.234375 30.90625 
L 42.1875 30.90625 
Q 41.609375 37.453125 38.875 40.71875 
Q 34.671875 45.796875 27.984375 45.796875 
Q 21.921875 45.796875 17.796875 41.75 
Q 13.671875 37.703125 13.234375 30.90625 
z
" id="ArialMT-101"/>
       <path id="ArialMT-32"/>
       <path d="M 23.390625 -21.046875 
Q 16.109375 -11.859375 11.078125 0.4375 
Q 6.0625 12.75 6.0625 25.921875 
Q 6.0625 37.546875 9.8125 48.1875 
Q 14.203125 60.546875 23.390625 72.796875 
L 29.6875 72.796875 
Q 23.78125 62.640625 21.875 58.296875 
Q 18.890625 51.5625 17.1875 44.234375 
Q 15.09375 35.109375 15.09375 25.875 
Q 15.09375 2.390625 29.6875 -21.046875 
z
" id="ArialMT-40"/>
       <path d="M 6.59375 0 
L 6.59375 51.859375 
L 14.5 51.859375 
L 14.5 44.484375 
Q 20.21875 53.03125 31 53.03125 
Q 35.6875 53.03125 39.625 51.34375 
Q 43.5625 49.65625 45.515625 46.921875 
Q 47.46875 44.1875 48.25 40.4375 
Q 48.734375 37.984375 48.734375 31.890625 
L 48.734375 0 
L 39.9375 0 
L 39.9375 31.546875 
Q 39.9375 36.921875 38.90625 39.578125 
Q 37.890625 42.234375 35.28125 43.8125 
Q 32.671875 45.40625 29.15625 45.40625 
Q 23.53125 45.40625 19.453125 41.84375 
Q 15.375 38.28125 15.375 28.328125 
L 15.375 0 
z
" id="ArialMT-110"/>
       <path d="M 12.359375 -21.046875 
L 6.0625 -21.046875 
Q 20.65625 2.390625 20.65625 25.875 
Q 20.65625 35.0625 18.5625 44.09375 
Q 16.890625 51.421875 13.921875 58.15625 
Q 12.015625 62.546875 6.0625 72.796875 
L 12.359375 72.796875 
Q 21.53125 60.546875 25.921875 48.1875 
Q 29.6875 37.546875 29.6875 25.921875 
Q 29.6875 12.75 24.625 0.4375 
Q 19.578125 -11.859375 12.359375 -21.046875 
z
" id="ArialMT-41"/>
      </defs>
      <use xlink:href="#ArialMT-84"/>
      <use x="57.333984" xlink:href="#ArialMT-105"/>
      <use x="79.550781" xlink:href="#ArialMT-109"/>
      <use x="162.851562" xlink:href="#ArialMT-101"/>
      <use x="218.466797" xlink:href="#ArialMT-32"/>
      <use x="246.25" xlink:href="#ArialMT-40"/>
      <use x="279.550781" xlink:href="#ArialMT-109"/>
      <use x="362.851562" xlink:href="#ArialMT-105"/>
      <use x="385.068359" xlink:href="#ArialMT-110"/>
      <use x="440.683594" xlink:href="#ArialMT-41"/>
     </g>
    </g>
   </g>
   <g id="matplotlib.axis_2">
    <g id="ytick_1">
     <g id="line2d_11">
      <path clip-path="url(#pb010644464)" d="M 58.352031 88.74 
L 148.352031 88.74 
" style="fill:none;stroke:#b0b0b0;stroke-dasharray:1.85,0.8;stroke-dashoffset:0;stroke-opacity:0.6;stroke-width:0.5;"/>
     </g>
     <g id="line2d_12">
      <defs>
       <path d="M 0 0 
L -3.5 0 
" id="m3f1f249839" style="stroke:#000000;stroke-width:0.8;"/>
      </defs>
      <g>
       <use style="stroke:#000000;stroke-width:0.8;" x="58.352031" xlink:href="#m3f1f249839" y="88.74"/>
      </g>
     </g>
     <g id="text_7">
      <!-- 0.0 -->
      <g transform="translate(40.232031 91.603125)scale(0.08 -0.08)">
       <defs>
        <path d="M 9.078125 0 
L 9.078125 10.015625 
L 19.09375 10.015625 
L 19.09375 0 
z
" id="ArialMT-46"/>
       </defs>
       <use xlink:href="#ArialMT-48"/>
       <use x="55.615234" xlink:href="#ArialMT-46"/>
       <use x="83.398438" xlink:href="#ArialMT-48"/>
      </g>
     </g>
    </g>
    <g id="ytick_2">
     <g id="line2d_13">
      <path clip-path="url(#pb010644464)" d="M 58.352031 51.676364 
L 148.352031 51.676364 
" style="fill:none;stroke:#b0b0b0;stroke-dasharray:1.85,0.8;stroke-dashoffset:0;stroke-opacity:0.6;stroke-width:0.5;"/>
     </g>
     <g id="line2d_14">
      <g>
       <use style="stroke:#000000;stroke-width:0.8;" x="58.352031" xlink:href="#m3f1f249839" y="51.676364"/>
      </g>
     </g>
     <g id="text_8">
      <!-- 0.5 -->
      <g transform="translate(40.232031 54.539489)scale(0.08 -0.08)">
       <defs>
        <path d="M 4.15625 18.75 
L 13.375 19.53125 
Q 14.40625 12.796875 18.140625 9.390625 
Q 21.875 6 27.15625 6 
Q 33.5 6 37.890625 10.78125 
Q 42.28125 15.578125 42.28125 23.484375 
Q 42.28125 31 38.0625 35.34375 
Q 33.84375 39.703125 27 39.703125 
Q 22.75 39.703125 19.328125 37.765625 
Q 15.921875 35.84375 13.96875 32.765625 
L 5.71875 33.84375 
L 12.640625 70.609375 
L 48.25 70.609375 
L 48.25 62.203125 
L 19.671875 62.203125 
L 15.828125 42.96875 
Q 22.265625 47.46875 29.34375 47.46875 
Q 38.71875 47.46875 45.15625 40.96875 
Q 51.609375 34.46875 51.609375 24.265625 
Q 51.609375 14.546875 45.953125 7.46875 
Q 39.0625 -1.21875 27.15625 -1.21875 
Q 17.390625 -1.21875 11.203125 4.25 
Q 5.03125 9.71875 4.15625 18.75 
z
" id="ArialMT-53"/>
       </defs>
       <use xlink:href="#ArialMT-48"/>
       <use x="55.615234" xlink:href="#ArialMT-46"/>
       <use x="83.398438" xlink:href="#ArialMT-53"/>
      </g>
     </g>
    </g>
    <g id="ytick_3">
     <g id="line2d_15">
      <path clip-path="url(#pb010644464)" d="M 58.352031 14.612727 
L 148.352031 14.612727 
" style="fill:none;stroke:#b0b0b0;stroke-dasharray:1.85,0.8;stroke-dashoffset:0;stroke-opacity:0.6;stroke-width:0.5;"/>
     </g>
     <g id="line2d_16">
      <g>
       <use style="stroke:#000000;stroke-width:0.8;" x="58.352031" xlink:href="#m3f1f249839" y="14.612727"/>
      </g>
     </g>
     <g id="text_9">
      <!-- 1.0 -->
      <g transform="translate(40.232031 17.475852)scale(0.08 -0.08)">
       <defs>
        <path d="M 37.25 0 
L 28.46875 0 
L 28.46875 56 
Q 25.296875 52.984375 20.140625 49.953125 
Q 14.984375 46.921875 10.890625 45.40625 
L 10.890625 53.90625 
Q 18.265625 57.375 23.78125 62.296875 
Q 29.296875 67.234375 31.59375 71.875 
L 37.25 71.875 
z
" id="ArialMT-49"/>
       </defs>
       <use xlink:href="#ArialMT-49"/>
       <use x="55.615234" xlink:href="#ArialMT-46"/>
       <use x="83.398438" xlink:href="#ArialMT-48"/>
      </g>
     </g>
    </g>
    <g id="text_10">
     <!-- Scaled sfGFP -->
     <g transform="translate(34.642031 72.645)rotate(-90)scale(0.08 -0.08)">
      <defs>
       <path d="M 4.5 23 
L 13.421875 23.78125 
Q 14.0625 18.40625 16.375 14.96875 
Q 18.703125 11.53125 23.578125 9.40625 
Q 28.46875 7.28125 34.578125 7.28125 
Q 39.984375 7.28125 44.140625 8.890625 
Q 48.296875 10.5 50.3125 13.296875 
Q 52.34375 16.109375 52.34375 19.4375 
Q 52.34375 22.796875 50.390625 25.3125 
Q 48.4375 27.828125 43.953125 29.546875 
Q 41.0625 30.671875 31.203125 33.03125 
Q 21.34375 35.40625 17.390625 37.5 
Q 12.25 40.1875 9.734375 44.15625 
Q 7.234375 48.140625 7.234375 53.078125 
Q 7.234375 58.5 10.296875 63.203125 
Q 13.375 67.921875 19.28125 70.359375 
Q 25.203125 72.796875 32.421875 72.796875 
Q 40.375 72.796875 46.453125 70.234375 
Q 52.546875 67.671875 55.8125 62.6875 
Q 59.078125 57.71875 59.328125 51.421875 
L 50.25 50.734375 
Q 49.515625 57.515625 45.28125 60.984375 
Q 41.0625 64.453125 32.8125 64.453125 
Q 24.21875 64.453125 20.28125 61.296875 
Q 16.359375 58.15625 16.359375 53.71875 
Q 16.359375 49.859375 19.140625 47.359375 
Q 21.875 44.875 33.421875 42.265625 
Q 44.96875 39.65625 49.265625 37.703125 
Q 55.515625 34.8125 58.484375 30.390625 
Q 61.46875 25.984375 61.46875 20.21875 
Q 61.46875 14.5 58.203125 9.4375 
Q 54.9375 4.390625 48.796875 1.578125 
Q 42.671875 -1.21875 35.015625 -1.21875 
Q 25.296875 -1.21875 18.71875 1.609375 
Q 12.15625 4.4375 8.421875 10.125 
Q 4.6875 15.828125 4.5 23 
z
" id="ArialMT-83"/>
       <path d="M 40.4375 19 
L 49.078125 17.875 
Q 47.65625 8.9375 41.8125 3.875 
Q 35.984375 -1.171875 27.484375 -1.171875 
Q 16.84375 -1.171875 10.375 5.78125 
Q 3.90625 12.75 3.90625 25.734375 
Q 3.90625 34.125 6.6875 40.421875 
Q 9.46875 46.734375 15.15625 49.875 
Q 20.84375 53.03125 27.546875 53.03125 
Q 35.984375 53.03125 41.359375 48.75 
Q 46.734375 44.484375 48.25 36.625 
L 39.703125 35.296875 
Q 38.484375 40.53125 35.375 43.15625 
Q 32.28125 45.796875 27.875 45.796875 
Q 21.234375 45.796875 17.078125 41.03125 
Q 12.9375 36.28125 12.9375 25.984375 
Q 12.9375 15.53125 16.9375 10.796875 
Q 20.953125 6.0625 27.390625 6.0625 
Q 32.5625 6.0625 36.03125 9.234375 
Q 39.5 12.40625 40.4375 19 
z
" id="ArialMT-99"/>
       <path d="M 40.4375 6.390625 
Q 35.546875 2.25 31.03125 0.53125 
Q 26.515625 -1.171875 21.34375 -1.171875 
Q 12.796875 -1.171875 8.203125 3 
Q 3.609375 7.171875 3.609375 13.671875 
Q 3.609375 17.484375 5.34375 20.625 
Q 7.078125 23.78125 9.890625 25.6875 
Q 12.703125 27.59375 16.21875 28.5625 
Q 18.796875 29.25 24.03125 29.890625 
Q 34.671875 31.15625 39.703125 32.90625 
Q 39.75 34.71875 39.75 35.203125 
Q 39.75 40.578125 37.25 42.78125 
Q 33.890625 45.75 27.25 45.75 
Q 21.046875 45.75 18.09375 43.578125 
Q 15.140625 41.40625 13.71875 35.890625 
L 5.125 37.0625 
Q 6.296875 42.578125 8.984375 45.96875 
Q 11.671875 49.359375 16.75 51.1875 
Q 21.828125 53.03125 28.515625 53.03125 
Q 35.15625 53.03125 39.296875 51.46875 
Q 43.453125 49.90625 45.40625 47.53125 
Q 47.359375 45.171875 48.140625 41.546875 
Q 48.578125 39.3125 48.578125 33.453125 
L 48.578125 21.734375 
Q 48.578125 9.46875 49.140625 6.21875 
Q 49.703125 2.984375 51.375 0 
L 42.1875 0 
Q 40.828125 2.734375 40.4375 6.390625 
z
M 39.703125 26.03125 
Q 34.90625 24.078125 25.34375 22.703125 
Q 19.921875 21.921875 17.671875 20.9375 
Q 15.4375 19.96875 14.203125 18.09375 
Q 12.984375 16.21875 12.984375 13.921875 
Q 12.984375 10.40625 15.640625 8.0625 
Q 18.3125 5.71875 23.4375 5.71875 
Q 28.515625 5.71875 32.46875 7.9375 
Q 36.421875 10.15625 38.28125 14.015625 
Q 39.703125 17 39.703125 22.796875 
z
" id="ArialMT-97"/>
       <path d="M 6.390625 0 
L 6.390625 71.578125 
L 15.1875 71.578125 
L 15.1875 0 
z
" id="ArialMT-108"/>
       <path d="M 40.234375 0 
L 40.234375 6.546875 
Q 35.296875 -1.171875 25.734375 -1.171875 
Q 19.53125 -1.171875 14.328125 2.25 
Q 9.125 5.671875 6.265625 11.796875 
Q 3.421875 17.921875 3.421875 25.875 
Q 3.421875 33.640625 6 39.96875 
Q 8.59375 46.296875 13.765625 49.65625 
Q 18.953125 53.03125 25.34375 53.03125 
Q 30.03125 53.03125 33.6875 51.046875 
Q 37.359375 49.078125 39.65625 45.90625 
L 39.65625 71.578125 
L 48.390625 71.578125 
L 48.390625 0 
z
M 12.453125 25.875 
Q 12.453125 15.921875 16.640625 10.984375 
Q 20.84375 6.0625 26.5625 6.0625 
Q 32.328125 6.0625 36.34375 10.765625 
Q 40.375 15.484375 40.375 25.140625 
Q 40.375 35.796875 36.265625 40.765625 
Q 32.171875 45.75 26.171875 45.75 
Q 20.3125 45.75 16.375 40.96875 
Q 12.453125 36.1875 12.453125 25.875 
z
" id="ArialMT-100"/>
       <path d="M 3.078125 15.484375 
L 11.765625 16.84375 
Q 12.5 11.625 15.84375 8.84375 
Q 19.1875 6.0625 25.203125 6.0625 
Q 31.25 6.0625 34.171875 8.515625 
Q 37.109375 10.984375 37.109375 14.3125 
Q 37.109375 17.28125 34.515625 19 
Q 32.71875 20.171875 25.53125 21.96875 
Q 15.875 24.421875 12.140625 26.203125 
Q 8.40625 27.984375 6.46875 31.125 
Q 4.546875 34.28125 4.546875 38.09375 
Q 4.546875 41.546875 6.125 44.5 
Q 7.71875 47.46875 10.453125 49.421875 
Q 12.5 50.921875 16.03125 51.96875 
Q 19.578125 53.03125 23.640625 53.03125 
Q 29.734375 53.03125 34.34375 51.265625 
Q 38.96875 49.515625 41.15625 46.5 
Q 43.359375 43.5 44.1875 38.484375 
L 35.59375 37.3125 
Q 35.015625 41.3125 32.203125 43.546875 
Q 29.390625 45.796875 24.265625 45.796875 
Q 18.21875 45.796875 15.625 43.796875 
Q 13.03125 41.796875 13.03125 39.109375 
Q 13.03125 37.40625 14.109375 36.03125 
Q 15.1875 34.625 17.484375 33.6875 
Q 18.796875 33.203125 25.25 31.453125 
Q 34.578125 28.953125 38.25 27.359375 
Q 41.9375 25.78125 44.03125 22.75 
Q 46.140625 19.734375 46.140625 15.234375 
Q 46.140625 10.84375 43.578125 6.953125 
Q 41.015625 3.078125 36.171875 0.953125 
Q 31.34375 -1.171875 25.25 -1.171875 
Q 15.140625 -1.171875 9.84375 3.03125 
Q 4.546875 7.234375 3.078125 15.484375 
z
" id="ArialMT-115"/>
       <path d="M 8.6875 0 
L 8.6875 45.015625 
L 0.921875 45.015625 
L 0.921875 51.859375 
L 8.6875 51.859375 
L 8.6875 57.375 
Q 8.6875 62.59375 9.625 65.140625 
Q 10.890625 68.5625 14.078125 70.671875 
Q 17.28125 72.796875 23.046875 72.796875 
Q 26.765625 72.796875 31.25 71.921875 
L 29.9375 64.265625 
Q 27.203125 64.75 24.75 64.75 
Q 20.75 64.75 19.09375 63.03125 
Q 17.4375 61.328125 17.4375 56.640625 
L 17.4375 51.859375 
L 27.546875 51.859375 
L 27.546875 45.015625 
L 17.4375 45.015625 
L 17.4375 0 
z
" id="ArialMT-102"/>
       <path d="M 41.21875 28.078125 
L 41.21875 36.46875 
L 71.53125 36.53125 
L 71.53125 9.96875 
Q 64.546875 4.390625 57.125 1.578125 
Q 49.703125 -1.21875 41.890625 -1.21875 
Q 31.34375 -1.21875 22.71875 3.296875 
Q 14.109375 7.8125 9.71875 16.359375 
Q 5.328125 24.90625 5.328125 35.453125 
Q 5.328125 45.90625 9.6875 54.953125 
Q 14.0625 64.015625 22.265625 68.40625 
Q 30.46875 72.796875 41.15625 72.796875 
Q 48.921875 72.796875 55.1875 70.28125 
Q 61.46875 67.78125 65.03125 63.28125 
Q 68.609375 58.796875 70.453125 51.5625 
L 61.921875 49.21875 
Q 60.296875 54.6875 57.90625 57.8125 
Q 55.515625 60.9375 51.0625 62.8125 
Q 46.625 64.703125 41.21875 64.703125 
Q 34.71875 64.703125 29.984375 62.71875 
Q 25.25 60.75 22.34375 57.515625 
Q 19.4375 54.296875 17.828125 50.4375 
Q 15.09375 43.796875 15.09375 36.03125 
Q 15.09375 26.46875 18.390625 20.015625 
Q 21.6875 13.578125 27.984375 10.453125 
Q 34.28125 7.328125 41.359375 7.328125 
Q 47.515625 7.328125 53.375 9.6875 
Q 59.234375 12.0625 62.25 14.75 
L 62.25 28.078125 
z
" id="ArialMT-71"/>
       <path d="M 8.203125 0 
L 8.203125 71.578125 
L 56.5 71.578125 
L 56.5 63.140625 
L 17.671875 63.140625 
L 17.671875 40.96875 
L 51.265625 40.96875 
L 51.265625 32.515625 
L 17.671875 32.515625 
L 17.671875 0 
z
" id="ArialMT-70"/>
       <path d="M 7.71875 0 
L 7.71875 71.578125 
L 34.71875 71.578125 
Q 41.84375 71.578125 45.609375 70.90625 
Q 50.875 70.015625 54.4375 67.546875 
Q 58.015625 65.09375 60.1875 60.640625 
Q 62.359375 56.203125 62.359375 50.875 
Q 62.359375 41.75 56.546875 35.421875 
Q 50.734375 29.109375 35.546875 29.109375 
L 17.1875 29.109375 
L 17.1875 0 
z
M 17.1875 37.546875 
L 35.6875 37.546875 
Q 44.875 37.546875 48.734375 40.96875 
Q 52.59375 44.390625 52.59375 50.59375 
Q 52.59375 55.078125 50.3125 58.265625 
Q 48.046875 61.46875 44.34375 62.5 
Q 41.9375 63.140625 35.5 63.140625 
L 17.1875 63.140625 
z
" id="ArialMT-80"/>
      </defs>
      <use xlink:href="#ArialMT-83"/>
      <use x="66.699219" xlink:href="#ArialMT-99"/>
      <use x="116.699219" xlink:href="#ArialMT-97"/>
      <use x="172.314453" xlink:href="#ArialMT-108"/>
      <use x="194.53125" xlink:href="#ArialMT-101"/>
      <use x="250.146484" xlink:href="#ArialMT-100"/>
      <use x="305.761719" xlink:href="#ArialMT-32"/>
      <use x="333.544922" xlink:href="#ArialMT-115"/>
      <use x="383.544922" xlink:href="#ArialMT-102"/>
      <use x="411.328125" xlink:href="#ArialMT-71"/>
      <use x="489.111328" xlink:href="#ArialMT-70"/>
      <use x="550.195312" xlink:href="#ArialMT-80"/>
     </g>
    </g>
   </g>
   <g id="line2d_17">
    <path clip-path="url(#pb010644464)" d="M 58.352031 85.986431 
L 58.873351 85.697089 
L 60.063188 84.698695 
L 62.588305 82.297538 
L 64.878906 79.817753 
L 67.030478 77.162019 
L 69.143795 74.199273 
L 71.29216 70.800216 
L 73.550921 66.801498 
L 76.042744 61.922874 
L 79.091809 55.433993 
L 87.935851 36.288308 
L 89.327969 33.631807 
L 91.524636 29.794255 
L 93.715057 26.44667 
L 95.759219 23.761928 
L 97.563188 21.742566 
L 99.424169 19.980515 
L 101.250104 18.558221 
L 103.083048 17.399508 
L 105.084216 16.407265 
L 107.045781 15.682518 
L 109.077791 15.152953 
L 111.254192 14.801449 
L 114.010618 14.619217 
L 116.731996 14.668596 
L 119.873935 14.945298 
L 123.876272 15.551101 
L 128.514706 16.492166 
L 134.775805 18.003357 
L 144.283982 20.537131 
L 148.352031 21.650708 
L 148.352031 21.650708 
" style="fill:none;stroke:#74b867;stroke-linecap:square;"/>
   </g>
   <g id="line2d_18">
    <path clip-path="url(#pb010644464)" d="M 58.352031 85.986431 
L 58.873351 85.697472 
L 60.208281 84.594906 
L 63.546833 81.871725 
L 64.806763 81.132593 
L 65.837031 80.778686 
L 66.832656 80.672053 
L 67.93994 80.785048 
L 69.41716 81.179931 
L 75.119263 82.906655 
L 77.265875 83.213055 
L 79.442277 83.29947 
L 81.798906 83.16617 
L 84.403141 82.792109 
L 87.578375 82.098257 
L 92.328959 80.805783 
L 99.052674 79.020639 
L 103.237253 78.15415 
L 107.307931 77.539115 
L 111.653725 77.111434 
L 116.569844 76.857483 
L 122.525221 76.781683 
L 130.464531 76.917517 
L 143.185267 77.38467 
L 148.352031 77.607054 
L 148.352031 77.607054 
" style="fill:none;stroke:#d94633;stroke-linecap:square;"/>
   </g>
   <g id="line2d_19">
    <path clip-path="url(#pb010644464)" d="M 58.352031 85.986431 
L 58.873351 85.697089 
L 60.063188 84.698695 
L 62.588305 82.297538 
L 64.878906 79.817753 
L 67.029086 77.163906 
L 69.168955 74.167158 
L 71.364801 70.701878 
L 73.738611 66.527497 
L 76.846942 60.564115 
L 79.30209 56.013392 
L 80.484917 54.272148 
L 81.415407 53.276627 
L 82.240758 52.703878 
L 83.05209 52.407072 
L 83.912487 52.331635 
L 84.934099 52.47686 
L 86.327206 52.921253 
L 93.196365 55.411823 
L 95.760156 55.942878 
L 98.849403 56.345719 
L 103.277031 56.67777 
L 118.726155 57.694505 
L 128.409566 58.654755 
L 146.879192 60.762274 
L 148.352031 60.932591 
L 148.352031 60.932591 
" style="fill:none;stroke:#a06aaf;stroke-linecap:square;"/>
   </g>
   <g id="line2d_20">
    <path clip-path="url(#pb010644464)" d="M 58.352031 85.986431 
L 58.873351 85.697089 
L 60.063188 84.698695 
L 62.588305 82.297538 
L 64.878906 79.817753 
L 67.030478 77.162019 
L 69.143795 74.199273 
L 71.29216 70.800216 
L 73.550921 66.801498 
L 76.041177 61.92608 
L 79.102844 55.411345 
L 86.327206 39.838648 
L 88.019963 36.814121 
L 89.302656 34.951198 
L 90.376856 33.763175 
L 91.370431 32.985433 
L 92.356996 32.491967 
L 93.413655 32.213534 
L 94.645548 32.125707 
L 96.226155 32.247885 
L 98.661719 32.684558 
L 118.216225 36.663464 
L 145.536719 42.056161 
L 148.352031 42.604741 
L 148.352031 42.604741 
" style="fill:none;stroke:#f29935;stroke-linecap:square;"/>
   </g>
   <g id="line2d_21">
    <path clip-path="url(#pb010644464)" d="M 58.352031 62.170863 
L 148.352031 62.170863 
" style="fill:none;stroke:#a06aaf;stroke-dasharray:3.7,1.6;stroke-dashoffset:0;"/>
   </g>
   <g id="line2d_22">
    <path clip-path="url(#pb010644464)" d="M 58.352031 45.998345 
L 148.352031 45.998345 
" style="fill:none;stroke:#f29935;stroke-dasharray:3.7,1.6;stroke-dashoffset:0;"/>
   </g>
   <g id="patch_3">
    <path d="M 58.352031 88.74 
L 58.352031 7.2 
" style="fill:none;stroke:#000000;stroke-linecap:square;stroke-linejoin:miter;stroke-width:0.5;"/>
   </g>
   <g id="patch_4">
    <path d="M 148.352031 88.74 
L 148.352031 7.2 
" style="fill:none;stroke:#000000;stroke-linecap:square;stroke-linejoin:miter;stroke-width:0.5;"/>
   </g>
   <g id="patch_5">
    <path d="M 58.352031 88.74 
L 148.352031 88.74 
" style="fill:none;stroke:#000000;stroke-linecap:square;stroke-linejoin:miter;stroke-width:0.5;"/>
   </g>
   <g id="patch_6">
    <path d="M 58.352031 7.2 
L 148.352031 7.2 
" style="fill:none;stroke:#000000;stroke-linecap:square;stroke-linejoin:miter;stroke-width:0.5;"/>
   </g>
   <g id="legend_1">
    <g id="line2d_23">
     <path d="M 10 119.286719 
L 24 119.286719 
" style="fill:none;stroke:#74b867;stroke-linecap:square;"/>
    </g>
    <g id="line2d_24"/>
    <g id="text_11">
     <!-- Const. Green -->
     <g transform="translate(29.6 121.736719)scale(0.07 -0.07)">
      <defs>
       <path d="M 58.796875 25.09375 
L 68.265625 22.703125 
Q 65.28125 11.03125 57.546875 4.90625 
Q 49.8125 -1.21875 38.625 -1.21875 
Q 27.046875 -1.21875 19.796875 3.484375 
Q 12.546875 8.203125 8.765625 17.140625 
Q 4.984375 26.078125 4.984375 36.328125 
Q 4.984375 47.515625 9.25 55.828125 
Q 13.53125 64.15625 21.40625 68.46875 
Q 29.296875 72.796875 38.765625 72.796875 
Q 49.515625 72.796875 56.828125 67.328125 
Q 64.15625 61.859375 67.046875 51.953125 
L 57.71875 49.75 
Q 55.21875 57.5625 50.484375 61.125 
Q 45.75 64.703125 38.578125 64.703125 
Q 30.328125 64.703125 24.78125 60.734375 
Q 19.234375 56.78125 16.984375 50.109375 
Q 14.75 43.453125 14.75 36.375 
Q 14.75 27.25 17.40625 20.4375 
Q 20.0625 13.625 25.671875 10.25 
Q 31.296875 6.890625 37.84375 6.890625 
Q 45.796875 6.890625 51.3125 11.46875 
Q 56.84375 16.0625 58.796875 25.09375 
z
" id="ArialMT-67"/>
       <path d="M 3.328125 25.921875 
Q 3.328125 40.328125 11.328125 47.265625 
Q 18.015625 53.03125 27.640625 53.03125 
Q 38.328125 53.03125 45.109375 46.015625 
Q 51.90625 39.015625 51.90625 26.65625 
Q 51.90625 16.65625 48.90625 10.90625 
Q 45.90625 5.171875 40.15625 2 
Q 34.421875 -1.171875 27.640625 -1.171875 
Q 16.75 -1.171875 10.03125 5.8125 
Q 3.328125 12.796875 3.328125 25.921875 
z
M 12.359375 25.921875 
Q 12.359375 15.96875 16.703125 11.015625 
Q 21.046875 6.0625 27.640625 6.0625 
Q 34.1875 6.0625 38.53125 11.03125 
Q 42.875 16.015625 42.875 26.21875 
Q 42.875 35.84375 38.5 40.796875 
Q 34.125 45.75 27.640625 45.75 
Q 21.046875 45.75 16.703125 40.8125 
Q 12.359375 35.890625 12.359375 25.921875 
z
" id="ArialMT-111"/>
       <path d="M 25.78125 7.859375 
L 27.046875 0.09375 
Q 23.34375 -0.6875 20.40625 -0.6875 
Q 15.625 -0.6875 12.984375 0.828125 
Q 10.359375 2.34375 9.28125 4.8125 
Q 8.203125 7.28125 8.203125 15.1875 
L 8.203125 45.015625 
L 1.765625 45.015625 
L 1.765625 51.859375 
L 8.203125 51.859375 
L 8.203125 64.703125 
L 16.9375 69.96875 
L 16.9375 51.859375 
L 25.78125 51.859375 
L 25.78125 45.015625 
L 16.9375 45.015625 
L 16.9375 14.703125 
Q 16.9375 10.9375 17.40625 9.859375 
Q 17.875 8.796875 18.921875 8.15625 
Q 19.96875 7.515625 21.921875 7.515625 
Q 23.390625 7.515625 25.78125 7.859375 
z
" id="ArialMT-116"/>
       <path d="M 6.5 0 
L 6.5 51.859375 
L 14.40625 51.859375 
L 14.40625 44 
Q 17.4375 49.515625 20 51.265625 
Q 22.5625 53.03125 25.640625 53.03125 
Q 30.078125 53.03125 34.671875 50.203125 
L 31.640625 42.046875 
Q 28.421875 43.953125 25.203125 43.953125 
Q 22.3125 43.953125 20.015625 42.21875 
Q 17.71875 40.484375 16.75 37.40625 
Q 15.28125 32.71875 15.28125 27.15625 
L 15.28125 0 
z
" id="ArialMT-114"/>
      </defs>
      <use xlink:href="#ArialMT-67"/>
      <use x="72.216797" xlink:href="#ArialMT-111"/>
      <use x="127.832031" xlink:href="#ArialMT-110"/>
      <use x="183.447266" xlink:href="#ArialMT-115"/>
      <use x="233.447266" xlink:href="#ArialMT-116"/>
      <use x="261.230469" xlink:href="#ArialMT-46"/>
      <use x="289.013672" xlink:href="#ArialMT-32"/>
      <use x="316.796875" xlink:href="#ArialMT-71"/>
      <use x="394.580078" xlink:href="#ArialMT-114"/>
      <use x="427.880859" xlink:href="#ArialMT-101"/>
      <use x="483.496094" xlink:href="#ArialMT-101"/>
      <use x="539.111328" xlink:href="#ArialMT-110"/>
     </g>
    </g>
    <g id="line2d_25">
     <path d="M 85.228125 119.286719 
L 99.228125 119.286719 
" style="fill:none;stroke:#d94633;stroke-linecap:square;"/>
    </g>
    <g id="line2d_26"/>
    <g id="text_12">
     <!-- Const. Red -->
     <g transform="translate(104.828125 121.736719)scale(0.07 -0.07)">
      <defs>
       <path d="M 7.859375 0 
L 7.859375 71.578125 
L 39.59375 71.578125 
Q 49.171875 71.578125 54.140625 69.640625 
Q 59.125 67.71875 62.109375 62.828125 
Q 65.09375 57.953125 65.09375 52.046875 
Q 65.09375 44.4375 60.15625 39.203125 
Q 55.21875 33.984375 44.921875 32.5625 
Q 48.6875 30.765625 50.640625 29 
Q 54.78125 25.203125 58.5 19.484375 
L 70.953125 0 
L 59.03125 0 
L 49.5625 14.890625 
Q 45.40625 21.34375 42.71875 24.75 
Q 40.046875 28.171875 37.921875 29.53125 
Q 35.796875 30.90625 33.59375 31.453125 
Q 31.984375 31.78125 28.328125 31.78125 
L 17.328125 31.78125 
L 17.328125 0 
z
M 17.328125 39.984375 
L 37.703125 39.984375 
Q 44.1875 39.984375 47.84375 41.328125 
Q 51.515625 42.671875 53.421875 45.625 
Q 55.328125 48.578125 55.328125 52.046875 
Q 55.328125 57.125 51.640625 60.390625 
Q 47.953125 63.671875 39.984375 63.671875 
L 17.328125 63.671875 
z
" id="ArialMT-82"/>
      </defs>
      <use xlink:href="#ArialMT-67"/>
      <use x="72.216797" xlink:href="#ArialMT-111"/>
      <use x="127.832031" xlink:href="#ArialMT-110"/>
      <use x="183.447266" xlink:href="#ArialMT-115"/>
      <use x="233.447266" xlink:href="#ArialMT-116"/>
      <use x="261.230469" xlink:href="#ArialMT-46"/>
      <use x="289.013672" xlink:href="#ArialMT-32"/>
      <use x="316.796875" xlink:href="#ArialMT-82"/>
      <use x="389.013672" xlink:href="#ArialMT-101"/>
      <use x="444.628906" xlink:href="#ArialMT-100"/>
     </g>
    </g>
    <g id="line2d_27">
     <path d="M 153.843437 119.286719 
L 167.843437 119.286719 
" style="fill:none;stroke:#a06aaf;stroke-linecap:square;"/>
    </g>
    <g id="line2d_28"/>
    <g id="text_13">
     <!-- SP1 Tracking -->
     <g transform="translate(173.443437 121.736719)scale(0.07 -0.07)">
      <defs>
       <path d="M 6.640625 0 
L 6.640625 71.578125 
L 15.4375 71.578125 
L 15.4375 30.765625 
L 36.234375 51.859375 
L 47.609375 51.859375 
L 27.78125 32.625 
L 49.609375 0 
L 38.765625 0 
L 21.625 26.515625 
L 15.4375 20.5625 
L 15.4375 0 
z
" id="ArialMT-107"/>
       <path d="M 4.984375 -4.296875 
L 13.53125 -5.5625 
Q 14.0625 -9.515625 16.5 -11.328125 
Q 19.78125 -13.765625 25.4375 -13.765625 
Q 31.546875 -13.765625 34.859375 -11.328125 
Q 38.1875 -8.890625 39.359375 -4.5 
Q 40.046875 -1.8125 39.984375 6.78125 
Q 34.234375 0 25.640625 0 
Q 14.9375 0 9.078125 7.71875 
Q 3.21875 15.4375 3.21875 26.21875 
Q 3.21875 33.640625 5.90625 39.90625 
Q 8.59375 46.1875 13.6875 49.609375 
Q 18.796875 53.03125 25.6875 53.03125 
Q 34.859375 53.03125 40.828125 45.609375 
L 40.828125 51.859375 
L 48.921875 51.859375 
L 48.921875 7.03125 
Q 48.921875 -5.078125 46.453125 -10.125 
Q 44 -15.1875 38.640625 -18.109375 
Q 33.296875 -21.046875 25.484375 -21.046875 
Q 16.21875 -21.046875 10.5 -16.875 
Q 4.78125 -12.703125 4.984375 -4.296875 
z
M 12.25 26.859375 
Q 12.25 16.65625 16.296875 11.96875 
Q 20.359375 7.28125 26.46875 7.28125 
Q 32.515625 7.28125 36.609375 11.9375 
Q 40.71875 16.609375 40.71875 26.5625 
Q 40.71875 36.078125 36.5 40.90625 
Q 32.28125 45.75 26.3125 45.75 
Q 20.453125 45.75 16.34375 40.984375 
Q 12.25 36.234375 12.25 26.859375 
z
" id="ArialMT-103"/>
      </defs>
      <use xlink:href="#ArialMT-83"/>
      <use x="66.699219" xlink:href="#ArialMT-80"/>
      <use x="133.398438" xlink:href="#ArialMT-49"/>
      <use x="189.013672" xlink:href="#ArialMT-32"/>
      <use x="215.046875" xlink:href="#ArialMT-84"/>
      <use x="272.380859" xlink:href="#ArialMT-114"/>
      <use x="305.681641" xlink:href="#ArialMT-97"/>
      <use x="361.296875" xlink:href="#ArialMT-99"/>
      <use x="411.296875" xlink:href="#ArialMT-107"/>
      <use x="461.296875" xlink:href="#ArialMT-105"/>
      <use x="483.513672" xlink:href="#ArialMT-110"/>
      <use x="539.128906" xlink:href="#ArialMT-103"/>
     </g>
    </g>
    <g id="line2d_29">
     <path d="M 229.07375 119.286719 
L 243.07375 119.286719 
" style="fill:none;stroke:#f29935;stroke-linecap:square;"/>
    </g>
    <g id="line2d_30"/>
    <g id="text_14">
     <!-- SP2 Tracking -->
     <g transform="translate(248.67375 121.736719)scale(0.07 -0.07)">
      <use xlink:href="#ArialMT-83"/>
      <use x="66.699219" xlink:href="#ArialMT-80"/>
      <use x="133.398438" xlink:href="#ArialMT-50"/>
      <use x="189.013672" xlink:href="#ArialMT-32"/>
      <use x="215.046875" xlink:href="#ArialMT-84"/>
      <use x="272.380859" xlink:href="#ArialMT-114"/>
      <use x="305.681641" xlink:href="#ArialMT-97"/>
      <use x="361.296875" xlink:href="#ArialMT-99"/>
      <use x="411.296875" xlink:href="#ArialMT-107"/>
      <use x="461.296875" xlink:href="#ArialMT-105"/>
      <use x="483.513672" xlink:href="#ArialMT-110"/>
      <use x="539.128906" xlink:href="#ArialMT-103"/>
     </g>
    </g>
   </g>
  </g>
 </g>
 <defs>
  <clipPath id="pb010644464">
   <rect height="81.54" width="90" x="58.352031" y="7.2"/>
  </clipPath>
 </defs>
</svg>
